<svg xmlns="http://www.w3.org/2000/svg" width="25" height="24" viewBox="0 0 25 24" fill="none">
  <path d="M18.083 2.625H7.58301C7.08573 2.625 6.60881 2.82254 6.25718 3.17417C5.90555 3.52581 5.70801 4.00272 5.70801 4.5V21C5.70794 21.2009 5.76165 21.3981 5.86354 21.5711C5.96544 21.7442 6.11182 21.8869 6.28748 21.9843C6.46313 22.0817 6.66166 22.1302 6.86244 22.125C7.06322 22.1197 7.25894 22.0608 7.42926 21.9544L12.8321 18.5794L18.2368 21.9544C18.4071 22.0608 18.6028 22.1197 18.8036 22.125C19.0044 22.1302 19.2029 22.0817 19.3785 21.9843C19.5542 21.8869 19.7006 21.7442 19.8025 21.5711C19.9044 21.3981 19.9581 21.2009 19.958 21V4.5C19.958 4.00272 19.7605 3.52581 19.4088 3.17417C19.0572 2.82254 18.5803 2.625 18.083 2.625ZM17.708 18.9703L13.4283 16.2956C13.2495 16.1839 13.0429 16.1246 12.8321 16.1246C12.6212 16.1246 12.4146 16.1839 12.2358 16.2956L7.95801 18.9703V4.875H17.708V18.9703Z" fill="#FF5924"/>
</svg>