<svg width="25" height="24" viewBox="0 0 25 24" fill="none" xmlns="http://www.w3.org/2000/svg">
<g id="Frame" clip-path="url(#clip0_134_2687)">
<path id="Vector" d="M23.7189 6.49781C23.5338 6.40367 23.3263 6.3626 23.1193 6.37915C22.9123 6.3957 22.7139 6.46921 22.5461 6.59156L20.208 8.29031V6.75C20.208 6.25272 20.0105 5.77581 19.6588 5.42417C19.3072 5.07254 18.8303 4.875 18.333 4.875H3.33301C2.83573 4.875 2.35881 5.07254 2.00718 5.42417C1.65555 5.77581 1.45801 6.25272 1.45801 6.75V17.25C1.45801 17.7473 1.65555 18.2242 2.00718 18.5758C2.35881 18.9275 2.83573 19.125 3.33301 19.125H18.333C18.8303 19.125 19.3072 18.9275 19.6588 18.5758C20.0105 18.2242 20.208 17.7473 20.208 17.25V15.7097L22.5461 17.4103C22.714 17.5324 22.9124 17.6058 23.1193 17.6221C23.3263 17.6385 23.5337 17.5973 23.7187 17.503C23.9037 17.4088 24.0589 17.2652 24.1674 17.0882C24.2758 16.9112 24.3331 16.7076 24.333 16.5V7.5C24.333 7.29258 24.2756 7.0892 24.1673 6.91234C24.0589 6.73548 23.9037 6.59202 23.7189 6.49781ZM17.958 16.875H3.70801V7.125H17.958V16.875ZM22.083 14.2903L20.208 12.9272V11.0728L22.083 9.70969V14.2903Z" fill="#FF5924"/>
</g>
<defs>
<clipPath id="clip0_134_2687">
<rect width="24" height="24" fill="white" transform="translate(0.333008)"/>
</clipPath>
</defs>
</svg>
