<svg xmlns="http://www.w3.org/2000/svg" width="24" height="25" viewBox="0 0 24 25" fill="none">
  <path d="M16.6875 3.75024C14.8041 3.75024 13.1325 4.49368 12 5.77149C10.8675 4.49368 9.19594 3.75024 7.3125 3.75024C5.67208 3.75223 4.09942 4.40476 2.93947 5.56471C1.77952 6.72466 1.12698 8.29733 1.125 9.93774C1.125 16.7196 11.0447 22.1384 11.4666 22.3662C11.6305 22.4545 11.8138 22.5007 12 22.5007C12.1862 22.5007 12.3695 22.4545 12.5334 22.3662C12.9553 22.1384 22.875 16.7196 22.875 9.93774C22.873 8.29733 22.2205 6.72466 21.0605 5.56471C19.9006 4.40476 18.3279 3.75223 16.6875 3.75024ZM16.1728 17.0965C14.8671 18.2045 13.4714 19.2017 12 20.0777C10.5286 19.2017 9.13287 18.2045 7.82719 17.0965C5.79562 15.3537 3.375 12.6959 3.375 9.93774C3.375 8.89345 3.78984 7.89194 4.52827 7.15351C5.26669 6.41509 6.26821 6.00024 7.3125 6.00024C8.98125 6.00024 10.3781 6.88149 10.9584 8.30087C11.0429 8.50778 11.1871 8.68485 11.3726 8.80949C11.5581 8.93413 11.7765 9.0007 12 9.0007C12.2235 9.0007 12.4419 8.93413 12.6274 8.80949C12.8129 8.68485 12.9571 8.50778 13.0416 8.30087C13.6219 6.88149 15.0188 6.00024 16.6875 6.00024C17.7318 6.00024 18.7333 6.41509 19.4717 7.15351C20.2102 7.89194 20.625 8.89345 20.625 9.93774C20.625 12.6959 18.2044 15.3537 16.1728 17.0965Z" fill="#FF5924"/>
</svg>