<svg xmlns="http://www.w3.org/2000/svg" width="25" height="25" viewBox="0 0 25 25" fill="none">
  <path d="M13.4609 7.75027V11.6137L16.6644 13.5356C16.7939 13.6101 16.9073 13.7097 16.9979 13.8285C17.0886 13.9474 17.1546 14.0831 17.1922 14.2277C17.2298 14.3724 17.2382 14.523 17.2169 14.671C17.1956 14.8189 17.1451 14.9611 17.0682 15.0893C16.9914 15.2174 16.8897 15.329 16.7693 15.4175C16.6488 15.5059 16.512 15.5695 16.3667 15.6045C16.2214 15.6395 16.0706 15.6451 15.923 15.6212C15.7755 15.5972 15.6343 15.5441 15.5075 15.465L11.7575 13.215C11.5908 13.1151 11.4529 12.9737 11.3571 12.8046C11.2613 12.6356 11.211 12.4446 11.2109 12.2503V7.75027C11.2109 7.45191 11.3295 7.16576 11.5404 6.95478C11.7514 6.7438 12.0376 6.62527 12.3359 6.62527C12.6343 6.62527 12.9205 6.7438 13.1314 6.95478C13.3424 7.16576 13.4609 7.45191 13.4609 7.75027ZM12.3359 2.87528C11.1032 2.8721 9.88211 3.11359 8.74339 3.58575C7.60467 4.05791 6.57097 4.75135 5.70219 5.6259C5.2625 6.07028 4.85844 6.50434 4.46094 6.9384V6.25027C4.46094 5.95191 4.34241 5.66576 4.13143 5.45478C3.92045 5.2438 3.63431 5.12528 3.33594 5.12528C3.03757 5.12528 2.75142 5.2438 2.54044 5.45478C2.32946 5.66576 2.21094 5.95191 2.21094 6.25027V10.0003C2.21094 10.2986 2.32946 10.5848 2.54044 10.7958C2.75142 11.0067 3.03757 11.1253 3.33594 11.1253H7.08594C7.38431 11.1253 7.67045 11.0067 7.88143 10.7958C8.09241 10.5848 8.21094 10.2986 8.21094 10.0003C8.21094 9.70191 8.09241 9.41576 7.88143 9.20478C7.67045 8.9938 7.38431 8.87527 7.08594 8.87527H5.75188C6.24219 8.31277 6.74563 7.7709 7.29781 7.21215C8.28796 6.22171 9.54804 5.54504 10.9206 5.2667C12.2931 4.98835 13.7173 5.12068 15.015 5.64714C16.3128 6.17359 17.4267 7.07084 18.2174 8.22674C19.0081 9.38265 19.4406 10.746 19.4609 12.1463C19.4812 13.5466 19.0884 14.9219 18.3315 16.1002C17.5746 17.2786 16.4873 18.2077 15.2053 18.7716C13.9233 19.3354 12.5036 19.509 11.1236 19.2705C9.74354 19.0321 8.46438 18.3922 7.44594 17.4309C7.22887 17.226 6.93931 17.1158 6.64096 17.1244C6.3426 17.133 6.05988 17.2598 5.855 17.4768C5.65012 17.6939 5.53986 17.9835 5.54848 18.2818C5.55709 18.5802 5.68387 18.8629 5.90094 19.0678C7.01378 20.1182 8.36684 20.8803 9.84199 21.2874C11.3171 21.6945 12.8695 21.7344 14.3636 21.4034C15.8577 21.0725 17.2481 20.3808 18.4133 19.3888C19.5786 18.3968 20.4833 17.1347 21.0484 15.7126C21.6136 14.2905 21.822 12.7516 21.6555 11.2304C21.4891 9.70916 20.9527 8.25182 20.0934 6.9856C19.234 5.71937 18.0777 4.68277 16.7255 3.96629C15.3733 3.24981 13.8662 2.87524 12.3359 2.87528Z" fill="#FF5924"/>
</svg>