<svg xmlns="http://www.w3.org/2000/svg" width="25" height="25" viewBox="0 0 25 25" fill="none">
  <path d="M17.3545 3.875C15.4711 3.875 13.7995 4.61844 12.667 5.89625C11.5345 4.61844 9.86293 3.875 7.97949 3.875C6.33907 3.87698 4.76641 4.52952 3.60646 5.68947C2.44651 6.84942 1.79398 8.42208 1.79199 10.0625C1.79199 16.8444 11.7117 22.2631 12.1336 22.4909C12.2975 22.5792 12.4808 22.6254 12.667 22.6254C12.8532 22.6254 13.0365 22.5792 13.2004 22.4909C13.6223 22.2631 23.542 16.8444 23.542 10.0625C23.54 8.42208 22.8875 6.84942 21.7275 5.68947C20.5676 4.52952 18.9949 3.87698 17.3545 3.875ZM16.8398 17.2213C15.5341 18.3292 14.1384 19.3264 12.667 20.2025C11.1956 19.3264 9.79986 18.3292 8.49418 17.2213C6.46262 15.4784 4.04199 12.8206 4.04199 10.0625C4.04199 9.01821 4.45683 8.01669 5.19526 7.27827C5.93368 6.53984 6.9352 6.125 7.97949 6.125C9.64824 6.125 11.0451 7.00625 11.6254 8.42563C11.7099 8.63254 11.8541 8.80961 12.0396 8.93425C12.2251 9.05889 12.4435 9.12545 12.667 9.12545C12.8905 9.12545 13.1089 9.05889 13.2944 8.93425C13.4799 8.80961 13.6241 8.63254 13.7086 8.42563C14.2889 7.00625 15.6857 6.125 17.3545 6.125C18.3988 6.125 19.4003 6.53984 20.1387 7.27827C20.8771 8.01669 21.292 9.01821 21.292 10.0625C21.292 12.8206 18.8714 15.4784 16.8398 17.2213Z" fill="#8E8E93"/>
</svg>