<svg xmlns="http://www.w3.org/2000/svg" width="25" height="24" viewBox="0 0 25 24" fill="none">
  <path d="M13.4609 7.50003V11.3635L16.6644 13.2853C16.7939 13.3599 16.9073 13.4595 16.9979 13.5783C17.0886 13.6971 17.1546 13.8328 17.1922 13.9775C17.2298 14.1221 17.2382 14.2728 17.2169 14.4207C17.1956 14.5686 17.1451 14.7108 17.0682 14.839C16.9914 14.9672 16.8897 15.0788 16.7693 15.1672C16.6488 15.2557 16.512 15.3193 16.3667 15.3542C16.2214 15.3892 16.0706 15.3949 15.923 15.3709C15.7755 15.347 15.6343 15.2939 15.5075 15.2147L11.7575 12.9647C11.5908 12.8648 11.4529 12.7234 11.3571 12.5544C11.2613 12.3853 11.211 12.1943 11.2109 12V7.50003C11.2109 7.20166 11.3295 6.91551 11.5404 6.70454C11.7514 6.49356 12.0376 6.37503 12.3359 6.37503C12.6343 6.37503 12.9205 6.49356 13.1314 6.70454C13.3424 6.91551 13.4609 7.20166 13.4609 7.50003ZM12.3359 2.62503C11.1032 2.62186 9.88211 2.86335 8.74339 3.33551C7.60467 3.80767 6.57097 4.50111 5.70219 5.37566C5.2625 5.82003 4.85844 6.25409 4.46094 6.68816V6.00003C4.46094 5.70166 4.34241 5.41551 4.13143 5.20454C3.92045 4.99356 3.63431 4.87503 3.33594 4.87503C3.03757 4.87503 2.75142 4.99356 2.54044 5.20454C2.32946 5.41551 2.21094 5.70166 2.21094 6.00003V9.75003C2.21094 10.0484 2.32946 10.3345 2.54044 10.5455C2.75142 10.7565 3.03757 10.875 3.33594 10.875H7.08594C7.38431 10.875 7.67045 10.7565 7.88143 10.5455C8.09241 10.3345 8.21094 10.0484 8.21094 9.75003C8.21094 9.45166 8.09241 9.16551 7.88143 8.95454C7.67045 8.74356 7.38431 8.62503 7.08594 8.62503H5.75188C6.24219 8.06253 6.74563 7.52066 7.29781 6.96191C8.28796 5.97147 9.54804 5.2948 10.9206 5.01645C12.2931 4.73811 13.7173 4.87043 15.015 5.39689C16.3128 5.92335 17.4267 6.82059 18.2174 7.9765C19.0081 9.1324 19.4406 10.4957 19.4609 11.896C19.4812 13.2964 19.0884 14.6717 18.3315 15.85C17.5746 17.0283 16.4873 17.9575 15.2053 18.5213C13.9233 19.0852 12.5036 19.2587 11.1236 19.0203C9.74354 18.7818 8.46438 18.142 7.44594 17.1807C7.22887 16.9758 6.93931 16.8655 6.64096 16.8741C6.3426 16.8827 6.05988 17.0095 5.855 17.2266C5.65012 17.4437 5.53986 17.7332 5.54848 18.0316C5.55709 18.3299 5.68387 18.6127 5.90094 18.8175C7.01378 19.868 8.36684 20.63 9.84199 21.0372C11.3171 21.4443 12.8695 21.4841 14.3636 21.1532C15.8577 20.8222 17.2481 20.1306 18.4133 19.1386C19.5786 18.1466 20.4833 16.8844 21.0484 15.4623C21.6136 14.0402 21.822 12.5014 21.6555 10.9801C21.4891 9.45892 20.9527 8.00158 20.0934 6.73535C19.234 5.46913 18.0777 4.43253 16.7255 3.71604C15.3733 2.99956 13.8662 2.62499 12.3359 2.62503Z" fill="#8E8E93"/>
</svg>