<svg width="100" height="26" viewBox="0 0 100 26" fill="none" xmlns="http://www.w3.org/2000/svg">
<rect width="100" height="26" rx="6" fill="#FF5924" fill-opacity="0.11"/>
<path d="M11.8228 18.2637C10.8022 18.2637 9.9209 18.0391 9.17871 17.5898C8.43652 17.1406 7.86279 16.501 7.45752 15.6709C7.05713 14.8408 6.85693 13.8569 6.85693 12.7192V12.7046C6.85693 11.5767 7.05957 10.6001 7.46484 9.7749C7.87012 8.94482 8.44141 8.30273 9.17871 7.84863C9.9209 7.39453 10.7925 7.16748 11.7935 7.16748C12.6089 7.16748 13.3364 7.31396 13.9761 7.60693C14.6206 7.89502 15.1479 8.30029 15.5581 8.82275C15.9683 9.34033 16.2295 9.94336 16.3418 10.6318L16.3564 10.7051H14.4814L14.4595 10.6318C14.2886 10.0508 13.9712 9.60156 13.5073 9.28418C13.0435 8.96191 12.4722 8.80078 11.7935 8.80078C11.1782 8.80078 10.6436 8.95947 10.1895 9.27686C9.74023 9.59424 9.39355 10.0435 9.14941 10.6245C8.90527 11.2056 8.7832 11.894 8.7832 12.6899V12.7046C8.7832 13.5103 8.90771 14.2085 9.15674 14.7993C9.40576 15.3853 9.75977 15.8369 10.2188 16.1543C10.6777 16.4717 11.2222 16.6304 11.8521 16.6304C12.3892 16.6304 12.8604 16.5254 13.2656 16.3154C13.6758 16.1055 13.9956 15.8125 14.2251 15.4365C14.4595 15.0605 14.5815 14.6235 14.5913 14.1255V13.9058H12.0571V12.4629H16.437V13.7812C16.437 14.6943 16.2466 15.4854 15.8657 16.1543C15.4897 16.8232 14.9575 17.3433 14.269 17.7144C13.5806 18.0806 12.7651 18.2637 11.8228 18.2637ZM21.8789 18.1611C21.083 18.1611 20.3994 17.9927 19.8281 17.6558C19.2617 17.3188 18.8247 16.8403 18.5171 16.2202C18.2095 15.6001 18.0557 14.8652 18.0557 14.0156V14.0083C18.0557 13.1685 18.207 12.436 18.5098 11.811C18.8174 11.186 19.252 10.7026 19.8135 10.3608C20.375 10.0142 21.0342 9.84082 21.791 9.84082C22.5527 9.84082 23.207 10.0093 23.7539 10.3462C24.3057 10.6782 24.7305 11.1445 25.0283 11.7451C25.3262 12.3457 25.4751 13.0488 25.4751 13.8545V14.4551H18.9712V13.2319H24.5815L23.7173 14.3745V13.6494C23.7173 13.1172 23.6367 12.6753 23.4756 12.3237C23.3145 11.9722 23.0898 11.7085 22.8018 11.5327C22.5186 11.3569 22.189 11.269 21.813 11.269C21.437 11.269 21.1025 11.3618 20.8096 11.5474C20.5215 11.728 20.292 11.9966 20.1211 12.353C19.9551 12.7046 19.8721 13.1367 19.8721 13.6494V14.3818C19.8721 14.875 19.9551 15.2974 20.1211 15.6489C20.2871 15.9956 20.5215 16.2642 20.8242 16.4546C21.1318 16.6401 21.4956 16.7329 21.9155 16.7329C22.2427 16.7329 22.5234 16.6865 22.7578 16.5938C22.9971 16.4961 23.1899 16.3813 23.3364 16.2495C23.4829 16.1128 23.5854 15.9834 23.644 15.8613L23.666 15.8101H25.3945L25.3799 15.876C25.3164 16.1348 25.1992 16.3984 25.0283 16.667C24.8623 16.9307 24.6353 17.1772 24.3472 17.4067C24.064 17.6313 23.7173 17.8145 23.3071 17.9561C22.897 18.0928 22.4209 18.1611 21.8789 18.1611ZM30.4482 18.0366C29.5303 18.0366 28.8687 17.8682 28.4634 17.5312C28.0581 17.1943 27.8555 16.6426 27.8555 15.876V11.4082H26.6104V9.99463H27.8555V8.03174H29.7085V9.99463H31.3931V11.4082H29.7085V15.4438C29.7085 15.8394 29.7915 16.1299 29.9575 16.3154C30.1284 16.4961 30.4019 16.5864 30.7778 16.5864C30.9097 16.5864 31.0171 16.584 31.1001 16.5791C31.188 16.5693 31.2856 16.5596 31.3931 16.5498V17.9561C31.2661 17.9805 31.1196 18 30.9536 18.0146C30.7925 18.0293 30.624 18.0366 30.4482 18.0366ZM39.8013 18V9.2915H39.6694L37.04 11.1445V9.37207L39.8013 7.43115H41.6836V18H39.8013ZM48.4951 18.2637C47.6553 18.2637 46.9351 18.0391 46.3345 17.5898C45.7388 17.1406 45.2798 16.501 44.9575 15.6709C44.6353 14.8408 44.4741 13.8569 44.4741 12.7192V12.7046C44.4741 11.5669 44.6353 10.5854 44.9575 9.76025C45.2798 8.93018 45.7388 8.29053 46.3345 7.84131C46.9351 7.39209 47.6553 7.16748 48.4951 7.16748C49.335 7.16748 50.0552 7.39209 50.6558 7.84131C51.2563 8.29053 51.7178 8.93018 52.04 9.76025C52.3623 10.5854 52.5234 11.5669 52.5234 12.7046V12.7192C52.5234 13.8569 52.3623 14.8408 52.04 15.6709C51.7178 16.501 51.2563 17.1406 50.6558 17.5898C50.0552 18.0391 49.335 18.2637 48.4951 18.2637ZM48.4951 16.7329C48.9443 16.7329 49.3276 16.5718 49.645 16.2495C49.9624 15.9272 50.2041 15.4683 50.3701 14.8726C50.541 14.272 50.6265 13.5542 50.6265 12.7192V12.7046C50.6265 11.8696 50.541 11.1543 50.3701 10.5586C50.2041 9.95801 49.9624 9.49902 49.645 9.18164C49.3276 8.85938 48.9443 8.69824 48.4951 8.69824C48.0459 8.69824 47.6626 8.85938 47.3452 9.18164C47.0327 9.49902 46.791 9.95801 46.6201 10.5586C46.4541 11.1543 46.3711 11.8696 46.3711 12.7046V12.7192C46.3711 13.5542 46.4541 14.272 46.6201 14.8726C46.791 15.4683 47.0327 15.9272 47.3452 16.2495C47.6626 16.5718 48.0459 16.7329 48.4951 16.7329ZM56.8228 13.1367C56.0854 13.1367 55.5044 12.8755 55.0796 12.353C54.6597 11.8257 54.4497 11.1104 54.4497 10.207V10.1997C54.4497 9.30127 54.6597 8.59082 55.0796 8.06836C55.5044 7.5459 56.0854 7.28467 56.8228 7.28467C57.5601 7.28467 58.1387 7.5459 58.5586 8.06836C58.9834 8.59082 59.1958 9.30127 59.1958 10.1997V10.207C59.1958 11.1104 58.9834 11.8257 58.5586 12.353C58.1387 12.8755 57.5601 13.1367 56.8228 13.1367ZM56.8228 12.0747C57.1548 12.0747 57.4136 11.9136 57.5991 11.5913C57.7847 11.2642 57.8774 10.8027 57.8774 10.207V10.1997C57.8774 9.60889 57.7847 9.15234 57.5991 8.83008C57.4136 8.50781 57.1548 8.34668 56.8228 8.34668C56.4858 8.34668 56.2246 8.50781 56.0391 8.83008C55.8584 9.15234 55.7681 9.60889 55.7681 10.1997V10.207C55.7681 10.8027 55.8584 11.2642 56.0391 11.5913C56.2246 11.9136 56.4858 12.0747 56.8228 12.0747ZM58.1411 18H56.6323L63.7734 7.43115H65.2822L58.1411 18ZM65.0845 18.1465C64.3472 18.1465 63.7661 17.8853 63.3413 17.3628C62.9214 16.8354 62.7114 16.1226 62.7114 15.2241V15.2168C62.7114 14.3135 62.9214 13.6006 63.3413 13.0781C63.7661 12.5557 64.3472 12.2944 65.0845 12.2944C65.8218 12.2944 66.4028 12.5557 66.8276 13.0781C67.2524 13.6006 67.4648 14.3135 67.4648 15.2168V15.2241C67.4648 16.1226 67.2524 16.8354 66.8276 17.3628C66.4028 17.8853 65.8218 18.1465 65.0845 18.1465ZM65.0845 17.0845C65.4214 17.0845 65.6802 16.9233 65.8608 16.6011C66.0464 16.2739 66.1392 15.8149 66.1392 15.2241V15.2168C66.1392 14.6211 66.0464 14.1621 65.8608 13.8398C65.6802 13.5176 65.4214 13.3564 65.0845 13.3564C64.7524 13.3564 64.4937 13.5176 64.3081 13.8398C64.1274 14.1621 64.0371 14.6211 64.0371 15.2168V15.2241C64.0371 15.8149 64.1274 16.2739 64.3081 16.6011C64.4937 16.9233 64.7524 17.0845 65.0845 17.0845ZM76.9863 18.1611C76.1904 18.1611 75.5044 17.9951 74.9282 17.6631C74.3521 17.3262 73.9077 16.8477 73.5952 16.2275C73.2876 15.6074 73.1338 14.8652 73.1338 14.001V13.9863C73.1338 13.1318 73.29 12.3945 73.6025 11.7744C73.915 11.1494 74.3569 10.6709 74.9282 10.3389C75.5044 10.0068 76.1904 9.84082 76.9863 9.84082C77.7822 9.84082 78.4658 10.0068 79.0371 10.3389C79.6133 10.6709 80.0576 11.147 80.3701 11.7671C80.6826 12.3872 80.8389 13.127 80.8389 13.9863V14.001C80.8389 14.8652 80.6826 15.6074 80.3701 16.2275C80.0625 16.8477 79.6206 17.3262 79.0444 17.6631C78.4731 17.9951 77.7871 18.1611 76.9863 18.1611ZM76.9863 16.6816C77.4062 16.6816 77.7627 16.5767 78.0557 16.3667C78.3535 16.1519 78.5806 15.8467 78.7368 15.4512C78.8931 15.0508 78.9712 14.5698 78.9712 14.0083V13.9937C78.9712 13.4272 78.8931 12.9463 78.7368 12.5508C78.5806 12.1504 78.3535 11.8452 78.0557 11.6353C77.7627 11.4204 77.4062 11.313 76.9863 11.313C76.5664 11.313 76.2075 11.4204 75.9097 11.6353C75.6118 11.8452 75.3848 12.1504 75.2285 12.5508C75.0723 12.9463 74.9941 13.4272 74.9941 13.9937V14.0083C74.9941 14.5698 75.0723 15.0508 75.2285 15.4512C75.3848 15.8516 75.6094 16.1567 75.9023 16.3667C76.2002 16.5767 76.5615 16.6816 76.9863 16.6816ZM83.2559 18V11.4082H81.9448V9.99463H83.2559V9.20361C83.2559 8.40771 83.4658 7.81201 83.8857 7.4165C84.3057 7.021 84.96 6.82324 85.8486 6.82324C86.0439 6.82324 86.2246 6.83057 86.3906 6.84521C86.5566 6.85498 86.7104 6.87207 86.8521 6.89648V8.1709C86.7837 8.16113 86.6958 8.15381 86.5884 8.14893C86.481 8.13916 86.3638 8.13428 86.2368 8.13428C85.8071 8.13428 85.502 8.23438 85.3213 8.43457C85.1406 8.62988 85.0503 8.92041 85.0503 9.30615V9.99463H86.7861V11.4082H85.0796V18H83.2559ZM89.1738 18V11.4082H87.8628V9.99463H89.1738V9.20361C89.1738 8.40771 89.3838 7.81201 89.8037 7.4165C90.2236 7.021 90.8779 6.82324 91.7666 6.82324C91.9619 6.82324 92.1426 6.83057 92.3086 6.84521C92.4746 6.85498 92.6284 6.87207 92.77 6.89648V8.1709C92.7017 8.16113 92.6138 8.15381 92.5063 8.14893C92.3989 8.13916 92.2817 8.13428 92.1548 8.13428C91.7251 8.13428 91.4199 8.23438 91.2393 8.43457C91.0586 8.62988 90.9683 8.92041 90.9683 9.30615V9.99463H92.7041V11.4082H90.9976V18H89.1738Z" fill="#FF5924"/>
</svg>
