<svg width="768" height="64" viewBox="0 0 768 64" fill="none" xmlns="http://www.w3.org/2000/svg">
<mask id="path-1-inside-1_436_2091" fill="white">
<path d="M0 0H768V64H0V0Z"/>
</mask>
<path d="M768 63H0V65H768V63Z" fill="#EAEAEA" mask="url(#path-1-inside-1_436_2091)"/>
<rect x="24" y="16" width="32" height="32" rx="16" fill="#FF5924"/>
<path d="M40 25C38.5418 25.0017 37.1438 25.5816 36.1127 26.6127C35.0816 27.6438 34.5017 29.0418 34.5 30.5C34.5 35.2063 39.5 38.7606 39.7131 38.9094C39.7972 38.9683 39.8974 38.9999 40 38.9999C40.1026 38.9999 40.2028 38.9683 40.2869 38.9094C40.5 38.7606 45.5 35.2063 45.5 30.5C45.4983 29.0418 44.9184 27.6438 43.8873 26.6127C42.8562 25.5816 41.4582 25.0017 40 25ZM40 28.5C40.3956 28.5 40.7822 28.6173 41.1111 28.8371C41.44 29.0568 41.6964 29.3692 41.8478 29.7346C41.9991 30.1001 42.0387 30.5022 41.9616 30.8902C41.8844 31.2781 41.6939 31.6345 41.4142 31.9142C41.1345 32.1939 40.7781 32.3844 40.3902 32.4616C40.0022 32.5387 39.6001 32.4991 39.2346 32.3478C38.8692 32.1964 38.5568 31.94 38.3371 31.6111C38.1173 31.2822 38 30.8956 38 30.5C38 29.9696 38.2107 29.4609 38.5858 29.0858C38.9609 28.7107 39.4696 28.5 40 28.5Z" fill="white"/>
<path d="M64.8887 38L69.3047 26.022H70.7822L75.1982 38H73.6294L72.4258 34.5718H67.6611L66.4575 38H64.8887ZM69.9771 27.9561L68.1011 33.3018H71.9858L70.1099 27.9561H69.9771ZM79.9214 38.1577C77.6553 38.1577 76.1694 36.3232 76.1694 33.5342V33.5176C76.1694 30.7119 77.647 28.894 79.9214 28.894C81.1499 28.894 82.2207 29.5083 82.7104 30.4629H82.8433V25.499H84.2876V38H82.8433V36.5723H82.7104C82.1626 37.5684 81.1665 38.1577 79.9214 38.1577ZM80.2534 36.8794C81.8804 36.8794 82.8765 35.6011 82.8765 33.5342V33.5176C82.8765 31.4507 81.8804 30.1724 80.2534 30.1724C78.6182 30.1724 77.647 31.4341 77.647 33.5176V33.5342C77.647 35.6177 78.6182 36.8794 80.2534 36.8794ZM90.3638 38.1577C88.0977 38.1577 86.6118 36.3232 86.6118 33.5342V33.5176C86.6118 30.7119 88.0894 28.894 90.3638 28.894C91.5923 28.894 92.6631 29.5083 93.1528 30.4629H93.2856V25.499H94.73V38H93.2856V36.5723H93.1528C92.605 37.5684 91.6089 38.1577 90.3638 38.1577ZM90.6958 36.8794C92.3228 36.8794 93.3188 35.6011 93.3188 33.5342V33.5176C93.3188 31.4507 92.3228 30.1724 90.6958 30.1724C89.0605 30.1724 88.0894 31.4341 88.0894 33.5176V33.5342C88.0894 35.6177 89.0605 36.8794 90.6958 36.8794ZM104.741 38.1577C103.039 38.1577 101.752 37.1284 101.752 35.5015V35.4849C101.752 33.8911 102.931 32.9697 105.015 32.8452L107.58 32.6875V31.874C107.58 30.77 106.907 30.1724 105.571 30.1724C104.5 30.1724 103.794 30.5708 103.562 31.2681L103.554 31.293H102.109L102.118 31.2432C102.35 29.8403 103.711 28.894 105.621 28.894C107.804 28.894 109.024 30.0146 109.024 31.874V38H107.58V36.6802H107.447C106.882 37.6348 105.944 38.1577 104.741 38.1577ZM103.23 35.4683C103.23 36.373 104.002 36.9043 105.04 36.9043C106.509 36.9043 107.58 35.9414 107.58 34.6631V33.8496L105.189 33.999C103.828 34.082 103.23 34.5635 103.23 35.4517V35.4683ZM116.528 38V25.499H117.972V38H116.528ZM124.422 38.1577C121.874 38.1577 120.296 36.3979 120.296 33.5342V33.5176C120.296 30.6455 121.874 28.894 124.422 28.894C126.97 28.894 128.547 30.6455 128.547 33.5176V33.5342C128.547 36.3979 126.97 38.1577 124.422 38.1577ZM124.422 36.8794C126.115 36.8794 127.07 35.6426 127.07 33.5342V33.5176C127.07 31.4009 126.115 30.1724 124.422 30.1724C122.729 30.1724 121.774 31.4009 121.774 33.5176V33.5342C121.774 35.6426 122.729 36.8794 124.422 36.8794ZM134.449 38.1577C131.942 38.1577 130.34 36.3398 130.34 33.501V33.4844C130.34 30.7036 131.934 28.894 134.441 28.894C136.616 28.894 137.919 30.1475 138.185 31.7412L138.193 31.791H136.757L136.749 31.7661C136.524 30.8862 135.728 30.1724 134.441 30.1724C132.831 30.1724 131.818 31.4673 131.818 33.4844V33.501C131.818 35.5596 132.847 36.8794 134.441 36.8794C135.645 36.8794 136.408 36.3481 136.74 35.3521L136.757 35.3022L138.185 35.2939L138.168 35.3853C137.803 37.0039 136.599 38.1577 134.449 38.1577ZM142.758 38.1577C141.057 38.1577 139.77 37.1284 139.77 35.5015V35.4849C139.77 33.8911 140.949 32.9697 143.032 32.8452L145.597 32.6875V31.874C145.597 30.77 144.925 30.1724 143.588 30.1724C142.518 30.1724 141.812 30.5708 141.58 31.2681L141.571 31.293H140.127L140.135 31.2432C140.368 29.8403 141.729 28.894 143.638 28.894C145.821 28.894 147.042 30.0146 147.042 31.874V38H145.597V36.6802H145.464C144.9 37.6348 143.962 38.1577 142.758 38.1577ZM141.248 35.4683C141.248 36.373 142.02 36.9043 143.057 36.9043C144.526 36.9043 145.597 35.9414 145.597 34.6631V33.8496L143.207 33.999C141.845 34.082 141.248 34.5635 141.248 35.4517V35.4683ZM152.86 38.0664C151.018 38.0664 150.246 37.3857 150.246 35.6758V30.2471H148.834V29.0518H150.246V26.7358H151.74V29.0518H153.699V30.2471H151.74V35.3105C151.74 36.3647 152.105 36.7881 153.035 36.7881C153.292 36.7881 153.433 36.7798 153.699 36.7549V37.9834C153.417 38.0332 153.143 38.0664 152.86 38.0664ZM156.621 27.3252C156.073 27.3252 155.625 26.877 155.625 26.3291C155.625 25.7812 156.073 25.333 156.621 25.333C157.168 25.333 157.617 25.7812 157.617 26.3291C157.617 26.877 157.168 27.3252 156.621 27.3252ZM155.89 38V29.0518H157.334V38H155.89ZM163.734 38.1577C161.186 38.1577 159.609 36.3979 159.609 33.5342V33.5176C159.609 30.6455 161.186 28.894 163.734 28.894C166.283 28.894 167.86 30.6455 167.86 33.5176V33.5342C167.86 36.3979 166.283 38.1577 163.734 38.1577ZM163.734 36.8794C165.428 36.8794 166.382 35.6426 166.382 33.5342V33.5176C166.382 31.4009 165.428 30.1724 163.734 30.1724C162.041 30.1724 161.086 31.4009 161.086 33.5176V33.5342C161.086 35.6426 162.041 36.8794 163.734 36.8794ZM170.101 38V29.0518H171.545V30.3965H171.678C172.126 29.4502 172.965 28.894 174.285 28.894C176.293 28.894 177.414 30.0811 177.414 32.2061V38H175.97V32.5547C175.97 30.9443 175.306 30.1724 173.878 30.1724C172.45 30.1724 171.545 31.1353 171.545 32.7041V38H170.101Z" fill="black"/>
</svg>
