<svg width="721" height="122" viewBox="0 0 721 122" fill="none" xmlns="http://www.w3.org/2000/svg">
<path d="M2.01953 19.8262V7.84814H3.51367V19.8262H2.01953ZM13.6987 19.8262L10.3867 10.8779H11.9141L14.3628 18.249H14.4956L16.9443 10.8779H18.4717L15.1597 19.8262H13.6987ZM21.1445 9.15137C20.5967 9.15137 20.1484 8.70312 20.1484 8.15527C20.1484 7.60742 20.5967 7.15918 21.1445 7.15918C21.6924 7.15918 22.1406 7.60742 22.1406 8.15527C22.1406 8.70312 21.6924 9.15137 21.1445 9.15137ZM20.4141 19.8262V10.8779H21.8584V19.8262H20.4141ZM27.6523 19.9839C25.6602 19.9839 24.2905 19.021 24.1245 17.5435H25.6021C25.8428 18.2905 26.5566 18.7803 27.7021 18.7803C28.9058 18.7803 29.7607 18.2075 29.7607 17.394V17.3774C29.7607 16.7715 29.3042 16.3481 28.2002 16.0825L26.814 15.7505C25.1372 15.3521 24.3818 14.6216 24.3818 13.335V13.3267C24.3818 11.8408 25.8096 10.7202 27.7104 10.7202C29.5864 10.7202 30.8896 11.6582 31.0889 13.1191H29.6694C29.4785 12.4136 28.7812 11.9238 27.7021 11.9238C26.6396 11.9238 25.8594 12.4717 25.8594 13.2603V13.2769C25.8594 13.8828 26.3076 14.2646 27.3618 14.522L28.7397 14.854C30.4248 15.2607 31.2383 15.9912 31.2383 17.2695V17.2861C31.2383 18.8799 29.686 19.9839 27.6523 19.9839ZM34.2432 9.15137C33.6953 9.15137 33.2471 8.70312 33.2471 8.15527C33.2471 7.60742 33.6953 7.15918 34.2432 7.15918C34.791 7.15918 35.2393 7.60742 35.2393 8.15527C35.2393 8.70312 34.791 9.15137 34.2432 9.15137ZM33.5127 19.8262V10.8779H34.957V19.8262H33.5127ZM40.8589 19.8926C39.0161 19.8926 38.2441 19.2119 38.2441 17.502V12.0732H36.833V10.8779H38.2441V8.56201H39.7383V10.8779H41.6973V12.0732H39.7383V17.1367C39.7383 18.1909 40.1035 18.6143 41.0332 18.6143C41.2905 18.6143 41.4316 18.606 41.6973 18.5811V19.8096C41.415 19.8594 41.1411 19.8926 40.8589 19.8926ZM47.375 19.9839C44.8184 19.9839 43.2744 18.1909 43.2744 15.3853V15.377C43.2744 12.6128 44.8516 10.7202 47.2837 10.7202C49.7158 10.7202 51.1934 12.5298 51.1934 15.2026V15.7671H44.752C44.7935 17.6182 45.8145 18.6973 47.4082 18.6973C48.6201 18.6973 49.3672 18.1245 49.6079 17.585L49.6411 17.5103H51.0854L51.0688 17.5767C50.7617 18.7886 49.4834 19.9839 47.375 19.9839ZM47.2754 12.0068C45.9473 12.0068 44.9346 12.9116 44.7769 14.6133H49.7241C49.5747 12.8452 48.5952 12.0068 47.2754 12.0068ZM56.7383 19.9839C54.4722 19.9839 52.9863 18.1494 52.9863 15.3604V15.3438C52.9863 12.5381 54.4639 10.7202 56.7383 10.7202C57.9668 10.7202 59.0376 11.3345 59.5273 12.2891H59.6602V7.3252H61.1045V19.8262H59.6602V18.3984H59.5273C58.9795 19.3945 57.9834 19.9839 56.7383 19.9839ZM57.0703 18.7056C58.6973 18.7056 59.6934 17.4272 59.6934 15.3604V15.3438C59.6934 13.2769 58.6973 11.9985 57.0703 11.9985C55.4351 11.9985 54.4639 13.2603 54.4639 15.3438V15.3604C54.4639 17.4438 55.4351 18.7056 57.0703 18.7056ZM71.4058 20.1084C69.3306 20.1084 68.1602 18.8218 68.0356 17.1035L68.0273 16.9873H69.5215L69.5298 17.0703C69.6211 17.9751 70.2104 18.7305 71.3975 18.7305C72.7256 18.7305 73.4395 17.9419 73.4395 16.481V7.84814H74.9336V16.4976C74.9336 18.7637 73.6221 20.1084 71.4058 20.1084ZM80.2627 19.9839C78.561 19.9839 77.2744 18.9546 77.2744 17.3276V17.311C77.2744 15.7173 78.4531 14.7959 80.5366 14.6714L83.1016 14.5137V13.7002C83.1016 12.5962 82.4292 11.9985 81.0928 11.9985C80.022 11.9985 79.3164 12.397 79.084 13.0942L79.0757 13.1191H77.6313L77.6396 13.0693C77.8721 11.6665 79.2334 10.7202 81.1426 10.7202C83.3257 10.7202 84.5459 11.8408 84.5459 13.7002V19.8262H83.1016V18.5063H82.9688C82.4043 19.4609 81.4663 19.9839 80.2627 19.9839ZM78.752 17.2944C78.752 18.1992 79.5239 18.7305 80.5615 18.7305C82.0308 18.7305 83.1016 17.7676 83.1016 16.4893V15.6758L80.7109 15.8252C79.3496 15.9082 78.752 16.3896 78.752 17.2778V17.2944ZM87.1855 19.8262V10.8779H88.6299V12.2227H88.7627C89.2109 11.2764 90.0493 10.7202 91.3691 10.7202C93.3779 10.7202 94.4985 11.9072 94.4985 14.0322V19.8262H93.0542V14.3809C93.0542 12.7705 92.3901 11.9985 90.9624 11.9985C89.5347 11.9985 88.6299 12.9614 88.6299 14.5303V19.8262H87.1855ZM100.799 22.9805C98.6406 22.9805 97.2627 22.0093 97.0386 20.54L97.0552 20.5317H98.5493L98.5576 20.54C98.7153 21.2207 99.5122 21.7021 100.799 21.7021C102.401 21.7021 103.355 20.9468 103.355 19.627V17.8174H103.223C102.658 18.8052 101.646 19.3613 100.417 19.3613C98.1011 19.3613 96.665 17.5684 96.665 15.0615V15.0449C96.665 12.5381 98.1094 10.7202 100.45 10.7202C101.712 10.7202 102.691 11.3428 103.239 12.3555H103.339V10.8779H104.783V19.7017C104.783 21.7021 103.239 22.9805 100.799 22.9805ZM100.732 18.083C102.393 18.083 103.389 16.8379 103.389 15.0615V15.0449C103.389 13.2686 102.384 11.9985 100.732 11.9985C99.0723 11.9985 98.1426 13.2686 98.1426 15.0449V15.0615C98.1426 16.8379 99.0723 18.083 100.732 18.083ZM109.199 19.8262L106.692 10.8779H108.137L109.896 18.0332H110.029L112.03 10.8779H113.399L115.4 18.0332H115.533L117.292 10.8779H118.729L116.222 19.8262H114.769L112.769 12.9033H112.636L110.644 19.8262H109.199ZM123.983 19.9839C121.435 19.9839 119.857 18.2241 119.857 15.3604V15.3438C119.857 12.4717 121.435 10.7202 123.983 10.7202C126.531 10.7202 128.108 12.4717 128.108 15.3438V15.3604C128.108 18.2241 126.531 19.9839 123.983 19.9839ZM123.983 18.7056C125.676 18.7056 126.631 17.4688 126.631 15.3604V15.3438C126.631 13.2271 125.676 11.9985 123.983 11.9985C122.29 11.9985 121.335 13.2271 121.335 15.3438V15.3604C121.335 17.4688 122.29 18.7056 123.983 18.7056ZM130.35 19.8262V10.8779H131.794V12.2227H131.927C132.375 11.2764 133.213 10.7202 134.533 10.7202C136.542 10.7202 137.663 11.9072 137.663 14.0322V19.8262H136.218V14.3809C136.218 12.7705 135.554 11.9985 134.126 11.9985C132.699 11.9985 131.794 12.9614 131.794 14.5303V19.8262H130.35ZM139.912 22.8726L140.634 18.1494H142.286L140.983 22.8726H139.912ZM152.562 19.9839C150.861 19.9839 149.574 18.9546 149.574 17.3276V17.311C149.574 15.7173 150.753 14.7959 152.836 14.6714L155.401 14.5137V13.7002C155.401 12.5962 154.729 11.9985 153.393 11.9985C152.322 11.9985 151.616 12.397 151.384 13.0942L151.375 13.1191H149.931L149.939 13.0693C150.172 11.6665 151.533 10.7202 153.442 10.7202C155.625 10.7202 156.846 11.8408 156.846 13.7002V19.8262H155.401V18.5063H155.269C154.704 19.4609 153.766 19.9839 152.562 19.9839ZM151.052 17.2944C151.052 18.1992 151.824 18.7305 152.861 18.7305C154.331 18.7305 155.401 17.7676 155.401 16.4893V15.6758L153.011 15.8252C151.649 15.9082 151.052 16.3896 151.052 17.2778V17.2944ZM164.449 19.8262V7.84814H165.943V13.667H166.076L171.322 7.84814H173.198L168.409 13.0195L173.638 19.8262H171.704L167.379 14.0571L165.943 15.6426V19.8262H164.449ZM178.486 19.9839C175.938 19.9839 174.36 18.2241 174.36 15.3604V15.3438C174.36 12.4717 175.938 10.7202 178.486 10.7202C181.034 10.7202 182.611 12.4717 182.611 15.3438V15.3604C182.611 18.2241 181.034 19.9839 178.486 19.9839ZM178.486 18.7056C180.179 18.7056 181.134 17.4688 181.134 15.3604V15.3438C181.134 13.2271 180.179 11.9985 178.486 11.9985C176.792 11.9985 175.838 13.2271 175.838 15.3438V15.3604C175.838 17.4688 176.792 18.7056 178.486 18.7056ZM184.853 19.8262V10.8779H186.297V12.2061H186.43C186.77 11.2681 187.608 10.7202 188.82 10.7202C189.094 10.7202 189.401 10.7534 189.542 10.7783V12.1812C189.244 12.1313 188.97 12.0981 188.654 12.0981C187.276 12.0981 186.297 12.9697 186.297 14.2812V19.8262H184.853ZM194.73 19.9839C192.174 19.9839 190.63 18.1909 190.63 15.3853V15.377C190.63 12.6128 192.207 10.7202 194.639 10.7202C197.071 10.7202 198.549 12.5298 198.549 15.2026V15.7671H192.107C192.149 17.6182 193.17 18.6973 194.764 18.6973C195.976 18.6973 196.723 18.1245 196.963 17.585L196.997 17.5103H198.441L198.424 17.5767C198.117 18.7886 196.839 19.9839 194.73 19.9839ZM194.631 12.0068C193.303 12.0068 192.29 12.9116 192.132 14.6133H197.08C196.93 12.8452 195.951 12.0068 194.631 12.0068ZM203.247 19.9839C201.545 19.9839 200.259 18.9546 200.259 17.3276V17.311C200.259 15.7173 201.438 14.7959 203.521 14.6714L206.086 14.5137V13.7002C206.086 12.5962 205.414 11.9985 204.077 11.9985C203.006 11.9985 202.301 12.397 202.068 13.0942L202.06 13.1191H200.616L200.624 13.0693C200.856 11.6665 202.218 10.7202 204.127 10.7202C206.31 10.7202 207.53 11.8408 207.53 13.7002V19.8262H206.086V18.5063H205.953C205.389 19.4609 204.451 19.9839 203.247 19.9839ZM201.736 17.2944C201.736 18.1992 202.508 18.7305 203.546 18.7305C205.015 18.7305 206.086 17.7676 206.086 16.4893V15.6758L203.695 15.8252C202.334 15.9082 201.736 16.3896 201.736 17.2778V17.2944ZM210.17 19.8262V10.8779H211.614V12.2227H211.747C212.195 11.2764 213.034 10.7202 214.354 10.7202C216.362 10.7202 217.483 11.9072 217.483 14.0322V19.8262H216.039V14.3809C216.039 12.7705 215.375 11.9985 213.947 11.9985C212.519 11.9985 211.614 12.9614 211.614 14.5303V19.8262H210.17ZM224.879 19.8262V10.8779H226.323V12.2061H226.456C226.796 11.2681 227.635 10.7202 228.847 10.7202C229.121 10.7202 229.428 10.7534 229.569 10.7783V12.1812C229.27 12.1313 228.996 12.0981 228.681 12.0981C227.303 12.0981 226.323 12.9697 226.323 14.2812V19.8262H224.879ZM234.757 19.9839C232.2 19.9839 230.656 18.1909 230.656 15.3853V15.377C230.656 12.6128 232.233 10.7202 234.666 10.7202C237.098 10.7202 238.575 12.5298 238.575 15.2026V15.7671H232.134C232.175 17.6182 233.196 18.6973 234.79 18.6973C236.002 18.6973 236.749 18.1245 236.99 17.585L237.023 17.5103H238.467L238.451 17.5767C238.144 18.7886 236.865 19.9839 234.757 19.9839ZM234.657 12.0068C233.329 12.0068 232.316 12.9116 232.159 14.6133H237.106C236.957 12.8452 235.977 12.0068 234.657 12.0068ZM243.888 19.9839C241.896 19.9839 240.526 19.021 240.36 17.5435H241.837C242.078 18.2905 242.792 18.7803 243.938 18.7803C245.141 18.7803 245.996 18.2075 245.996 17.394V17.3774C245.996 16.7715 245.54 16.3481 244.436 16.0825L243.049 15.7505C241.373 15.3521 240.617 14.6216 240.617 13.335V13.3267C240.617 11.8408 242.045 10.7202 243.946 10.7202C245.822 10.7202 247.125 11.6582 247.324 13.1191H245.905C245.714 12.4136 245.017 11.9238 243.938 11.9238C242.875 11.9238 242.095 12.4717 242.095 13.2603V13.2769C242.095 13.8828 242.543 14.2646 243.597 14.522L244.975 14.854C246.66 15.2607 247.474 15.9912 247.474 17.2695V17.2861C247.474 18.8799 245.921 19.9839 243.888 19.9839ZM252.811 19.8926C250.968 19.8926 250.196 19.2119 250.196 17.502V12.0732H248.785V10.8779H250.196V8.56201H251.69V10.8779H253.649V12.0732H251.69V17.1367C251.69 18.1909 252.056 18.6143 252.985 18.6143C253.243 18.6143 253.384 18.606 253.649 18.5811V19.8096C253.367 19.8594 253.093 19.8926 252.811 19.8926ZM258.265 19.9839C256.563 19.9839 255.276 18.9546 255.276 17.3276V17.311C255.276 15.7173 256.455 14.7959 258.539 14.6714L261.104 14.5137V13.7002C261.104 12.5962 260.431 11.9985 259.095 11.9985C258.024 11.9985 257.318 12.397 257.086 13.0942L257.078 13.1191H255.633L255.642 13.0693C255.874 11.6665 257.235 10.7202 259.145 10.7202C261.328 10.7202 262.548 11.8408 262.548 13.7002V19.8262H261.104V18.5063H260.971C260.406 19.4609 259.468 19.9839 258.265 19.9839ZM256.754 17.2944C256.754 18.1992 257.526 18.7305 258.563 18.7305C260.033 18.7305 261.104 17.7676 261.104 16.4893V15.6758L258.713 15.8252C257.352 15.9082 256.754 16.3896 256.754 17.2778V17.2944ZM268.184 19.9839C266.15 19.9839 265.104 18.7886 265.104 16.6719V10.8779H266.549V16.3232C266.549 17.9336 267.13 18.7056 268.558 18.7056C270.135 18.7056 270.973 17.7427 270.973 16.1738V10.8779H272.417V19.8262H270.973V18.4897H270.84C270.4 19.4443 269.496 19.9839 268.184 19.9839ZM275.115 19.8262V10.8779H276.56V12.2061H276.692C277.033 11.2681 277.871 10.7202 279.083 10.7202C279.357 10.7202 279.664 10.7534 279.805 10.7783V12.1812C279.506 12.1313 279.232 12.0981 278.917 12.0981C277.539 12.0981 276.56 12.9697 276.56 14.2812V19.8262H275.115ZM284.047 19.9839C282.345 19.9839 281.059 18.9546 281.059 17.3276V17.311C281.059 15.7173 282.237 14.7959 284.321 14.6714L286.886 14.5137V13.7002C286.886 12.5962 286.213 11.9985 284.877 11.9985C283.806 11.9985 283.101 12.397 282.868 13.0942L282.86 13.1191H281.416L281.424 13.0693C281.656 11.6665 283.018 10.7202 284.927 10.7202C287.11 10.7202 288.33 11.8408 288.33 13.7002V19.8262H286.886V18.5063H286.753C286.188 19.4609 285.25 19.9839 284.047 19.9839ZM282.536 17.2944C282.536 18.1992 283.308 18.7305 284.346 18.7305C285.815 18.7305 286.886 17.7676 286.886 16.4893V15.6758L284.495 15.8252C283.134 15.9082 282.536 16.3896 282.536 17.2778V17.2944ZM290.97 19.8262V10.8779H292.414V12.2227H292.547C292.995 11.2764 293.833 10.7202 295.153 10.7202C297.162 10.7202 298.283 11.9072 298.283 14.0322V19.8262H296.838V14.3809C296.838 12.7705 296.174 11.9985 294.747 11.9985C293.319 11.9985 292.414 12.9614 292.414 14.5303V19.8262H290.97ZM304.077 19.8926C302.234 19.8926 301.462 19.2119 301.462 17.502V12.0732H300.051V10.8779H301.462V8.56201H302.956V10.8779H304.915V12.0732H302.956V17.1367C302.956 18.1909 303.321 18.6143 304.251 18.6143C304.508 18.6143 304.649 18.606 304.915 18.5811V19.8096C304.633 19.8594 304.359 19.8926 304.077 19.8926ZM312.618 9.15137C312.07 9.15137 311.622 8.70312 311.622 8.15527C311.622 7.60742 312.07 7.15918 312.618 7.15918C313.166 7.15918 313.614 7.60742 313.614 8.15527C313.614 8.70312 313.166 9.15137 312.618 9.15137ZM311.888 19.8262V10.8779H313.332V19.8262H311.888ZM316.055 19.8262V10.8779H317.499V12.2227H317.632C318.08 11.2764 318.918 10.7202 320.238 10.7202C322.247 10.7202 323.368 11.9072 323.368 14.0322V19.8262H321.923V14.3809C321.923 12.7705 321.259 11.9985 319.832 11.9985C318.404 11.9985 317.499 12.9614 317.499 14.5303V19.8262H316.055ZM334.873 20.1084C332.25 20.1084 330.556 18.7305 330.382 16.7798L330.374 16.6885H331.868L331.876 16.7798C331.984 17.9751 333.229 18.7305 334.956 18.7305C336.583 18.7305 337.77 17.8921 337.77 16.6719V16.6636C337.77 15.6675 337.081 14.9868 335.437 14.6216L334.109 14.3311C331.71 13.7998 330.672 12.6958 330.672 10.9609V10.9526C330.681 8.96875 332.416 7.56592 334.889 7.56592C337.28 7.56592 338.948 8.97705 339.073 10.7617L339.081 10.8779H337.587L337.57 10.77C337.404 9.71582 336.408 8.93555 334.848 8.94385C333.354 8.95215 332.2 9.65771 332.2 10.9111V10.9194C332.2 11.874 332.855 12.5215 334.482 12.8784L335.811 13.1772C338.309 13.7334 339.297 14.7378 339.297 16.4644V16.4727C339.297 18.7139 337.545 20.1084 334.873 20.1084ZM342.368 9.15137C341.82 9.15137 341.372 8.70312 341.372 8.15527C341.372 7.60742 341.82 7.15918 342.368 7.15918C342.916 7.15918 343.364 7.60742 343.364 8.15527C343.364 8.70312 342.916 9.15137 342.368 9.15137ZM341.638 19.8262V10.8779H343.082V19.8262H341.638ZM345.805 19.8262V10.8779H347.249V12.2227H347.382C347.83 11.2764 348.668 10.7202 349.988 10.7202C351.997 10.7202 353.118 11.9072 353.118 14.0322V19.8262H351.673V14.3809C351.673 12.7705 351.009 11.9985 349.582 11.9985C348.154 11.9985 347.249 12.9614 347.249 14.5303V19.8262H345.805ZM359.418 22.9805C357.26 22.9805 355.882 22.0093 355.658 20.54L355.674 20.5317H357.168L357.177 20.54C357.334 21.2207 358.131 21.7021 359.418 21.7021C361.02 21.7021 361.975 20.9468 361.975 19.627V17.8174H361.842C361.277 18.8052 360.265 19.3613 359.036 19.3613C356.72 19.3613 355.284 17.5684 355.284 15.0615V15.0449C355.284 12.5381 356.729 10.7202 359.069 10.7202C360.331 10.7202 361.311 11.3428 361.858 12.3555H361.958V10.8779H363.402V19.7017C363.402 21.7021 361.858 22.9805 359.418 22.9805ZM359.352 18.083C361.012 18.083 362.008 16.8379 362.008 15.0615V15.0449C362.008 13.2686 361.003 11.9985 359.352 11.9985C357.691 11.9985 356.762 13.2686 356.762 15.0449V15.0615C356.762 16.8379 357.691 18.083 359.352 18.083ZM368.549 19.9839C366.847 19.9839 365.561 18.9546 365.561 17.3276V17.311C365.561 15.7173 366.739 14.7959 368.823 14.6714L371.388 14.5137V13.7002C371.388 12.5962 370.715 11.9985 369.379 11.9985C368.308 11.9985 367.603 12.397 367.37 13.0942L367.362 13.1191H365.917L365.926 13.0693C366.158 11.6665 367.52 10.7202 369.429 10.7202C371.612 10.7202 372.832 11.8408 372.832 13.7002V19.8262H371.388V18.5063H371.255C370.69 19.4609 369.752 19.9839 368.549 19.9839ZM367.038 17.2944C367.038 18.1992 367.81 18.7305 368.848 18.7305C370.317 18.7305 371.388 17.7676 371.388 16.4893V15.6758L368.997 15.8252C367.636 15.9082 367.038 16.3896 367.038 17.2778V17.2944ZM375.472 22.8145V10.8779H376.916V12.3057H377.049C377.597 11.3096 378.593 10.7202 379.838 10.7202C382.104 10.7202 383.59 12.5547 383.59 15.3438V15.3604C383.59 18.166 382.112 19.9839 379.838 19.9839C378.609 19.9839 377.539 19.3696 377.049 18.415H376.916V22.8145H375.472ZM379.506 18.7056C381.141 18.7056 382.112 17.4438 382.112 15.3604V15.3438C382.112 13.2603 381.141 11.9985 379.506 11.9985C377.879 11.9985 376.883 13.2769 376.883 15.3438V15.3604C376.883 17.4272 377.879 18.7056 379.506 18.7056ZM389.525 19.9839C386.977 19.9839 385.399 18.2241 385.399 15.3604V15.3438C385.399 12.4717 386.977 10.7202 389.525 10.7202C392.073 10.7202 393.65 12.4717 393.65 15.3438V15.3604C393.65 18.2241 392.073 19.9839 389.525 19.9839ZM389.525 18.7056C391.218 18.7056 392.173 17.4688 392.173 15.3604V15.3438C392.173 13.2271 391.218 11.9985 389.525 11.9985C387.832 11.9985 386.877 13.2271 386.877 15.3438V15.3604C386.877 17.4688 387.832 18.7056 389.525 18.7056ZM395.892 19.8262V10.8779H397.336V12.2061H397.469C397.809 11.2681 398.647 10.7202 399.859 10.7202C400.133 10.7202 400.44 10.7534 400.582 10.7783V12.1812C400.283 12.1313 400.009 12.0981 399.693 12.0981C398.315 12.0981 397.336 12.9697 397.336 14.2812V19.8262H395.892ZM405.77 19.9839C403.213 19.9839 401.669 18.1909 401.669 15.3853V15.377C401.669 12.6128 403.246 10.7202 405.678 10.7202C408.11 10.7202 409.588 12.5298 409.588 15.2026V15.7671H403.146C403.188 17.6182 404.209 18.6973 405.803 18.6973C407.015 18.6973 407.762 18.1245 408.002 17.585L408.036 17.5103H409.48L409.463 17.5767C409.156 18.7886 407.878 19.9839 405.77 19.9839ZM405.67 12.0068C404.342 12.0068 403.329 12.9116 403.171 14.6133H408.119C407.969 12.8452 406.99 12.0068 405.67 12.0068ZM412.41 12.5713L412.236 7.84814H413.78L413.605 12.5713H412.41ZM419.947 19.9839C417.955 19.9839 416.585 19.021 416.419 17.5435H417.897C418.138 18.2905 418.852 18.7803 419.997 18.7803C421.201 18.7803 422.056 18.2075 422.056 17.394V17.3774C422.056 16.7715 421.599 16.3481 420.495 16.0825L419.109 15.7505C417.432 15.3521 416.677 14.6216 416.677 13.335V13.3267C416.677 11.8408 418.104 10.7202 420.005 10.7202C421.881 10.7202 423.185 11.6582 423.384 13.1191H421.964C421.773 12.4136 421.076 11.9238 419.997 11.9238C418.935 11.9238 418.154 12.4717 418.154 13.2603V13.2769C418.154 13.8828 418.603 14.2646 419.657 14.522L421.035 14.854C422.72 15.2607 423.533 15.9912 423.533 17.2695V17.2861C423.533 18.8799 421.981 19.9839 419.947 19.9839ZM435.561 20.1084C432.307 20.1084 430.273 17.7012 430.273 13.8496V13.833C430.273 9.97314 432.299 7.56592 435.553 7.56592C438.076 7.56592 440.043 9.15137 440.4 11.4507L440.392 11.4673H438.89L438.881 11.4507C438.483 9.91504 437.205 8.94385 435.553 8.94385C433.253 8.94385 431.809 10.8364 431.809 13.833V13.8496C431.809 16.8462 433.253 18.7305 435.561 18.7305C437.229 18.7305 438.5 17.8755 438.873 16.4976L438.89 16.481H440.4V16.4976C440.002 18.689 438.109 20.1084 435.561 20.1084ZM442.808 19.8262V7.3252H444.252V12.2227H444.385C444.833 11.2764 445.671 10.7202 446.991 10.7202C449 10.7202 450.121 11.9072 450.121 14.0322V19.8262H448.676V14.3809C448.676 12.7705 448.012 11.9985 446.584 11.9985C445.157 11.9985 444.252 12.9614 444.252 14.5303V19.8262H442.808ZM453.499 9.15137C452.951 9.15137 452.503 8.70312 452.503 8.15527C452.503 7.60742 452.951 7.15918 453.499 7.15918C454.047 7.15918 454.495 7.60742 454.495 8.15527C454.495 8.70312 454.047 9.15137 453.499 9.15137ZM452.769 19.8262V10.8779H454.213V19.8262H452.769ZM456.936 19.8262V10.8779H458.38V12.2227H458.513C458.961 11.2764 459.799 10.7202 461.119 10.7202C463.128 10.7202 464.249 11.9072 464.249 14.0322V19.8262H462.804V14.3809C462.804 12.7705 462.14 11.9985 460.712 11.9985C459.285 11.9985 458.38 12.9614 458.38 14.5303V19.8262H456.936ZM469.32 19.9839C467.619 19.9839 466.332 18.9546 466.332 17.3276V17.311C466.332 15.7173 467.511 14.7959 469.594 14.6714L472.159 14.5137V13.7002C472.159 12.5962 471.487 11.9985 470.15 11.9985C469.08 11.9985 468.374 12.397 468.142 13.0942L468.133 13.1191H466.689L466.697 13.0693C466.93 11.6665 468.291 10.7202 470.2 10.7202C472.383 10.7202 473.604 11.8408 473.604 13.7002V19.8262H472.159V18.5063H472.026C471.462 19.4609 470.524 19.9839 469.32 19.9839ZM467.81 17.2944C467.81 18.1992 468.582 18.7305 469.619 18.7305C471.088 18.7305 472.159 17.7676 472.159 16.4893V15.6758L469.769 15.8252C468.407 15.9082 467.81 16.3896 467.81 17.2778V17.2944ZM479.422 19.8926C477.58 19.8926 476.808 19.2119 476.808 17.502V12.0732H475.396V10.8779H476.808V8.56201H478.302V10.8779H480.261V12.0732H478.302V17.1367C478.302 18.1909 478.667 18.6143 479.597 18.6143C479.854 18.6143 479.995 18.606 480.261 18.5811V19.8096C479.979 19.8594 479.705 19.8926 479.422 19.8926ZM485.963 19.9839C483.415 19.9839 481.838 18.2241 481.838 15.3604V15.3438C481.838 12.4717 483.415 10.7202 485.963 10.7202C488.512 10.7202 490.089 12.4717 490.089 15.3438V15.3604C490.089 18.2241 488.512 19.9839 485.963 19.9839ZM485.963 18.7056C487.657 18.7056 488.611 17.4688 488.611 15.3604V15.3438C488.611 13.2271 487.657 11.9985 485.963 11.9985C484.27 11.9985 483.315 13.2271 483.315 15.3438V15.3604C483.315 17.4688 484.27 18.7056 485.963 18.7056ZM493.725 19.8262L491.218 10.8779H492.662L494.422 18.0332H494.555L496.555 10.8779H497.925L499.925 18.0332H500.058L501.818 10.8779H503.254L500.747 19.8262H499.294L497.294 12.9033H497.161L495.169 19.8262H493.725ZM505.163 19.8262V10.8779H506.607V12.2227H506.74C507.188 11.2764 508.027 10.7202 509.347 10.7202C511.355 10.7202 512.476 11.9072 512.476 14.0322V19.8262H511.032V14.3809C511.032 12.7705 510.368 11.9985 508.94 11.9985C507.512 11.9985 506.607 12.9614 506.607 14.5303V19.8262H505.163ZM516.27 19.9092C515.68 19.9092 515.19 19.4194 515.19 18.8301C515.19 18.2324 515.68 17.751 516.27 17.751C516.867 17.751 517.349 18.2324 517.349 18.8301C517.349 19.4194 516.867 19.9092 516.27 19.9092ZM528.214 19.8262V9.19287H524.354V7.84814H533.568V9.19287H529.708V19.8262H528.214ZM535.776 19.8262V7.3252H537.221V12.2227H537.354C537.802 11.2764 538.64 10.7202 539.96 10.7202C541.969 10.7202 543.089 11.9072 543.089 14.0322V19.8262H541.645V14.3809C541.645 12.7705 540.981 11.9985 539.553 11.9985C538.125 11.9985 537.221 12.9614 537.221 14.5303V19.8262H535.776ZM549.356 19.9839C546.8 19.9839 545.256 18.1909 545.256 15.3853V15.377C545.256 12.6128 546.833 10.7202 549.265 10.7202C551.697 10.7202 553.175 12.5298 553.175 15.2026V15.7671H546.733C546.775 17.6182 547.796 18.6973 549.39 18.6973C550.602 18.6973 551.349 18.1245 551.589 17.585L551.623 17.5103H553.067L553.05 17.5767C552.743 18.7886 551.465 19.9839 549.356 19.9839ZM549.257 12.0068C547.929 12.0068 546.916 12.9116 546.758 14.6133H551.706C551.556 12.8452 550.577 12.0068 549.257 12.0068ZM560.795 19.8262V12.0732H559.309V10.8779H560.795V9.88184C560.795 8.09717 561.691 7.24219 563.393 7.24219C563.742 7.24219 564.057 7.26709 564.356 7.3252V8.479C564.182 8.4458 563.941 8.4375 563.684 8.4375C562.654 8.4375 562.239 8.94385 562.239 9.92334V10.8779H564.273V12.0732H562.239V19.8262H560.795ZM569.652 19.9839C567.104 19.9839 565.526 18.2241 565.526 15.3604V15.3438C565.526 12.4717 567.104 10.7202 569.652 10.7202C572.2 10.7202 573.777 12.4717 573.777 15.3438V15.3604C573.777 18.2241 572.2 19.9839 569.652 19.9839ZM569.652 18.7056C571.345 18.7056 572.3 17.4688 572.3 15.3604V15.3438C572.3 13.2271 571.345 11.9985 569.652 11.9985C567.958 11.9985 567.004 13.2271 567.004 15.3438V15.3604C567.004 17.4688 567.958 18.7056 569.652 18.7056ZM579.696 19.9839C577.147 19.9839 575.57 18.2241 575.57 15.3604V15.3438C575.57 12.4717 577.147 10.7202 579.696 10.7202C582.244 10.7202 583.821 12.4717 583.821 15.3438V15.3604C583.821 18.2241 582.244 19.9839 579.696 19.9839ZM579.696 18.7056C581.389 18.7056 582.344 17.4688 582.344 15.3604V15.3438C582.344 13.2271 581.389 11.9985 579.696 11.9985C578.002 11.9985 577.048 13.2271 577.048 15.3438V15.3604C577.048 17.4688 578.002 18.7056 579.696 18.7056ZM589.366 19.9839C587.1 19.9839 585.614 18.1494 585.614 15.3604V15.3438C585.614 12.5381 587.092 10.7202 589.366 10.7202C590.595 10.7202 591.666 11.3345 592.155 12.2891H592.288V7.3252H593.732V19.8262H592.288V18.3984H592.155C591.607 19.3945 590.611 19.9839 589.366 19.9839ZM589.698 18.7056C591.325 18.7056 592.321 17.4272 592.321 15.3604V15.3438C592.321 13.2769 591.325 11.9985 589.698 11.9985C588.063 11.9985 587.092 13.2603 587.092 15.3438V15.3604C587.092 17.4438 588.063 18.7056 589.698 18.7056ZM603.013 19.8262L600.506 10.8779H601.95L603.71 18.0332H603.843L605.843 10.8779H607.213L609.213 18.0332H609.346L611.106 10.8779H612.542L610.035 19.8262H608.583L606.582 12.9033H606.449L604.457 19.8262H603.013ZM616.659 19.9839C614.958 19.9839 613.671 18.9546 613.671 17.3276V17.311C613.671 15.7173 614.85 14.7959 616.933 14.6714L619.498 14.5137V13.7002C619.498 12.5962 618.826 11.9985 617.489 11.9985C616.418 11.9985 615.713 12.397 615.48 13.0942L615.472 13.1191H614.028L614.036 13.0693C614.269 11.6665 615.63 10.7202 617.539 10.7202C619.722 10.7202 620.942 11.8408 620.942 13.7002V19.8262H619.498V18.5063H619.365C618.801 19.4609 617.863 19.9839 616.659 19.9839ZM615.148 17.2944C615.148 18.1992 615.92 18.7305 616.958 18.7305C618.427 18.7305 619.498 17.7676 619.498 16.4893V15.6758L617.107 15.8252C615.746 15.9082 615.148 16.3896 615.148 17.2778V17.2944ZM626.653 19.9839C624.661 19.9839 623.292 19.021 623.125 17.5435H624.603C624.844 18.2905 625.558 18.7803 626.703 18.7803C627.907 18.7803 628.762 18.2075 628.762 17.394V17.3774C628.762 16.7715 628.305 16.3481 627.201 16.0825L625.815 15.7505C624.138 15.3521 623.383 14.6216 623.383 13.335V13.3267C623.383 11.8408 624.811 10.7202 626.711 10.7202C628.587 10.7202 629.891 11.6582 630.09 13.1191H628.67C628.479 12.4136 627.782 11.9238 626.703 11.9238C625.641 11.9238 624.86 12.4717 624.86 13.2603V13.2769C624.86 13.8828 625.309 14.2646 626.363 14.522L627.741 14.854C629.426 15.2607 630.239 15.9912 630.239 17.2695V17.2861C630.239 18.8799 628.687 19.9839 626.653 19.9839ZM639.719 19.9839C638.017 19.9839 636.73 18.9546 636.73 17.3276V17.311C636.73 15.7173 637.909 14.7959 639.993 14.6714L642.558 14.5137V13.7002C642.558 12.5962 641.885 11.9985 640.549 11.9985C639.478 11.9985 638.772 12.397 638.54 13.0942L638.532 13.1191H637.087L637.096 13.0693C637.328 11.6665 638.689 10.7202 640.599 10.7202C642.782 10.7202 644.002 11.8408 644.002 13.7002V19.8262H642.558V18.5063H642.425C641.86 19.4609 640.922 19.9839 639.719 19.9839ZM638.208 17.2944C638.208 18.1992 638.98 18.7305 640.018 18.7305C641.487 18.7305 642.558 17.7676 642.558 16.4893V15.6758L640.167 15.8252C638.806 15.9082 638.208 16.3896 638.208 17.2778V17.2944ZM646.642 19.8262V10.8779H648.086V12.2393H648.219C648.617 11.2764 649.464 10.7202 650.634 10.7202C651.846 10.7202 652.693 11.3594 653.108 12.2891H653.241C653.722 11.3428 654.743 10.7202 655.98 10.7202C657.806 10.7202 658.827 11.7661 658.827 13.6421V19.8262H657.383V13.9741C657.383 12.6543 656.777 11.9985 655.515 11.9985C654.27 11.9985 653.448 12.9365 653.448 14.0737V19.8262H652.004V13.75C652.004 12.6875 651.273 11.9985 650.145 11.9985C648.974 11.9985 648.086 13.0195 648.086 14.2812V19.8262H646.642ZM663.891 19.9839C662.189 19.9839 660.902 18.9546 660.902 17.3276V17.311C660.902 15.7173 662.081 14.7959 664.165 14.6714L666.729 14.5137V13.7002C666.729 12.5962 666.057 11.9985 664.721 11.9985C663.65 11.9985 662.944 12.397 662.712 13.0942L662.704 13.1191H661.259L661.268 13.0693C661.5 11.6665 662.861 10.7202 664.771 10.7202C666.954 10.7202 668.174 11.8408 668.174 13.7002V19.8262H666.729V18.5063H666.597C666.032 19.4609 665.094 19.9839 663.891 19.9839ZM662.38 17.2944C662.38 18.1992 663.152 18.7305 664.189 18.7305C665.659 18.7305 666.729 17.7676 666.729 16.4893V15.6758L664.339 15.8252C662.978 15.9082 662.38 16.3896 662.38 17.2778V17.2944ZM670.606 19.8262V18.7803L675.769 12.2061V12.0732H670.614V10.8779H677.471V11.9487L672.333 18.498V18.6309H677.496V19.8262H670.606ZM680.741 9.15137C680.193 9.15137 679.745 8.70312 679.745 8.15527C679.745 7.60742 680.193 7.15918 680.741 7.15918C681.289 7.15918 681.737 7.60742 681.737 8.15527C681.737 8.70312 681.289 9.15137 680.741 9.15137ZM680.011 19.8262V10.8779H681.455V19.8262H680.011ZM684.178 19.8262V10.8779H685.622V12.2227H685.755C686.203 11.2764 687.042 10.7202 688.361 10.7202C690.37 10.7202 691.491 11.9072 691.491 14.0322V19.8262H690.046V14.3809C690.046 12.7705 689.382 11.9985 687.955 11.9985C686.527 11.9985 685.622 12.9614 685.622 14.5303V19.8262H684.178ZM697.791 22.9805C695.633 22.9805 694.255 22.0093 694.031 20.54L694.047 20.5317H695.542L695.55 20.54C695.708 21.2207 696.504 21.7021 697.791 21.7021C699.393 21.7021 700.348 20.9468 700.348 19.627V17.8174H700.215C699.65 18.8052 698.638 19.3613 697.409 19.3613C695.093 19.3613 693.657 17.5684 693.657 15.0615V15.0449C693.657 12.5381 695.102 10.7202 697.442 10.7202C698.704 10.7202 699.684 11.3428 700.231 12.3555H700.331V10.8779H701.775V19.7017C701.775 21.7021 700.231 22.9805 697.791 22.9805ZM697.725 18.083C699.385 18.083 700.381 16.8379 700.381 15.0615V15.0449C700.381 13.2686 699.376 11.9985 697.725 11.9985C696.064 11.9985 695.135 13.2686 695.135 15.0449V15.0615C695.135 16.8379 696.064 18.083 697.725 18.083ZM704.1 22.8726L704.822 18.1494H706.474L705.17 22.8726H704.1ZM4.29395 45.9839C2.59229 45.9839 1.30566 44.9546 1.30566 43.3276V43.311C1.30566 41.7173 2.48438 40.7959 4.56787 40.6714L7.13281 40.5137V39.7002C7.13281 38.5962 6.46045 37.9985 5.12402 37.9985C4.05322 37.9985 3.34766 38.397 3.11523 39.0942L3.10693 39.1191H1.6626L1.6709 39.0693C1.90332 37.6665 3.26465 36.7202 5.17383 36.7202C7.35693 36.7202 8.57715 37.8408 8.57715 39.7002V45.8262H7.13281V44.5063H7C6.43555 45.4609 5.49756 45.9839 4.29395 45.9839ZM2.7832 43.2944C2.7832 44.1992 3.55518 44.7305 4.59277 44.7305C6.06201 44.7305 7.13281 43.7676 7.13281 42.4893V41.6758L4.74219 41.8252C3.38086 41.9082 2.7832 42.3896 2.7832 43.2778V43.2944ZM11.2168 45.8262V36.8779H12.6611V38.2227H12.7939C13.2422 37.2764 14.0806 36.7202 15.4004 36.7202C17.4092 36.7202 18.5298 37.9072 18.5298 40.0322V45.8262H17.0854V40.3809C17.0854 38.7705 16.4214 37.9985 14.9937 37.9985C13.5659 37.9985 12.6611 38.9614 12.6611 40.5303V45.8262H11.2168ZM24.4482 45.9839C22.1821 45.9839 20.6963 44.1494 20.6963 41.3604V41.3438C20.6963 38.5381 22.1738 36.7202 24.4482 36.7202C25.6768 36.7202 26.7476 37.3345 27.2373 38.2891H27.3701V33.3252H28.8145V45.8262H27.3701V44.3984H27.2373C26.6895 45.3945 25.6934 45.9839 24.4482 45.9839ZM24.7803 44.7056C26.4072 44.7056 27.4033 43.4272 27.4033 41.3604V41.3438C27.4033 39.2769 26.4072 37.9985 24.7803 37.9985C23.145 37.9985 22.1738 39.2603 22.1738 41.3438V41.3604C22.1738 43.4438 23.145 44.7056 24.7803 44.7056ZM39.5474 45.8926C37.7046 45.8926 36.9326 45.2119 36.9326 43.502V38.0732H35.5215V36.8779H36.9326V34.562H38.4268V36.8779H40.3857V38.0732H38.4268V43.1367C38.4268 44.1909 38.792 44.6143 39.7217 44.6143C39.979 44.6143 40.1201 44.606 40.3857 44.5811V45.8096C40.1035 45.8594 39.8296 45.8926 39.5474 45.8926ZM42.627 45.8262V33.3252H44.0713V38.2227H44.2041C44.6523 37.2764 45.4907 36.7202 46.8105 36.7202C48.8193 36.7202 49.9399 37.9072 49.9399 40.0322V45.8262H48.4956V40.3809C48.4956 38.7705 47.8315 37.9985 46.4038 37.9985C44.9761 37.9985 44.0713 38.9614 44.0713 40.5303V45.8262H42.627ZM56.207 45.9839C53.6504 45.9839 52.1064 44.1909 52.1064 41.3853V41.377C52.1064 38.6128 53.6836 36.7202 56.1157 36.7202C58.5479 36.7202 60.0254 38.5298 60.0254 41.2026V41.7671H53.584C53.6255 43.6182 54.6465 44.6973 56.2402 44.6973C57.4521 44.6973 58.1992 44.1245 58.4399 43.585L58.4731 43.5103H59.9175L59.9009 43.5767C59.5938 44.7886 58.3154 45.9839 56.207 45.9839ZM56.1074 38.0068C54.7793 38.0068 53.7666 38.9116 53.6089 40.6133H58.5562C58.4067 38.8452 57.4272 38.0068 56.1074 38.0068ZM70.7251 45.9839C68.1768 45.9839 66.5996 44.2241 66.5996 41.3604V41.3438C66.5996 38.4717 68.1768 36.7202 70.7251 36.7202C73.2734 36.7202 74.8506 38.4717 74.8506 41.3438V41.3604C74.8506 44.2241 73.2734 45.9839 70.7251 45.9839ZM70.7251 44.7056C72.4185 44.7056 73.373 43.4688 73.373 41.3604V41.3438C73.373 39.2271 72.4185 37.9985 70.7251 37.9985C69.0317 37.9985 68.0771 39.2271 68.0771 41.3438V41.3604C68.0771 43.4688 69.0317 44.7056 70.7251 44.7056ZM78.4863 45.8262L75.9795 36.8779H77.4238L79.1836 44.0332H79.3164L81.3169 36.8779H82.6865L84.687 44.0332H84.8198L86.5796 36.8779H88.0156L85.5088 45.8262H84.0562L82.0557 38.9033H81.9229L79.9307 45.8262H78.4863ZM89.9248 45.8262V36.8779H91.3691V38.2227H91.502C91.9502 37.2764 92.7886 36.7202 94.1084 36.7202C96.1172 36.7202 97.2378 37.9072 97.2378 40.0322V45.8262H95.7935V40.3809C95.7935 38.7705 95.1294 37.9985 93.7017 37.9985C92.2739 37.9985 91.3691 38.9614 91.3691 40.5303V45.8262H89.9248ZM103.505 45.9839C100.948 45.9839 99.4043 44.1909 99.4043 41.3853V41.377C99.4043 38.6128 100.981 36.7202 103.414 36.7202C105.846 36.7202 107.323 38.5298 107.323 41.2026V41.7671H100.882C100.923 43.6182 101.944 44.6973 103.538 44.6973C104.75 44.6973 105.497 44.1245 105.738 43.585L105.771 43.5103H107.215L107.199 43.5767C106.892 44.7886 105.613 45.9839 103.505 45.9839ZM103.405 38.0068C102.077 38.0068 101.064 38.9116 100.907 40.6133H105.854C105.705 38.8452 104.725 38.0068 103.405 38.0068ZM109.564 45.8262V36.8779H111.009V38.2061H111.142C111.482 37.2681 112.32 36.7202 113.532 36.7202C113.806 36.7202 114.113 36.7534 114.254 36.7783V38.1812C113.956 38.1313 113.682 38.0981 113.366 38.0981C111.988 38.0981 111.009 38.9697 111.009 40.2812V45.8262H109.564ZM122.547 45.8262L120.04 36.8779H121.484L123.244 44.0332H123.377L125.377 36.8779H126.747L128.748 44.0332H128.88L130.64 36.8779H132.076L129.569 45.8262H128.117L126.116 38.9033H125.983L123.991 45.8262H122.547ZM136.193 45.9839C134.492 45.9839 133.205 44.9546 133.205 43.3276V43.311C133.205 41.7173 134.384 40.7959 136.467 40.6714L139.032 40.5137V39.7002C139.032 38.5962 138.36 37.9985 137.023 37.9985C135.953 37.9985 135.247 38.397 135.015 39.0942L135.006 39.1191H133.562L133.57 39.0693C133.803 37.6665 135.164 36.7202 137.073 36.7202C139.256 36.7202 140.477 37.8408 140.477 39.7002V45.8262H139.032V44.5063H138.899C138.335 45.4609 137.397 45.9839 136.193 45.9839ZM134.683 43.2944C134.683 44.1992 135.455 44.7305 136.492 44.7305C137.961 44.7305 139.032 43.7676 139.032 42.4893V41.6758L136.642 41.8252C135.28 41.9082 134.683 42.3896 134.683 43.2778V43.2944ZM146.188 45.9839C144.195 45.9839 142.826 45.021 142.66 43.5435H144.137C144.378 44.2905 145.092 44.7803 146.237 44.7803C147.441 44.7803 148.296 44.2075 148.296 43.394V43.3774C148.296 42.7715 147.839 42.3481 146.735 42.0825L145.349 41.7505C143.672 41.3521 142.917 40.6216 142.917 39.335V39.3267C142.917 37.8408 144.345 36.7202 146.246 36.7202C148.122 36.7202 149.425 37.6582 149.624 39.1191H148.205C148.014 38.4136 147.316 37.9238 146.237 37.9238C145.175 37.9238 144.395 38.4717 144.395 39.2603V39.2769C144.395 39.8828 144.843 40.2646 145.897 40.522L147.275 40.854C148.96 41.2607 149.773 41.9912 149.773 43.2695V43.2861C149.773 44.8799 148.221 45.9839 146.188 45.9839ZM159.867 45.9839C157.875 45.9839 156.505 45.021 156.339 43.5435H157.817C158.058 44.2905 158.771 44.7803 159.917 44.7803C161.121 44.7803 161.976 44.2075 161.976 43.394V43.3774C161.976 42.7715 161.519 42.3481 160.415 42.0825L159.029 41.7505C157.352 41.3521 156.597 40.6216 156.597 39.335V39.3267C156.597 37.8408 158.024 36.7202 159.925 36.7202C161.801 36.7202 163.104 37.6582 163.304 39.1191H161.884C161.693 38.4136 160.996 37.9238 159.917 37.9238C158.854 37.9238 158.074 38.4717 158.074 39.2603V39.2769C158.074 39.8828 158.522 40.2646 159.577 40.522L160.955 40.854C162.64 41.2607 163.453 41.9912 163.453 43.2695V43.2861C163.453 44.8799 161.901 45.9839 159.867 45.9839ZM169.372 45.9839C166.823 45.9839 165.246 44.2241 165.246 41.3604V41.3438C165.246 38.4717 166.823 36.7202 169.372 36.7202C171.92 36.7202 173.497 38.4717 173.497 41.3438V41.3604C173.497 44.2241 171.92 45.9839 169.372 45.9839ZM169.372 44.7056C171.065 44.7056 172.02 43.4688 172.02 41.3604V41.3438C172.02 39.2271 171.065 37.9985 169.372 37.9985C167.678 37.9985 166.724 39.2271 166.724 41.3438V41.3604C166.724 43.4688 167.678 44.7056 169.372 44.7056ZM180.603 45.8262V33.3252H182.047V40.7876H182.18L186.048 36.8779H187.799L183.898 40.6382L188.057 45.8262H186.239L182.885 41.6177L182.047 42.4312V45.8262H180.603ZM190.514 35.1514C189.966 35.1514 189.518 34.7031 189.518 34.1553C189.518 33.6074 189.966 33.1592 190.514 33.1592C191.062 33.1592 191.51 33.6074 191.51 34.1553C191.51 34.7031 191.062 35.1514 190.514 35.1514ZM189.783 45.8262V36.8779H191.228V45.8262H189.783ZM193.95 45.8262V36.8779H195.395V38.2227H195.527C195.976 37.2764 196.814 36.7202 198.134 36.7202C200.143 36.7202 201.263 37.9072 201.263 40.0322V45.8262H199.819V40.3809C199.819 38.7705 199.155 37.9985 197.727 37.9985C196.299 37.9985 195.395 38.9614 195.395 40.5303V45.8262H193.95ZM207.182 45.9839C204.916 45.9839 203.43 44.1494 203.43 41.3604V41.3438C203.43 38.5381 204.907 36.7202 207.182 36.7202C208.41 36.7202 209.481 37.3345 209.971 38.2891H210.104V33.3252H211.548V45.8262H210.104V44.3984H209.971C209.423 45.3945 208.427 45.9839 207.182 45.9839ZM207.514 44.7056C209.141 44.7056 210.137 43.4272 210.137 41.3604V41.3438C210.137 39.2769 209.141 37.9985 207.514 37.9985C205.878 37.9985 204.907 39.2603 204.907 41.3438V41.3604C204.907 43.4438 205.878 44.7056 207.514 44.7056ZM214.926 41.8418L214.785 33.8398H216.445L216.304 41.8418H214.926ZM215.624 45.9756C214.951 45.9756 214.47 45.4941 214.47 44.8218C214.47 44.1411 214.951 43.6597 215.624 43.6597C216.296 43.6597 216.769 44.1411 216.769 44.8218C216.769 45.4941 216.296 45.9756 215.624 45.9756ZM220.197 38.5713L220.023 33.8481H221.567L221.393 38.5713H220.197ZM223.269 38.5713L223.094 33.8481H224.638L224.464 38.5713H223.269Z" fill="black"/>
<path d="M3.43896 79.8262H2.01953L2.68359 76.564H0.757812L1.03174 75.1611H2.97412L3.53027 72.3804H1.51318L1.79541 70.9858H3.8208L4.45166 67.8481H5.87109L5.23193 70.9858H7.73877L8.37793 67.8481H9.80566L9.1665 70.9858H11.1919L10.9263 72.3804H8.87598L8.31152 75.1611H10.4199L10.1543 76.564H8.0293L7.36523 79.8262H5.9458L6.60986 76.564H4.10303L3.43896 79.8262ZM4.33545 75.2026H6.92529L7.50635 72.3472H4.9165L4.33545 75.2026ZM17.019 80.1167C14.313 80.1167 12.5781 78.7471 12.4121 76.73L12.4038 76.6221H14.23L14.2383 76.7134C14.3379 77.8008 15.4917 78.498 17.0938 78.498C18.6211 78.498 19.7085 77.7344 19.7085 76.6221V76.6138C19.7085 75.6924 19.061 75.0947 17.4756 74.7544L16.1641 74.4722C13.7319 73.9575 12.686 72.8286 12.686 71.0605V71.0522C12.6943 68.9854 14.4873 67.5576 17.0273 67.5576C19.5674 67.5576 21.2275 68.9937 21.3604 70.853L21.3687 70.9692H19.5674L19.5508 70.8613C19.3931 69.8818 18.4551 69.168 17.0024 69.1763C15.5996 69.1763 14.562 69.832 14.562 70.9609V70.9692C14.562 71.8574 15.1929 72.4385 16.7451 72.7705L18.0483 73.061C20.5635 73.6006 21.5928 74.6133 21.5928 76.3896V76.3979C21.5928 78.689 19.8081 80.1167 17.019 80.1167ZM24.772 69.2012C24.1494 69.2012 23.6431 68.6948 23.6431 68.0806C23.6431 67.458 24.1494 66.9517 24.772 66.9517C25.3862 66.9517 25.9009 67.458 25.9009 68.0806C25.9009 68.6948 25.3862 69.2012 24.772 69.2012ZM23.8672 79.8262V70.8115H25.6602V79.8262H23.8672ZM28.2832 79.8262V70.8115H30.0845V72.1812H30.2173C30.6572 71.2183 31.5205 70.6372 32.832 70.6372C34.8491 70.6372 35.9614 71.8408 35.9614 73.9907V79.8262H34.1685V74.4141C34.1685 72.9199 33.5459 72.1812 32.2261 72.1812C30.9062 72.1812 30.0845 73.0859 30.0845 74.5386V79.8262H28.2832ZM42.2866 83.0054C39.9956 83.0054 38.5845 82.001 38.3687 80.4985L38.3853 80.4819H40.2031L40.2114 80.4985C40.3608 81.1211 41.0913 81.561 42.3115 81.561C43.7974 81.561 44.6772 80.8638 44.6772 79.6353V77.8589H44.5444C43.9966 78.8384 43.0005 79.3862 41.7637 79.3862C39.4478 79.3862 38.02 77.6016 38.02 75.0615V75.0449C38.02 72.4717 39.4561 70.6538 41.7969 70.6538C43.0586 70.6538 44.0381 71.2764 44.561 72.2891H44.6689V70.8115H46.4619V79.6436C46.4619 81.6938 44.8433 83.0054 42.2866 83.0054ZM42.2617 77.9004C43.7891 77.9004 44.7104 76.7383 44.7104 75.0532V75.0366C44.7104 73.3599 43.7808 72.1812 42.2617 72.1812C40.7261 72.1812 39.8628 73.3599 39.8628 75.0366V75.0532C39.8628 76.73 40.7261 77.9004 42.2617 77.9004ZM51.5254 79.9756C49.8071 79.9756 48.5371 78.9297 48.5371 77.2944V77.2778C48.5371 75.6675 49.749 74.7295 51.8989 74.5967L54.3394 74.4556V73.6587C54.3394 72.6709 53.7168 72.123 52.4966 72.123C51.5005 72.123 50.8447 72.4883 50.6289 73.1274L50.6206 73.1606H48.8857L48.894 73.1025C49.1099 71.625 50.5293 70.6372 52.5796 70.6372C54.8457 70.6372 56.124 71.7661 56.124 73.6587V79.8262H54.3394V78.5479H54.1982C53.667 79.4609 52.7207 79.9756 51.5254 79.9756ZM50.3301 77.2197C50.3301 78.0498 51.0356 78.5396 52.0068 78.5396C53.3516 78.5396 54.3394 77.6597 54.3394 76.4976V75.7256L52.1396 75.8667C50.8945 75.9414 50.3301 76.3896 50.3301 77.2031V77.2197ZM58.6641 82.8311V70.8115H60.4653V72.231H60.5981C61.1211 71.2432 62.1089 70.6538 63.3706 70.6538C65.645 70.6538 67.106 72.4717 67.106 75.3105V75.3271C67.106 78.1826 65.6616 79.9756 63.3706 79.9756C62.1338 79.9756 61.0796 79.3696 60.5981 78.3984H60.4653V82.8311H58.6641ZM62.8643 78.4399C64.3667 78.4399 65.2715 77.2612 65.2715 75.3271V75.3105C65.2715 73.3682 64.3667 72.1978 62.8643 72.1978C61.3618 72.1978 60.4321 73.3848 60.4321 75.3105V75.3271C60.4321 77.2529 61.3618 78.4399 62.8643 78.4399ZM73.0908 80.0005C70.4429 80.0005 68.8242 78.2324 68.8242 75.3271V75.3105C68.8242 72.4136 70.4512 70.6372 73.0908 70.6372C75.7222 70.6372 77.3491 72.4053 77.3491 75.3105V75.3271C77.3491 78.2324 75.7305 80.0005 73.0908 80.0005ZM73.0908 78.498C74.6348 78.498 75.5146 77.3193 75.5146 75.3271V75.3105C75.5146 73.3101 74.6348 72.1396 73.0908 72.1396C71.5386 72.1396 70.667 73.3101 70.667 75.3105V75.3271C70.667 77.3276 71.5386 78.498 73.0908 78.498ZM79.499 79.8262V70.8115H81.3003V72.1729H81.4331C81.7568 71.2183 82.5952 70.6538 83.7988 70.6538C84.0894 70.6538 84.4048 70.6953 84.5874 70.7368V72.397C84.2637 72.3306 83.9565 72.2891 83.6162 72.2891C82.2383 72.2891 81.3003 73.1357 81.3003 74.439V79.8262H79.499ZM89.8584 80.0005C87.2188 80.0005 85.625 78.1992 85.625 75.3438V75.3354C85.625 72.5215 87.252 70.6372 89.7671 70.6372C92.2822 70.6372 93.8262 72.4551 93.8262 75.1611V75.792H87.4346C87.4678 77.5186 88.4141 78.5229 89.8999 78.5229C91.0537 78.5229 91.7427 77.9502 91.9585 77.4854L91.9917 77.4189L93.7266 77.4106L93.71 77.4854C93.4111 78.6724 92.166 80.0005 89.8584 80.0005ZM89.7754 72.1147C88.5469 72.1147 87.6172 72.9531 87.4595 74.5054H92.0415C91.9004 72.895 90.9956 72.1147 89.7754 72.1147ZM102.268 79.8262H100.849L101.513 76.564H99.5869L99.8608 75.1611H101.803L102.359 72.3804H100.342L100.625 70.9858H102.65L103.281 67.8481H104.7L104.061 70.9858H106.568L107.207 67.8481H108.635L107.996 70.9858H110.021L109.755 72.3804H107.705L107.141 75.1611H109.249L108.983 76.564H106.858L106.194 79.8262H104.775L105.439 76.564H102.932L102.268 79.8262ZM103.165 75.2026H105.754L106.335 72.3472H103.746L103.165 75.2026ZM114.595 80.1167C112.378 80.1167 111.083 78.7637 110.984 76.8545L110.976 76.7549H112.81L112.818 76.8296C112.893 77.7427 113.466 78.4565 114.578 78.4565C115.807 78.4565 116.471 77.7178 116.471 76.3564V67.8481H118.33V76.373C118.33 78.7305 116.944 80.1167 114.595 80.1167ZM123.543 79.9756C121.825 79.9756 120.555 78.9297 120.555 77.2944V77.2778C120.555 75.6675 121.767 74.7295 123.917 74.5967L126.357 74.4556V73.6587C126.357 72.6709 125.734 72.123 124.514 72.123C123.518 72.123 122.862 72.4883 122.646 73.1274L122.638 73.1606H120.903L120.912 73.1025C121.127 71.625 122.547 70.6372 124.597 70.6372C126.863 70.6372 128.142 71.7661 128.142 73.6587V79.8262H126.357V78.5479H126.216C125.685 79.4609 124.738 79.9756 123.543 79.9756ZM122.348 77.2197C122.348 78.0498 123.053 78.5396 124.024 78.5396C125.369 78.5396 126.357 77.6597 126.357 76.4976V75.7256L124.157 75.8667C122.912 75.9414 122.348 76.3896 122.348 77.2031V77.2197ZM130.682 79.8262V70.8115H132.483V72.1812H132.616C133.056 71.2183 133.919 70.6372 135.23 70.6372C137.248 70.6372 138.36 71.8408 138.36 73.9907V79.8262H136.567V74.4141C136.567 72.9199 135.944 72.1812 134.625 72.1812C133.305 72.1812 132.483 73.0859 132.483 74.5386V79.8262H130.682ZM144.685 83.0054C142.394 83.0054 140.983 82.001 140.767 80.4985L140.784 80.4819H142.602L142.61 80.4985C142.759 81.1211 143.49 81.561 144.71 81.561C146.196 81.561 147.076 80.8638 147.076 79.6353V77.8589H146.943C146.395 78.8384 145.399 79.3862 144.162 79.3862C141.846 79.3862 140.418 77.6016 140.418 75.0615V75.0449C140.418 72.4717 141.854 70.6538 144.195 70.6538C145.457 70.6538 146.437 71.2764 146.959 72.2891H147.067V70.8115H148.86V79.6436C148.86 81.6938 147.242 83.0054 144.685 83.0054ZM144.66 77.9004C146.188 77.9004 147.109 76.7383 147.109 75.0532V75.0366C147.109 73.3599 146.179 72.1812 144.66 72.1812C143.125 72.1812 142.261 73.3599 142.261 75.0366V75.0532C142.261 76.73 143.125 77.9004 144.66 77.9004ZM153.185 79.8262L150.695 70.8115H152.504L154.123 77.7676H154.256L156.115 70.8115H157.825L159.685 77.7676H159.826L161.436 70.8115H163.221L160.739 79.8262H158.888L157.02 73.1025H156.879L155.02 79.8262H153.185ZM168.533 80.0005C165.885 80.0005 164.267 78.2324 164.267 75.3271V75.3105C164.267 72.4136 165.894 70.6372 168.533 70.6372C171.165 70.6372 172.792 72.4053 172.792 75.3105V75.3271C172.792 78.2324 171.173 80.0005 168.533 80.0005ZM168.533 78.498C170.077 78.498 170.957 77.3193 170.957 75.3271V75.3105C170.957 73.3101 170.077 72.1396 168.533 72.1396C166.981 72.1396 166.109 73.3101 166.109 75.3105V75.3271C166.109 77.3276 166.981 78.498 168.533 78.498ZM174.941 79.8262V70.8115H176.743V72.1812H176.875C177.315 71.2183 178.179 70.6372 179.49 70.6372C181.507 70.6372 182.62 71.8408 182.62 73.9907V79.8262H180.827V74.4141C180.827 72.9199 180.204 72.1812 178.884 72.1812C177.564 72.1812 176.743 73.0859 176.743 74.5386V79.8262H174.941ZM191.435 79.8262H190.016L190.68 76.564H188.754L189.028 75.1611H190.97L191.526 72.3804H189.509L189.792 70.9858H191.817L192.448 67.8481H193.867L193.228 70.9858H195.735L196.374 67.8481H197.802L197.163 70.9858H199.188L198.922 72.3804H196.872L196.308 75.1611H198.416L198.15 76.564H196.025L195.361 79.8262H193.942L194.606 76.564H192.099L191.435 79.8262ZM192.332 75.2026H194.921L195.502 72.3472H192.913L192.332 75.2026ZM200.964 79.8262V67.8481H202.824V73.5093H202.957L207.912 67.8481H210.112L205.48 73.0444L210.51 79.8262H208.186L204.168 74.3062L202.824 75.8335V79.8262H200.964ZM215.399 80.0005C212.751 80.0005 211.133 78.2324 211.133 75.3271V75.3105C211.133 72.4136 212.76 70.6372 215.399 70.6372C218.031 70.6372 219.658 72.4053 219.658 75.3105V75.3271C219.658 78.2324 218.039 80.0005 215.399 80.0005ZM215.399 78.498C216.943 78.498 217.823 77.3193 217.823 75.3271V75.3105C217.823 73.3101 216.943 72.1396 215.399 72.1396C213.847 72.1396 212.976 73.3101 212.976 75.3105V75.3271C212.976 77.3276 213.847 78.498 215.399 78.498ZM221.808 79.8262V70.8115H223.609V72.1729H223.742C224.065 71.2183 224.904 70.6538 226.107 70.6538C226.398 70.6538 226.713 70.6953 226.896 70.7368V72.397C226.572 72.3306 226.265 72.2891 225.925 72.2891C224.547 72.2891 223.609 73.1357 223.609 74.439V79.8262H221.808ZM232.167 80.0005C229.527 80.0005 227.934 78.1992 227.934 75.3438V75.3354C227.934 72.5215 229.561 70.6372 232.076 70.6372C234.591 70.6372 236.135 72.4551 236.135 75.1611V75.792H229.743C229.776 77.5186 230.723 78.5229 232.208 78.5229C233.362 78.5229 234.051 77.9502 234.267 77.4854L234.3 77.4189L236.035 77.4106L236.019 77.4854C235.72 78.6724 234.475 80.0005 232.167 80.0005ZM232.084 72.1147C230.855 72.1147 229.926 72.9531 229.768 74.5054H234.35C234.209 72.895 233.304 72.1147 232.084 72.1147ZM240.75 79.9756C239.032 79.9756 237.762 78.9297 237.762 77.2944V77.2778C237.762 75.6675 238.974 74.7295 241.124 74.5967L243.564 74.4556V73.6587C243.564 72.6709 242.941 72.123 241.721 72.123C240.725 72.123 240.069 72.4883 239.854 73.1274L239.845 73.1606H238.11L238.119 73.1025C238.334 71.625 239.754 70.6372 241.804 70.6372C244.07 70.6372 245.349 71.7661 245.349 73.6587V79.8262H243.564V78.5479H243.423C242.892 79.4609 241.945 79.9756 240.75 79.9756ZM239.555 77.2197C239.555 78.0498 240.26 78.5396 241.231 78.5396C242.576 78.5396 243.564 77.6597 243.564 76.4976V75.7256L241.364 75.8667C240.119 75.9414 239.555 76.3896 239.555 77.2031V77.2197ZM247.889 79.8262V70.8115H249.69V72.1812H249.823C250.263 71.2183 251.126 70.6372 252.438 70.6372C254.455 70.6372 255.567 71.8408 255.567 73.9907V79.8262H253.774V74.4141C253.774 72.9199 253.151 72.1812 251.832 72.1812C250.512 72.1812 249.69 73.0859 249.69 74.5386V79.8262H247.889ZM264.382 79.8262H262.963L263.627 76.564H261.701L261.975 75.1611H263.917L264.474 72.3804H262.457L262.739 70.9858H264.764L265.395 67.8481H266.814L266.175 70.9858H268.682L269.321 67.8481H270.749L270.11 70.9858H272.135L271.87 72.3804H269.819L269.255 75.1611H271.363L271.098 76.564H268.973L268.309 79.8262H266.889L267.553 76.564H265.046L264.382 79.8262ZM265.279 75.2026H267.869L268.45 72.3472H265.86L265.279 75.2026ZM273.912 79.8262V67.8481H278.635C281.092 67.8481 282.619 69.2759 282.619 71.5005V71.5171C282.619 73.1274 281.756 74.439 280.295 74.9287L282.984 79.8262H280.834L278.394 75.2192H275.771V79.8262H273.912ZM275.771 73.7085H278.452C279.88 73.7085 280.71 72.9282 280.71 71.5669V71.5503C280.71 70.2222 279.83 69.4087 278.394 69.4087H275.771V73.7085ZM288.579 80.0005C285.939 80.0005 284.346 78.1992 284.346 75.3438V75.3354C284.346 72.5215 285.973 70.6372 288.488 70.6372C291.003 70.6372 292.547 72.4551 292.547 75.1611V75.792H286.155C286.188 77.5186 287.135 78.5229 288.621 78.5229C289.774 78.5229 290.463 77.9502 290.679 77.4854L290.712 77.4189L292.447 77.4106L292.431 77.4854C292.132 78.6724 290.887 80.0005 288.579 80.0005ZM288.496 72.1147C287.268 72.1147 286.338 72.9531 286.18 74.5054H290.762C290.621 72.895 289.716 72.1147 288.496 72.1147ZM297.967 80.0005C295.792 80.0005 294.415 78.9795 294.24 77.4688V77.4604H296.042L296.05 77.4688C296.274 78.1494 296.93 78.606 298 78.606C299.113 78.606 299.885 78.0996 299.885 77.3608V77.3442C299.885 76.7798 299.461 76.3979 298.416 76.1572L296.979 75.8252C295.278 75.4351 294.489 74.6631 294.489 73.3433V73.335C294.489 71.7661 295.95 70.6372 297.992 70.6372C300.051 70.6372 301.371 71.6665 301.528 73.1357V73.144H299.81V73.1274C299.636 72.4966 298.997 72.0234 297.984 72.0234C296.996 72.0234 296.282 72.5132 296.282 73.2354V73.252C296.282 73.8164 296.697 74.165 297.71 74.4058L299.138 74.7295C300.873 75.1362 301.703 75.875 301.703 77.1782V77.1948C301.703 78.8633 300.109 80.0005 297.967 80.0005ZM307.189 79.8843C305.206 79.8843 304.392 79.187 304.392 77.4521V72.231H302.981V70.8115H304.392V68.5371H306.227V70.8115H308.161V72.231H306.227V77.0205C306.227 77.9917 306.592 78.3901 307.48 78.3901C307.754 78.3901 307.912 78.3818 308.161 78.3569V79.793C307.87 79.8428 307.538 79.8843 307.189 79.8843ZM312.734 79.9756C311.016 79.9756 309.746 78.9297 309.746 77.2944V77.2778C309.746 75.6675 310.958 74.7295 313.108 74.5967L315.548 74.4556V73.6587C315.548 72.6709 314.926 72.123 313.706 72.123C312.709 72.123 312.054 72.4883 311.838 73.1274L311.83 73.1606H310.095L310.103 73.1025C310.319 71.625 311.738 70.6372 313.789 70.6372C316.055 70.6372 317.333 71.7661 317.333 73.6587V79.8262H315.548V78.5479H315.407C314.876 79.4609 313.93 79.9756 312.734 79.9756ZM311.539 77.2197C311.539 78.0498 312.245 78.5396 313.216 78.5396C314.561 78.5396 315.548 77.6597 315.548 76.4976V75.7256L313.349 75.8667C312.104 75.9414 311.539 76.3896 311.539 77.2031V77.2197ZM322.878 80.0005C320.844 80.0005 319.79 78.7803 319.79 76.647V70.8115H321.591V76.2236C321.591 77.7178 322.139 78.4565 323.459 78.4565C324.903 78.4565 325.675 77.5518 325.675 76.0991V70.8115H327.468V79.8262H325.675V78.4648H325.534C325.103 79.436 324.189 80.0005 322.878 80.0005ZM330.066 79.8262V70.8115H331.868V72.1729H332C332.324 71.2183 333.163 70.6538 334.366 70.6538C334.657 70.6538 334.972 70.6953 335.155 70.7368V72.397C334.831 72.3306 334.524 72.2891 334.184 72.2891C332.806 72.2891 331.868 73.1357 331.868 74.439V79.8262H330.066ZM339.28 79.9756C337.562 79.9756 336.292 78.9297 336.292 77.2944V77.2778C336.292 75.6675 337.504 74.7295 339.654 74.5967L342.094 74.4556V73.6587C342.094 72.6709 341.472 72.123 340.251 72.123C339.255 72.123 338.6 72.4883 338.384 73.1274L338.375 73.1606H336.641L336.649 73.1025C336.865 71.625 338.284 70.6372 340.334 70.6372C342.601 70.6372 343.879 71.7661 343.879 73.6587V79.8262H342.094V78.5479H341.953C341.422 79.4609 340.476 79.9756 339.28 79.9756ZM338.085 77.2197C338.085 78.0498 338.791 78.5396 339.762 78.5396C341.106 78.5396 342.094 77.6597 342.094 76.4976V75.7256L339.895 75.8667C338.649 75.9414 338.085 76.3896 338.085 77.2031V77.2197ZM346.419 79.8262V70.8115H348.22V72.1812H348.353C348.793 71.2183 349.656 70.6372 350.968 70.6372C352.985 70.6372 354.097 71.8408 354.097 73.9907V79.8262H352.304V74.4141C352.304 72.9199 351.682 72.1812 350.362 72.1812C349.042 72.1812 348.22 73.0859 348.22 74.5386V79.8262H346.419ZM360.016 79.8843C358.032 79.8843 357.218 79.187 357.218 77.4521V72.231H355.807V70.8115H357.218V68.5371H359.053V70.8115H360.987V72.231H359.053V77.0205C359.053 77.9917 359.418 78.3901 360.306 78.3901C360.58 78.3901 360.738 78.3818 360.987 78.3569V79.793C360.696 79.8428 360.364 79.8843 360.016 79.8843Z" fill="black"/>
</svg>
