<svg width="256" height="41" viewBox="0 0 256 41" fill="none" xmlns="http://www.w3.org/2000/svg">
<rect x="0.5" y="1.32617" width="122" height="39" rx="7.5" fill="#FAFAFB"/>
<rect x="0.5" y="1.32617" width="122" height="39" rx="7.5" stroke="#E0E0E0"/>
<path d="M25.9478 26.8262H24.5283L26.9604 14.8481H28.3799L27.6245 18.5752L27.5581 18.708L26.7446 22.7505L26.7529 22.875L25.9478 26.8262ZM29.8823 26.8262H28.4546L29.2598 22.875L29.3262 22.7505L30.1396 18.708L30.1313 18.5752L30.8867 14.8481H32.3145L29.8823 26.8262ZM32.6631 23.5723H23.2666L23.5405 22.1611H26.0225L26.1968 22.2026H29.9653L30.1313 22.1611H32.937L32.6631 23.5723ZM33.4351 19.3887H30.6958L30.5215 19.3472H26.7612L26.5869 19.3887H24.022L24.3042 17.9775H33.709L33.4351 19.3887ZM35.3525 26.8262V14.2754H37.1538V19.1729H37.2949C37.5163 18.6914 37.8428 18.3151 38.2744 18.0439C38.7061 17.7728 39.2511 17.6372 39.9097 17.6372C40.5793 17.6372 41.1465 17.7673 41.6113 18.0273C42.0762 18.2874 42.4303 18.6693 42.6738 19.1729C42.9173 19.6709 43.0391 20.2769 43.0391 20.9907V26.8262H41.2295V21.4141C41.2295 20.6615 41.0718 20.1025 40.7563 19.7373C40.4465 19.3665 39.9595 19.1812 39.2954 19.1812C38.8582 19.1812 38.4792 19.278 38.1582 19.4717C37.8372 19.6598 37.5882 19.931 37.4111 20.2852C37.2396 20.6338 37.1538 21.0516 37.1538 21.5386V26.8262H35.3525ZM48.0195 26.9756C47.4495 26.9756 46.9377 26.8677 46.4839 26.6519C46.0356 26.4305 45.6815 26.1178 45.4214 25.7139C45.1613 25.3099 45.0312 24.8368 45.0312 24.2944V24.2778C45.0312 23.4699 45.3218 22.839 45.9028 22.3853C46.4894 21.9259 47.3195 21.6631 48.3931 21.5967L51.7217 21.3975V22.6675L48.6421 22.8667C48.0223 22.9054 47.5658 23.0382 47.2725 23.2651C46.9792 23.4865 46.8325 23.7992 46.8325 24.2031V24.2197C46.8325 24.6292 46.9902 24.953 47.3057 25.1909C47.6211 25.4233 48.0195 25.5396 48.501 25.5396C48.9492 25.5396 49.3477 25.451 49.6963 25.2739C50.0505 25.0913 50.3271 24.8478 50.5264 24.5435C50.7256 24.2336 50.8252 23.8849 50.8252 23.4976V20.6587C50.8252 20.1606 50.6702 19.7816 50.3604 19.5215C50.056 19.2559 49.6022 19.123 48.999 19.123C48.4954 19.123 48.0832 19.2116 47.7622 19.3887C47.4468 19.5658 47.2365 19.8148 47.1313 20.1357L47.1147 20.1606H45.3799L45.3882 20.1025C45.4601 19.6045 45.6566 19.1729 45.9775 18.8076C46.304 18.4368 46.7301 18.1491 47.2559 17.9443C47.7871 17.7396 48.3931 17.6372 49.0737 17.6372C49.8319 17.6372 50.4738 17.759 50.9995 18.0024C51.5308 18.2404 51.932 18.5863 52.2031 19.04C52.4798 19.4883 52.6182 20.0278 52.6182 20.6587V26.8262H50.8252V25.5479H50.6924C50.5153 25.8522 50.2939 26.1123 50.0283 26.3281C49.7627 26.5384 49.4611 26.6989 49.1235 26.8096C48.786 26.9202 48.418 26.9756 48.0195 26.9756ZM58.437 27.0005C57.7121 27.0005 57.0812 26.8953 56.5444 26.6851C56.0076 26.4692 55.5815 26.1732 55.2661 25.7969C54.9507 25.415 54.7653 24.9723 54.71 24.4688V24.4521H56.5195V24.4688C56.6357 24.8063 56.8571 25.0802 57.1836 25.2905C57.5101 25.5008 57.9417 25.606 58.4785 25.606C58.8493 25.606 59.173 25.5534 59.4497 25.4482C59.7319 25.3431 59.9533 25.1965 60.1138 25.0083C60.2743 24.8201 60.3545 24.6043 60.3545 24.3608V24.3442C60.3545 24.062 60.241 23.8241 60.0142 23.6304C59.7873 23.4367 59.4137 23.279 58.8936 23.1572L57.4492 22.8252C56.6025 22.6315 55.9744 22.3354 55.5649 21.937C55.161 21.533 54.959 21.0018 54.959 20.3433V20.335C54.959 19.8092 55.1084 19.3444 55.4072 18.9404C55.7061 18.5309 56.1183 18.2127 56.644 17.9858C57.1753 17.7534 57.7812 17.6372 58.4619 17.6372C59.1481 17.6372 59.7458 17.7451 60.2549 17.9609C60.7695 18.1712 61.1763 18.4645 61.4751 18.8408C61.7739 19.2116 61.951 19.6432 62.0063 20.1357V20.144H60.2798V20.1274C60.1968 19.812 59.9976 19.5492 59.6821 19.3389C59.3722 19.1286 58.9627 19.0234 58.4536 19.0234C58.1271 19.0234 57.8366 19.076 57.582 19.1812C57.3275 19.2808 57.1255 19.4219 56.9761 19.6045C56.8322 19.7816 56.7603 19.9919 56.7603 20.2354V20.252C56.7603 20.5342 56.8709 20.7666 57.0923 20.9492C57.3136 21.1318 57.6761 21.284 58.1797 21.4058L59.6157 21.7295C60.479 21.9342 61.1209 22.2303 61.5415 22.6177C61.9676 23.005 62.1807 23.5252 62.1807 24.1782V24.1948C62.1807 24.7482 62.0174 25.238 61.6909 25.6641C61.3644 26.0846 60.9189 26.4139 60.3545 26.6519C59.7956 26.8843 59.1564 27.0005 58.437 27.0005ZM64.4053 26.8262V14.2754H66.2065V19.1729H66.3477C66.569 18.6914 66.8955 18.3151 67.3271 18.0439C67.7588 17.7728 68.3039 17.6372 68.9624 17.6372C69.632 17.6372 70.1992 17.7673 70.6641 18.0273C71.1289 18.2874 71.4831 18.6693 71.7266 19.1729C71.9701 19.6709 72.0918 20.2769 72.0918 20.9907V26.8262H70.2822V21.4141C70.2822 20.6615 70.1245 20.1025 69.8091 19.7373C69.4992 19.3665 69.0122 19.1812 68.3481 19.1812C67.911 19.1812 67.5319 19.278 67.2109 19.4717C66.89 19.6598 66.641 19.931 66.4639 20.2852C66.2923 20.6338 66.2065 21.0516 66.2065 21.5386V26.8262H64.4053ZM78.002 26.8843C77.0169 26.8843 76.3031 26.6961 75.8604 26.3198C75.4232 25.938 75.2046 25.3154 75.2046 24.4521V19.231H73.7935V17.8115H75.2046V15.5371H77.0474V17.8115H78.9814V19.231H77.0474V24.0122C77.0474 24.4992 77.1442 24.8506 77.3379 25.0664C77.5316 25.2767 77.8525 25.3818 78.3008 25.3818C78.4336 25.3818 78.547 25.3791 78.6411 25.3735C78.7407 25.368 78.8542 25.3597 78.9814 25.3486V26.793C78.8376 26.8151 78.6826 26.8345 78.5166 26.8511C78.3506 26.8732 78.179 26.8843 78.002 26.8843ZM83.5635 26.9756C82.9935 26.9756 82.4816 26.8677 82.0278 26.6519C81.5796 26.4305 81.2254 26.1178 80.9653 25.7139C80.7052 25.3099 80.5752 24.8368 80.5752 24.2944V24.2778C80.5752 23.4699 80.8657 22.839 81.4468 22.3853C82.0334 21.9259 82.8634 21.6631 83.937 21.5967L87.2656 21.3975V22.6675L84.186 22.8667C83.5662 22.9054 83.1097 23.0382 82.8164 23.2651C82.5231 23.4865 82.3765 23.7992 82.3765 24.2031V24.2197C82.3765 24.6292 82.5342 24.953 82.8496 25.1909C83.165 25.4233 83.5635 25.5396 84.0449 25.5396C84.4932 25.5396 84.8916 25.451 85.2402 25.2739C85.5944 25.0913 85.8711 24.8478 86.0703 24.5435C86.2695 24.2336 86.3691 23.8849 86.3691 23.4976V20.6587C86.3691 20.1606 86.2142 19.7816 85.9043 19.5215C85.5999 19.2559 85.1462 19.123 84.543 19.123C84.0394 19.123 83.6271 19.2116 83.3062 19.3887C82.9907 19.5658 82.7804 19.8148 82.6753 20.1357L82.6587 20.1606H80.9238L80.9321 20.1025C81.0041 19.6045 81.2005 19.1729 81.5215 18.8076C81.848 18.4368 82.2741 18.1491 82.7998 17.9443C83.3311 17.7396 83.937 17.6372 84.6177 17.6372C85.3758 17.6372 86.0177 17.759 86.5435 18.0024C87.0747 18.2404 87.4759 18.5863 87.7471 19.04C88.0238 19.4883 88.1621 20.0278 88.1621 20.6587V26.8262H86.3691V25.5479H86.2363C86.0592 25.8522 85.8379 26.1123 85.5723 26.3281C85.3066 26.5384 85.005 26.6989 84.6675 26.8096C84.3299 26.9202 83.9619 26.9756 83.5635 26.9756ZM94.5122 30.0054C93.7485 30.0054 93.0845 29.9002 92.52 29.6899C91.9611 29.4797 91.5184 29.1864 91.1919 28.8101C90.8654 28.4338 90.6662 27.9966 90.5942 27.4985L90.6025 27.4819H92.4287L92.437 27.4985C92.5145 27.8084 92.7331 28.063 93.0928 28.2622C93.4525 28.4614 93.9339 28.561 94.5371 28.561C95.2786 28.561 95.8569 28.3923 96.272 28.0547C96.6925 27.7171 96.9028 27.244 96.9028 26.6353V24.8672H96.7617C96.5846 25.1882 96.3577 25.4648 96.0811 25.6973C95.8044 25.9242 95.4889 26.0957 95.1348 26.2119C94.7806 26.3281 94.396 26.3862 93.981 26.3862C93.2173 26.3862 92.5532 26.2036 91.9888 25.8384C91.4299 25.4676 90.9982 24.9585 90.6938 24.311C90.395 23.658 90.2456 22.9082 90.2456 22.0615V22.0449C90.2456 21.1872 90.3978 20.429 90.7021 19.7705C91.0065 19.1064 91.4409 18.589 92.0054 18.2183C92.5698 17.842 93.2422 17.6538 94.0225 17.6538C94.443 17.6538 94.8276 17.7202 95.1763 17.853C95.5304 17.9858 95.8431 18.174 96.1143 18.4175C96.3854 18.661 96.6095 18.9515 96.7866 19.2891H96.8945V17.8115H98.6958V26.6436C98.6958 27.3242 98.5243 27.9163 98.1812 28.4199C97.8436 28.9235 97.3621 29.3136 96.7368 29.5903C96.1115 29.867 95.37 30.0054 94.5122 30.0054ZM94.4873 24.8921C94.9964 24.8921 95.4336 24.7731 95.7988 24.5352C96.1641 24.2917 96.4435 23.9569 96.6372 23.5308C96.8364 23.1047 96.936 22.6121 96.936 22.0532V22.0366C96.936 21.4832 96.8364 20.9907 96.6372 20.5591C96.4435 20.1274 96.1641 19.7899 95.7988 19.5464C95.4336 19.3029 94.9964 19.1812 94.4873 19.1812C93.9782 19.1812 93.5438 19.3029 93.1841 19.5464C92.8299 19.7899 92.5588 20.1274 92.3706 20.5591C92.1825 20.9852 92.0884 21.4777 92.0884 22.0366V22.0532C92.0884 22.6121 92.1825 23.1047 92.3706 23.5308C92.5588 23.9569 92.8299 24.2917 93.1841 24.5352C93.5438 24.7731 93.9782 24.8921 94.4873 24.8921Z" fill="#1C1C1E"/>
<rect x="133.5" y="1.32617" width="122" height="39" rx="7.5" fill="#FAFAFB"/>
<rect x="133.5" y="1.32617" width="122" height="39" rx="7.5" stroke="#E0E0E0"/>
<path d="M161.538 28.7188C160.464 28.7188 159.493 28.5583 158.624 28.2373C157.755 27.9163 157.014 27.4515 156.399 26.8428C155.785 26.234 155.312 25.5063 154.98 24.6597C154.648 23.8075 154.482 22.8556 154.482 21.8042V21.7876C154.482 20.7638 154.648 19.8286 154.98 18.9819C155.312 18.1353 155.785 17.4048 156.399 16.7905C157.014 16.1763 157.744 15.7031 158.591 15.3711C159.438 15.0391 160.373 14.873 161.396 14.873C162.714 14.873 163.873 15.1331 164.875 15.6533C165.876 16.168 166.659 16.8846 167.224 17.8032C167.788 18.7218 168.07 19.7843 168.07 20.9907V21.0073C168.07 21.8983 167.94 22.673 167.68 23.3315C167.426 23.9845 167.06 24.4909 166.584 24.8506C166.109 25.2048 165.547 25.3818 164.899 25.3818C164.407 25.3818 163.989 25.2629 163.646 25.0249C163.308 24.7869 163.101 24.4688 163.023 24.0703L163.015 24.0205H162.874C162.702 24.4411 162.44 24.7648 162.085 24.9917C161.737 25.2131 161.319 25.3237 160.832 25.3237C160.257 25.3237 159.75 25.1771 159.313 24.8838C158.881 24.585 158.547 24.1755 158.309 23.6553C158.071 23.1296 157.952 22.5153 157.952 21.8125V21.7959C157.952 21.1263 158.071 20.5369 158.309 20.0278C158.552 19.5132 158.887 19.112 159.313 18.8242C159.745 18.5365 160.24 18.3926 160.799 18.3926C161.242 18.3926 161.634 18.4977 161.978 18.708C162.326 18.9128 162.581 19.1978 162.741 19.563H162.882V18.5586H164.293V23.2734C164.293 23.5612 164.371 23.7881 164.526 23.9541C164.681 24.1146 164.897 24.1948 165.173 24.1948C165.666 24.1948 166.053 23.9098 166.335 23.3398C166.623 22.7699 166.767 22.0062 166.767 21.0488V21.0322C166.767 20.0306 166.537 19.1535 166.078 18.4009C165.624 17.6483 164.988 17.0645 164.169 16.6494C163.35 16.2288 162.395 16.0186 161.305 16.0186C160.497 16.0186 159.756 16.1624 159.081 16.4502C158.411 16.7324 157.827 17.1336 157.329 17.6538C156.837 18.174 156.455 18.7882 156.184 19.4966C155.918 20.2049 155.785 20.9852 155.785 21.8374V21.854C155.785 23.0106 156.023 24.0177 156.499 24.8755C156.975 25.7277 157.647 26.3862 158.516 26.8511C159.385 27.3215 160.411 27.5566 161.596 27.5566C162.121 27.5566 162.622 27.5234 163.098 27.457C163.574 27.3962 163.937 27.3104 164.186 27.1997V28.3535C163.438 28.597 162.556 28.7188 161.538 28.7188ZM161.098 24.0205C161.623 24.0205 162.041 23.8241 162.351 23.4312C162.661 23.0382 162.816 22.5125 162.816 21.854V21.8374C162.816 21.1678 162.661 20.6393 162.351 20.252C162.047 19.8646 161.634 19.6709 161.114 19.6709C160.771 19.6709 160.478 19.7567 160.234 19.9282C159.991 20.0998 159.803 20.3488 159.67 20.6753C159.543 20.9963 159.479 21.3836 159.479 21.8374V21.854C159.479 22.2967 159.543 22.6841 159.67 23.0161C159.803 23.3426 159.991 23.5916 160.234 23.7632C160.478 23.9347 160.766 24.0205 161.098 24.0205ZM170.312 26.8262V17.8115H172.113V19.1978H172.254C172.453 18.6997 172.763 18.3151 173.184 18.0439C173.61 17.7728 174.119 17.6372 174.711 17.6372C175.12 17.6372 175.488 17.7036 175.815 17.8364C176.141 17.9692 176.421 18.1574 176.653 18.4009C176.891 18.6388 177.077 18.9211 177.209 19.2476H177.351C177.5 18.9211 177.71 18.6388 177.981 18.4009C178.253 18.1574 178.568 17.9692 178.928 17.8364C179.293 17.7036 179.68 17.6372 180.09 17.6372C180.699 17.6372 181.219 17.7562 181.65 17.9941C182.082 18.2266 182.411 18.5641 182.638 19.0068C182.865 19.4495 182.979 19.9836 182.979 20.6089V26.8262H181.177V21.0405C181.177 20.4207 181.033 19.9559 180.746 19.646C180.463 19.3361 180.029 19.1812 179.442 19.1812C179.061 19.1812 178.726 19.2697 178.438 19.4468C178.156 19.6183 177.934 19.8507 177.774 20.144C177.619 20.4318 177.542 20.7583 177.542 21.1235V26.8262H175.74V20.8579C175.74 20.3433 175.583 19.9365 175.267 19.6377C174.957 19.3333 174.537 19.1812 174.005 19.1812C173.646 19.1812 173.322 19.2752 173.034 19.4634C172.752 19.6515 172.528 19.9061 172.362 20.2271C172.196 20.5425 172.113 20.8966 172.113 21.2896V26.8262H170.312ZM189.287 27.0005C188.407 27.0005 187.652 26.8123 187.021 26.436C186.39 26.0542 185.903 25.5146 185.56 24.8174C185.222 24.1201 185.054 23.2956 185.054 22.3438V22.3354C185.054 21.3947 185.222 20.5729 185.56 19.8701C185.903 19.1673 186.385 18.6195 187.004 18.2266C187.63 17.8337 188.36 17.6372 189.196 17.6372C190.037 17.6372 190.759 17.8254 191.362 18.2017C191.971 18.578 192.439 19.1064 192.765 19.7871C193.092 20.4622 193.255 21.2536 193.255 22.1611V22.792H185.967V21.5054H192.358L191.495 22.7007V21.9785C191.495 21.3366 191.396 20.8053 191.196 20.3848C191.003 19.9587 190.734 19.6405 190.391 19.4302C190.048 19.2199 189.652 19.1147 189.204 19.1147C188.756 19.1147 188.355 19.2254 188 19.4468C187.652 19.6626 187.375 19.9836 187.17 20.4097C186.971 20.8358 186.872 21.3587 186.872 21.9785V22.7007C186.872 23.2928 186.971 23.7992 187.17 24.2197C187.37 24.6403 187.652 24.9613 188.017 25.1826C188.388 25.404 188.825 25.5146 189.329 25.5146C189.716 25.5146 190.048 25.4621 190.325 25.3569C190.607 25.2463 190.837 25.1107 191.014 24.9502C191.196 24.7897 191.321 24.632 191.387 24.4771L191.42 24.4106H193.164L193.147 24.4854C193.069 24.7842 192.934 25.083 192.74 25.3818C192.547 25.6751 192.289 25.9435 191.968 26.187C191.653 26.4305 191.271 26.627 190.823 26.7764C190.38 26.9258 189.868 27.0005 189.287 27.0005ZM195.396 26.8262V17.8115H197.198V19.1729H197.339C197.56 18.6914 197.887 18.3151 198.318 18.0439C198.75 17.7728 199.295 17.6372 199.954 17.6372C200.966 17.6372 201.741 17.9277 202.278 18.5088C202.815 19.0898 203.083 19.9172 203.083 20.9907V26.8262H201.273V21.4141C201.273 20.6615 201.116 20.1025 200.8 19.7373C200.49 19.3665 200.003 19.1812 199.339 19.1812C198.902 19.1812 198.523 19.278 198.202 19.4717C197.881 19.6598 197.632 19.931 197.455 20.2852C197.284 20.6338 197.198 21.0516 197.198 21.5386V26.8262H195.396ZM208.993 26.8843C208.008 26.8843 207.294 26.6961 206.852 26.3198C206.414 25.938 206.196 25.3154 206.196 24.4521V19.231H204.785V17.8115H206.196V15.5371H208.039V17.8115H209.973V19.231H208.039V24.0122C208.039 24.4992 208.135 24.8506 208.329 25.0664C208.523 25.2767 208.844 25.3818 209.292 25.3818C209.425 25.3818 209.538 25.3791 209.632 25.3735C209.732 25.368 209.845 25.3597 209.973 25.3486V26.793C209.829 26.8151 209.674 26.8345 209.508 26.8511C209.342 26.8732 209.17 26.8843 208.993 26.8843ZM212.106 26.8262V17.8115H213.916V26.8262H212.106ZM213.019 16.2012C212.709 16.2012 212.444 16.0905 212.222 15.8691C212.001 15.6478 211.89 15.3822 211.89 15.0723C211.89 14.7624 212.001 14.4995 212.222 14.2837C212.444 14.0623 212.709 13.9517 213.019 13.9517C213.329 13.9517 213.595 14.0623 213.816 14.2837C214.037 14.4995 214.148 14.7624 214.148 15.0723C214.148 15.3822 214.037 15.6478 213.816 15.8691C213.595 16.0905 213.329 16.2012 213.019 16.2012ZM220.349 27.0005C219.469 27.0005 218.708 26.8123 218.066 26.436C217.43 26.0597 216.94 25.5229 216.597 24.8257C216.254 24.1229 216.082 23.29 216.082 22.3271V22.3105C216.082 21.3421 216.254 20.5093 216.597 19.812C216.945 19.1147 217.438 18.578 218.074 18.2017C218.716 17.8254 219.474 17.6372 220.349 17.6372C221.229 17.6372 221.987 17.8254 222.623 18.2017C223.259 18.5724 223.749 19.1092 224.092 19.812C224.441 20.5093 224.615 21.3421 224.615 22.3105V22.3271C224.615 23.29 224.441 24.1229 224.092 24.8257C223.749 25.5229 223.259 26.0597 222.623 26.436C221.992 26.8123 221.234 27.0005 220.349 27.0005ZM220.349 25.4897C220.863 25.4897 221.3 25.3652 221.66 25.1162C222.02 24.8617 222.294 24.4992 222.482 24.0288C222.67 23.5584 222.764 22.9912 222.764 22.3271V22.3105C222.764 21.641 222.67 21.071 222.482 20.6006C222.294 20.1302 222.02 19.7705 221.66 19.5215C221.3 19.2669 220.863 19.1396 220.349 19.1396C219.834 19.1396 219.397 19.2669 219.037 19.5215C218.677 19.7705 218.401 20.1302 218.207 20.6006C218.019 21.071 217.925 21.641 217.925 22.3105V22.3271C217.925 22.9912 218.019 23.5584 218.207 24.0288C218.401 24.4992 218.677 24.8617 219.037 25.1162C219.397 25.3652 219.834 25.4897 220.349 25.4897ZM226.757 26.8262V17.8115H228.558V19.1729H228.699C228.921 18.6914 229.247 18.3151 229.679 18.0439C230.11 17.7728 230.655 17.6372 231.314 17.6372C232.327 17.6372 233.101 17.9277 233.638 18.5088C234.175 19.0898 234.443 19.9172 234.443 20.9907V26.8262H232.634V21.4141C232.634 20.6615 232.476 20.1025 232.161 19.7373C231.851 19.3665 231.364 19.1812 230.7 19.1812C230.263 19.1812 229.883 19.278 229.562 19.4717C229.242 19.6598 228.993 19.931 228.815 20.2852C228.644 20.6338 228.558 21.0516 228.558 21.5386V26.8262H226.757Z" fill="#1C1C1E"/>
</svg>
