<svg width="316" height="96" viewBox="0 0 316 96" fill="none" xmlns="http://www.w3.org/2000/svg">
<g clip-path="url(#clip0_407_412)">
<path d="M33.5599 21.68H5.23992V1.01001H0.169922V50.84H5.23992V26.53H33.5599V50.84H38.6199V1.01001H33.5599V21.68Z" fill="white"/>
<path d="M60.67 1L42.04 50.84H47.36L52.44 36.5H74.43L79.54 50.83H84.93L66.3 1H60.67ZM54.21 31.65L63.49 5.68L72.7 31.65H54.21Z" fill="white"/>
<path d="M127.36 45L95.3798 1.01001H88.2998V50.84H93.3598L93.3498 6.82001L125.36 50.84H132.42V1.01001H127.36V45Z" fill="white"/>
<path d="M143.5 13.36C143.5 7.92002 148.2 5.08002 154.97 5.08002C161.74 5.08002 166 9.20002 166 14.7H171.05C171.05 6.14002 164.9 0.0200195 154.97 0.0200195C144.38 0.0200195 138.44 5.84002 138.44 13.16C138.44 33.5 168.25 22.49 168.25 36.55C168.25 41.77 164.87 46.82 155.74 46.82C147.22 46.82 142.21 41.3 142.21 36.03H137.16C137.16 43.32 143.26 51.85 155.23 51.85C168.67 51.85 173.27 43.61 173.27 37.12C173.27 17.02 143.5 28.12 143.5 13.35V13.36Z" fill="white"/>
<path d="M313.55 1.01001H306.72L281.47 28.57L281.49 1.01001H276.45V50.84H281.47V36.04L291.49 25.1L309.7 50.84H315.83L294.95 21.32L313.55 1.01001Z" fill="white"/>
<path d="M266.7 32.68C264.7 41.77 258.39 46.78 248.99 46.78C244.93 46.78 240.81 45.67 237.5 43.06C244.46 41.5 245.61 32.3 245.79 28.35H260.97V23.5H230.7C231.66 10.33 240.48 5.03998 249 5.03998C256.26 5.03998 263.73 8.50998 266.38 17.93H271.58C268.99 6.68998 260.7 -0.0200195 249.01 -0.0200195C242.52 -0.0200195 236.66 2.30998 232.51 6.54998C227.97 11.18 225.57 17.87 225.57 25.9C225.57 41.64 234.77 51.82 249.02 51.82C258.9 51.82 269.37 46.64 271.89 32.67H266.72L266.7 32.68Z" fill="white"/>
<path d="M217.53 32.68C215.53 41.77 209.22 46.78 199.82 46.78C195.76 46.78 191.64 45.67 188.33 43.06C195.29 41.5 196.44 32.3 196.62 28.35H211.8V23.5H181.53C182.49 10.33 191.31 5.03998 199.83 5.03998C207.09 5.03998 214.56 8.50998 217.21 17.93H222.41C219.82 6.68998 211.53 -0.0200195 199.84 -0.0200195C193.35 -0.0200195 187.49 2.30998 183.34 6.54998C178.8 11.18 176.4 17.87 176.4 25.9C176.4 41.64 185.6 51.82 199.85 51.82C209.73 51.82 220.2 46.64 222.72 32.67H217.55L217.53 32.68Z" fill="white"/>
<path d="M266.09 62.5C267.05 61.14 267.97 59.73 268.79 58.29L264.44 55.83C263.5 57.49 262.45 59.1 261.32 60.62C252.55 72.41 239.1 79.17 224.43 79.17C208.85 79.17 194.46 71.37 185.93 58.31C185.37 57.45 184.83 56.56 184.32 55.65L179.96 58.1C180.52 59.1 181.13 60.1 181.75 61.05C191.21 75.53 207.17 84.18 224.44 84.18C229.61 84.18 234.7 83.37 239.55 81.86C241.19 83.85 250.13 94.2 259.67 95.17C260.16 95.22 260.65 95.25 261.13 95.25C264.27 95.25 267.12 94.18 269.62 92.07C272.51 89.64 274.1 86.51 274.36 82.78C274.9 74.93 269.13 66.4 266.11 62.52L266.09 62.5ZM269.35 82.42C269.19 84.77 268.22 86.67 266.38 88.22C264.55 89.77 262.51 90.4 260.16 90.17C253.86 89.54 247.31 83.04 244.55 79.98C247.62 78.66 250.55 77.02 253.3 75.13L259.36 83.36L263.39 80.4L257.29 72.12C259.29 70.43 261.17 68.58 262.9 66.58C265.61 70.25 269.73 76.82 269.35 82.42Z" fill="white"/>
</g>
<defs>
<clipPath id="clip0_407_412">
<rect width="315.66" height="95.22" fill="white" transform="translate(0.169922)"/>
</clipPath>
</defs>
</svg>
