<svg width="68" height="68" viewBox="0 0 68 68" fill="none" xmlns="http://www.w3.org/2000/svg">
<path d="M43.7081 42.2931C43.801 42.386 43.8747 42.4963 43.9249 42.6177C43.9752 42.7391 44.0011 42.8692 44.0011 43.0006C44.0011 43.132 43.9752 43.2621 43.9249 43.3835C43.8747 43.5048 43.801 43.6151 43.7081 43.7081C43.6151 43.801 43.5048 43.8747 43.3835 43.9249C43.2621 43.9752 43.132 44.0011 43.0006 44.0011C42.8692 44.0011 42.7391 43.9752 42.6177 43.9249C42.4963 43.8747 42.386 43.801 42.2931 43.7081L34.0006 35.4143L25.7081 43.7081C25.5204 43.8957 25.2659 44.0011 25.0006 44.0011C24.7352 44.0011 24.4807 43.8957 24.2931 43.7081C24.1054 43.5204 24 43.2659 24 43.0006C24 42.7352 24.1054 42.4807 24.2931 42.2931L32.5868 34.0006L24.2931 25.7081C24.1054 25.5204 24 25.2659 24 25.0006C24 24.7352 24.1054 24.4807 24.2931 24.2931C24.4807 24.1054 24.7352 24 25.0006 24C25.2659 24 25.5204 24.1054 25.7081 24.2931L34.0006 32.5868L42.2931 24.2931C42.4807 24.1054 42.7352 24 43.0006 24C43.2659 24 43.5204 24.1054 43.7081 24.2931C43.8957 24.4807 44.0011 24.7352 44.0011 25.0006C44.0011 25.2659 43.8957 25.5204 43.7081 25.7081L35.4143 34.0006L43.7081 42.2931Z" fill="black"/>
</svg>
