<svg width="36" height="36" viewBox="0 0 36 36" fill="none" xmlns="http://www.w3.org/2000/svg">
<path d="M31.5 16.8749V30.3749C31.5 30.6733 31.3815 30.9595 31.1705 31.1704C30.9595 31.3814 30.6734 31.4999 30.375 31.4999H22.5C22.2016 31.4999 21.9155 31.3814 21.7045 31.1704C21.4935 30.9595 21.375 30.6733 21.375 30.3749V23.0624C21.375 22.9132 21.3157 22.7702 21.2102 22.6647C21.1048 22.5592 20.9617 22.4999 20.8125 22.4999H15.1875C15.0383 22.4999 14.8952 22.5592 14.7898 22.6647C14.6843 22.7702 14.625 22.9132 14.625 23.0624V30.3749C14.625 30.6733 14.5065 30.9595 14.2955 31.1704C14.0845 31.3814 13.7984 31.4999 13.5 31.4999H5.625C5.32663 31.4999 5.04048 31.3814 4.82951 31.1704C4.61853 30.9595 4.5 30.6733 4.5 30.3749V16.8749C4.50028 16.2783 4.73751 15.7062 5.15953 15.2845L16.4095 4.03447C16.8314 3.61283 17.4035 3.37598 18 3.37598C18.5965 3.37598 19.1686 3.61283 19.5905 4.03447L30.8405 15.2845C31.2625 15.7062 31.4997 16.2783 31.5 16.8749Z" fill="white"/>
<circle cx="33" cy="3" r="3" fill="#FF5924"/>
</svg>
