<svg width="56" height="56" viewBox="0 0 56 56" fill="none" xmlns="http://www.w3.org/2000/svg">
<ellipse cx="29" cy="29" rx="15" ry="14" fill="white"/>
<path d="M28 5.25C23.5005 5.25 19.102 6.58426 15.3608 9.08407C11.6196 11.5839 8.70364 15.1369 6.98175 19.294C5.25986 23.451 4.80933 28.0252 5.68715 32.4383C6.56496 36.8514 8.73169 40.905 11.9133 44.0867C15.095 47.2683 19.1486 49.435 23.5617 50.3129C27.9748 51.1907 32.549 50.7402 36.7061 49.0183C40.8631 47.2964 44.4161 44.3804 46.9159 40.6392C49.4157 36.898 50.75 32.4995 50.75 28C50.7425 21.9686 48.3432 16.1865 44.0784 11.9216C39.8136 7.65681 34.0314 5.25753 28 5.25ZM36.75 29.75H29.75V36.75C29.75 37.2141 29.5656 37.6592 29.2374 37.9874C28.9093 38.3156 28.4641 38.5 28 38.5C27.5359 38.5 27.0908 38.3156 26.7626 37.9874C26.4344 37.6592 26.25 37.2141 26.25 36.75V29.75H19.25C18.7859 29.75 18.3408 29.5656 18.0126 29.2374C17.6844 28.9092 17.5 28.4641 17.5 28C17.5 27.5359 17.6844 27.0907 18.0126 26.7626C18.3408 26.4344 18.7859 26.25 19.25 26.25H26.25V19.25C26.25 18.7859 26.4344 18.3408 26.7626 18.0126C27.0908 17.6844 27.5359 17.5 28 17.5C28.4641 17.5 28.9093 17.6844 29.2374 18.0126C29.5656 18.3408 29.75 18.7859 29.75 19.25V26.25H36.75C37.2141 26.25 37.6593 26.4344 37.9874 26.7626C38.3156 27.0907 38.5 27.5359 38.5 28C38.5 28.4641 38.3156 28.9092 37.9874 29.2374C37.6593 29.5656 37.2141 29.75 36.75 29.75Z" fill="#FF5924"/>
</svg>
