<svg width="36" height="36" viewBox="0 0 36 36" fill="none" xmlns="http://www.w3.org/2000/svg">
<path d="M32.4744 30.9374C32.3756 31.1085 32.2335 31.2505 32.0625 31.3493C31.8914 31.448 31.6973 31.5 31.4998 31.4999H4.49982C4.30244 31.4997 4.10859 31.4476 3.93773 31.3488C3.76687 31.2499 3.62501 31.1079 3.52641 30.9369C3.42781 30.7659 3.37593 30.572 3.37598 30.3746C3.37603 30.1773 3.42801 29.9834 3.5267 29.8124C5.66842 26.1098 8.96889 23.4548 12.8206 22.1962C10.9154 21.062 9.43512 19.3337 8.60718 17.2768C7.77924 15.2199 7.64938 12.9481 8.23755 10.8103C8.82572 8.67242 10.0994 6.78675 11.863 5.44284C13.6266 4.09894 15.7825 3.37109 17.9998 3.37109C20.2171 3.37109 22.3731 4.09894 24.1367 5.44284C25.9002 6.78675 27.1739 8.67242 27.7621 10.8103C28.3503 12.9481 28.2204 15.2199 27.3925 17.2768C26.5645 19.3337 25.0843 21.062 23.179 22.1962C27.0308 23.4548 30.3312 26.1098 32.4729 29.8124C32.5719 29.9833 32.6241 30.1773 32.6244 30.3747C32.6246 30.5722 32.5729 30.7663 32.4744 30.9374Z" fill="white"/>
</svg>
