<svg xmlns="http://www.w3.org/2000/svg" width="36" height="36" viewBox="0 0 36 36" fill="none">
<path d="M27.5 13.8749V27.3749C27.5 27.6733 27.3815 27.9595 27.1705 28.1704C26.9595 28.3814 26.6734 28.4999 26.375 28.4999H18.5C18.2016 28.4999 17.9155 28.3814 17.7045 28.1704C17.4935 27.9595 17.375 27.6733 17.375 27.3749V20.0624C17.375 19.9132 17.3157 19.7702 17.2102 19.6647C17.1048 19.5592 16.9617 19.4999 16.8125 19.4999H11.1875C11.0383 19.4999 10.8952 19.5592 10.7898 19.6647C10.6843 19.7702 10.625 19.9132 10.625 20.0624V27.3749C10.625 27.6733 10.5065 27.9595 10.2955 28.1704C10.0845 28.3814 9.79837 28.4999 9.5 28.4999H1.625C1.32663 28.4999 1.04048 28.3814 0.829505 28.1704C0.618527 27.9595 0.5 27.6733 0.5 27.3749V13.8749C0.500277 13.2783 0.737511 12.7062 1.15953 12.2845L12.4095 1.03447C12.8314 0.612827 13.4035 0.375977 14 0.375977C14.5965 0.375977 15.1686 0.612827 15.5905 1.03447L26.8405 12.2845C27.2625 12.7062 27.4997 13.2783 27.5 13.8749Z" fill="black"/>
<circle cx="33" cy="3" r="3"/>
</svg>