<svg width="40" height="40" viewBox="0 0 40 40" fill="none" xmlns="http://www.w3.org/2000/svg">
<path d="M37.5 15.9375C37.5 26.875 21.2828 35.7281 20.5922 36.0938C20.4102 36.1917 20.2067 36.2429 20 36.2429C19.7933 36.2429 19.5898 36.1917 19.4078 36.0938C18.7172 35.7281 2.5 26.875 2.5 15.9375C2.50289 13.3691 3.52447 10.9067 5.3406 9.0906C7.15673 7.27447 9.6191 6.25289 12.1875 6.25C15.4141 6.25 18.2391 7.6375 20 9.98281C21.7609 7.6375 24.5859 6.25 27.8125 6.25C30.3809 6.25289 32.8433 7.27447 34.6594 9.0906C36.4755 10.9067 37.4971 13.3691 37.5 15.9375Z" fill="white"/>
</svg>
