<svg width="40" height="40" viewBox="0 0 40 40" fill="none" xmlns="http://www.w3.org/2000/svg">
<path d="M37.1343 18.3844L24.6343 30.8844C24.4595 31.0594 24.2366 31.1786 23.994 31.2269C23.7514 31.2752 23.4999 31.2505 23.2714 31.1558C23.0429 31.0611 22.8476 30.9007 22.7103 30.695C22.5729 30.4892 22.4997 30.2474 22.4999 30V23.7859C13.578 24.2922 7.46084 30.0781 5.74365 31.9109C5.47402 32.1989 5.12042 32.3945 4.73319 32.4698C4.34596 32.5452 3.94482 32.4965 3.58687 32.3307C3.22892 32.1649 2.93238 31.8904 2.73947 31.5463C2.54656 31.2021 2.4671 30.806 2.51241 30.4141C3.09209 25.3734 5.85303 20.525 10.2874 16.7625C13.9702 13.6375 18.4468 11.6547 22.4999 11.3078V5.00001C22.4997 4.75264 22.5729 4.51077 22.7103 4.30503C22.8476 4.09929 23.0429 3.93892 23.2714 3.84423C23.4999 3.74954 23.7514 3.72478 23.994 3.7731C24.2366 3.82141 24.4595 3.94062 24.6343 4.11563L37.1343 16.6156C37.2505 16.7317 37.3427 16.8696 37.4056 17.0213C37.4685 17.1731 37.5009 17.3357 37.5009 17.5C37.5009 17.6643 37.4685 17.8269 37.4056 17.9787C37.3427 18.1304 37.2505 18.2683 37.1343 18.3844Z" fill="white"/>
</svg>
