<svg width="40" height="40" viewBox="0 0 40 40" fill="none" xmlns="http://www.w3.org/2000/svg">
<path d="M37.5 14.691C37.5 25.6285 21.2828 34.4817 20.5922 34.8473C20.4102 34.9452 20.2067 34.9965 20 34.9965C19.7933 34.9965 19.5898 34.9452 19.4078 34.8473C18.7172 34.4817 2.5 25.6285 2.5 14.691C2.50289 12.1226 3.52447 9.66027 5.3406 7.84414C7.15673 6.02801 9.6191 5.00643 12.1875 5.00354C15.4141 5.00354 18.2391 6.39104 20 8.73635C21.7609 6.39104 24.5859 5.00354 27.8125 5.00354C30.3809 5.00643 32.8433 6.02801 34.6594 7.84414C36.4755 9.66027 37.4971 12.1226 37.5 14.691Z" fill="#FF5924"/>
</svg>
