<svg width="40" height="40" viewBox="0 0 40 40" fill="none" xmlns="http://www.w3.org/2000/svg">
<path d="M20.0001 3.75C17.1946 3.74939 14.4367 4.47514 11.9949 5.85661C9.55308 7.23808 7.51051 9.22821 6.06602 11.6333C4.62153 14.0384 3.82432 16.7764 3.75199 19.581C3.67965 22.3856 4.33466 25.1612 5.65325 27.6375L3.87982 32.9578C3.73292 33.3983 3.7116 33.871 3.81825 34.3229C3.9249 34.7749 4.15531 35.1881 4.48365 35.5165C4.81198 35.8448 5.22528 36.0752 5.6772 36.1819C6.12913 36.2885 6.60183 36.2672 7.04232 36.1203L12.3626 34.3469C14.542 35.506 16.9567 36.1534 19.4236 36.24C21.8905 36.3266 24.3447 35.85 26.5999 34.8465C28.8551 33.8429 30.8521 32.3388 32.4392 30.4483C34.0263 28.5577 35.1619 26.3304 35.7597 23.9355C36.3575 21.5406 36.4019 19.0409 35.8894 16.6263C35.3769 14.2117 34.3211 11.9455 32.802 9.99987C31.283 8.05421 29.3407 6.48019 27.1225 5.39727C24.9043 4.31436 22.4685 3.75101 20.0001 3.75ZM13.1251 21.875C12.7543 21.875 12.3918 21.765 12.0834 21.559C11.7751 21.353 11.5348 21.0601 11.3929 20.7175C11.2509 20.3749 11.2138 19.9979 11.2862 19.6342C11.3585 19.2705 11.5371 18.9364 11.7993 18.6742C12.0615 18.412 12.3956 18.2334 12.7593 18.161C13.123 18.0887 13.5 18.1258 13.8427 18.2677C14.1853 18.4096 14.4781 18.65 14.6841 18.9583C14.8902 19.2666 15.0001 19.6292 15.0001 20C15.0001 20.4973 14.8026 20.9742 14.451 21.3258C14.0993 21.6775 13.6224 21.875 13.1251 21.875ZM20.0001 21.875C19.6293 21.875 19.2668 21.765 18.9584 21.559C18.6501 21.353 18.4098 21.0601 18.2679 20.7175C18.1259 20.3749 18.0888 19.9979 18.1612 19.6342C18.2335 19.2705 18.4121 18.9364 18.6743 18.6742C18.9365 18.412 19.2706 18.2334 19.6343 18.161C19.998 18.0887 20.375 18.1258 20.7177 18.2677C21.0603 18.4096 21.3531 18.65 21.5591 18.9583C21.7652 19.2666 21.8751 19.6292 21.8751 20C21.8751 20.4973 21.6776 20.9742 21.326 21.3258C20.9743 21.6775 20.4974 21.875 20.0001 21.875ZM26.8751 21.875C26.5043 21.875 26.1418 21.765 25.8334 21.559C25.5251 21.353 25.2848 21.0601 25.1429 20.7175C25.0009 20.3749 24.9638 19.9979 25.0362 19.6342C25.1085 19.2705 25.2871 18.9364 25.5493 18.6742C25.8115 18.412 26.1456 18.2334 26.5093 18.161C26.873 18.0887 27.25 18.1258 27.5927 18.2677C27.9353 18.4096 28.2281 18.65 28.4341 18.9583C28.6402 19.2666 28.7501 19.6292 28.7501 20C28.7501 20.4973 28.5526 20.9742 28.201 21.3258C27.8493 21.6775 27.3724 21.875 26.8751 21.875Z" fill="white"/>
</svg>
