<svg width="720" height="70" viewBox="0 0 720 70" fill="none" xmlns="http://www.w3.org/2000/svg">
<rect x="15.9998" y="23.0001" width="24" height="24" rx="12" stroke="#C6C6C6" stroke-width="2.66667"/>
<path d="M56.4575 28.2988C55.6828 28.2988 55.016 28.1549 54.457 27.8672C53.9036 27.5739 53.4748 27.1672 53.1704 26.647C52.866 26.1268 52.6973 25.5264 52.6641 24.8457L52.6558 24.7544H54.7476L54.7559 24.8208C54.778 25.1252 54.8527 25.3991 54.98 25.6426C55.1128 25.8805 55.3009 26.0715 55.5444 26.2153C55.7879 26.3537 56.084 26.4229 56.4326 26.4229C57.0137 26.4229 57.4536 26.2541 57.7524 25.9165C58.0568 25.5734 58.209 25.0781 58.209 24.4307V16.022H60.3423V24.4473C60.3423 25.6592 60.002 26.6055 59.3213 27.2861C58.6406 27.9613 57.686 28.2988 56.4575 28.2988ZM65.4805 28.1494C64.9105 28.1494 64.3986 28.0387 63.9448 27.8174C63.4966 27.596 63.1424 27.2834 62.8823 26.8794C62.6278 26.4699 62.5005 25.9884 62.5005 25.4351V25.4185C62.5005 24.6105 62.7965 23.9741 63.3887 23.5093C63.9863 23.0444 64.8385 22.7816 65.9453 22.7207L69.2988 22.5132V23.8745L66.2358 24.0737C65.6548 24.1069 65.2259 24.2287 64.9492 24.439C64.6725 24.6493 64.5342 24.9425 64.5342 25.3188V25.3354C64.5342 25.7228 64.6808 26.0244 64.9741 26.2402C65.2729 26.4561 65.652 26.564 66.1113 26.564C66.5264 26.564 66.8971 26.481 67.2236 26.3149C67.5501 26.1489 67.8075 25.9248 67.9956 25.6426C68.1838 25.3548 68.2778 25.0311 68.2778 24.6714V21.7993C68.2778 21.3455 68.134 20.9997 67.8462 20.7617C67.5584 20.5182 67.1323 20.3965 66.5679 20.3965C66.0975 20.3965 65.7129 20.4795 65.4141 20.6455C65.1152 20.806 64.9132 21.0356 64.8081 21.3345L64.7998 21.3677H62.8491L62.8574 21.293C62.9238 20.7839 63.123 20.3384 63.4551 19.9565C63.7871 19.5747 64.2271 19.2786 64.7749 19.0684C65.3228 18.8581 65.9536 18.7529 66.6675 18.7529C67.4533 18.7529 68.1174 18.8747 68.6597 19.1182C69.202 19.3561 69.6143 19.7048 69.8965 20.1641C70.1787 20.6178 70.3198 21.1629 70.3198 21.7993V28H68.2778V26.7549H68.1367C67.9707 27.0426 67.7549 27.2917 67.4893 27.502C67.2292 27.7122 66.9303 27.8727 66.5928 27.9834C66.2552 28.0941 65.8844 28.1494 65.4805 28.1494ZM72.8018 28V18.9272H74.8687V20.3218H75.0098C75.2256 19.8293 75.5521 19.4447 75.9893 19.168C76.4264 18.8913 76.9715 18.7529 77.6245 18.7529C78.6372 18.7529 79.4119 19.0462 79.9487 19.6328C80.4855 20.2194 80.7539 21.0522 80.7539 22.1313V28H78.687V22.6128C78.687 21.9045 78.5376 21.3732 78.2388 21.019C77.9455 20.6649 77.4862 20.4878 76.8608 20.4878C76.4513 20.4878 76.0972 20.5791 75.7983 20.7617C75.4995 20.9443 75.2699 21.2017 75.1094 21.5337C74.9489 21.8657 74.8687 22.2586 74.8687 22.7124V28H72.8018ZM87.0957 31.1875C86.2988 31.1875 85.6099 31.0824 85.0288 30.8721C84.4533 30.6618 83.9995 30.363 83.6675 29.9756C83.3354 29.5938 83.1335 29.1483 83.0615 28.6392L83.0698 28.6143H85.1284L85.145 28.6392C85.2114 28.9269 85.4134 29.1621 85.751 29.3447C86.0941 29.5329 86.5534 29.627 87.1289 29.627C87.8372 29.627 88.3851 29.4692 88.7725 29.1538C89.1654 28.8384 89.3618 28.3901 89.3618 27.8091V26.0659H89.2207C89.0492 26.3924 88.825 26.6691 88.5483 26.896C88.2772 27.1229 87.9645 27.2944 87.6104 27.4106C87.2617 27.5213 86.8771 27.5767 86.4565 27.5767C85.6929 27.5767 85.0316 27.394 84.4727 27.0288C83.9137 26.658 83.4821 26.1462 83.1777 25.4932C82.8789 24.8402 82.7295 24.0848 82.7295 23.2271V23.2104C82.7295 22.3361 82.8817 21.5669 83.186 20.9028C83.4904 20.2388 83.922 19.7186 84.481 19.3423C85.0454 18.966 85.7178 18.7778 86.498 18.7778C86.9186 18.7778 87.3032 18.8442 87.6519 18.9771C88.006 19.1099 88.3159 19.298 88.5815 19.5415C88.8527 19.785 89.0741 20.0783 89.2456 20.4214H89.3535V18.9272H91.4204V27.7759C91.4204 28.4731 91.2433 29.0763 90.8892 29.5854C90.5405 30.1001 90.0425 30.4958 89.395 30.7725C88.7476 31.0492 87.9811 31.1875 87.0957 31.1875ZM87.0957 25.9331C87.5716 25.9331 87.9811 25.8197 88.3242 25.5928C88.6673 25.3604 88.9302 25.0422 89.1128 24.6382C89.3009 24.2342 89.395 23.7638 89.395 23.2271V23.2104C89.395 22.6737 89.3009 22.2033 89.1128 21.7993C88.9302 21.3898 88.6673 21.0716 88.3242 20.8447C87.9811 20.6123 87.5716 20.4961 87.0957 20.4961C86.6143 20.4961 86.2048 20.6123 85.8672 20.8447C85.5352 21.0716 85.2806 21.3898 85.1035 21.7993C84.932 22.2033 84.8462 22.6737 84.8462 23.2104V23.2271C84.8462 23.7583 84.932 24.2287 85.1035 24.6382C85.2806 25.0422 85.5352 25.3604 85.8672 25.5928C86.2048 25.8197 86.6143 25.9331 87.0957 25.9331ZM95.687 28L93.2217 18.9272H95.2969L96.7993 25.7505H96.9487L98.6919 18.9272H100.659L102.411 25.7505H102.56L104.062 18.9272H106.113L103.647 28H101.489L99.7212 21.4258H99.5801L97.8203 28H95.687ZM111.45 28.1826C110.548 28.1826 109.771 27.9945 109.118 27.6182C108.465 27.2363 107.961 26.694 107.607 25.9912C107.258 25.2884 107.084 24.4473 107.084 23.4678V23.4512C107.084 22.4827 107.261 21.6471 107.615 20.9443C107.969 20.236 108.47 19.6937 109.118 19.3174C109.771 18.9411 110.548 18.7529 111.45 18.7529C112.352 18.7529 113.127 18.9411 113.774 19.3174C114.427 19.6937 114.931 20.2332 115.285 20.936C115.639 21.6388 115.816 22.4772 115.816 23.4512V23.4678C115.816 24.4473 115.639 25.2884 115.285 25.9912C114.937 26.694 114.436 27.2363 113.783 27.6182C113.135 27.9945 112.358 28.1826 111.45 28.1826ZM111.45 26.5059C111.926 26.5059 112.33 26.3869 112.662 26.1489C113 25.9054 113.257 25.5596 113.434 25.1113C113.611 24.6576 113.7 24.1125 113.7 23.4761V23.4595C113.7 22.8175 113.611 22.2725 113.434 21.8242C113.257 21.3704 113 21.0246 112.662 20.7866C112.33 20.5431 111.926 20.4214 111.45 20.4214C110.974 20.4214 110.568 20.5431 110.23 20.7866C109.892 21.0246 109.635 21.3704 109.458 21.8242C109.281 22.2725 109.192 22.8175 109.192 23.4595V23.4761C109.192 24.1125 109.281 24.6576 109.458 25.1113C109.635 25.5651 109.89 25.911 110.222 26.1489C110.559 26.3869 110.969 26.5059 111.45 26.5059ZM117.892 28V18.9272H119.958V20.3218H120.1C120.315 19.8293 120.642 19.4447 121.079 19.168C121.516 18.8913 122.061 18.7529 122.714 18.7529C123.727 18.7529 124.502 19.0462 125.039 19.6328C125.575 20.2194 125.844 21.0522 125.844 22.1313V28H123.777V22.6128C123.777 21.9045 123.627 21.3732 123.329 21.019C123.035 20.6649 122.576 20.4878 121.951 20.4878C121.541 20.4878 121.187 20.5791 120.888 20.7617C120.589 20.9443 120.36 21.2017 120.199 21.5337C120.039 21.8657 119.958 22.2586 119.958 22.7124V28H117.892ZM135.008 24.3394L134.925 21.5586H135.315L140.038 16.022H142.487L137.805 21.4258L136.61 22.48L135.008 24.3394ZM133.032 28V16.022H135.174V28H133.032ZM140.237 28L136.311 22.4634L137.822 21.0356L142.852 28H140.237ZM147.791 28.1826C146.889 28.1826 146.111 27.9945 145.458 27.6182C144.806 27.2363 144.302 26.694 143.948 25.9912C143.599 25.2884 143.425 24.4473 143.425 23.4678V23.4512C143.425 22.4827 143.602 21.6471 143.956 20.9443C144.31 20.236 144.811 19.6937 145.458 19.3174C146.111 18.9411 146.889 18.7529 147.791 18.7529C148.693 18.7529 149.468 18.9411 150.115 19.3174C150.768 19.6937 151.272 20.2332 151.626 20.936C151.98 21.6388 152.157 22.4772 152.157 23.4512V23.4678C152.157 24.4473 151.98 25.2884 151.626 25.9912C151.277 26.694 150.777 27.2363 150.124 27.6182C149.476 27.9945 148.699 28.1826 147.791 28.1826ZM147.791 26.5059C148.267 26.5059 148.671 26.3869 149.003 26.1489C149.34 25.9054 149.598 25.5596 149.775 25.1113C149.952 24.6576 150.041 24.1125 150.041 23.4761V23.4595C150.041 22.8175 149.952 22.2725 149.775 21.8242C149.598 21.3704 149.34 21.0246 149.003 20.7866C148.671 20.5431 148.267 20.4214 147.791 20.4214C147.315 20.4214 146.908 20.5431 146.571 20.7866C146.233 21.0246 145.976 21.3704 145.799 21.8242C145.622 22.2725 145.533 22.8175 145.533 23.4595V23.4761C145.533 24.1125 145.622 24.6576 145.799 25.1113C145.976 25.5651 146.23 25.911 146.562 26.1489C146.9 26.3869 147.31 26.5059 147.791 26.5059ZM154.232 28V18.9272H156.299V20.3218H156.44C156.595 19.8348 156.872 19.4557 157.271 19.1846C157.674 18.9134 158.175 18.7778 158.773 18.7778C158.928 18.7778 159.08 18.7889 159.229 18.811C159.384 18.8276 159.512 18.8498 159.611 18.8774V20.7285C159.445 20.6898 159.277 20.6621 159.105 20.6455C158.939 20.6234 158.765 20.6123 158.582 20.6123C158.123 20.6123 157.722 20.6981 157.378 20.8696C157.035 21.0412 156.77 21.2874 156.582 21.6084C156.393 21.9238 156.299 22.2974 156.299 22.729V28H154.232ZM164.957 28.1826C164.055 28.1826 163.28 27.9917 162.633 27.6099C161.991 27.228 161.496 26.6857 161.147 25.9829C160.798 25.2801 160.624 24.4473 160.624 23.4844V23.4761C160.624 22.5243 160.796 21.6942 161.139 20.9858C161.487 20.2775 161.98 19.7297 162.616 19.3423C163.253 18.9494 164 18.7529 164.857 18.7529C165.721 18.7529 166.462 18.9438 167.082 19.3257C167.707 19.702 168.189 20.2305 168.526 20.9111C168.864 21.5918 169.033 22.3887 169.033 23.3018V23.9824H161.662V22.5962H168.02L167.041 23.8911V23.0693C167.041 22.4661 166.949 21.9653 166.767 21.5669C166.584 21.1685 166.329 20.8696 166.003 20.6704C165.682 20.4712 165.308 20.3716 164.882 20.3716C164.456 20.3716 164.077 20.4767 163.745 20.687C163.419 20.8918 163.159 21.1961 162.965 21.6001C162.777 21.9985 162.683 22.4883 162.683 23.0693V23.8994C162.683 24.4583 162.777 24.937 162.965 25.3354C163.153 25.7284 163.419 26.0327 163.762 26.2485C164.11 26.4588 164.523 26.564 164.999 26.564C165.369 26.564 165.688 26.5114 165.953 26.4062C166.224 26.2956 166.443 26.1655 166.609 26.0161C166.775 25.8612 166.891 25.7145 166.958 25.5762L166.982 25.5181H168.941L168.925 25.5928C168.853 25.8861 168.72 26.1849 168.526 26.4893C168.338 26.7881 168.081 27.0675 167.754 27.3276C167.433 27.5822 167.041 27.7897 166.576 27.9502C166.111 28.1051 165.571 28.1826 164.957 28.1826ZM173.573 28.1494C173.003 28.1494 172.491 28.0387 172.038 27.8174C171.589 27.596 171.235 27.2834 170.975 26.8794C170.721 26.4699 170.593 25.9884 170.593 25.4351V25.4185C170.593 24.6105 170.889 23.9741 171.481 23.5093C172.079 23.0444 172.931 22.7816 174.038 22.7207L177.392 22.5132V23.8745L174.329 24.0737C173.748 24.1069 173.319 24.2287 173.042 24.439C172.765 24.6493 172.627 24.9425 172.627 25.3188V25.3354C172.627 25.7228 172.774 26.0244 173.067 26.2402C173.366 26.4561 173.745 26.564 174.204 26.564C174.619 26.564 174.99 26.481 175.316 26.3149C175.643 26.1489 175.9 25.9248 176.088 25.6426C176.277 25.3548 176.371 25.0311 176.371 24.6714V21.7993C176.371 21.3455 176.227 20.9997 175.939 20.7617C175.651 20.5182 175.225 20.3965 174.661 20.3965C174.19 20.3965 173.806 20.4795 173.507 20.6455C173.208 20.806 173.006 21.0356 172.901 21.3345L172.893 21.3677H170.942L170.95 21.293C171.017 20.7839 171.216 20.3384 171.548 19.9565C171.88 19.5747 172.32 19.2786 172.868 19.0684C173.416 18.8581 174.046 18.7529 174.76 18.7529C175.546 18.7529 176.21 18.8747 176.752 19.1182C177.295 19.3561 177.707 19.7048 177.989 20.1641C178.271 20.6178 178.413 21.1629 178.413 21.7993V28H176.371V26.7549H176.229C176.063 27.0426 175.848 27.2917 175.582 27.502C175.322 27.7122 175.023 27.8727 174.686 27.9834C174.348 28.0941 173.977 28.1494 173.573 28.1494ZM180.895 28V18.9272H182.961V20.3218H183.103C183.318 19.8293 183.645 19.4447 184.082 19.168C184.519 18.8913 185.064 18.7529 185.717 18.7529C186.73 18.7529 187.505 19.0462 188.042 19.6328C188.578 20.2194 188.847 21.0522 188.847 22.1313V28H186.78V22.6128C186.78 21.9045 186.63 21.3732 186.332 21.019C186.038 20.6649 185.579 20.4878 184.954 20.4878C184.544 20.4878 184.19 20.5791 183.891 20.7617C183.592 20.9443 183.363 21.2017 183.202 21.5337C183.042 21.8657 182.961 22.2586 182.961 22.7124V28H180.895ZM196.035 28V16.022H200.875C201.732 16.022 202.468 16.1742 203.083 16.4785C203.697 16.7829 204.167 17.2118 204.494 17.7651C204.82 18.3185 204.983 18.9771 204.983 19.7407V19.7573C204.983 20.5487 204.784 21.2515 204.386 21.8657C203.993 22.4744 203.442 22.9061 202.734 23.1606L205.349 28H202.908L200.551 23.4927C200.54 23.4927 200.523 23.4927 200.501 23.4927C200.479 23.4927 200.459 23.4927 200.443 23.4927H198.177V28H196.035ZM198.177 21.8491H200.65C201.331 21.8491 201.86 21.6693 202.236 21.3096C202.612 20.9499 202.8 20.4491 202.8 19.8071V19.7905C202.8 19.1652 202.604 18.6699 202.211 18.3047C201.824 17.9339 201.29 17.7485 200.609 17.7485H198.177V21.8491ZM210.977 28.1826C210.075 28.1826 209.3 27.9917 208.652 27.6099C208.01 27.228 207.515 26.6857 207.167 25.9829C206.818 25.2801 206.644 24.4473 206.644 23.4844V23.4761C206.644 22.5243 206.815 21.6942 207.158 20.9858C207.507 20.2775 207.999 19.7297 208.636 19.3423C209.272 18.9494 210.019 18.7529 210.877 18.7529C211.74 18.7529 212.482 18.9438 213.102 19.3257C213.727 19.702 214.208 20.2305 214.546 20.9111C214.883 21.5918 215.052 22.3887 215.052 23.3018V23.9824H207.681V22.5962H214.04L213.06 23.8911V23.0693C213.06 22.4661 212.969 21.9653 212.786 21.5669C212.604 21.1685 212.349 20.8696 212.022 20.6704C211.701 20.4712 211.328 20.3716 210.902 20.3716C210.476 20.3716 210.097 20.4767 209.765 20.687C209.438 20.8918 209.178 21.1961 208.984 21.6001C208.796 21.9985 208.702 22.4883 208.702 23.0693V23.8994C208.702 24.4583 208.796 24.937 208.984 25.3354C209.173 25.7284 209.438 26.0327 209.781 26.2485C210.13 26.4588 210.542 26.564 211.018 26.564C211.389 26.564 211.707 26.5114 211.973 26.4062C212.244 26.2956 212.462 26.1655 212.628 26.0161C212.794 25.8612 212.911 25.7145 212.977 25.5762L213.002 25.5181H214.961L214.944 25.5928C214.872 25.8861 214.74 26.1849 214.546 26.4893C214.358 26.7881 214.1 27.0675 213.774 27.3276C213.453 27.5822 213.06 27.7897 212.595 27.9502C212.13 28.1051 211.591 28.1826 210.977 28.1826ZM220.547 28.1826C219.778 28.1826 219.114 28.0747 218.555 27.8589C218.002 27.6375 217.565 27.3332 217.244 26.9458C216.923 26.5529 216.732 26.0991 216.671 25.5845V25.5679H218.721L218.729 25.5845C218.84 25.8999 219.048 26.1572 219.352 26.3564C219.656 26.5557 220.066 26.6553 220.581 26.6553C220.924 26.6553 221.225 26.6082 221.485 26.5142C221.745 26.4146 221.95 26.279 222.1 26.1074C222.249 25.9359 222.324 25.7367 222.324 25.5098V25.4932C222.324 25.2275 222.216 25.0062 222 24.8291C221.784 24.6465 221.427 24.4998 220.929 24.3892L219.46 24.0571C218.597 23.8634 217.955 23.5618 217.534 23.1523C217.119 22.7373 216.912 22.195 216.912 21.5254V21.5171C216.912 20.9692 217.064 20.4878 217.368 20.0728C217.678 19.6577 218.107 19.334 218.655 19.1016C219.203 18.8691 219.833 18.7529 220.547 18.7529C221.283 18.7529 221.917 18.8636 222.448 19.085C222.979 19.3063 223.395 19.6107 223.693 19.998C223.992 20.3854 224.164 20.8254 224.208 21.3179V21.3345H222.266L222.257 21.3096C222.18 21.0218 221.994 20.7783 221.701 20.5791C221.413 20.3743 221.026 20.272 220.539 20.272C220.235 20.272 219.961 20.319 219.717 20.4131C219.479 20.5072 219.291 20.64 219.153 20.8115C219.02 20.9775 218.954 21.174 218.954 21.4009V21.4092C218.954 21.6748 219.059 21.8934 219.269 22.0649C219.479 22.2365 219.828 22.3776 220.315 22.4883L221.784 22.812C222.675 23.0112 223.334 23.3073 223.76 23.7002C224.186 24.0931 224.399 24.6216 224.399 25.2856V25.3022C224.399 25.8778 224.233 26.3813 223.901 26.813C223.569 27.2446 223.112 27.5822 222.531 27.8257C221.95 28.0636 221.289 28.1826 220.547 28.1826ZM230.002 28.0415C228.962 28.0415 228.212 27.8506 227.752 27.4688C227.293 27.0869 227.063 26.4616 227.063 25.5928V20.5293H225.652V18.9272H227.063V16.7026H229.164V18.9272H231.073V20.5293H229.164V25.103C229.164 25.5513 229.258 25.8805 229.446 26.0908C229.639 26.2956 229.949 26.3979 230.375 26.3979C230.525 26.3979 230.647 26.3952 230.741 26.3896C230.84 26.3786 230.951 26.3675 231.073 26.3564V27.9502C230.929 27.9779 230.763 28 230.575 28.0166C230.392 28.0332 230.201 28.0415 230.002 28.0415ZM235.613 28.1494C235.043 28.1494 234.531 28.0387 234.078 27.8174C233.629 27.596 233.275 27.2834 233.015 26.8794C232.761 26.4699 232.633 25.9884 232.633 25.4351V25.4185C232.633 24.6105 232.929 23.9741 233.521 23.5093C234.119 23.0444 234.971 22.7816 236.078 22.7207L239.432 22.5132V23.8745L236.369 24.0737C235.788 24.1069 235.359 24.2287 235.082 24.439C234.805 24.6493 234.667 24.9425 234.667 25.3188V25.3354C234.667 25.7228 234.814 26.0244 235.107 26.2402C235.406 26.4561 235.785 26.564 236.244 26.564C236.659 26.564 237.03 26.481 237.356 26.3149C237.683 26.1489 237.94 25.9248 238.128 25.6426C238.317 25.3548 238.411 25.0311 238.411 24.6714V21.7993C238.411 21.3455 238.267 20.9997 237.979 20.7617C237.691 20.5182 237.265 20.3965 236.701 20.3965C236.23 20.3965 235.846 20.4795 235.547 20.6455C235.248 20.806 235.046 21.0356 234.941 21.3345L234.933 21.3677H232.982L232.99 21.293C233.057 20.7839 233.256 20.3384 233.588 19.9565C233.92 19.5747 234.36 19.2786 234.908 19.0684C235.456 18.8581 236.086 18.7529 236.8 18.7529C237.586 18.7529 238.25 18.8747 238.792 19.1182C239.335 19.3561 239.747 19.7048 240.029 20.1641C240.312 20.6178 240.453 21.1629 240.453 21.7993V28H238.411V26.7549H238.27C238.104 27.0426 237.888 27.2917 237.622 27.502C237.362 27.7122 237.063 27.8727 236.726 27.9834C236.388 28.0941 236.017 28.1494 235.613 28.1494ZM245.939 28.1826C245.264 28.1826 244.697 28.0526 244.238 27.7925C243.778 27.5269 243.433 27.1423 243.2 26.6387C242.968 26.1296 242.852 25.5153 242.852 24.7959V18.9272H244.918V24.3228C244.918 25.0256 245.057 25.554 245.333 25.9082C245.61 26.2624 246.061 26.4395 246.687 26.4395C247.129 26.4395 247.503 26.3481 247.807 26.1655C248.117 25.9829 248.349 25.7256 248.504 25.3936C248.659 25.0615 248.737 24.6686 248.737 24.2148V18.9272H250.804V28H248.737V26.6221H248.596C248.385 27.109 248.053 27.4909 247.6 27.7676C247.151 28.0443 246.598 28.1826 245.939 28.1826ZM253.327 28V18.9272H255.394V20.3218H255.535C255.69 19.8348 255.967 19.4557 256.365 19.1846C256.769 18.9134 257.27 18.7778 257.868 18.7778C258.023 18.7778 258.175 18.7889 258.324 18.811C258.479 18.8276 258.606 18.8498 258.706 18.8774V20.7285C258.54 20.6898 258.371 20.6621 258.2 20.6455C258.034 20.6234 257.859 20.6123 257.677 20.6123C257.217 20.6123 256.816 20.6981 256.473 20.8696C256.13 21.0412 255.864 21.2874 255.676 21.6084C255.488 21.9238 255.394 22.2974 255.394 22.729V28H253.327ZM262.757 28.1494C262.187 28.1494 261.675 28.0387 261.221 27.8174C260.773 27.596 260.419 27.2834 260.159 26.8794C259.904 26.4699 259.777 25.9884 259.777 25.4351V25.4185C259.777 24.6105 260.073 23.9741 260.665 23.5093C261.263 23.0444 262.115 22.7816 263.222 22.7207L266.575 22.5132V23.8745L263.512 24.0737C262.931 24.1069 262.502 24.2287 262.226 24.439C261.949 24.6493 261.811 24.9425 261.811 25.3188V25.3354C261.811 25.7228 261.957 26.0244 262.25 26.2402C262.549 26.4561 262.928 26.564 263.388 26.564C263.803 26.564 264.174 26.481 264.5 26.3149C264.826 26.1489 265.084 25.9248 265.272 25.6426C265.46 25.3548 265.554 25.0311 265.554 24.6714V21.7993C265.554 21.3455 265.41 20.9997 265.123 20.7617C264.835 20.5182 264.409 20.3965 263.844 20.3965C263.374 20.3965 262.989 20.4795 262.69 20.6455C262.392 20.806 262.19 21.0356 262.084 21.3345L262.076 21.3677H260.125L260.134 21.293C260.2 20.7839 260.399 20.3384 260.731 19.9565C261.063 19.5747 261.503 19.2786 262.051 19.0684C262.599 18.8581 263.23 18.7529 263.944 18.7529C264.73 18.7529 265.394 18.8747 265.936 19.1182C266.478 19.3561 266.891 19.7048 267.173 20.1641C267.455 20.6178 267.596 21.1629 267.596 21.7993V28H265.554V26.7549H265.413C265.247 27.0426 265.031 27.2917 264.766 27.502C264.506 27.7122 264.207 27.8727 263.869 27.9834C263.532 28.0941 263.161 28.1494 262.757 28.1494ZM270.078 28V18.9272H272.145V20.3218H272.286C272.502 19.8293 272.828 19.4447 273.266 19.168C273.703 18.8913 274.248 18.7529 274.901 18.7529C275.914 18.7529 276.688 19.0462 277.225 19.6328C277.762 20.2194 278.03 21.0522 278.03 22.1313V28H275.963V22.6128C275.963 21.9045 275.814 21.3732 275.515 21.019C275.222 20.6649 274.763 20.4878 274.137 20.4878C273.728 20.4878 273.374 20.5791 273.075 20.7617C272.776 20.9443 272.546 21.2017 272.386 21.5337C272.225 21.8657 272.145 22.2586 272.145 22.7124V28H270.078ZM284.04 28.0415C283 28.0415 282.25 27.8506 281.791 27.4688C281.331 27.0869 281.102 26.4616 281.102 25.5928V20.5293H279.69V18.9272H281.102V16.7026H283.202V18.9272H285.111V20.5293H283.202V25.103C283.202 25.5513 283.296 25.8805 283.484 26.0908C283.678 26.2956 283.987 26.3979 284.414 26.3979C284.563 26.3979 284.685 26.3952 284.779 26.3896C284.878 26.3786 284.989 26.3675 285.111 26.3564V27.9502C284.967 27.9779 284.801 28 284.613 28.0166C284.43 28.0332 284.239 28.0415 284.04 28.0415Z" fill="black"/>
<path d="M60 41C58.5418 41.0017 57.1438 41.5816 56.1127 42.6127C55.0816 43.6438 54.5017 45.0418 54.5 46.5C54.5 51.2063 59.5 54.7606 59.7131 54.9094C59.7972 54.9683 59.8974 54.9999 60 54.9999C60.1026 54.9999 60.2028 54.9683 60.2869 54.9094C60.5 54.7606 65.5 51.2063 65.5 46.5C65.4983 45.0418 64.9184 43.6438 63.8873 42.6127C62.8562 41.5816 61.4582 41.0017 60 41ZM60 44.5C60.3956 44.5 60.7822 44.6173 61.1111 44.8371C61.44 45.0568 61.6964 45.3692 61.8478 45.7346C61.9991 46.1001 62.0387 46.5022 61.9616 46.8902C61.8844 47.2781 61.6939 47.6345 61.4142 47.9142C61.1345 48.1939 60.7781 48.3844 60.3902 48.4616C60.0022 48.5387 59.6001 48.4991 59.2346 48.3478C58.8692 48.1964 58.5568 47.94 58.3371 47.6111C58.1173 47.2822 58 46.8956 58 46.5C58 45.9696 58.2107 45.4609 58.5858 45.0858C58.9609 44.7107 59.4696 44.5 60 44.5Z" fill="#8E8E93"/>
<path d="M76.8066 54V51.5181H70.9712V50.1567C71.2977 49.6144 71.6297 49.0666 71.9673 48.5132C72.3049 47.9543 72.6452 47.3981 72.9883 46.8447C73.3369 46.2858 73.6855 45.7324 74.0342 45.1846C74.3828 44.6367 74.7287 44.0972 75.0718 43.5659C75.4204 43.0347 75.7635 42.52 76.1011 42.022H78.2676V50.1816H79.9692V51.5181H78.2676V54H76.8066ZM72.4985 50.1899H76.8149V43.4082H76.7153C76.4442 43.8122 76.1675 44.2327 75.8853 44.6699C75.603 45.1016 75.3153 45.5443 75.022 45.998C74.7342 46.4518 74.4465 46.9084 74.1587 47.3677C73.8709 47.827 73.5859 48.2863 73.3037 48.7456C73.027 49.1994 72.7586 49.6476 72.4985 50.0903V50.1899ZM87.7471 54V51.5181H81.9116V50.1567C82.2381 49.6144 82.5701 49.0666 82.9077 48.5132C83.2453 47.9543 83.5856 47.3981 83.9287 46.8447C84.2773 46.2858 84.626 45.7324 84.9746 45.1846C85.3232 44.6367 85.6691 44.0972 86.0122 43.5659C86.3608 43.0347 86.7039 42.52 87.0415 42.022H89.208V50.1816H90.9097V51.5181H89.208V54H87.7471ZM83.439 50.1899H87.7554V43.4082H87.6558C87.3846 43.8122 87.1079 44.2327 86.8257 44.6699C86.5435 45.1016 86.2557 45.5443 85.9624 45.998C85.6746 46.4518 85.3869 46.9084 85.0991 47.3677C84.8114 47.827 84.5264 48.2863 84.2441 48.7456C83.9674 49.1994 83.6991 49.6476 83.439 50.0903V50.1899ZM98.1895 54V42.022H99.9243L104.025 52.0161H104.158L108.258 42.022H109.993V54H108.599V44.8525H107.868L109.545 42.354L104.722 54H103.46L98.646 42.354L100.314 44.8525H99.584V54H98.1895ZM116.542 54.1577C115.696 54.1577 114.963 53.9723 114.343 53.6016C113.729 53.2253 113.253 52.6912 112.915 51.9995C112.583 51.3078 112.417 50.486 112.417 49.5342V49.5176C112.417 48.5602 112.583 47.7357 112.915 47.0439C113.253 46.3522 113.729 45.821 114.343 45.4502C114.963 45.0794 115.696 44.894 116.542 44.894C117.395 44.894 118.128 45.0794 118.742 45.4502C119.356 45.821 119.83 46.3522 120.162 47.0439C120.499 47.7357 120.668 48.5602 120.668 49.5176V49.5342C120.668 50.486 120.499 51.3078 120.162 51.9995C119.83 52.6912 119.356 53.2253 118.742 53.6016C118.128 53.9723 117.395 54.1577 116.542 54.1577ZM116.542 52.8794C117.107 52.8794 117.586 52.7466 117.979 52.481C118.371 52.2153 118.67 51.8335 118.875 51.3354C119.085 50.8374 119.19 50.237 119.19 49.5342V49.5176C119.19 48.8092 119.085 48.2061 118.875 47.708C118.67 47.21 118.371 46.8309 117.979 46.5708C117.586 46.3052 117.107 46.1724 116.542 46.1724C115.978 46.1724 115.499 46.3052 115.106 46.5708C114.714 46.8309 114.412 47.21 114.202 47.708C113.997 48.2061 113.895 48.8092 113.895 49.5176V49.5342C113.895 50.237 113.997 50.8374 114.202 51.3354C114.412 51.8335 114.714 52.2153 115.106 52.481C115.499 52.7466 115.978 52.8794 116.542 52.8794ZM125.98 54.1577C125.316 54.1577 124.73 54.0581 124.221 53.8589C123.712 53.6541 123.302 53.3691 122.992 53.0039C122.688 52.6387 122.508 52.2098 122.453 51.7173H123.93C124.052 52.0881 124.29 52.3869 124.644 52.6138C124.998 52.8407 125.46 52.9541 126.03 52.9541C126.434 52.9541 126.788 52.896 127.093 52.7798C127.403 52.658 127.646 52.4948 127.823 52.29C128 52.0798 128.089 51.839 128.089 51.5679V51.5513C128.089 51.2469 127.967 50.9896 127.724 50.7793C127.48 50.5635 127.082 50.3892 126.528 50.2563L125.142 49.9243C124.306 49.7251 123.692 49.4346 123.299 49.0527C122.906 48.6654 122.71 48.1507 122.71 47.5088V47.5005C122.71 47.0024 122.854 46.557 123.142 46.1641C123.435 45.7712 123.833 45.4613 124.337 45.2344C124.84 45.0075 125.408 44.894 126.039 44.894C126.664 44.894 127.217 44.9937 127.699 45.1929C128.186 45.3866 128.576 45.6632 128.869 46.0229C129.168 46.3826 129.351 46.806 129.417 47.293H127.998C127.903 46.9388 127.688 46.651 127.35 46.4297C127.013 46.2083 126.573 46.0977 126.03 46.0977C125.676 46.0977 125.361 46.1558 125.084 46.272C124.807 46.3826 124.589 46.5376 124.428 46.7368C124.268 46.936 124.188 47.1685 124.188 47.4341V47.4507C124.188 47.755 124.306 48.0068 124.544 48.2061C124.782 48.4053 125.164 48.5685 125.69 48.6958L127.068 49.0278C127.909 49.2326 128.534 49.5259 128.944 49.9077C129.359 50.2896 129.566 50.8014 129.566 51.4434V51.46C129.566 51.9912 129.409 52.4616 129.093 52.8711C128.778 53.2751 128.349 53.5905 127.807 53.8174C127.27 54.0443 126.661 54.1577 125.98 54.1577ZM138.05 56.9883V52.6553H137.917C137.757 52.9707 137.538 53.2419 137.261 53.4688C136.985 53.6901 136.664 53.8617 136.298 53.9834C135.939 54.0996 135.546 54.1577 135.12 54.1577C134.361 54.1577 133.7 53.9668 133.136 53.585C132.571 53.2031 132.134 52.6663 131.824 51.9746C131.514 51.2773 131.359 50.4639 131.359 49.5342V49.5176C131.359 48.5824 131.514 47.7689 131.824 47.0771C132.134 46.3854 132.571 45.8486 133.136 45.4668C133.7 45.085 134.361 44.894 135.12 44.894C135.524 44.894 135.903 44.9604 136.257 45.0933C136.617 45.2261 136.94 45.417 137.228 45.666C137.521 45.915 137.762 46.2083 137.95 46.5459H138.05V45.0518H139.494V56.9883H138.05ZM135.46 52.8794C135.997 52.8794 136.462 52.7438 136.854 52.4727C137.247 52.196 137.552 51.8086 137.768 51.3105C137.983 50.807 138.091 50.2148 138.091 49.5342V49.5176C138.091 48.8314 137.983 48.2393 137.768 47.7412C137.552 47.2376 137.247 46.8503 136.854 46.5791C136.462 46.3079 135.994 46.1724 135.452 46.1724C134.909 46.1724 134.442 46.3079 134.049 46.5791C133.656 46.8447 133.354 47.2266 133.144 47.7246C132.939 48.2227 132.837 48.8203 132.837 49.5176V49.5342C132.837 50.2259 132.942 50.8236 133.152 51.3271C133.363 51.8252 133.661 52.2098 134.049 52.481C134.442 52.7466 134.912 52.8794 135.46 52.8794ZM145.164 54.1577C144.488 54.1577 143.921 54.0304 143.462 53.7759C143.003 53.5158 142.657 53.1395 142.424 52.647C142.197 52.1489 142.084 51.5485 142.084 50.8457V45.0518H143.528V50.4971C143.528 51.2995 143.683 51.8971 143.993 52.29C144.309 52.6829 144.823 52.8794 145.537 52.8794C146.063 52.8794 146.506 52.777 146.865 52.5723C147.225 52.3675 147.496 52.077 147.679 51.7007C147.861 51.3188 147.953 50.8678 147.953 50.3477V45.0518H149.397V54H147.953V52.6636H147.82C147.598 53.1395 147.264 53.5075 146.815 53.7676C146.373 54.0277 145.822 54.1577 145.164 54.1577ZM155.747 54.1577C154.895 54.1577 154.162 53.9696 153.547 53.5933C152.939 53.217 152.468 52.6857 152.136 51.9995C151.81 51.3078 151.646 50.4943 151.646 49.5591V49.5508C151.646 48.6266 151.81 47.8159 152.136 47.1187C152.468 46.4214 152.936 45.8763 153.539 45.4834C154.142 45.0905 154.848 44.894 155.656 44.894C156.469 44.894 157.167 45.0822 157.748 45.4585C158.334 45.8348 158.782 46.3605 159.092 47.0356C159.408 47.7052 159.565 48.4855 159.565 49.3765V49.9409H152.394V48.7871H158.827L158.113 49.8413V49.2686C158.113 48.5658 158.008 47.9875 157.797 47.5337C157.587 47.0799 157.297 46.7424 156.926 46.521C156.555 46.2941 156.129 46.1807 155.647 46.1807C155.166 46.1807 154.734 46.2996 154.353 46.5376C153.976 46.77 153.677 47.1159 153.456 47.5752C153.235 48.0345 153.124 48.599 153.124 49.2686V49.8413C153.124 50.4777 153.232 51.0228 153.448 51.4766C153.664 51.9248 153.971 52.2707 154.369 52.5142C154.768 52.7521 155.238 52.8711 155.78 52.8711C156.184 52.8711 156.536 52.8158 156.834 52.7051C157.133 52.5944 157.38 52.4533 157.573 52.2817C157.767 52.1102 157.903 51.9359 157.98 51.7588L158.013 51.6841H159.458L159.441 51.7505C159.363 52.0549 159.225 52.3509 159.026 52.6387C158.832 52.9209 158.58 53.1782 158.271 53.4106C157.961 53.6375 157.593 53.8201 157.167 53.9585C156.746 54.0913 156.273 54.1577 155.747 54.1577ZM170.697 54.2822C169.822 54.2822 169.059 54.1411 168.406 53.8589C167.758 53.5711 167.244 53.1782 166.862 52.6802C166.486 52.1766 166.267 51.6011 166.206 50.9536L166.198 50.8623H167.692L167.7 50.9536C167.739 51.3521 167.891 51.6979 168.157 51.9912C168.428 52.279 168.788 52.5031 169.236 52.6636C169.69 52.8241 170.204 52.9043 170.78 52.9043C171.322 52.9043 171.804 52.8185 172.224 52.647C172.65 52.4699 172.985 52.2264 173.229 51.9165C173.472 51.6066 173.594 51.2497 173.594 50.8457V50.8374C173.594 50.3394 173.411 49.9215 173.046 49.584C172.681 49.2409 172.086 48.978 171.261 48.7954L169.933 48.5049C168.732 48.2393 167.858 47.8298 167.31 47.2764C166.768 46.7174 166.497 46.0036 166.497 45.1348V45.1265C166.502 44.4624 166.682 43.8758 167.036 43.3667C167.396 42.8576 167.891 42.4591 168.522 42.1714C169.158 41.8836 169.889 41.7397 170.713 41.7397C171.51 41.7397 172.216 41.8836 172.83 42.1714C173.444 42.4536 173.931 42.8354 174.291 43.3169C174.656 43.7983 174.858 44.3379 174.897 44.9355L174.905 45.0518H173.411L173.395 44.9438C173.339 44.5897 173.195 44.277 172.963 44.0059C172.73 43.7292 172.421 43.5106 172.033 43.3501C171.646 43.1896 171.192 43.1121 170.672 43.1177C170.174 43.1177 169.726 43.1951 169.327 43.3501C168.929 43.505 168.611 43.7292 168.373 44.0225C168.14 44.3102 168.024 44.6644 168.024 45.085V45.0933C168.024 45.5692 168.201 45.9704 168.555 46.2969C168.909 46.6234 169.493 46.8752 170.307 47.0522L171.635 47.3511C172.885 47.6278 173.779 48.029 174.316 48.5547C174.853 49.0804 175.121 49.7749 175.121 50.6382V50.6465C175.121 51.3936 174.938 52.0382 174.573 52.5806C174.208 53.1229 173.693 53.5435 173.029 53.8423C172.365 54.1356 171.588 54.2822 170.697 54.2822ZM180.608 54.0664C179.689 54.0664 179.022 53.881 178.607 53.5103C178.198 53.1395 177.993 52.528 177.993 51.6758V46.2471H176.582V45.0518H177.993V42.7358H179.487V45.0518H181.446V46.2471H179.487V51.3105C179.487 51.8363 179.587 52.2153 179.786 52.4478C179.985 52.6746 180.317 52.7881 180.782 52.7881C180.91 52.7881 181.017 52.7853 181.106 52.7798C181.2 52.7743 181.313 52.766 181.446 52.7549V53.9834C181.308 54.0055 181.17 54.0249 181.031 54.0415C180.893 54.0581 180.752 54.0664 180.608 54.0664ZM183.239 57.0464L183.961 52.3232H185.613L184.31 57.0464H183.239ZM194.786 54H193.607L196.056 42.022H197.234L196.471 45.7407L196.446 45.8735L195.607 49.9741L195.583 50.1069L194.786 54ZM198.695 54H197.508L198.313 50.1069L198.338 49.9741L199.177 45.8735L199.202 45.7407L199.965 42.022H201.152L198.695 54ZM201.551 50.6548H192.337L192.569 49.4595H194.968H195.143H198.87H199.044H201.783L201.551 50.6548ZM202.323 46.438H199.675H199.492H195.773H195.591H193.092L193.333 45.251H202.555L202.323 46.438ZM208.142 54.2822C207.256 54.2822 206.498 54.0277 205.867 53.5186C205.242 53.0094 204.76 52.2873 204.423 51.3521C204.085 50.4113 203.917 49.299 203.917 48.0151V47.9985C203.917 46.7147 204.085 45.6051 204.423 44.6699C204.76 43.7347 205.242 43.0125 205.867 42.5034C206.498 41.9943 207.256 41.7397 208.142 41.7397C209.027 41.7397 209.785 41.9943 210.416 42.5034C211.047 43.0125 211.531 43.7347 211.869 44.6699C212.212 45.6051 212.383 46.7147 212.383 47.9985V48.0151C212.383 49.299 212.212 50.4113 211.869 51.3521C211.531 52.2873 211.047 53.0094 210.416 53.5186C209.785 54.0277 209.027 54.2822 208.142 54.2822ZM208.142 52.979C208.717 52.979 209.207 52.777 209.611 52.373C210.02 51.9691 210.333 51.3963 210.549 50.6548C210.77 49.9132 210.881 49.0334 210.881 48.0151V47.9985C210.881 46.9803 210.77 46.1032 210.549 45.3672C210.333 44.6257 210.02 44.0557 209.611 43.6572C209.207 43.2533 208.717 43.0513 208.142 43.0513C207.572 43.0513 207.082 43.2533 206.672 43.6572C206.268 44.0557 205.958 44.6257 205.743 45.3672C205.527 46.1032 205.419 46.9803 205.419 47.9985V48.0151C205.419 49.0334 205.527 49.9132 205.743 50.6548C205.958 51.3963 206.268 51.9691 206.672 52.373C207.082 52.777 207.572 52.979 208.142 52.979ZM217.771 54V43.6821H217.638L214.591 45.8901V44.313L217.779 42.022H219.265V54H217.771ZM222.61 49.8496V48.5049H228.188V49.8496H222.61ZM234.754 54.2822C233.868 54.2822 233.11 54.0277 232.479 53.5186C231.854 53.0094 231.373 52.2873 231.035 51.3521C230.698 50.4113 230.529 49.299 230.529 48.0151V47.9985C230.529 46.7147 230.698 45.6051 231.035 44.6699C231.373 43.7347 231.854 43.0125 232.479 42.5034C233.11 41.9943 233.868 41.7397 234.754 41.7397C235.639 41.7397 236.397 41.9943 237.028 42.5034C237.659 43.0125 238.143 43.7347 238.481 44.6699C238.824 45.6051 238.996 46.7147 238.996 47.9985V48.0151C238.996 49.299 238.824 50.4113 238.481 51.3521C238.143 52.2873 237.659 53.0094 237.028 53.5186C236.397 54.0277 235.639 54.2822 234.754 54.2822ZM234.754 52.979C235.329 52.979 235.819 52.777 236.223 52.373C236.633 51.9691 236.945 51.3963 237.161 50.6548C237.382 49.9132 237.493 49.0334 237.493 48.0151V47.9985C237.493 46.9803 237.382 46.1032 237.161 45.3672C236.945 44.6257 236.633 44.0557 236.223 43.6572C235.819 43.2533 235.329 43.0513 234.754 43.0513C234.184 43.0513 233.694 43.2533 233.285 43.6572C232.881 44.0557 232.571 44.6257 232.355 45.3672C232.139 46.1032 232.031 46.9803 232.031 47.9985V48.0151C232.031 49.0334 232.139 49.9132 232.355 50.6548C232.571 51.3963 232.881 51.9691 233.285 52.373C233.694 52.777 234.184 52.979 234.754 52.979ZM244.383 54V43.6821H244.25L241.204 45.8901V44.313L244.391 42.022H245.877V54H244.383ZM248.566 57.0464L249.289 52.3232H250.94L249.637 57.0464H248.566ZM262.869 54.2822C261.994 54.2822 261.231 54.1411 260.578 53.8589C259.93 53.5711 259.416 53.1782 259.034 52.6802C258.657 52.1766 258.439 51.6011 258.378 50.9536L258.37 50.8623H259.864L259.872 50.9536C259.911 51.3521 260.063 51.6979 260.329 51.9912C260.6 52.279 260.959 52.5031 261.408 52.6636C261.861 52.8241 262.376 52.9043 262.952 52.9043C263.494 52.9043 263.975 52.8185 264.396 52.647C264.822 52.4699 265.157 52.2264 265.4 51.9165C265.644 51.6066 265.766 51.2497 265.766 50.8457V50.8374C265.766 50.3394 265.583 49.9215 265.218 49.584C264.853 49.2409 264.258 48.978 263.433 48.7954L262.105 48.5049C260.904 48.2393 260.03 47.8298 259.482 47.2764C258.94 46.7174 258.668 46.0036 258.668 45.1348V45.1265C258.674 44.4624 258.854 43.8758 259.208 43.3667C259.568 42.8576 260.063 42.4591 260.694 42.1714C261.33 41.8836 262.061 41.7397 262.885 41.7397C263.682 41.7397 264.388 41.8836 265.002 42.1714C265.616 42.4536 266.103 42.8354 266.463 43.3169C266.828 43.7983 267.03 44.3379 267.069 44.9355L267.077 45.0518H265.583L265.566 44.9438C265.511 44.5897 265.367 44.277 265.135 44.0059C264.902 43.7292 264.592 43.5106 264.205 43.3501C263.818 43.1896 263.364 43.1121 262.844 43.1177C262.346 43.1177 261.897 43.1951 261.499 43.3501C261.101 43.505 260.782 43.7292 260.544 44.0225C260.312 44.3102 260.196 44.6644 260.196 45.085V45.0933C260.196 45.5692 260.373 45.9704 260.727 46.2969C261.081 46.6234 261.665 46.8752 262.479 47.0522L263.807 47.3511C265.057 47.6278 265.951 48.029 266.488 48.5547C267.025 49.0804 267.293 49.7749 267.293 50.6382V50.6465C267.293 51.3936 267.11 52.0382 266.745 52.5806C266.38 53.1229 265.865 53.5435 265.201 53.8423C264.537 54.1356 263.76 54.2822 262.869 54.2822ZM269.634 54V45.0518H271.078V54H269.634ZM270.364 43.3252C270.093 43.3252 269.858 43.2284 269.659 43.0347C269.465 42.8354 269.368 42.6003 269.368 42.3291C269.368 42.0524 269.465 41.8172 269.659 41.6235C269.858 41.4299 270.093 41.333 270.364 41.333C270.641 41.333 270.876 41.4299 271.07 41.6235C271.264 41.8172 271.36 42.0524 271.36 42.3291C271.36 42.6003 271.264 42.8354 271.07 43.0347C270.876 43.2284 270.641 43.3252 270.364 43.3252ZM273.801 54V45.0518H275.245V46.3965H275.378C275.605 45.9206 275.931 45.5526 276.357 45.2925C276.784 45.0269 277.326 44.894 277.984 44.894C278.992 44.894 279.764 45.1818 280.3 45.7573C280.843 46.3273 281.114 47.1436 281.114 48.2061V54H279.669V48.5547C279.669 47.7467 279.498 47.1491 279.155 46.7617C278.817 46.3688 278.292 46.1724 277.578 46.1724C277.102 46.1724 276.689 46.2747 276.341 46.4795C275.992 46.6842 275.721 46.9748 275.527 47.3511C275.339 47.7274 275.245 48.1784 275.245 48.7041V54H273.801ZM287.414 57.1543C286.695 57.1543 286.067 57.0519 285.53 56.8472C284.993 56.6479 284.564 56.363 284.243 55.9922C283.928 55.627 283.731 55.2008 283.654 54.7139L283.67 54.7056H285.165L285.173 54.7139C285.25 55.0514 285.483 55.3281 285.87 55.5439C286.257 55.7653 286.772 55.876 287.414 55.876C288.216 55.876 288.842 55.6934 289.29 55.3281C289.744 54.9684 289.971 54.4593 289.971 53.8008V51.9912H289.838C289.65 52.3177 289.415 52.5972 289.132 52.8296C288.85 53.062 288.532 53.2391 288.178 53.3608C287.824 53.4771 287.442 53.5352 287.032 53.5352C286.263 53.5352 285.596 53.3525 285.032 52.9873C284.473 52.6165 284.041 52.1074 283.737 51.46C283.432 50.8125 283.28 50.071 283.28 49.2354V49.2188C283.28 48.3831 283.432 47.6416 283.737 46.9941C284.047 46.3411 284.484 45.8293 285.048 45.4585C285.613 45.0822 286.285 44.894 287.065 44.894C287.486 44.894 287.873 44.9604 288.228 45.0933C288.582 45.2261 288.894 45.4142 289.166 45.6577C289.442 45.9012 289.672 46.1917 289.854 46.5293H289.954V45.0518H291.398V53.8755C291.398 54.5396 291.235 55.1178 290.909 55.6104C290.588 56.1029 290.128 56.4819 289.531 56.7476C288.933 57.0187 288.228 57.1543 287.414 57.1543ZM287.348 52.2568C287.901 52.2568 288.374 52.1296 288.767 51.875C289.166 51.6149 289.47 51.258 289.68 50.8042C289.896 50.3504 290.004 49.8275 290.004 49.2354V49.2188C290.004 48.6266 289.896 48.1009 289.68 47.6416C289.47 47.1823 289.166 46.8226 288.767 46.5625C288.374 46.3024 287.901 46.1724 287.348 46.1724C286.794 46.1724 286.324 46.3024 285.937 46.5625C285.555 46.8226 285.261 47.1823 285.057 47.6416C284.857 48.1009 284.758 48.6266 284.758 49.2188V49.2354C284.758 49.8275 284.857 50.3504 285.057 50.8042C285.261 51.258 285.555 51.6149 285.937 51.875C286.324 52.1296 286.794 52.2568 287.348 52.2568ZM296.545 54.1577C295.98 54.1577 295.471 54.0498 295.018 53.834C294.569 53.6182 294.212 53.311 293.947 52.9126C293.687 52.5142 293.557 52.0438 293.557 51.5015V51.4849C293.557 50.688 293.839 50.0654 294.403 49.6172C294.973 49.1634 295.778 48.9061 296.819 48.8452L300.106 48.646V49.7998L296.993 49.999C296.312 50.0378 295.814 50.1789 295.499 50.4224C295.189 50.6659 295.034 51.009 295.034 51.4517V51.4683C295.034 51.922 295.206 52.2762 295.549 52.5308C295.892 52.7798 296.324 52.9043 296.844 52.9043C297.336 52.9043 297.773 52.8075 298.155 52.6138C298.537 52.4146 298.836 52.1462 299.052 51.8086C299.273 51.471 299.384 51.0892 299.384 50.6631V47.874C299.384 47.3206 299.215 46.9001 298.877 46.6123C298.545 46.319 298.045 46.1724 297.375 46.1724C296.838 46.1724 296.398 46.2692 296.055 46.4629C295.712 46.651 295.482 46.9194 295.366 47.2681L295.358 47.293H293.914L293.922 47.2432C293.999 46.7728 294.193 46.3633 294.503 46.0146C294.818 45.6605 295.225 45.3866 295.723 45.1929C296.221 44.9937 296.788 44.894 297.425 44.894C298.155 44.894 298.772 45.013 299.276 45.251C299.785 45.4889 300.17 45.832 300.43 46.2803C300.695 46.723 300.828 47.2542 300.828 47.874V54H299.384V52.6802H299.251C299.063 52.9956 298.833 53.264 298.562 53.4854C298.296 53.7067 297.995 53.8755 297.657 53.9917C297.32 54.1024 296.949 54.1577 296.545 54.1577ZM303.468 56.9883V45.0518H304.912V46.4795H305.045C305.228 46.1475 305.457 45.8652 305.734 45.6328C306.011 45.3949 306.326 45.2122 306.68 45.085C307.034 44.9577 307.419 44.894 307.834 44.894C308.592 44.894 309.251 45.0877 309.81 45.4751C310.374 45.8569 310.811 46.3937 311.121 47.0854C311.431 47.7772 311.586 48.5879 311.586 49.5176V49.5342C311.586 50.4694 311.431 51.2829 311.121 51.9746C310.811 52.6663 310.374 53.2031 309.81 53.585C309.251 53.9668 308.592 54.1577 307.834 54.1577C307.424 54.1577 307.037 54.0941 306.672 53.9668C306.312 53.834 305.991 53.6514 305.709 53.4189C305.432 53.1865 305.211 52.9098 305.045 52.5889H304.912V56.9883H303.468ZM307.502 52.8794C308.05 52.8794 308.517 52.7466 308.905 52.481C309.292 52.2098 309.588 51.8252 309.793 51.3271C310.003 50.8236 310.108 50.2259 310.108 49.5342V49.5176C310.108 48.8203 310.003 48.2227 309.793 47.7246C309.588 47.2266 309.292 46.8447 308.905 46.5791C308.517 46.3079 308.05 46.1724 307.502 46.1724C306.96 46.1724 306.492 46.3079 306.099 46.5791C305.706 46.8503 305.405 47.2349 305.194 47.7329C304.984 48.231 304.879 48.8258 304.879 49.5176V49.5342C304.879 50.2204 304.984 50.8153 305.194 51.3188C305.405 51.8169 305.706 52.2015 306.099 52.4727C306.492 52.7438 306.96 52.8794 307.502 52.8794ZM317.521 54.1577C316.674 54.1577 315.941 53.9723 315.321 53.6016C314.707 53.2253 314.231 52.6912 313.894 51.9995C313.562 51.3078 313.396 50.486 313.396 49.5342V49.5176C313.396 48.5602 313.562 47.7357 313.894 47.0439C314.231 46.3522 314.707 45.821 315.321 45.4502C315.941 45.0794 316.674 44.894 317.521 44.894C318.373 44.894 319.106 45.0794 319.721 45.4502C320.335 45.821 320.808 46.3522 321.14 47.0439C321.478 47.7357 321.646 48.5602 321.646 49.5176V49.5342C321.646 50.486 321.478 51.3078 321.14 51.9995C320.808 52.6912 320.335 53.2253 319.721 53.6016C319.106 53.9723 318.373 54.1577 317.521 54.1577ZM317.521 52.8794C318.085 52.8794 318.564 52.7466 318.957 52.481C319.35 52.2153 319.649 51.8335 319.854 51.3354C320.064 50.8374 320.169 50.237 320.169 49.5342V49.5176C320.169 48.8092 320.064 48.2061 319.854 47.708C319.649 47.21 319.35 46.8309 318.957 46.5708C318.564 46.3052 318.085 46.1724 317.521 46.1724C316.957 46.1724 316.478 46.3052 316.085 46.5708C315.692 46.8309 315.39 47.21 315.18 47.708C314.975 48.2061 314.873 48.8092 314.873 49.5176V49.5342C314.873 50.237 314.975 50.8374 315.18 51.3354C315.39 51.8335 315.692 52.2153 316.085 52.481C316.478 52.7466 316.957 52.8794 317.521 52.8794ZM323.888 54V45.0518H325.332V46.3799H325.465C325.636 45.9095 325.927 45.5443 326.336 45.2842C326.746 45.0241 327.252 44.894 327.855 44.894C327.994 44.894 328.129 44.9023 328.262 44.9189C328.401 44.93 328.506 44.9411 328.578 44.9521V46.355C328.428 46.3273 328.282 46.3079 328.138 46.2969C327.999 46.2803 327.85 46.272 327.689 46.272C327.23 46.272 326.823 46.3633 326.469 46.5459C326.115 46.7285 325.836 46.9831 325.631 47.3096C325.432 47.6361 325.332 48.0179 325.332 48.4551V54H323.888ZM333.766 54.1577C332.913 54.1577 332.18 53.9696 331.566 53.5933C330.957 53.217 330.487 52.6857 330.155 51.9995C329.828 51.3078 329.665 50.4943 329.665 49.5591V49.5508C329.665 48.6266 329.828 47.8159 330.155 47.1187C330.487 46.4214 330.954 45.8763 331.558 45.4834C332.161 45.0905 332.866 44.894 333.674 44.894C334.488 44.894 335.185 45.0822 335.766 45.4585C336.353 45.8348 336.801 46.3605 337.111 47.0356C337.426 47.7052 337.584 48.4855 337.584 49.3765V49.9409H330.412V48.7871H336.845L336.131 49.8413V49.2686C336.131 48.5658 336.026 47.9875 335.816 47.5337C335.606 47.0799 335.315 46.7424 334.944 46.521C334.574 46.2941 334.147 46.1807 333.666 46.1807C333.185 46.1807 332.753 46.2996 332.371 46.5376C331.995 46.77 331.696 47.1159 331.475 47.5752C331.253 48.0345 331.143 48.599 331.143 49.2686V49.8413C331.143 50.4777 331.25 51.0228 331.466 51.4766C331.682 51.9248 331.989 52.2707 332.388 52.5142C332.786 52.7521 333.257 52.8711 333.799 52.8711C334.203 52.8711 334.554 52.8158 334.853 52.7051C335.152 52.5944 335.398 52.4533 335.592 52.2817C335.785 52.1102 335.921 51.9359 335.999 51.7588L336.032 51.6841H337.476L337.459 51.7505C337.382 52.0549 337.244 52.3509 337.044 52.6387C336.851 52.9209 336.599 53.1782 336.289 53.4106C335.979 53.6375 335.611 53.8201 335.185 53.9585C334.764 54.0913 334.291 54.1577 333.766 54.1577ZM348.607 54.2822C347.722 54.2822 346.964 54.0277 346.333 53.5186C345.708 53.0094 345.226 52.2873 344.889 51.3521C344.551 50.4113 344.382 49.299 344.382 48.0151V47.9985C344.382 46.7147 344.551 45.6051 344.889 44.6699C345.226 43.7347 345.708 43.0125 346.333 42.5034C346.964 41.9943 347.722 41.7397 348.607 41.7397C349.493 41.7397 350.251 41.9943 350.882 42.5034C351.513 43.0125 351.997 43.7347 352.334 44.6699C352.678 45.6051 352.849 46.7147 352.849 47.9985V48.0151C352.849 49.299 352.678 50.4113 352.334 51.3521C351.997 52.2873 351.513 53.0094 350.882 53.5186C350.251 54.0277 349.493 54.2822 348.607 54.2822ZM348.607 52.979C349.183 52.979 349.673 52.777 350.077 52.373C350.486 51.9691 350.799 51.3963 351.015 50.6548C351.236 49.9132 351.347 49.0334 351.347 48.0151V47.9985C351.347 46.9803 351.236 46.1032 351.015 45.3672C350.799 44.6257 350.486 44.0557 350.077 43.6572C349.673 43.2533 349.183 43.0513 348.607 43.0513C348.037 43.0513 347.548 43.2533 347.138 43.6572C346.734 44.0557 346.424 44.6257 346.208 45.3672C345.993 46.1032 345.885 46.9803 345.885 47.9985V48.0151C345.885 49.0334 345.993 49.9132 346.208 50.6548C346.424 51.3963 346.734 51.9691 347.138 52.373C347.548 52.777 348.037 52.979 348.607 52.979ZM359.241 54.2822C358.499 54.2822 357.838 54.1356 357.257 53.8423C356.676 53.549 356.208 53.1506 355.854 52.647C355.505 52.1379 355.301 51.5651 355.24 50.9287L355.231 50.8374H356.667L356.676 50.9038C356.726 51.2856 356.864 51.6343 357.091 51.9497C357.323 52.2596 357.625 52.5059 357.996 52.6885C358.372 52.8711 358.792 52.9624 359.257 52.9624C359.789 52.9624 360.256 52.8462 360.66 52.6138C361.064 52.3758 361.38 52.0493 361.606 51.6343C361.833 51.2192 361.947 50.7433 361.947 50.2065V50.1899C361.947 49.6587 361.831 49.1883 361.598 48.7788C361.371 48.3638 361.059 48.04 360.66 47.8076C360.262 47.5752 359.802 47.459 359.282 47.459C358.884 47.459 358.516 47.5199 358.178 47.6416C357.846 47.7633 357.55 47.946 357.29 48.1895C357.185 48.2891 357.085 48.397 356.991 48.5132C356.903 48.6294 356.82 48.7594 356.742 48.9033H355.447L356.078 42.022H362.744V43.3584H357.257L356.85 47.4092H356.983C357.249 47.0052 357.605 46.6981 358.054 46.4878C358.502 46.272 358.997 46.1641 359.54 46.1641C360.292 46.1641 360.959 46.3384 361.54 46.687C362.121 47.0301 362.578 47.5033 362.91 48.1064C363.242 48.7041 363.408 49.3903 363.408 50.165V50.1816C363.408 50.984 363.228 51.6951 362.868 52.3149C362.514 52.9292 362.024 53.4106 361.399 53.7593C360.774 54.1079 360.054 54.2822 359.241 54.2822ZM369.733 41.7397C370.281 41.7397 370.82 41.8449 371.352 42.0552C371.888 42.2655 372.373 42.6058 372.804 43.0762C373.241 43.5465 373.59 44.1691 373.85 44.9438C374.11 45.7131 374.24 46.6621 374.24 47.791V47.8076C374.24 49.1689 374.058 50.3338 373.692 51.3022C373.327 52.2651 372.801 53.0039 372.115 53.5186C371.429 54.0277 370.602 54.2822 369.633 54.2822C368.964 54.2822 368.358 54.1605 367.815 53.917C367.279 53.668 366.83 53.3221 366.471 52.8794C366.111 52.4367 365.862 51.922 365.724 51.3354L365.699 51.2275H367.201L367.234 51.3188C367.356 51.6509 367.528 51.9386 367.749 52.1821C367.976 52.4256 368.247 52.6138 368.562 52.7466C368.883 52.8794 369.246 52.9458 369.65 52.9458C370.375 52.9458 370.964 52.7355 371.418 52.3149C371.872 51.8888 372.209 51.3244 372.431 50.6216C372.652 49.9188 372.777 49.1523 372.804 48.3223C372.81 48.2448 372.812 48.1701 372.812 48.0981C372.812 48.0207 372.812 47.946 372.812 47.874L372.456 45.8818C372.456 45.3561 372.334 44.8802 372.09 44.4541C371.852 44.028 371.529 43.6904 371.119 43.4414C370.715 43.1868 370.259 43.0596 369.75 43.0596C369.251 43.0596 368.798 43.1841 368.388 43.4331C367.979 43.6766 367.652 44.0086 367.409 44.4292C367.165 44.8442 367.043 45.3118 367.043 45.832V45.8486C367.043 46.3799 367.16 46.853 367.392 47.2681C367.625 47.6776 367.943 48.0013 368.347 48.2393C368.751 48.4717 369.21 48.5879 369.725 48.5879C370.245 48.5879 370.71 48.4717 371.119 48.2393C371.529 48.0068 371.852 47.6886 372.09 47.2847C372.334 46.8752 372.456 46.4103 372.456 45.8901V45.8818H372.945V48.04H372.655C372.511 48.3665 372.29 48.6709 371.991 48.9531C371.697 49.2354 371.338 49.4622 370.912 49.6338C370.491 49.8053 370.01 49.8911 369.467 49.8911C368.72 49.8911 368.051 49.7168 367.458 49.3682C366.866 49.0195 366.399 48.5436 366.056 47.9404C365.713 47.3317 365.541 46.6455 365.541 45.8818V45.8652C365.541 45.0684 365.721 44.36 366.081 43.7402C366.446 43.1149 366.944 42.6252 367.575 42.271C368.211 41.9168 368.931 41.7397 369.733 41.7397ZM380.574 54.2822C379.832 54.2822 379.171 54.1356 378.59 53.8423C378.009 53.549 377.541 53.1506 377.187 52.647C376.838 52.1379 376.634 51.5651 376.573 50.9287L376.564 50.8374H378L378.009 50.9038C378.059 51.2856 378.197 51.6343 378.424 51.9497C378.656 52.2596 378.958 52.5059 379.329 52.6885C379.705 52.8711 380.125 52.9624 380.59 52.9624C381.122 52.9624 381.589 52.8462 381.993 52.6138C382.397 52.3758 382.713 52.0493 382.939 51.6343C383.166 51.2192 383.28 50.7433 383.28 50.2065V50.1899C383.28 49.6587 383.164 49.1883 382.931 48.7788C382.704 48.3638 382.392 48.04 381.993 47.8076C381.595 47.5752 381.135 47.459 380.615 47.459C380.217 47.459 379.849 47.5199 379.511 47.6416C379.179 47.7633 378.883 47.946 378.623 48.1895C378.518 48.2891 378.418 48.397 378.324 48.5132C378.236 48.6294 378.153 48.7594 378.075 48.9033H376.78L377.411 42.022H384.077V43.3584H378.59L378.183 47.4092H378.316C378.582 47.0052 378.938 46.6981 379.387 46.4878C379.835 46.272 380.33 46.1641 380.873 46.1641C381.625 46.1641 382.292 46.3384 382.873 46.687C383.454 47.0301 383.911 47.5033 384.243 48.1064C384.575 48.7041 384.741 49.3903 384.741 50.165V50.1816C384.741 50.984 384.561 51.6951 384.201 52.3149C383.847 52.9292 383.357 53.4106 382.732 53.7593C382.107 54.1079 381.387 54.2822 380.574 54.2822ZM387.148 54V52.9707L391.199 48.5879C391.708 48.0345 392.106 47.578 392.394 47.2183C392.682 46.853 392.884 46.5238 393 46.2305C393.116 45.9372 393.174 45.6162 393.174 45.2676V45.251C393.174 44.8304 393.083 44.4541 392.9 44.1221C392.718 43.79 392.458 43.5272 392.12 43.3335C391.783 43.1398 391.379 43.043 390.908 43.043C390.432 43.043 390.014 43.1426 389.655 43.3418C389.295 43.5355 389.016 43.8094 388.816 44.1636C388.617 44.5122 388.518 44.9217 388.518 45.3921L388.509 45.4087L387.082 45.4004L387.065 45.3921C387.07 44.6838 387.242 44.0557 387.58 43.5078C387.917 42.9544 388.382 42.5228 388.974 42.2129C389.566 41.8975 390.244 41.7397 391.008 41.7397C391.705 41.7397 392.333 41.8864 392.892 42.1797C393.451 42.4674 393.891 42.8631 394.212 43.3667C394.538 43.8703 394.702 44.4458 394.702 45.0933V45.1099C394.702 45.5636 394.621 46.0008 394.461 46.4214C394.306 46.842 394.029 47.3096 393.631 47.8242C393.232 48.3333 392.671 48.9614 391.946 49.7085L388.85 52.9043L389.223 52.2153V52.9043L388.858 52.6553H394.901V54H387.148ZM397.408 54V52.9707L401.458 48.5879C401.968 48.0345 402.366 47.578 402.654 47.2183C402.942 46.853 403.144 46.5238 403.26 46.2305C403.376 45.9372 403.434 45.6162 403.434 45.2676V45.251C403.434 44.8304 403.343 44.4541 403.16 44.1221C402.978 43.79 402.717 43.5272 402.38 43.3335C402.042 43.1398 401.638 43.043 401.168 43.043C400.692 43.043 400.274 43.1426 399.915 43.3418C399.555 43.5355 399.275 43.8094 399.076 44.1636C398.877 44.5122 398.777 44.9217 398.777 45.3921L398.769 45.4087L397.341 45.4004L397.325 45.3921C397.33 44.6838 397.502 44.0557 397.839 43.5078C398.177 42.9544 398.642 42.5228 399.234 42.2129C399.826 41.8975 400.504 41.7397 401.268 41.7397C401.965 41.7397 402.593 41.8864 403.152 42.1797C403.711 42.4674 404.151 42.8631 404.472 43.3667C404.798 43.8703 404.961 44.4458 404.961 45.0933V45.1099C404.961 45.5636 404.881 46.0008 404.721 46.4214C404.566 46.842 404.289 47.3096 403.891 47.8242C403.492 48.3333 402.931 48.9614 402.206 49.7085L399.109 52.9043L399.483 52.2153V52.9043L399.118 52.6553H405.161V54H397.408Z" fill="#1C1C1E"/>
</svg>
