<svg width="90" height="19" viewBox="0 0 90 19" fill="none" xmlns="http://www.w3.org/2000/svg">
<path d="M8 2.01562C6.54182 2.01728 5.14383 2.59727 4.11274 3.62836C3.08165 4.65946 2.50165 6.05744 2.5 7.51562C2.5 12.2219 7.5 15.7762 7.71313 15.925C7.7972 15.9839 7.89735 16.0155 8 16.0155C8.10265 16.0155 8.2028 15.9839 8.28687 15.925C8.5 15.7762 13.5 12.2219 13.5 7.51562C13.4983 6.05744 12.9184 4.65946 11.8873 3.62836C10.8562 2.59727 9.45818 2.01728 8 2.01562ZM8 5.51562C8.39556 5.51562 8.78224 5.63292 9.11114 5.85269C9.44004 6.07245 9.69638 6.38481 9.84776 6.75026C9.99913 7.11571 10.0387 7.51784 9.96157 7.90581C9.8844 8.29377 9.69392 8.65013 9.41421 8.92984C9.13451 9.20954 8.77814 9.40003 8.39018 9.4772C8.00222 9.55437 7.60009 9.51476 7.23463 9.36338C6.86918 9.21201 6.55682 8.95566 6.33706 8.62677C6.1173 8.29787 6 7.91119 6 7.51562C6 6.98519 6.21071 6.47648 6.58579 6.10141C6.96086 5.72634 7.46957 5.51562 8 5.51562Z" fill="#FF5924"/>
<path d="M22.812 14.2646C22.0405 14.2646 21.3667 14.1401 20.7905 13.8911C20.2192 13.6372 19.7651 13.2905 19.4282 12.8511C19.0962 12.4067 18.9033 11.8989 18.8496 11.3276L18.8423 11.2471H20.1606L20.168 11.3276C20.2021 11.6792 20.3364 11.9844 20.5708 12.2432C20.8101 12.4971 21.1274 12.6948 21.5229 12.8364C21.9233 12.978 22.3774 13.0488 22.8853 13.0488C23.3638 13.0488 23.7886 12.9731 24.1597 12.8218C24.5356 12.6655 24.8311 12.4507 25.0459 12.1772C25.2607 11.9038 25.3682 11.5889 25.3682 11.2324V11.2251C25.3682 10.7856 25.207 10.417 24.8848 10.1191C24.5625 9.81641 24.0376 9.58447 23.3101 9.42334L22.1382 9.16699C21.0786 8.93262 20.3071 8.57129 19.8237 8.08301C19.3452 7.58984 19.106 6.95996 19.106 6.19336V6.18604C19.1108 5.6001 19.2695 5.08252 19.582 4.6333C19.8994 4.18408 20.3364 3.83252 20.8931 3.57861C21.4546 3.32471 22.0991 3.19775 22.8267 3.19775C23.5298 3.19775 24.1523 3.32471 24.6943 3.57861C25.2363 3.82764 25.666 4.16455 25.9834 4.58936C26.3057 5.01416 26.4839 5.49023 26.5181 6.01758L26.5254 6.12012H25.207L25.1924 6.0249C25.1436 5.7124 25.0166 5.43652 24.8115 5.19727C24.6064 4.95313 24.333 4.76025 23.9912 4.61865C23.6494 4.47705 23.249 4.40869 22.79 4.41357C22.3506 4.41357 21.9551 4.48193 21.6035 4.61865C21.252 4.75537 20.9712 4.95313 20.7612 5.21191C20.5562 5.46582 20.4536 5.77832 20.4536 6.14941V6.15674C20.4536 6.57666 20.6099 6.93066 20.9224 7.21875C21.2349 7.50684 21.75 7.729 22.4678 7.88525L23.6396 8.14893C24.7432 8.39307 25.5317 8.74707 26.0054 9.21094C26.479 9.6748 26.7158 10.2876 26.7158 11.0493V11.0566C26.7158 11.7158 26.5547 12.2847 26.2324 12.7632C25.9102 13.2417 25.4561 13.6128 24.8701 13.8765C24.2842 14.1353 23.5981 14.2646 22.812 14.2646ZM28.7812 14.0156V6.12012H30.0557V14.0156H28.7812ZM29.4258 4.59668C29.1865 4.59668 28.979 4.51123 28.8032 4.34033C28.6323 4.16455 28.5469 3.95703 28.5469 3.71777C28.5469 3.47363 28.6323 3.26611 28.8032 3.09521C28.979 2.92432 29.1865 2.83887 29.4258 2.83887C29.6699 2.83887 29.8774 2.92432 30.0483 3.09521C30.2192 3.26611 30.3047 3.47363 30.3047 3.71777C30.3047 3.95703 30.2192 4.16455 30.0483 4.34033C29.8774 4.51123 29.6699 4.59668 29.4258 4.59668ZM32.458 14.0156V6.12012H33.7324V7.30664H33.8496C34.0498 6.88672 34.3379 6.56201 34.7139 6.33252C35.0898 6.09814 35.5684 5.98096 36.1494 5.98096C37.0381 5.98096 37.7192 6.23486 38.1929 6.74268C38.6714 7.24561 38.9106 7.96582 38.9106 8.90332V14.0156H37.6362V9.21094C37.6362 8.49805 37.4849 7.9707 37.1821 7.62891C36.8843 7.28223 36.4204 7.10889 35.7905 7.10889C35.3706 7.10889 35.0068 7.19922 34.6992 7.37988C34.3916 7.56055 34.1523 7.81689 33.9814 8.14893C33.8154 8.48096 33.7324 8.87891 33.7324 9.34277V14.0156H32.458ZM44.4697 16.7988C43.835 16.7988 43.2808 16.7085 42.8071 16.5278C42.3335 16.3521 41.9551 16.1006 41.6719 15.7734C41.3936 15.4512 41.2202 15.0752 41.1519 14.6455L41.1665 14.6382H42.4849L42.4922 14.6455C42.5605 14.9434 42.7656 15.1875 43.1074 15.3779C43.4492 15.5732 43.9033 15.6709 44.4697 15.6709C45.1777 15.6709 45.7295 15.5098 46.125 15.1875C46.5254 14.8701 46.7256 14.4209 46.7256 13.8398V12.2432H46.6084C46.4424 12.5312 46.2349 12.7778 45.9858 12.9829C45.7368 13.188 45.4561 13.3442 45.1436 13.4517C44.8311 13.5542 44.4941 13.6055 44.1328 13.6055C43.4541 13.6055 42.8657 13.4443 42.3677 13.1221C41.8745 12.7949 41.4937 12.3457 41.2251 11.7744C40.9565 11.2031 40.8223 10.5488 40.8223 9.81152V9.79688C40.8223 9.05957 40.9565 8.40527 41.2251 7.83398C41.4985 7.25781 41.8843 6.80615 42.3823 6.479C42.8804 6.14697 43.4736 5.98096 44.1621 5.98096C44.5332 5.98096 44.875 6.03955 45.1875 6.15674C45.5 6.27393 45.7759 6.43994 46.0151 6.65479C46.2593 6.86963 46.4619 7.12598 46.623 7.42383H46.7109V6.12012H47.9854V13.9058C47.9854 14.4917 47.8413 15.002 47.5532 15.4365C47.27 15.8711 46.8647 16.2056 46.3374 16.4399C45.8101 16.6792 45.1875 16.7988 44.4697 16.7988ZM44.4111 12.4775C44.8994 12.4775 45.3169 12.3652 45.6636 12.1406C46.0151 11.9111 46.2837 11.5962 46.4692 11.1958C46.6597 10.7954 46.7549 10.334 46.7549 9.81152V9.79688C46.7549 9.27441 46.6597 8.81055 46.4692 8.40527C46.2837 8 46.0151 7.68262 45.6636 7.45312C45.3169 7.22363 44.8994 7.10889 44.4111 7.10889C43.9229 7.10889 43.5078 7.22363 43.166 7.45312C42.8291 7.68262 42.5703 8 42.3896 8.40527C42.2139 8.81055 42.126 9.27441 42.126 9.79688V9.81152C42.126 10.334 42.2139 10.7954 42.3896 11.1958C42.5703 11.5962 42.8291 11.9111 43.166 12.1406C43.5078 12.3652 43.9229 12.4775 44.4111 12.4775ZM52.5264 14.1548C52.0283 14.1548 51.5791 14.0596 51.1787 13.8691C50.7832 13.6787 50.4683 13.4077 50.2339 13.0562C50.0044 12.7046 49.8896 12.2896 49.8896 11.811V11.7964C49.8896 11.0933 50.1387 10.5439 50.6367 10.1484C51.1396 9.74805 51.8501 9.521 52.7681 9.46729L55.6685 9.2915V10.3096L52.9219 10.4854C52.3213 10.5195 51.8818 10.644 51.6035 10.8589C51.3301 11.0737 51.1934 11.3765 51.1934 11.7671V11.7817C51.1934 12.1821 51.3447 12.4946 51.6475 12.7192C51.9502 12.939 52.3311 13.0488 52.79 13.0488C53.2246 13.0488 53.6104 12.9634 53.9473 12.7925C54.2842 12.6167 54.5479 12.3799 54.7383 12.082C54.9336 11.7842 55.0312 11.4473 55.0312 11.0713V8.61035C55.0312 8.12207 54.8823 7.75098 54.5845 7.49707C54.2915 7.23828 53.8496 7.10889 53.2588 7.10889C52.7852 7.10889 52.397 7.19434 52.0942 7.36523C51.7915 7.53125 51.5889 7.76807 51.4863 8.07568L51.479 8.09766H50.2046L50.2119 8.05371C50.2803 7.63867 50.4512 7.27734 50.7246 6.96973C51.0029 6.65723 51.3618 6.41553 51.8013 6.24463C52.2407 6.06885 52.7412 5.98096 53.3027 5.98096C53.9473 5.98096 54.4917 6.08594 54.936 6.2959C55.3853 6.50586 55.7246 6.80859 55.9541 7.2041C56.1885 7.59473 56.3057 8.06348 56.3057 8.61035V14.0156H55.0312V12.8511H54.9141C54.748 13.1294 54.5454 13.3662 54.3062 13.5615C54.0718 13.7568 53.8057 13.9058 53.5078 14.0083C53.21 14.106 52.8828 14.1548 52.5264 14.1548ZM58.6348 16.6523V6.12012H59.9092V7.37988H60.0264C60.1875 7.08691 60.3901 6.83789 60.6343 6.63281C60.8784 6.42285 61.1567 6.26172 61.4692 6.14941C61.7817 6.03711 62.1211 5.98096 62.4873 5.98096C63.1562 5.98096 63.7373 6.15186 64.2305 6.49365C64.7285 6.83057 65.1143 7.3042 65.3877 7.91455C65.6611 8.5249 65.7979 9.24023 65.7979 10.0605V10.0752C65.7979 10.9004 65.6611 11.6182 65.3877 12.2285C65.1143 12.8389 64.7285 13.3125 64.2305 13.6494C63.7373 13.9863 63.1562 14.1548 62.4873 14.1548C62.126 14.1548 61.7842 14.0986 61.4619 13.9863C61.1445 13.8691 60.8613 13.708 60.6123 13.5029C60.3682 13.2979 60.1729 13.0537 60.0264 12.7705H59.9092V16.6523H58.6348ZM62.1943 13.0269C62.6777 13.0269 63.0903 12.9097 63.4321 12.6753C63.7739 12.436 64.0352 12.0967 64.2158 11.6572C64.4014 11.2129 64.4941 10.6855 64.4941 10.0752V10.0605C64.4941 9.44531 64.4014 8.91797 64.2158 8.47852C64.0352 8.03906 63.7739 7.70215 63.4321 7.46777C63.0903 7.22852 62.6777 7.10889 62.1943 7.10889C61.7158 7.10889 61.3032 7.22852 60.9565 7.46777C60.6099 7.70703 60.3438 8.04639 60.1582 8.48584C59.9727 8.92529 59.8799 9.4502 59.8799 10.0605V10.0752C59.8799 10.6807 59.9727 11.2056 60.1582 11.6499C60.3438 12.0894 60.6099 12.4287 60.9565 12.668C61.3032 12.9072 61.7158 13.0269 62.1943 13.0269ZM71.0347 14.1548C70.2876 14.1548 69.6406 13.9912 69.0938 13.6641C68.5518 13.332 68.1318 12.8608 67.834 12.2505C67.541 11.6401 67.3945 10.915 67.3945 10.0752V10.0605C67.3945 9.21582 67.541 8.48828 67.834 7.87793C68.1318 7.26758 68.5518 6.79883 69.0938 6.47168C69.6406 6.14453 70.2876 5.98096 71.0347 5.98096C71.7866 5.98096 72.4336 6.14453 72.9756 6.47168C73.5176 6.79883 73.9351 7.26758 74.228 7.87793C74.5259 8.48828 74.6748 9.21582 74.6748 10.0605V10.0752C74.6748 10.915 74.5259 11.6401 74.228 12.2505C73.9351 12.8608 73.5176 13.332 72.9756 13.6641C72.4336 13.9912 71.7866 14.1548 71.0347 14.1548ZM71.0347 13.0269C71.5327 13.0269 71.9551 12.9097 72.3018 12.6753C72.6484 12.4409 72.9121 12.104 73.0928 11.6646C73.2783 11.2251 73.3711 10.6953 73.3711 10.0752V10.0605C73.3711 9.43555 73.2783 8.90332 73.0928 8.46387C72.9121 8.02441 72.6484 7.68994 72.3018 7.46045C71.9551 7.22607 71.5327 7.10889 71.0347 7.10889C70.5366 7.10889 70.1143 7.22607 69.7676 7.46045C69.4209 7.68994 69.1548 8.02441 68.9692 8.46387C68.7886 8.90332 68.6982 9.43555 68.6982 10.0605V10.0752C68.6982 10.6953 68.7886 11.2251 68.9692 11.6646C69.1548 12.104 69.4209 12.4409 69.7676 12.6753C70.1143 12.9097 70.5366 13.0269 71.0347 13.0269ZM76.6523 14.0156V6.12012H77.9268V7.29199H78.0439C78.1953 6.87695 78.4517 6.55469 78.813 6.3252C79.1743 6.0957 79.6211 5.98096 80.1533 5.98096C80.2754 5.98096 80.395 5.98828 80.5122 6.00293C80.6343 6.0127 80.7271 6.02246 80.7905 6.03223V7.27002C80.6587 7.24561 80.5293 7.22852 80.4023 7.21875C80.2803 7.2041 80.1484 7.19678 80.0068 7.19678C79.6016 7.19678 79.2427 7.27734 78.9302 7.43848C78.6177 7.59961 78.3711 7.82422 78.1904 8.1123C78.0146 8.40039 77.9268 8.7373 77.9268 9.12305V14.0156H76.6523ZM85.3682 14.1548C84.6162 14.1548 83.9692 13.9888 83.4272 13.6567C82.8901 13.3247 82.4751 12.856 82.1821 12.2505C81.894 11.6401 81.75 10.9224 81.75 10.0972V10.0898C81.75 9.27441 81.894 8.55908 82.1821 7.94385C82.4751 7.32861 82.8877 6.84766 83.4199 6.50098C83.9521 6.1543 84.5747 5.98096 85.2876 5.98096C86.0054 5.98096 86.6206 6.14697 87.1333 6.479C87.6509 6.81104 88.0464 7.2749 88.3198 7.87061C88.5981 8.46143 88.7373 9.1499 88.7373 9.93604V10.4341H82.4092V9.41602H88.0854L87.4556 10.3462V9.84082C87.4556 9.2207 87.3628 8.71045 87.1772 8.31006C86.9917 7.90967 86.7354 7.61182 86.4082 7.4165C86.0811 7.21631 85.7051 7.11621 85.2803 7.11621C84.8555 7.11621 84.4746 7.22119 84.1377 7.43115C83.8057 7.63623 83.542 7.94141 83.3467 8.34668C83.1514 8.75195 83.0537 9.25 83.0537 9.84082V10.3462C83.0537 10.9077 83.1489 11.3887 83.3394 11.7891C83.5298 12.1846 83.8008 12.4897 84.1523 12.7046C84.5039 12.9146 84.9189 13.0195 85.3975 13.0195C85.7539 13.0195 86.064 12.9707 86.3276 12.873C86.5913 12.7754 86.8086 12.6509 86.9795 12.4995C87.1504 12.3481 87.27 12.1943 87.3384 12.0381L87.3677 11.9722H88.6421L88.6274 12.0308C88.5591 12.2993 88.437 12.5605 88.2612 12.8145C88.0903 13.0635 87.8682 13.2905 87.5947 13.4956C87.3213 13.6958 86.9966 13.8569 86.6206 13.979C86.2495 14.0962 85.832 14.1548 85.3682 14.1548Z" fill="black"/>
</svg>
