<svg width="137" height="18" viewBox="0 0 137 18" fill="none" xmlns="http://www.w3.org/2000/svg">
<path d="M7.5 2.4375C6.13295 2.43905 4.82234 2.9828 3.85569 3.94944C2.88904 4.91609 2.3453 6.2267 2.34375 7.59375C2.34375 12.0059 7.03125 15.3381 7.23105 15.4775C7.30987 15.5328 7.40377 15.5624 7.5 15.5624C7.59623 15.5624 7.69013 15.5328 7.76895 15.4775C7.96875 15.3381 12.6562 12.0059 12.6562 7.59375C12.6547 6.2267 12.111 4.91609 11.1443 3.94944C10.1777 2.9828 8.86705 2.43905 7.5 2.4375ZM7.5 5.71875C7.87084 5.71875 8.23335 5.82872 8.54169 6.03474C8.85004 6.24077 9.09036 6.53361 9.23227 6.87622C9.37419 7.21883 9.41132 7.59583 9.33897 7.95954C9.26663 8.32326 9.08805 8.65735 8.82582 8.91958C8.5636 9.1818 8.22951 9.36038 7.86579 9.43272C7.50208 9.50507 7.12508 9.46794 6.78247 9.32602C6.43986 9.18411 6.14702 8.94379 5.94099 8.63544C5.73497 8.3271 5.625 7.96459 5.625 7.59375C5.625 7.09647 5.82254 6.61956 6.17417 6.26792C6.52581 5.91629 7.00272 5.71875 7.5 5.71875Z" fill="#FF5924"/>
<path d="M21.812 14.249C21.0405 14.249 20.3667 14.1245 19.7905 13.8755C19.2192 13.6216 18.7651 13.2749 18.4282 12.8354C18.0962 12.3911 17.9033 11.8833 17.8496 11.312L17.8423 11.2314H19.1606L19.168 11.312C19.2021 11.6636 19.3364 11.9688 19.5708 12.2275C19.8101 12.4814 20.1274 12.6792 20.5229 12.8208C20.9233 12.9624 21.3774 13.0332 21.8853 13.0332C22.3638 13.0332 22.7886 12.9575 23.1597 12.8062C23.5356 12.6499 23.8311 12.4351 24.0459 12.1616C24.2607 11.8882 24.3682 11.5732 24.3682 11.2168V11.2095C24.3682 10.77 24.207 10.4014 23.8848 10.1035C23.5625 9.80078 23.0376 9.56885 22.3101 9.40771L21.1382 9.15137C20.0786 8.91699 19.3071 8.55566 18.8237 8.06738C18.3452 7.57422 18.106 6.94434 18.106 6.17773V6.17041C18.1108 5.58447 18.2695 5.06689 18.582 4.61768C18.8994 4.16846 19.3364 3.81689 19.8931 3.56299C20.4546 3.30908 21.0991 3.18213 21.8267 3.18213C22.5298 3.18213 23.1523 3.30908 23.6943 3.56299C24.2363 3.81201 24.666 4.14893 24.9834 4.57373C25.3057 4.99854 25.4839 5.47461 25.5181 6.00195L25.5254 6.10449H24.207L24.1924 6.00928C24.1436 5.69678 24.0166 5.4209 23.8115 5.18164C23.6064 4.9375 23.333 4.74463 22.9912 4.60303C22.6494 4.46143 22.249 4.39307 21.79 4.39795C21.3506 4.39795 20.9551 4.46631 20.6035 4.60303C20.252 4.73975 19.9712 4.9375 19.7612 5.19629C19.5562 5.4502 19.4536 5.7627 19.4536 6.13379V6.14111C19.4536 6.56104 19.6099 6.91504 19.9224 7.20312C20.2349 7.49121 20.75 7.71338 21.4678 7.86963L22.6396 8.1333C23.7432 8.37744 24.5317 8.73145 25.0054 9.19531C25.479 9.65918 25.7158 10.272 25.7158 11.0337V11.041C25.7158 11.7002 25.5547 12.269 25.2324 12.7476C24.9102 13.2261 24.4561 13.5972 23.8701 13.8608C23.2842 14.1196 22.5981 14.249 21.812 14.249ZM27.7812 14V6.10449H29.0557V14H27.7812ZM28.4258 4.58105C28.1865 4.58105 27.979 4.49561 27.8032 4.32471C27.6323 4.14893 27.5469 3.94141 27.5469 3.70215C27.5469 3.45801 27.6323 3.25049 27.8032 3.07959C27.979 2.90869 28.1865 2.82324 28.4258 2.82324C28.6699 2.82324 28.8774 2.90869 29.0483 3.07959C29.2192 3.25049 29.3047 3.45801 29.3047 3.70215C29.3047 3.94141 29.2192 4.14893 29.0483 4.32471C28.8774 4.49561 28.6699 4.58105 28.4258 4.58105ZM31.458 14V6.10449H32.7324V7.29102H32.8496C33.0498 6.87109 33.3379 6.54639 33.7139 6.31689C34.0898 6.08252 34.5684 5.96533 35.1494 5.96533C36.0381 5.96533 36.7192 6.21924 37.1929 6.72705C37.6714 7.22998 37.9106 7.9502 37.9106 8.8877V14H36.6362V9.19531C36.6362 8.48242 36.4849 7.95508 36.1821 7.61328C35.8843 7.2666 35.4204 7.09326 34.7905 7.09326C34.3706 7.09326 34.0068 7.18359 33.6992 7.36426C33.3916 7.54492 33.1523 7.80127 32.9814 8.1333C32.8154 8.46533 32.7324 8.86328 32.7324 9.32715V14H31.458ZM43.4697 16.7832C42.835 16.7832 42.2808 16.6929 41.8071 16.5122C41.3335 16.3364 40.9551 16.085 40.6719 15.7578C40.3936 15.4355 40.2202 15.0596 40.1519 14.6299L40.1665 14.6226H41.4849L41.4922 14.6299C41.5605 14.9277 41.7656 15.1719 42.1074 15.3623C42.4492 15.5576 42.9033 15.6553 43.4697 15.6553C44.1777 15.6553 44.7295 15.4941 45.125 15.1719C45.5254 14.8545 45.7256 14.4053 45.7256 13.8242V12.2275H45.6084C45.4424 12.5156 45.2349 12.7622 44.9858 12.9673C44.7368 13.1724 44.4561 13.3286 44.1436 13.436C43.8311 13.5386 43.4941 13.5898 43.1328 13.5898C42.4541 13.5898 41.8657 13.4287 41.3677 13.1064C40.8745 12.7793 40.4937 12.3301 40.2251 11.7588C39.9565 11.1875 39.8223 10.5332 39.8223 9.7959V9.78125C39.8223 9.04395 39.9565 8.38965 40.2251 7.81836C40.4985 7.24219 40.8843 6.79053 41.3823 6.46338C41.8804 6.13135 42.4736 5.96533 43.1621 5.96533C43.5332 5.96533 43.875 6.02393 44.1875 6.14111C44.5 6.2583 44.7759 6.42432 45.0151 6.63916C45.2593 6.854 45.4619 7.11035 45.623 7.4082H45.7109V6.10449H46.9854V13.8901C46.9854 14.4761 46.8413 14.9863 46.5532 15.4209C46.27 15.8555 45.8647 16.1899 45.3374 16.4243C44.8101 16.6636 44.1875 16.7832 43.4697 16.7832ZM43.4111 12.4619C43.8994 12.4619 44.3169 12.3496 44.6636 12.125C45.0151 11.8955 45.2837 11.5806 45.4692 11.1802C45.6597 10.7798 45.7549 10.3184 45.7549 9.7959V9.78125C45.7549 9.25879 45.6597 8.79492 45.4692 8.38965C45.2837 7.98438 45.0151 7.66699 44.6636 7.4375C44.3169 7.20801 43.8994 7.09326 43.4111 7.09326C42.9229 7.09326 42.5078 7.20801 42.166 7.4375C41.8291 7.66699 41.5703 7.98438 41.3896 8.38965C41.2139 8.79492 41.126 9.25879 41.126 9.78125V9.7959C41.126 10.3184 41.2139 10.7798 41.3896 11.1802C41.5703 11.5806 41.8291 11.8955 42.166 12.125C42.5078 12.3496 42.9229 12.4619 43.4111 12.4619ZM51.5264 14.1392C51.0283 14.1392 50.5791 14.0439 50.1787 13.8535C49.7832 13.6631 49.4683 13.3921 49.2339 13.0405C49.0044 12.689 48.8896 12.2739 48.8896 11.7954V11.7808C48.8896 11.0776 49.1387 10.5283 49.6367 10.1328C50.1396 9.73242 50.8501 9.50537 51.7681 9.45166L54.6685 9.27588V10.2939L51.9219 10.4697C51.3213 10.5039 50.8818 10.6284 50.6035 10.8433C50.3301 11.0581 50.1934 11.3608 50.1934 11.7515V11.7661C50.1934 12.1665 50.3447 12.479 50.6475 12.7036C50.9502 12.9233 51.3311 13.0332 51.79 13.0332C52.2246 13.0332 52.6104 12.9478 52.9473 12.7769C53.2842 12.6011 53.5479 12.3643 53.7383 12.0664C53.9336 11.7686 54.0312 11.4316 54.0312 11.0557V8.59473C54.0312 8.10645 53.8823 7.73535 53.5845 7.48145C53.2915 7.22266 52.8496 7.09326 52.2588 7.09326C51.7852 7.09326 51.397 7.17871 51.0942 7.34961C50.7915 7.51562 50.5889 7.75244 50.4863 8.06006L50.479 8.08203H49.2046L49.2119 8.03809C49.2803 7.62305 49.4512 7.26172 49.7246 6.9541C50.0029 6.6416 50.3618 6.3999 50.8013 6.229C51.2407 6.05322 51.7412 5.96533 52.3027 5.96533C52.9473 5.96533 53.4917 6.07031 53.936 6.28027C54.3853 6.49023 54.7246 6.79297 54.9541 7.18848C55.1885 7.5791 55.3057 8.04785 55.3057 8.59473V14H54.0312V12.8354H53.9141C53.748 13.1138 53.5454 13.3506 53.3062 13.5459C53.0718 13.7412 52.8057 13.8901 52.5078 13.9927C52.21 14.0903 51.8828 14.1392 51.5264 14.1392ZM57.6348 16.6367V6.10449H58.9092V7.36426H59.0264C59.1875 7.07129 59.3901 6.82227 59.6343 6.61719C59.8784 6.40723 60.1567 6.24609 60.4692 6.13379C60.7817 6.02148 61.1211 5.96533 61.4873 5.96533C62.1562 5.96533 62.7373 6.13623 63.2305 6.47803C63.7285 6.81494 64.1143 7.28857 64.3877 7.89893C64.6611 8.50928 64.7979 9.22461 64.7979 10.0449V10.0596C64.7979 10.8848 64.6611 11.6025 64.3877 12.2129C64.1143 12.8232 63.7285 13.2969 63.2305 13.6338C62.7373 13.9707 62.1562 14.1392 61.4873 14.1392C61.126 14.1392 60.7842 14.083 60.4619 13.9707C60.1445 13.8535 59.8613 13.6924 59.6123 13.4873C59.3682 13.2822 59.1729 13.0381 59.0264 12.7549H58.9092V16.6367H57.6348ZM61.1943 13.0112C61.6777 13.0112 62.0903 12.894 62.4321 12.6597C62.7739 12.4204 63.0352 12.0811 63.2158 11.6416C63.4014 11.1973 63.4941 10.6699 63.4941 10.0596V10.0449C63.4941 9.42969 63.4014 8.90234 63.2158 8.46289C63.0352 8.02344 62.7739 7.68652 62.4321 7.45215C62.0903 7.21289 61.6777 7.09326 61.1943 7.09326C60.7158 7.09326 60.3032 7.21289 59.9565 7.45215C59.6099 7.69141 59.3438 8.03076 59.1582 8.47021C58.9727 8.90967 58.8799 9.43457 58.8799 10.0449V10.0596C58.8799 10.665 58.9727 11.1899 59.1582 11.6343C59.3438 12.0737 59.6099 12.4131 59.9565 12.6523C60.3032 12.8916 60.7158 13.0112 61.1943 13.0112ZM70.0347 14.1392C69.2876 14.1392 68.6406 13.9756 68.0938 13.6484C67.5518 13.3164 67.1318 12.8452 66.834 12.2349C66.541 11.6245 66.3945 10.8994 66.3945 10.0596V10.0449C66.3945 9.2002 66.541 8.47266 66.834 7.8623C67.1318 7.25195 67.5518 6.7832 68.0938 6.45605C68.6406 6.12891 69.2876 5.96533 70.0347 5.96533C70.7866 5.96533 71.4336 6.12891 71.9756 6.45605C72.5176 6.7832 72.9351 7.25195 73.228 7.8623C73.5259 8.47266 73.6748 9.2002 73.6748 10.0449V10.0596C73.6748 10.8994 73.5259 11.6245 73.228 12.2349C72.9351 12.8452 72.5176 13.3164 71.9756 13.6484C71.4336 13.9756 70.7866 14.1392 70.0347 14.1392ZM70.0347 13.0112C70.5327 13.0112 70.9551 12.894 71.3018 12.6597C71.6484 12.4253 71.9121 12.0884 72.0928 11.6489C72.2783 11.2095 72.3711 10.6797 72.3711 10.0596V10.0449C72.3711 9.41992 72.2783 8.8877 72.0928 8.44824C71.9121 8.00879 71.6484 7.67432 71.3018 7.44482C70.9551 7.21045 70.5327 7.09326 70.0347 7.09326C69.5366 7.09326 69.1143 7.21045 68.7676 7.44482C68.4209 7.67432 68.1548 8.00879 67.9692 8.44824C67.7886 8.8877 67.6982 9.41992 67.6982 10.0449V10.0596C67.6982 10.6797 67.7886 11.2095 67.9692 11.6489C68.1548 12.0884 68.4209 12.4253 68.7676 12.6597C69.1143 12.894 69.5366 13.0112 70.0347 13.0112ZM75.6523 14V6.10449H76.9268V7.27637H77.0439C77.1953 6.86133 77.4517 6.53906 77.813 6.30957C78.1743 6.08008 78.6211 5.96533 79.1533 5.96533C79.2754 5.96533 79.395 5.97266 79.5122 5.9873C79.6343 5.99707 79.7271 6.00684 79.7905 6.0166V7.25439C79.6587 7.22998 79.5293 7.21289 79.4023 7.20312C79.2803 7.18848 79.1484 7.18115 79.0068 7.18115C78.6016 7.18115 78.2427 7.26172 77.9302 7.42285C77.6177 7.58398 77.3711 7.80859 77.1904 8.09668C77.0146 8.38477 76.9268 8.72168 76.9268 9.10742V14H75.6523ZM84.3682 14.1392C83.6162 14.1392 82.9692 13.9731 82.4272 13.6411C81.8901 13.3091 81.4751 12.8403 81.1821 12.2349C80.894 11.6245 80.75 10.9067 80.75 10.0815V10.0742C80.75 9.25879 80.894 8.54346 81.1821 7.92822C81.4751 7.31299 81.8877 6.83203 82.4199 6.48535C82.9521 6.13867 83.5747 5.96533 84.2876 5.96533C85.0054 5.96533 85.6206 6.13135 86.1333 6.46338C86.6509 6.79541 87.0464 7.25928 87.3198 7.85498C87.5981 8.4458 87.7373 9.13428 87.7373 9.92041V10.4185H81.4092V9.40039H87.0854L86.4556 10.3306V9.8252C86.4556 9.20508 86.3628 8.69482 86.1772 8.29443C85.9917 7.89404 85.7354 7.59619 85.4082 7.40088C85.0811 7.20068 84.7051 7.10059 84.2803 7.10059C83.8555 7.10059 83.4746 7.20557 83.1377 7.41553C82.8057 7.62061 82.542 7.92578 82.3467 8.33105C82.1514 8.73633 82.0537 9.23438 82.0537 9.8252V10.3306C82.0537 10.8921 82.1489 11.373 82.3394 11.7734C82.5298 12.1689 82.8008 12.4741 83.1523 12.689C83.5039 12.8989 83.9189 13.0039 84.3975 13.0039C84.7539 13.0039 85.064 12.9551 85.3276 12.8574C85.5913 12.7598 85.8086 12.6353 85.9795 12.4839C86.1504 12.3325 86.27 12.1787 86.3384 12.0225L86.3677 11.9565H87.6421L87.6274 12.0151C87.5591 12.2837 87.437 12.5449 87.2612 12.7988C87.0903 13.0479 86.8682 13.2749 86.5947 13.48C86.3213 13.6802 85.9966 13.8413 85.6206 13.9634C85.2495 14.0806 84.832 14.1392 84.3682 14.1392Z" fill="#48484A"/>
<line x1="97.5" y1="3" x2="97.5" y2="15" stroke="#C6C6C6"/>
<path d="M107.007 14V12.8354H110.273C111.069 12.8354 111.672 12.6768 112.083 12.3594C112.493 12.042 112.698 11.5806 112.698 10.9751V10.9604C112.698 10.5552 112.603 10.2158 112.412 9.94238C112.222 9.66895 111.936 9.46387 111.555 9.32715C111.179 9.19043 110.71 9.12207 110.149 9.12207H107.007V7.98682H109.775C110.576 7.98682 111.177 7.84521 111.577 7.56201C111.982 7.27881 112.185 6.85889 112.185 6.30225V6.2876C112.185 5.75049 112.002 5.33545 111.636 5.04248C111.274 4.74463 110.767 4.5957 110.112 4.5957H107.007V3.43115H110.391C111.04 3.43115 111.597 3.53857 112.061 3.75342C112.529 3.96826 112.888 4.27344 113.137 4.66895C113.391 5.05957 113.518 5.52344 113.518 6.06055V6.0752C113.518 6.44141 113.435 6.78564 113.269 7.10791C113.108 7.43018 112.891 7.70117 112.617 7.9209C112.344 8.14062 112.036 8.28223 111.694 8.3457V8.46289C112.178 8.52148 112.595 8.66553 112.947 8.89502C113.298 9.12451 113.569 9.42236 113.76 9.78857C113.955 10.1499 114.053 10.5625 114.053 11.0264V11.041C114.053 11.6562 113.909 12.186 113.621 12.6304C113.337 13.0698 112.93 13.4092 112.397 13.6484C111.865 13.8828 111.223 14 110.471 14H107.007ZM106.348 14V3.43115H107.666V14H106.348ZM116.865 14V12.8354H120.132C120.928 12.8354 121.531 12.6768 121.941 12.3594C122.351 12.042 122.556 11.5806 122.556 10.9751V10.9604C122.556 10.5552 122.461 10.2158 122.271 9.94238C122.08 9.66895 121.794 9.46387 121.414 9.32715C121.038 9.19043 120.569 9.12207 120.007 9.12207H116.865V7.98682H119.634C120.435 7.98682 121.035 7.84521 121.436 7.56201C121.841 7.27881 122.043 6.85889 122.043 6.30225V6.2876C122.043 5.75049 121.86 5.33545 121.494 5.04248C121.133 4.74463 120.625 4.5957 119.971 4.5957H116.865V3.43115H120.249C120.898 3.43115 121.455 3.53857 121.919 3.75342C122.388 3.96826 122.747 4.27344 122.996 4.66895C123.25 5.05957 123.376 5.52344 123.376 6.06055V6.0752C123.376 6.44141 123.293 6.78564 123.127 7.10791C122.966 7.43018 122.749 7.70117 122.476 7.9209C122.202 8.14062 121.895 8.28223 121.553 8.3457V8.46289C122.036 8.52148 122.454 8.66553 122.805 8.89502C123.157 9.12451 123.428 9.42236 123.618 9.78857C123.813 10.1499 123.911 10.5625 123.911 11.0264V11.041C123.911 11.6562 123.767 12.186 123.479 12.6304C123.196 13.0698 122.788 13.4092 122.256 13.6484C121.724 13.8828 121.082 14 120.33 14H116.865ZM116.206 14V3.43115H117.524V14H116.206ZM130.503 14.249C129.492 14.249 128.625 14.0244 127.903 13.5752C127.18 13.1211 126.624 12.479 126.233 11.6489C125.847 10.8188 125.654 9.84229 125.654 8.71924V8.70459C125.654 7.57178 125.85 6.59277 126.24 5.76758C126.636 4.94238 127.195 4.30518 127.917 3.85596C128.645 3.40674 129.507 3.18213 130.503 3.18213C131.504 3.18213 132.366 3.40674 133.088 3.85596C133.816 4.30518 134.375 4.94482 134.766 5.7749C135.156 6.6001 135.352 7.57666 135.352 8.70459V8.71924C135.352 9.84229 135.156 10.8188 134.766 11.6489C134.38 12.4741 133.823 13.1138 133.096 13.5679C132.373 14.022 131.509 14.249 130.503 14.249ZM130.503 13.0332C131.226 13.0332 131.848 12.855 132.371 12.4985C132.893 12.1421 133.296 11.6416 133.579 10.9971C133.862 10.3477 134.004 9.58838 134.004 8.71924V8.70459C134.004 7.82568 133.862 7.06396 133.579 6.41943C133.296 5.7749 132.893 5.27686 132.371 4.92529C131.848 4.57373 131.226 4.39795 130.503 4.39795C129.785 4.39795 129.165 4.57373 128.643 4.92529C128.12 5.27686 127.715 5.7749 127.427 6.41943C127.144 7.06396 127.002 7.82568 127.002 8.70459V8.71924C127.002 9.58838 127.141 10.3477 127.419 10.9971C127.698 11.6416 128.098 12.1421 128.621 12.4985C129.143 12.855 129.771 13.0332 130.503 13.0332ZM133.374 15.1938L130.305 10.9751H131.785L134.854 15.1938H133.374Z" fill="#48484A"/>
</svg>
