<svg width="594" height="72" viewBox="0 0 594 72" fill="none" xmlns="http://www.w3.org/2000/svg">
<path d="M14.6494 15.1261C13.7925 13.6222 12.4544 12.4504 10.8506 11.7993C11.6482 11.2011 12.2373 10.3672 12.5346 9.41556C12.8318 8.46397 12.8221 7.44297 12.5069 6.49719C12.1916 5.5514 11.5868 4.72879 10.778 4.14587C9.96925 3.56295 8.99758 3.24927 8.00064 3.24927C7.0037 3.24927 6.03203 3.56295 5.22326 4.14587C4.4145 4.72879 3.80965 5.5514 3.49439 6.49719C3.17913 7.44297 3.16944 8.46397 3.4667 9.41556C3.76395 10.3672 4.35308 11.2011 5.15064 11.7993C3.54684 12.4504 2.20879 13.6222 1.35189 15.1261C1.29879 15.2115 1.2634 15.3067 1.24783 15.406C1.23225 15.5054 1.2368 15.6068 1.26121 15.7043C1.28563 15.8019 1.3294 15.8935 1.38993 15.9738C1.45046 16.054 1.52652 16.1213 1.61357 16.1716C1.70063 16.2219 1.79691 16.2542 1.89669 16.2666C1.99647 16.2789 2.09771 16.2711 2.1944 16.2435C2.29109 16.2159 2.38125 16.1692 2.45952 16.1061C2.53779 16.043 2.60257 15.9648 2.65001 15.8761C3.78251 13.9186 5.78251 12.7511 8.00064 12.7511C10.2188 12.7511 12.2188 13.9193 13.3513 15.8761C13.4541 16.0415 13.6172 16.1603 13.806 16.2076C13.9949 16.2549 14.1948 16.2269 14.3633 16.1295C14.5319 16.0321 14.656 15.8729 14.7094 15.6857C14.7628 15.4985 14.7413 15.2978 14.6494 15.1261ZM4.75064 8.00114C4.75064 7.35835 4.94125 6.73 5.29836 6.19554C5.65548 5.66108 6.16306 5.24452 6.75692 4.99853C7.35078 4.75255 8.00424 4.68819 8.63468 4.81359C9.26512 4.93899 9.84421 5.24852 10.2987 5.70305C10.7533 6.15757 11.0628 6.73666 11.1882 7.3671C11.3136 7.99754 11.2492 8.651 11.0032 9.24486C10.7573 9.83872 10.3407 10.3463 9.80624 10.7034C9.27178 11.0605 8.64343 11.2511 8.00064 11.2511C7.13899 11.2501 6.31292 10.9074 5.70364 10.2981C5.09436 9.68887 4.75163 8.86279 4.75064 8.00114Z" fill="#8E8E93"/>
<path d="M22.4326 11.9088V10.3483H25.7031C26.5111 10.3483 27.1364 10.1407 27.5791 9.72571C28.0273 9.30514 28.2515 8.72408 28.2515 7.98254V7.96594C28.2515 7.21334 28.0273 6.62952 27.5791 6.21448C27.1364 5.79944 26.5111 5.59192 25.7031 5.59192H22.4326V4.02307H26.168C26.9538 4.02307 27.6427 4.18909 28.2349 4.52112C28.8325 4.84762 29.3001 5.30693 29.6377 5.89905C29.9753 6.48564 30.144 7.16907 30.144 7.94934V7.96594C30.144 8.74622 29.9753 9.43518 29.6377 10.0328C29.3001 10.625 28.8325 11.087 28.2349 11.4191C27.6427 11.7456 26.9538 11.9088 26.168 11.9088H22.4326ZM21.5029 16.0011V4.02307H23.3623V16.0011H21.5029ZM35.8716 16.1754C34.9917 16.1754 34.2363 15.9873 33.6055 15.611C32.9746 15.2291 32.4876 14.6896 32.1445 13.9923C31.807 13.295 31.6382 12.4705 31.6382 11.5187V11.5104C31.6382 10.5696 31.807 9.74784 32.1445 9.04504C32.4876 8.34224 32.9691 7.79439 33.5889 7.40149C34.2142 7.00859 34.9447 6.81213 35.7803 6.81213C36.6214 6.81213 37.3436 7.00028 37.9468 7.37659C38.5555 7.75289 39.0231 8.28137 39.3496 8.96204C39.6761 9.63717 39.8394 10.4285 39.8394 11.3361V11.9669H32.5513V10.6803H38.9429L38.0796 11.8756V11.1534C38.0796 10.5115 37.98 9.98027 37.7808 9.55969C37.5871 9.13359 37.3187 8.81539 36.9756 8.6051C36.6325 8.39482 36.2368 8.28967 35.7886 8.28967C35.3403 8.28967 34.9391 8.40035 34.585 8.6217C34.2363 8.83752 33.9596 9.15849 33.7549 9.58459C33.5557 10.0107 33.4561 10.5337 33.4561 11.1534V11.8756C33.4561 12.4677 33.5557 12.9741 33.7549 13.3947C33.9541 13.8152 34.2363 14.1362 34.6016 14.3575C34.9723 14.5789 35.4095 14.6896 35.9131 14.6896C36.3005 14.6896 36.6325 14.637 36.9092 14.5319C37.1914 14.4212 37.4211 14.2856 37.5981 14.1251C37.7808 13.9646 37.9053 13.8069 37.9717 13.652L38.0049 13.5856H39.748L39.7314 13.6603C39.654 13.9591 39.5184 14.2579 39.3247 14.5568C39.131 14.8501 38.8737 15.1184 38.5527 15.3619C38.2373 15.6054 37.8555 15.8019 37.4072 15.9513C36.9645 16.1007 36.4526 16.1754 35.8716 16.1754ZM41.981 16.0011V6.98645H43.7822V8.34778H43.9233C44.0838 7.86633 44.366 7.4928 44.77 7.22717C45.1795 6.96155 45.6831 6.82874 46.2808 6.82874C46.4302 6.82874 46.5768 6.83704 46.7207 6.85364C46.8646 6.87024 46.9808 6.88961 47.0693 6.91174V8.5719C46.9089 8.5387 46.7484 8.51379 46.5879 8.49719C46.4329 8.48059 46.2697 8.47229 46.0981 8.47229C45.6388 8.47229 45.2349 8.56083 44.8862 8.73792C44.5431 8.915 44.272 9.16402 44.0728 9.48499C43.8791 9.80042 43.7822 10.1767 43.7822 10.6139V16.0011H41.981ZM51.9004 16.1754C51.1755 16.1754 50.5446 16.0703 50.0078 15.86C49.471 15.6442 49.0449 15.3481 48.7295 14.9718C48.4141 14.59 48.2287 14.1473 48.1733 13.6437V13.6271H49.9829V13.6437C50.0991 13.9812 50.3205 14.2552 50.647 14.4655C50.9735 14.6757 51.4051 14.7809 51.9419 14.7809C52.3127 14.7809 52.6364 14.7283 52.9131 14.6232C53.1953 14.518 53.4167 14.3714 53.5771 14.1832C53.7376 13.9951 53.8179 13.7793 53.8179 13.5358V13.5192C53.8179 13.2369 53.7044 12.999 53.4775 12.8053C53.2507 12.6116 52.8771 12.4539 52.3569 12.3322L50.9126 12.0001C50.0659 11.8064 49.4378 11.5104 49.0283 11.1119C48.6243 10.708 48.4224 10.1767 48.4224 9.51819V9.50989C48.4224 8.98417 48.5718 8.51933 48.8706 8.11536C49.1694 7.70585 49.5817 7.38765 50.1074 7.16077C50.6387 6.92834 51.2446 6.81213 51.9253 6.81213C52.6115 6.81213 53.2091 6.92004 53.7183 7.13586C54.2329 7.34615 54.6396 7.63944 54.9385 8.01575C55.2373 8.38652 55.4144 8.81816 55.4697 9.31067V9.31897H53.7432V9.30237C53.6602 8.98694 53.4609 8.72408 53.1455 8.51379C52.8356 8.30351 52.4261 8.19836 51.917 8.19836C51.5905 8.19836 51.3 8.25094 51.0454 8.35608C50.7909 8.45569 50.5889 8.5968 50.4395 8.77942C50.2956 8.9565 50.2236 9.16679 50.2236 9.41028V9.42688C50.2236 9.70911 50.3343 9.94153 50.5557 10.1241C50.777 10.3068 51.1395 10.4589 51.6431 10.5807L53.0791 10.9044C53.9424 11.1092 54.5843 11.4052 55.0049 11.7926C55.431 12.18 55.644 12.7002 55.644 13.3531V13.3698C55.644 13.9231 55.4808 14.4129 55.1543 14.839C54.8278 15.2596 54.3823 15.5888 53.8179 15.8268C53.259 16.0592 52.6198 16.1754 51.9004 16.1754ZM61.604 16.1754C60.7241 16.1754 59.9632 15.9873 59.3213 15.611C58.6849 15.2347 58.1951 14.6979 57.8521 14.0006C57.509 13.2978 57.3374 12.465 57.3374 11.5021V11.4855C57.3374 10.517 57.509 9.6842 57.8521 8.98694C58.2007 8.28967 58.6932 7.75289 59.3296 7.37659C59.9715 7.00028 60.7297 6.81213 61.604 6.81213C62.4839 6.81213 63.242 7.00028 63.8784 7.37659C64.5148 7.74736 65.0046 8.28414 65.3477 8.98694C65.6963 9.6842 65.8706 10.517 65.8706 11.4855V11.5021C65.8706 12.465 65.6963 13.2978 65.3477 14.0006C65.0046 14.6979 64.5148 15.2347 63.8784 15.611C63.2476 15.9873 62.4894 16.1754 61.604 16.1754ZM61.604 14.6647C62.1187 14.6647 62.5558 14.5402 62.9155 14.2911C63.2752 14.0366 63.5492 13.6741 63.7373 13.2037C63.9255 12.7334 64.0195 12.1661 64.0195 11.5021V11.4855C64.0195 10.8159 63.9255 10.2459 63.7373 9.77551C63.5492 9.30514 63.2752 8.94543 62.9155 8.69641C62.5558 8.44185 62.1187 8.31458 61.604 8.31458C61.0894 8.31458 60.6522 8.44185 60.2925 8.69641C59.9328 8.94543 59.6561 9.30514 59.4624 9.77551C59.2743 10.2459 59.1802 10.8159 59.1802 11.4855V11.5021C59.1802 12.1661 59.2743 12.7334 59.4624 13.2037C59.6561 13.6741 59.9328 14.0366 60.2925 14.2911C60.6522 14.5402 61.0894 14.6647 61.604 14.6647ZM68.0122 16.0011V6.98645H69.8135V8.34778H69.9546C70.1759 7.86633 70.5024 7.49003 70.9341 7.21887C71.3657 6.94771 71.9108 6.81213 72.5693 6.81213C73.582 6.81213 74.3568 7.10266 74.8936 7.68372C75.4303 8.26477 75.6987 9.09208 75.6987 10.1656V16.0011H73.8892V10.589C73.8892 9.83639 73.7314 9.27747 73.416 8.91223C73.1061 8.54146 72.6191 8.35608 71.9551 8.35608C71.5179 8.35608 71.1388 8.45292 70.8179 8.64661C70.4969 8.83476 70.2479 9.10592 70.0708 9.46008C69.8993 9.80872 69.8135 10.2265 69.8135 10.7135V16.0011H68.0122Z" fill="#48484A"/>
<rect x="0.500488" y="32.5011" width="39" height="39" rx="19.5" stroke="#E0E0E0"/>
<path d="M20.3242 58.001V47.6831H20.1914L17.145 49.8911V48.314L20.3325 46.0229H21.8184V58.001H20.3242Z" fill="#8E8E93"/>
<rect x="52.5005" y="32.5011" width="39" height="39" rx="19.5" stroke="#E0E0E0"/>
<path d="M68.207 58.001V56.9717L72.2578 52.5889C72.7669 52.0355 73.1654 51.5789 73.4531 51.2192C73.7409 50.854 73.9429 50.5247 74.0591 50.2314C74.1753 49.9382 74.2334 49.6172 74.2334 49.2686V49.252C74.2334 48.8314 74.1421 48.4551 73.9595 48.123C73.7769 47.791 73.5168 47.5282 73.1792 47.3345C72.8416 47.1408 72.4377 47.0439 71.9673 47.0439C71.4914 47.0439 71.0736 47.1436 70.7139 47.3428C70.3542 47.5365 70.0747 47.8104 69.8755 48.1646C69.6763 48.5132 69.5767 48.9227 69.5767 49.3931L69.5684 49.4097L68.1406 49.4014L68.124 49.3931C68.1296 48.6847 68.3011 48.0566 68.6387 47.5088C68.9762 46.9554 69.4411 46.5238 70.0332 46.2139C70.6253 45.8984 71.3032 45.7407 72.0669 45.7407C72.7642 45.7407 73.3923 45.8874 73.9512 46.1807C74.5101 46.4684 74.95 46.8641 75.271 47.3677C75.5975 47.8713 75.7607 48.4468 75.7607 49.0942V49.1108C75.7607 49.5646 75.6805 50.0018 75.52 50.4224C75.3651 50.8429 75.0884 51.3105 74.6899 51.8252C74.2915 52.3343 73.7298 52.9624 73.0049 53.7095L69.9087 56.9053L70.2822 56.2163V56.9053L69.917 56.6562H75.96V58.001H68.207Z" fill="#8E8E93"/>
<rect x="104.5" y="32.5011" width="39" height="39" rx="19.5" stroke="#E0E0E0"/>
<path d="M124.083 58.2002C123.259 58.2002 122.54 58.0591 121.925 57.7769C121.311 57.4946 120.824 57.1073 120.464 56.6147C120.11 56.1222 119.905 55.5605 119.85 54.9297L119.842 54.8301H121.278L121.286 54.9131C121.347 55.4997 121.629 55.9784 122.133 56.3491C122.636 56.7199 123.287 56.9053 124.083 56.9053C124.609 56.9053 125.069 56.814 125.461 56.6313C125.86 56.4487 126.17 56.1969 126.391 55.876C126.612 55.5495 126.723 55.1759 126.723 54.7554V54.7388C126.723 54.0028 126.477 53.4383 125.984 53.0454C125.497 52.647 124.833 52.4478 123.992 52.4478H122.49V51.186H123.926C124.402 51.186 124.822 51.0975 125.188 50.9204C125.553 50.7378 125.838 50.4915 126.042 50.1816C126.247 49.8662 126.35 49.5093 126.35 49.1108V49.0942C126.35 48.6737 126.261 48.3167 126.084 48.0234C125.907 47.7301 125.647 47.506 125.304 47.3511C124.966 47.1961 124.554 47.1187 124.067 47.1187C123.597 47.1187 123.176 47.1989 122.805 47.3594C122.44 47.5143 122.147 47.7384 121.925 48.0317C121.704 48.325 121.571 48.6737 121.527 49.0776L121.519 49.1606H120.083L120.091 49.0776C120.157 48.4246 120.362 47.8547 120.705 47.3677C121.054 46.8807 121.513 46.5016 122.083 46.2305C122.659 45.9593 123.32 45.8237 124.067 45.8237C124.831 45.8237 125.495 45.9565 126.059 46.2222C126.629 46.4823 127.069 46.8447 127.379 47.3096C127.694 47.7689 127.852 48.3029 127.852 48.9116V48.9282C127.852 49.4207 127.744 49.8579 127.528 50.2397C127.312 50.6216 127.014 50.9398 126.632 51.1943C126.25 51.4489 125.81 51.6287 125.312 51.7339V51.7671C126.186 51.839 126.892 52.1351 127.429 52.6553C127.971 53.1699 128.242 53.8534 128.242 54.7056V54.7222C128.242 55.3862 128.062 55.9811 127.703 56.5068C127.343 57.0326 126.85 57.4476 126.225 57.752C125.6 58.0508 124.886 58.2002 124.083 58.2002Z" fill="#8E8E93"/>
<rect x="156.5" y="32.5011" width="39" height="39" rx="19.5" stroke="#E0E0E0"/>
<path d="M177.337 58.001V55.519H171.501V54.1577C171.828 53.6154 172.16 53.0675 172.498 52.5142C172.835 51.9552 173.175 51.3991 173.519 50.8457C173.867 50.2868 174.216 49.7334 174.564 49.1855C174.913 48.6377 175.259 48.0981 175.602 47.5669C175.951 47.0356 176.294 46.521 176.631 46.0229H178.798V54.1826H180.5V55.519H178.798V58.001H177.337ZM173.029 54.1909H177.345V47.4092H177.246C176.974 47.8132 176.698 48.2337 176.416 48.6709C176.133 49.1025 175.846 49.5452 175.552 49.999C175.264 50.4528 174.977 50.9093 174.689 51.3687C174.401 51.828 174.116 52.2873 173.834 52.7466C173.557 53.2004 173.289 53.6486 173.029 54.0913V54.1909Z" fill="#8E8E93"/>
<rect x="208.5" y="32.5011" width="39" height="39" rx="19.5" stroke="#E0E0E0"/>
<path d="M228.017 58.2832C227.276 58.2832 226.614 58.1366 226.033 57.8433C225.452 57.55 224.985 57.1515 224.63 56.6479C224.282 56.1388 224.077 55.5661 224.016 54.9297L224.008 54.8384H225.444L225.452 54.9048C225.502 55.2866 225.64 55.6353 225.867 55.9507C226.1 56.2606 226.401 56.5068 226.772 56.6895C227.148 56.8721 227.569 56.9634 228.034 56.9634C228.565 56.9634 229.033 56.8472 229.437 56.6147C229.84 56.3768 230.156 56.0503 230.383 55.6353C230.61 55.2202 230.723 54.7443 230.723 54.2075V54.1909C230.723 53.6597 230.607 53.1893 230.375 52.7798C230.148 52.3647 229.835 52.041 229.437 51.8086C229.038 51.5762 228.579 51.46 228.059 51.46C227.66 51.46 227.292 51.5208 226.955 51.6426C226.623 51.7643 226.326 51.9469 226.066 52.1904C225.961 52.29 225.862 52.3979 225.768 52.5142C225.679 52.6304 225.596 52.7604 225.519 52.9043H224.224L224.854 46.0229H231.52V47.3594H226.033L225.626 51.4102H225.759C226.025 51.0062 226.382 50.6991 226.83 50.4888C227.278 50.2729 227.774 50.165 228.316 50.165C229.069 50.165 229.735 50.3394 230.316 50.688C230.897 51.0311 231.354 51.5042 231.686 52.1074C232.018 52.7051 232.184 53.3913 232.184 54.166V54.1826C232.184 54.985 232.004 55.6961 231.645 56.3159C231.29 56.9302 230.801 57.4116 230.175 57.7603C229.55 58.1089 228.831 58.2832 228.017 58.2832Z" fill="#8E8E93"/>
<rect x="260.5" y="32.5011" width="39" height="39" rx="19.5" stroke="#E0E0E0"/>
<path d="M280.158 58.2832C279.61 58.2832 279.068 58.1781 278.531 57.9678C278 57.7575 277.516 57.4172 277.079 56.9468C276.647 56.4764 276.301 55.8566 276.041 55.0874C275.781 54.3127 275.651 53.3608 275.651 52.2319V52.2153C275.651 50.854 275.833 49.6919 276.199 48.729C276.564 47.7606 277.09 47.0218 277.776 46.5127C278.462 45.998 279.289 45.7407 280.258 45.7407C280.927 45.7407 281.531 45.8652 282.067 46.1143C282.61 46.3577 283.061 46.7008 283.42 47.1436C283.786 47.5807 284.035 48.0954 284.167 48.6875L284.192 48.7954H282.69L282.657 48.7041C282.535 48.3665 282.361 48.0788 282.134 47.8408C281.912 47.5973 281.641 47.4092 281.32 47.2764C281.005 47.1436 280.645 47.0771 280.241 47.0771C279.516 47.0771 278.927 47.2902 278.473 47.7163C278.019 48.1369 277.682 48.6986 277.46 49.4014C277.245 50.0986 277.12 50.8651 277.087 51.7007C277.081 51.7726 277.079 51.8473 277.079 51.9248C277.079 51.9967 277.079 52.0715 277.079 52.1489L277.436 54.1411C277.436 54.6668 277.555 55.1427 277.792 55.5688C278.036 55.995 278.362 56.3353 278.772 56.5898C279.181 56.8389 279.638 56.9634 280.142 56.9634C280.645 56.9634 281.102 56.8416 281.511 56.5981C281.921 56.3491 282.244 56.0143 282.482 55.5938C282.726 55.1732 282.848 54.7056 282.848 54.1909V54.1743C282.848 53.6431 282.731 53.1727 282.499 52.7632C282.272 52.3481 281.957 52.0244 281.553 51.792C281.149 51.554 280.687 51.4351 280.167 51.4351C279.652 51.4351 279.187 51.5513 278.772 51.7837C278.362 52.0161 278.036 52.3371 277.792 52.7466C277.555 53.1506 277.436 53.6126 277.436 54.1328V54.1411H276.946V51.9829H277.236C277.386 51.6564 277.607 51.3521 277.9 51.0698C278.194 50.7876 278.553 50.5607 278.979 50.3892C279.406 50.2176 279.887 50.1318 280.424 50.1318C281.176 50.1318 281.849 50.3062 282.441 50.6548C283.033 51.0034 283.498 51.4793 283.835 52.0825C284.179 52.6857 284.35 53.3719 284.35 54.1411V54.1577C284.35 54.9546 284.167 55.6629 283.802 56.2827C283.443 56.9025 282.947 57.3923 282.316 57.752C281.686 58.1061 280.966 58.2832 280.158 58.2832Z" fill="#8E8E93"/>
<rect x="312.5" y="32.5011" width="39" height="39" rx="19.5" stroke="#E0E0E0"/>
<path d="M328.996 58.001L334.375 47.4756V47.3594H327.966V46.0229H335.894V47.4092L330.564 58.001H328.996Z" fill="#8E8E93"/>
<rect x="364.5" y="32.5011" width="39" height="39" rx="19.5" stroke="#E0E0E0"/>
<path d="M384 58.2002C383.154 58.2002 382.404 58.0535 381.751 57.7603C381.098 57.467 380.583 57.063 380.207 56.5483C379.836 56.0282 379.651 55.4333 379.651 54.7637V54.7471C379.651 54.2546 379.759 53.798 379.975 53.3774C380.19 52.9569 380.492 52.5999 380.879 52.3066C381.267 52.0078 381.715 51.8003 382.224 51.6841V51.6509C381.571 51.4461 381.051 51.1086 380.664 50.6382C380.276 50.1678 380.083 49.6172 380.083 48.9863V48.9697C380.083 48.3665 380.251 47.8298 380.589 47.3594C380.926 46.8835 381.391 46.5099 381.983 46.2388C382.576 45.9621 383.248 45.8237 384 45.8237C384.759 45.8237 385.431 45.9621 386.018 46.2388C386.61 46.5099 387.075 46.8835 387.412 47.3594C387.75 47.8298 387.918 48.3665 387.918 48.9697V48.9863C387.918 49.6172 387.725 50.1678 387.337 50.6382C386.956 51.1086 386.435 51.4461 385.777 51.6509V51.6841C386.292 51.8003 386.74 52.0078 387.122 52.3066C387.509 52.5999 387.811 52.9569 388.026 53.3774C388.242 53.798 388.35 54.2546 388.35 54.7471V54.7637C388.35 55.4333 388.165 56.0282 387.794 56.5483C387.423 57.063 386.909 57.467 386.25 57.7603C385.597 58.0535 384.847 58.2002 384 58.2002ZM384 56.897C384.554 56.897 385.041 56.8029 385.461 56.6147C385.888 56.4211 386.222 56.1582 386.466 55.8262C386.709 55.4886 386.831 55.104 386.831 54.6724V54.6558C386.831 54.2186 386.709 53.8312 386.466 53.4937C386.228 53.1561 385.896 52.8905 385.47 52.6968C385.044 52.5031 384.554 52.4062 384 52.4062C383.447 52.4062 382.957 52.5031 382.531 52.6968C382.105 52.8905 381.77 53.1561 381.527 53.4937C381.289 53.8312 381.17 54.2186 381.17 54.6558V54.6724C381.17 55.104 381.292 55.4886 381.535 55.8262C381.779 56.1582 382.113 56.4211 382.54 56.6147C382.966 56.8029 383.453 56.897 384 56.897ZM384 51.0947C384.482 51.0947 384.905 51.0117 385.271 50.8457C385.636 50.6742 385.921 50.439 386.125 50.1401C386.33 49.8413 386.433 49.4982 386.433 49.1108V49.0942C386.433 48.7069 386.33 48.3638 386.125 48.0649C385.921 47.7661 385.636 47.5337 385.271 47.3677C384.905 47.1961 384.482 47.1104 384 47.1104C383.519 47.1104 383.096 47.1961 382.73 47.3677C382.365 47.5337 382.08 47.7661 381.875 48.0649C381.671 48.3638 381.568 48.7069 381.568 49.0942V49.1108C381.568 49.4982 381.671 49.8413 381.875 50.1401C382.08 50.439 382.365 50.6742 382.73 50.8457C383.096 51.0117 383.519 51.0947 384 51.0947Z" fill="#8E8E93"/>
<rect x="416" y="32.0011" width="121" height="40" rx="8" fill="#FAFAFB"/>
<path d="M429.85 58.001V46.0229H434.175C435.365 46.0229 436.38 46.2581 437.221 46.7285C438.062 47.1989 438.704 47.8768 439.147 48.7622C439.595 49.6476 439.819 50.7184 439.819 51.9746V51.9912C439.819 53.2585 439.595 54.3403 439.147 55.2368C438.704 56.1333 438.062 56.8195 437.221 57.2954C436.386 57.7658 435.37 58.001 434.175 58.001H429.85ZM431.709 56.3906H433.967C434.803 56.3906 435.514 56.2191 436.101 55.876C436.693 55.5329 437.141 55.0348 437.445 54.3818C437.755 53.7288 437.91 52.9403 437.91 52.0161V51.9995C437.91 51.0809 437.752 50.2951 437.437 49.6421C437.127 48.9891 436.679 48.491 436.092 48.1479C435.506 47.8049 434.797 47.6333 433.967 47.6333H431.709V56.3906ZM442.152 58.001V48.9863H443.961V58.001H442.152ZM443.065 47.376C442.755 47.376 442.489 47.2653 442.268 47.0439C442.047 46.8226 441.936 46.557 441.936 46.2471C441.936 45.9372 442.047 45.6743 442.268 45.4585C442.489 45.2371 442.755 45.1265 443.065 45.1265C443.375 45.1265 443.64 45.2371 443.862 45.4585C444.083 45.6743 444.194 45.9372 444.194 46.2471C444.194 46.557 444.083 46.8226 443.862 47.0439C443.64 47.2653 443.375 47.376 443.065 47.376ZM446.576 58.001V48.9863H448.377V50.3477H448.519C448.679 49.8662 448.961 49.4927 449.365 49.2271C449.775 48.9614 450.278 48.8286 450.876 48.8286C451.025 48.8286 451.172 48.8369 451.316 48.8535C451.46 48.8701 451.576 48.8895 451.665 48.9116V50.5718C451.504 50.5386 451.344 50.5137 451.183 50.4971C451.028 50.4805 450.865 50.4722 450.693 50.4722C450.234 50.4722 449.83 50.5607 449.481 50.7378C449.138 50.9149 448.867 51.1639 448.668 51.4849C448.474 51.8003 448.377 52.1766 448.377 52.6138V58.001H446.576ZM456.952 58.1753C456.072 58.1753 455.317 57.9871 454.686 57.6108C454.055 57.229 453.568 56.6895 453.225 55.9922C452.888 55.2949 452.719 54.4704 452.719 53.5186V53.5103C452.719 52.5695 452.888 51.7477 453.225 51.0449C453.568 50.3421 454.05 49.7943 454.669 49.4014C455.295 49.0085 456.025 48.812 456.861 48.812C457.702 48.812 458.424 49.0002 459.027 49.3765C459.636 49.7528 460.104 50.2812 460.43 50.9619C460.757 51.637 460.92 52.4284 460.92 53.3359V53.9668H453.632V52.6802H460.023L459.16 53.8755V53.1533C459.16 52.5114 459.061 51.9801 458.861 51.5596C458.668 51.1335 458.399 50.8153 458.056 50.605C457.713 50.3947 457.317 50.2896 456.869 50.2896C456.421 50.2896 456.02 50.4002 455.666 50.6216C455.317 50.8374 455.04 51.1584 454.835 51.5845C454.636 52.0106 454.537 52.5335 454.537 53.1533V53.8755C454.537 54.4676 454.636 54.974 454.835 55.3945C455.035 55.8151 455.317 56.1361 455.682 56.3574C456.053 56.5788 456.49 56.6895 456.994 56.6895C457.381 56.6895 457.713 56.6369 457.99 56.5317C458.272 56.4211 458.502 56.2855 458.679 56.125C458.861 55.9645 458.986 55.8068 459.052 55.6519L459.085 55.5854H460.829L460.812 55.6602C460.735 55.959 460.599 56.2578 460.405 56.5566C460.212 56.8499 459.954 57.1183 459.633 57.3618C459.318 57.6053 458.936 57.8018 458.488 57.9512C458.045 58.1006 457.533 58.1753 456.952 58.1753ZM466.855 58.1753C465.981 58.1753 465.225 57.9871 464.589 57.6108C463.958 57.229 463.471 56.6867 463.128 55.9839C462.785 55.2811 462.613 54.4427 462.613 53.4688V53.4521C462.613 52.4948 462.782 51.6702 463.12 50.9785C463.463 50.2868 463.95 49.7528 464.581 49.3765C465.217 49.0002 465.972 48.812 466.847 48.812C467.605 48.812 468.255 48.9448 468.797 49.2104C469.345 49.4705 469.78 49.8302 470.101 50.2896C470.427 50.7433 470.632 51.2607 470.715 51.8418L470.723 51.8833H468.988L468.98 51.8667C468.88 51.424 468.651 51.056 468.291 50.7627C467.931 50.4639 467.453 50.3145 466.855 50.3145C466.357 50.3145 465.928 50.4417 465.568 50.6963C465.209 50.9453 464.932 51.305 464.738 51.7754C464.55 52.2458 464.456 52.8047 464.456 53.4521V53.4688C464.456 54.1328 464.553 54.7028 464.747 55.1787C464.94 55.6546 465.217 56.0226 465.577 56.2827C465.936 56.5373 466.362 56.6646 466.855 56.6646C467.419 56.6646 467.876 56.54 468.225 56.291C468.579 56.042 468.828 55.674 468.972 55.187L468.988 55.1455L470.715 55.1372L470.698 55.2119C470.593 55.7985 470.38 56.3132 470.059 56.7559C469.738 57.1986 469.309 57.5472 468.772 57.8018C468.241 58.0508 467.602 58.1753 466.855 58.1753ZM476.293 58.0591C475.308 58.0591 474.594 57.8709 474.151 57.4946C473.714 57.1128 473.496 56.4902 473.496 55.627V50.4058H472.084V48.9863H473.496V46.7119H475.338V48.9863H477.272V50.4058H475.338V55.187C475.338 55.674 475.435 56.0254 475.629 56.2412C475.823 56.4515 476.144 56.5566 476.592 56.5566C476.725 56.5566 476.838 56.5539 476.932 56.5483C477.032 56.5428 477.145 56.5345 477.272 56.5234V57.9678C477.129 57.9899 476.974 58.0093 476.808 58.0259C476.642 58.048 476.47 58.0591 476.293 58.0591ZM484.038 58.001V48.9863H485.847V58.001H484.038ZM484.951 47.376C484.641 47.376 484.375 47.2653 484.154 47.0439C483.932 46.8226 483.822 46.557 483.822 46.2471C483.822 45.9372 483.932 45.6743 484.154 45.4585C484.375 45.2371 484.641 45.1265 484.951 45.1265C485.261 45.1265 485.526 45.2371 485.748 45.4585C485.969 45.6743 486.08 45.9372 486.08 46.2471C486.08 46.557 485.969 46.8226 485.748 47.0439C485.526 47.2653 485.261 47.376 484.951 47.376ZM488.462 58.001V48.9863H490.263V50.3477H490.404C490.626 49.8662 490.952 49.4899 491.384 49.2188C491.815 48.9476 492.361 48.812 493.019 48.812C494.032 48.812 494.806 49.1025 495.343 49.6836C495.88 50.2646 496.148 51.092 496.148 52.1655V58.001H494.339V52.5889C494.339 51.8363 494.181 51.2773 493.866 50.9121C493.556 50.5413 493.069 50.356 492.405 50.356C491.968 50.356 491.589 50.4528 491.268 50.6465C490.947 50.8346 490.698 51.1058 490.521 51.46C490.349 51.8086 490.263 52.2264 490.263 52.7134V58.001H488.462ZM498.655 61.0059V48.9863H500.457V50.4058H500.598C500.769 50.0737 500.991 49.7915 501.262 49.5591C501.538 49.3267 501.854 49.1468 502.208 49.0195C502.562 48.8923 502.95 48.8286 503.37 48.8286C504.128 48.8286 504.787 49.0223 505.346 49.4097C505.905 49.7915 506.336 50.3311 506.641 51.0283C506.951 51.7201 507.105 52.5391 507.105 53.4854V53.502C507.105 54.4538 506.953 55.2783 506.649 55.9756C506.345 56.6673 505.913 57.2041 505.354 57.5859C504.795 57.9622 504.134 58.1504 503.37 58.1504C502.955 58.1504 502.568 58.0868 502.208 57.9595C501.848 57.8267 501.53 57.644 501.253 57.4116C500.977 57.1792 500.758 56.8997 500.598 56.5732H500.457V61.0059H498.655ZM502.855 56.6064C503.359 56.6064 503.791 56.4819 504.15 56.2329C504.51 55.9839 504.784 55.627 504.972 55.1621C505.166 54.6973 505.263 54.1439 505.263 53.502V53.4854C505.263 52.8379 505.166 52.2817 504.972 51.8169C504.784 51.3521 504.51 50.9951 504.15 50.7461C503.791 50.4971 503.359 50.3726 502.855 50.3726C502.357 50.3726 501.926 50.4998 501.561 50.7544C501.195 51.0034 500.916 51.3604 500.722 51.8252C500.528 52.2845 500.432 52.8379 500.432 53.4854V53.502C500.432 54.1383 500.528 54.689 500.722 55.1538C500.916 55.6187 501.195 55.9784 501.561 56.2329C501.926 56.4819 502.357 56.6064 502.855 56.6064ZM512.269 58.1753C511.593 58.1753 511.023 58.0452 510.559 57.7852C510.099 57.5195 509.753 57.1377 509.521 56.6396C509.294 56.1361 509.181 55.5301 509.181 54.8218V48.9863H510.982V54.3984C510.982 55.14 511.129 55.6961 511.422 56.0669C511.715 56.4377 512.194 56.623 512.858 56.623C513.334 56.623 513.735 56.529 514.062 56.3408C514.394 56.1471 514.643 55.876 514.809 55.5273C514.975 55.1732 515.058 54.7554 515.058 54.2739V48.9863H516.867V58.001H515.058V56.6396H514.925C514.709 57.1211 514.377 57.4974 513.929 57.7686C513.48 58.0397 512.927 58.1753 512.269 58.1753ZM522.86 58.0591C521.875 58.0591 521.161 57.8709 520.719 57.4946C520.282 57.1128 520.063 56.4902 520.063 55.627V50.4058H518.652V48.9863H520.063V46.7119H521.906V48.9863H523.84V50.4058H521.906V55.187C521.906 55.674 522.003 56.0254 522.196 56.2412C522.39 56.4515 522.711 56.5566 523.159 56.5566C523.292 56.5566 523.405 56.5539 523.5 56.5483C523.599 56.5428 523.713 56.5345 523.84 56.5234V57.9678C523.696 57.9899 523.541 58.0093 523.375 58.0259C523.209 58.048 523.037 58.0591 522.86 58.0591Z" fill="#1C1C1E"/>
</svg>
