<svg width="88" height="16" viewBox="0 0 88 16" fill="none" xmlns="http://www.w3.org/2000/svg">
<path d="M8 0.407715L10.472 5.41572L16 6.22372L12 10.1197L12.944 15.6237L8 13.0237L3.056 15.6237L4 10.1197L0 6.22372L5.528 5.41572L8 0.407715Z" fill="#2E364D"/>
<path d="M26 0.407715L28.472 5.41572L34 6.22372L30 10.1197L30.944 15.6237L26 13.0237L21.056 15.6237L22 10.1197L18 6.22372L23.528 5.41572L26 0.407715Z" fill="#2E364D"/>
<path d="M44 0.407715L46.472 5.41572L52 6.22372L48 10.1197L48.944 15.6237L44 13.0237L39.056 15.6237L40 10.1197L36 6.22372L41.528 5.41572L44 0.407715Z" fill="#2E364D"/>
<path d="M62 0.407715L64.472 5.41572L70 6.22372L66 10.1197L66.944 15.6237L62 13.0237L57.056 15.6237L58 10.1197L54 6.22372L59.528 5.41572L62 0.407715Z" fill="#2E364D"/>
<path d="M80 0.407715L82.472 5.41572L88 6.22372L84 10.1197L84.944 15.6237L80 13.0237L75.056 15.6237L76 10.1197L72 6.22372L77.528 5.41572L80 0.407715Z" fill="#2E364D" fill-opacity="0.29"/>
</svg>
