<svg width="720" height="128" viewBox="0 0 720 128" fill="none" xmlns="http://www.w3.org/2000/svg">
<path d="M8.00049 3.25098C6.66547 3.25098 5.36042 3.64686 4.25039 4.38856C3.14036 5.13026 2.2752 6.18446 1.7643 7.41786C1.25341 8.65126 1.11974 10.0085 1.38019 11.3178C1.64064 12.6272 2.28352 13.8299 3.22752 14.7739C4.17153 15.718 5.37426 16.3608 6.68363 16.6213C7.993 16.8817 9.3502 16.7481 10.5836 16.2372C11.817 15.7263 12.8712 14.8611 13.6129 13.7511C14.3546 12.641 14.7505 11.336 14.7505 10.001C14.7485 8.21137 14.0367 6.49564 12.7713 5.2302C11.5058 3.96476 9.79009 3.25296 8.00049 3.25098ZM8.00049 15.251C6.96214 15.251 5.94711 14.9431 5.08375 14.3662C4.22039 13.7893 3.54748 12.9694 3.15012 12.0101C2.75276 11.0508 2.6488 9.99515 2.85137 8.97675C3.05394 7.95835 3.55395 7.02289 4.28818 6.28867C5.02241 5.55444 5.95787 5.05443 6.97627 4.85185C7.99467 4.64928 9.05027 4.75325 10.0096 5.15061C10.9689 5.54797 11.7888 6.22087 12.3657 7.08423C12.9426 7.94759 13.2505 8.96262 13.2505 10.001C13.249 11.3929 12.6954 12.7274 11.7112 13.7116C10.7269 14.6959 9.39242 15.2495 8.00049 15.251ZM12.2505 10.001C12.2505 10.1999 12.1715 10.3907 12.0308 10.5313C11.8902 10.672 11.6994 10.751 11.5005 10.751H8.00049C7.80158 10.751 7.61081 10.672 7.47016 10.5313C7.32951 10.3907 7.25049 10.1999 7.25049 10.001V6.50098C7.25049 6.30206 7.32951 6.1113 7.47016 5.97065C7.61081 5.82999 7.80158 5.75098 8.00049 5.75098C8.1994 5.75098 8.39017 5.82999 8.53082 5.97065C8.67147 6.1113 8.75049 6.30206 8.75049 6.50098V9.25098H11.5005C11.6994 9.25098 11.8902 9.32999 12.0308 9.47065C12.1715 9.6113 12.2505 9.80206 12.2505 10.001Z" fill="#8E8E93"/>
<path d="M24.541 16.001V5.6333H20.7725V4.02295H30.1689V5.6333H26.4004V16.001H24.541ZM32.0947 16.001V6.98633H33.9043V16.001H32.0947ZM33.0078 5.37598C32.6979 5.37598 32.4323 5.2653 32.2109 5.04395C31.9896 4.82259 31.8789 4.55697 31.8789 4.24707C31.8789 3.93717 31.9896 3.67432 32.2109 3.4585C32.4323 3.23714 32.6979 3.12646 33.0078 3.12646C33.3177 3.12646 33.5833 3.23714 33.8047 3.4585C34.026 3.67432 34.1367 3.93717 34.1367 4.24707C34.1367 4.55697 34.026 4.82259 33.8047 5.04395C33.5833 5.2653 33.3177 5.37598 33.0078 5.37598ZM36.519 16.001V6.98633H38.3203V8.37256H38.4614C38.6606 7.87451 38.9705 7.48991 39.3911 7.21875C39.8172 6.94759 40.3263 6.81201 40.9185 6.81201C41.328 6.81201 41.696 6.87842 42.0225 7.01123C42.349 7.14404 42.6284 7.33219 42.8608 7.57568C43.0988 7.81364 43.2842 8.09587 43.417 8.42236H43.5581C43.7075 8.09587 43.9178 7.81364 44.189 7.57568C44.4601 7.33219 44.7756 7.14404 45.1353 7.01123C45.5005 6.87842 45.8879 6.81201 46.2974 6.81201C46.9061 6.81201 47.4263 6.93099 47.8579 7.16895C48.2896 7.40137 48.6188 7.73893 48.8457 8.18164C49.0726 8.62435 49.186 9.15837 49.186 9.78369V16.001H47.3848V10.2153C47.3848 9.59554 47.2409 9.1307 46.9531 8.8208C46.6709 8.5109 46.2365 8.35596 45.6499 8.35596C45.2681 8.35596 44.9333 8.4445 44.6455 8.62158C44.3633 8.79313 44.1419 9.02555 43.9814 9.31885C43.8265 9.60661 43.749 9.93311 43.749 10.2983V16.001H41.9478V10.0327C41.9478 9.51807 41.79 9.11133 41.4746 8.8125C41.1647 8.50814 40.7441 8.35596 40.2129 8.35596C39.8532 8.35596 39.5295 8.45003 39.2417 8.63818C38.9595 8.82633 38.7354 9.08089 38.5693 9.40186C38.4033 9.71729 38.3203 10.0715 38.3203 10.4644V16.001H36.519ZM55.4946 16.1753C54.6147 16.1753 53.8594 15.9871 53.2285 15.6108C52.5977 15.229 52.1107 14.6895 51.7676 13.9922C51.43 13.2949 51.2612 12.4704 51.2612 11.5186V11.5103C51.2612 10.5695 51.43 9.74772 51.7676 9.04492C52.1107 8.34212 52.5921 7.79427 53.2119 7.40137C53.8372 7.00846 54.5677 6.81201 55.4033 6.81201C56.2445 6.81201 56.9666 7.00016 57.5698 7.37646C58.1785 7.75277 58.6462 8.28125 58.9727 8.96191C59.2992 9.63704 59.4624 10.4284 59.4624 11.3359V11.9668H52.1743V10.6802H58.5659L57.7026 11.8755V11.1533C57.7026 10.5114 57.603 9.98014 57.4038 9.55957C57.2101 9.13346 56.9417 8.81527 56.5986 8.60498C56.2555 8.39469 55.8599 8.28955 55.4116 8.28955C54.9634 8.28955 54.5622 8.40023 54.208 8.62158C53.8594 8.8374 53.5827 9.15837 53.3779 9.58447C53.1787 10.0106 53.0791 10.5335 53.0791 11.1533V11.8755C53.0791 12.4676 53.1787 12.974 53.3779 13.3945C53.5771 13.8151 53.8594 14.1361 54.2246 14.3574C54.5954 14.5788 55.0326 14.6895 55.5361 14.6895C55.9235 14.6895 56.2555 14.6369 56.5322 14.5317C56.8145 14.4211 57.0441 14.2855 57.2212 14.125C57.4038 13.9645 57.5283 13.8068 57.5947 13.6519L57.6279 13.5854H59.3711L59.3545 13.6602C59.277 13.959 59.1414 14.2578 58.9478 14.5566C58.7541 14.8499 58.4967 15.1183 58.1758 15.3618C57.8604 15.6053 57.4785 15.8018 57.0303 15.9512C56.5876 16.1006 56.0757 16.1753 55.4946 16.1753Z" fill="#48484A"/>
<rect x="0.500488" y="32.501" width="89.8571" height="41" rx="20.5" stroke="#E0E0E0"/>
<path d="M27.167 59.001V48.6831H27.0342L23.9878 50.8911V49.314L27.1753 47.0229H28.6611V59.001H27.167ZM36.1318 59.2832C35.2464 59.2832 34.4883 59.0286 33.8574 58.5195C33.2321 58.0104 32.7507 57.2882 32.4131 56.353C32.0755 55.4123 31.9067 54.3 31.9067 53.0161V52.9995C31.9067 51.7157 32.0755 50.6061 32.4131 49.6709C32.7507 48.7357 33.2321 48.0135 33.8574 47.5044C34.4883 46.9953 35.2464 46.7407 36.1318 46.7407C37.0173 46.7407 37.7754 46.9953 38.4062 47.5044C39.0371 48.0135 39.5213 48.7357 39.8589 49.6709C40.202 50.6061 40.3735 51.7157 40.3735 52.9995V53.0161C40.3735 54.3 40.202 55.4123 39.8589 56.353C39.5213 57.2882 39.0371 58.0104 38.4062 58.5195C37.7754 59.0286 37.0173 59.2832 36.1318 59.2832ZM36.1318 57.98C36.7074 57.98 37.1971 57.778 37.6011 57.374C38.0106 56.9701 38.3232 56.3973 38.5391 55.6558C38.7604 54.9142 38.8711 54.0343 38.8711 53.0161V52.9995C38.8711 51.9813 38.7604 51.1042 38.5391 50.3682C38.3232 49.6266 38.0106 49.0566 37.6011 48.6582C37.1971 48.2542 36.7074 48.0522 36.1318 48.0522C35.5618 48.0522 35.0721 48.2542 34.6626 48.6582C34.2586 49.0566 33.9487 49.6266 33.7329 50.3682C33.5171 51.1042 33.4092 51.9813 33.4092 52.9995V53.0161C33.4092 54.0343 33.5171 54.9142 33.7329 55.6558C33.9487 56.3973 34.2586 56.9701 34.6626 57.374C35.0721 57.778 35.5618 57.98 36.1318 57.98ZM44.0176 57.2993C43.7243 57.2993 43.4697 57.1942 43.2539 56.9839C43.0436 56.7681 42.9385 56.5135 42.9385 56.2202C42.9385 55.9214 43.0436 55.6668 43.2539 55.4565C43.4697 55.2463 43.7243 55.1411 44.0176 55.1411C44.3164 55.1411 44.571 55.2463 44.7812 55.4565C44.9915 55.6668 45.0967 55.9214 45.0967 56.2202C45.0967 56.5135 44.9915 56.7681 44.7812 56.9839C44.571 57.1942 44.3164 57.2993 44.0176 57.2993ZM44.0176 50.8745C43.7243 50.8745 43.4697 50.7694 43.2539 50.5591C43.0436 50.3433 42.9385 50.0887 42.9385 49.7954C42.9385 49.4966 43.0436 49.242 43.2539 49.0317C43.4697 48.8215 43.7243 48.7163 44.0176 48.7163C44.3164 48.7163 44.571 48.8215 44.7812 49.0317C44.9915 49.242 45.0967 49.4966 45.0967 49.7954C45.0967 50.0887 44.9915 50.3433 44.7812 50.5591C44.571 50.7694 44.3164 50.8745 44.0176 50.8745ZM51.8867 59.2832C51.0013 59.2832 50.2432 59.0286 49.6123 58.5195C48.987 58.0104 48.5055 57.2882 48.168 56.353C47.8304 55.4123 47.6616 54.3 47.6616 53.0161V52.9995C47.6616 51.7157 47.8304 50.6061 48.168 49.6709C48.5055 48.7357 48.987 48.0135 49.6123 47.5044C50.2432 46.9953 51.0013 46.7407 51.8867 46.7407C52.7721 46.7407 53.5303 46.9953 54.1611 47.5044C54.792 48.0135 55.2762 48.7357 55.6138 49.6709C55.9569 50.6061 56.1284 51.7157 56.1284 52.9995V53.0161C56.1284 54.3 55.9569 55.4123 55.6138 56.353C55.2762 57.2882 54.792 58.0104 54.1611 58.5195C53.5303 59.0286 52.7721 59.2832 51.8867 59.2832ZM51.8867 57.98C52.4622 57.98 52.952 57.778 53.356 57.374C53.7655 56.9701 54.0781 56.3973 54.2939 55.6558C54.5153 54.9142 54.626 54.0343 54.626 53.0161V52.9995C54.626 51.9813 54.5153 51.1042 54.2939 50.3682C54.0781 49.6266 53.7655 49.0566 53.356 48.6582C52.952 48.2542 52.4622 48.0522 51.8867 48.0522C51.3167 48.0522 50.827 48.2542 50.4175 48.6582C50.0135 49.0566 49.7036 49.6266 49.4878 50.3682C49.272 51.1042 49.1641 51.9813 49.1641 52.9995V53.0161C49.1641 54.0343 49.272 54.9142 49.4878 55.6558C49.7036 56.3973 50.0135 56.9701 50.4175 57.374C50.827 57.778 51.3167 57.98 51.8867 57.98ZM62.5947 59.2832C61.7093 59.2832 60.9512 59.0286 60.3203 58.5195C59.695 58.0104 59.2135 57.2882 58.876 56.353C58.5384 55.4123 58.3696 54.3 58.3696 53.0161V52.9995C58.3696 51.7157 58.5384 50.6061 58.876 49.6709C59.2135 48.7357 59.695 48.0135 60.3203 47.5044C60.9512 46.9953 61.7093 46.7407 62.5947 46.7407C63.4801 46.7407 64.2383 46.9953 64.8691 47.5044C65.5 48.0135 65.9842 48.7357 66.3218 49.6709C66.6649 50.6061 66.8364 51.7157 66.8364 52.9995V53.0161C66.8364 54.3 66.6649 55.4123 66.3218 56.353C65.9842 57.2882 65.5 58.0104 64.8691 58.5195C64.2383 59.0286 63.4801 59.2832 62.5947 59.2832ZM62.5947 57.98C63.1702 57.98 63.66 57.778 64.064 57.374C64.4735 56.9701 64.7861 56.3973 65.002 55.6558C65.2233 54.9142 65.334 54.0343 65.334 53.0161V52.9995C65.334 51.9813 65.2233 51.1042 65.002 50.3682C64.7861 49.6266 64.4735 49.0566 64.064 48.6582C63.66 48.2542 63.1702 48.0522 62.5947 48.0522C62.0247 48.0522 61.535 48.2542 61.1255 48.6582C60.7215 49.0566 60.4116 49.6266 60.1958 50.3682C59.98 51.1042 59.8721 51.9813 59.8721 52.9995V53.0161C59.8721 54.0343 59.98 54.9142 60.1958 55.6558C60.4116 56.3973 60.7215 56.9701 61.1255 57.374C61.535 57.778 62.0247 57.98 62.5947 57.98Z" fill="#8E8E93"/>
<rect x="99.3574" y="32.501" width="89.8571" height="41" rx="20.5" stroke="#E0E0E0"/>
<path d="M127.436 59.001V48.6831H127.303L124.256 50.8911V49.314L127.444 47.0229H128.93V59.001H127.436ZM135.321 59.001V48.6831H135.188L132.142 50.8911V49.314L135.33 47.0229H136.815V59.001H135.321ZM141.464 57.2993C141.171 57.2993 140.916 57.1942 140.7 56.9839C140.49 56.7681 140.385 56.5135 140.385 56.2202C140.385 55.9214 140.49 55.6668 140.7 55.4565C140.916 55.2463 141.171 55.1411 141.464 55.1411C141.763 55.1411 142.017 55.2463 142.228 55.4565C142.438 55.6668 142.543 55.9214 142.543 56.2202C142.543 56.5135 142.438 56.7681 142.228 56.9839C142.017 57.1942 141.763 57.2993 141.464 57.2993ZM141.464 50.8745C141.171 50.8745 140.916 50.7694 140.7 50.5591C140.49 50.3433 140.385 50.0887 140.385 49.7954C140.385 49.4966 140.49 49.242 140.7 49.0317C140.916 48.8215 141.171 48.7163 141.464 48.7163C141.763 48.7163 142.017 48.8215 142.228 49.0317C142.438 49.242 142.543 49.4966 142.543 49.7954C142.543 50.0887 142.438 50.3433 142.228 50.5591C142.017 50.7694 141.763 50.8745 141.464 50.8745ZM149.333 59.2832C148.448 59.2832 147.689 59.0286 147.059 58.5195C146.433 58.0104 145.952 57.2882 145.614 56.353C145.277 55.4123 145.108 54.3 145.108 53.0161V52.9995C145.108 51.7157 145.277 50.6061 145.614 49.6709C145.952 48.7357 146.433 48.0135 147.059 47.5044C147.689 46.9953 148.448 46.7407 149.333 46.7407C150.218 46.7407 150.977 46.9953 151.607 47.5044C152.238 48.0135 152.722 48.7357 153.06 49.6709C153.403 50.6061 153.575 51.7157 153.575 52.9995V53.0161C153.575 54.3 153.403 55.4123 153.06 56.353C152.722 57.2882 152.238 58.0104 151.607 58.5195C150.977 59.0286 150.218 59.2832 149.333 59.2832ZM149.333 57.98C149.909 57.98 150.398 57.778 150.802 57.374C151.212 56.9701 151.524 56.3973 151.74 55.6558C151.962 54.9142 152.072 54.0343 152.072 53.0161V52.9995C152.072 51.9813 151.962 51.1042 151.74 50.3682C151.524 49.6266 151.212 49.0566 150.802 48.6582C150.398 48.2542 149.909 48.0522 149.333 48.0522C148.763 48.0522 148.273 48.2542 147.864 48.6582C147.46 49.0566 147.15 49.6266 146.934 50.3682C146.718 51.1042 146.61 51.9813 146.61 52.9995V53.0161C146.61 54.0343 146.718 54.9142 146.934 55.6558C147.15 56.3973 147.46 56.9701 147.864 57.374C148.273 57.778 148.763 57.98 149.333 57.98ZM160.041 59.2832C159.156 59.2832 158.397 59.0286 157.767 58.5195C157.141 58.0104 156.66 57.2882 156.322 56.353C155.985 55.4123 155.816 54.3 155.816 53.0161V52.9995C155.816 51.7157 155.985 50.6061 156.322 49.6709C156.66 48.7357 157.141 48.0135 157.767 47.5044C158.397 46.9953 159.156 46.7407 160.041 46.7407C160.926 46.7407 161.685 46.9953 162.315 47.5044C162.946 48.0135 163.431 48.7357 163.768 49.6709C164.111 50.6061 164.283 51.7157 164.283 52.9995V53.0161C164.283 54.3 164.111 55.4123 163.768 56.353C163.431 57.2882 162.946 58.0104 162.315 58.5195C161.685 59.0286 160.926 59.2832 160.041 59.2832ZM160.041 57.98C160.617 57.98 161.106 57.778 161.51 57.374C161.92 56.9701 162.232 56.3973 162.448 55.6558C162.67 54.9142 162.78 54.0343 162.78 53.0161V52.9995C162.78 51.9813 162.67 51.1042 162.448 50.3682C162.232 49.6266 161.92 49.0566 161.51 48.6582C161.106 48.2542 160.617 48.0522 160.041 48.0522C159.471 48.0522 158.981 48.2542 158.572 48.6582C158.168 49.0566 157.858 49.6266 157.642 50.3682C157.426 51.1042 157.318 51.9813 157.318 52.9995V53.0161C157.318 54.0343 157.426 54.9142 157.642 55.6558C157.858 56.3973 158.168 56.9701 158.572 57.374C158.981 57.778 159.471 57.98 160.041 57.98Z" fill="#8E8E93"/>
<rect x="198.215" y="32.501" width="89.8571" height="41" rx="20.5" stroke="#E0E0E0"/>
<path d="M225.106 59.001V48.6831H224.973L221.927 50.8911V49.314L225.114 47.0229H226.6V59.001H225.106ZM230.062 59.001V57.9717L234.112 53.5889C234.621 53.0355 235.02 52.5789 235.308 52.2192C235.595 51.854 235.797 51.5247 235.914 51.2314C236.03 50.9382 236.088 50.6172 236.088 50.2686V50.252C236.088 49.8314 235.997 49.4551 235.814 49.123C235.631 48.791 235.371 48.5282 235.034 48.3345C234.696 48.1408 234.292 48.0439 233.822 48.0439C233.346 48.0439 232.928 48.1436 232.568 48.3428C232.209 48.5365 231.929 48.8104 231.73 49.1646C231.531 49.5132 231.431 49.9227 231.431 50.3931L231.423 50.4097L229.995 50.4014L229.979 50.3931C229.984 49.6847 230.156 49.0566 230.493 48.5088C230.831 47.9554 231.296 47.5238 231.888 47.2139C232.48 46.8984 233.158 46.7407 233.921 46.7407C234.619 46.7407 235.247 46.8874 235.806 47.1807C236.365 47.4684 236.805 47.8641 237.125 48.3677C237.452 48.8713 237.615 49.4468 237.615 50.0942V50.1108C237.615 50.5646 237.535 51.0018 237.375 51.4224C237.22 51.8429 236.943 52.3105 236.544 52.8252C236.146 53.3343 235.584 53.9624 234.859 54.7095L231.763 57.9053L232.137 57.2163V57.9053L231.771 57.6562H237.814V59.001H230.062ZM241.508 57.2993C241.215 57.2993 240.96 57.1942 240.745 56.9839C240.534 56.7681 240.429 56.5135 240.429 56.2202C240.429 55.9214 240.534 55.6668 240.745 55.4565C240.96 55.2463 241.215 55.1411 241.508 55.1411C241.807 55.1411 242.062 55.2463 242.272 55.4565C242.482 55.6668 242.587 55.9214 242.587 56.2202C242.587 56.5135 242.482 56.7681 242.272 56.9839C242.062 57.1942 241.807 57.2993 241.508 57.2993ZM241.508 50.8745C241.215 50.8745 240.96 50.7694 240.745 50.5591C240.534 50.3433 240.429 50.0887 240.429 49.7954C240.429 49.4966 240.534 49.242 240.745 49.0317C240.96 48.8215 241.215 48.7163 241.508 48.7163C241.807 48.7163 242.062 48.8215 242.272 49.0317C242.482 49.242 242.587 49.4966 242.587 49.7954C242.587 50.0887 242.482 50.3433 242.272 50.5591C242.062 50.7694 241.807 50.8745 241.508 50.8745ZM249.377 59.2832C248.492 59.2832 247.734 59.0286 247.103 58.5195C246.478 58.0104 245.996 57.2882 245.659 56.353C245.321 55.4123 245.152 54.3 245.152 53.0161V52.9995C245.152 51.7157 245.321 50.6061 245.659 49.6709C245.996 48.7357 246.478 48.0135 247.103 47.5044C247.734 46.9953 248.492 46.7407 249.377 46.7407C250.263 46.7407 251.021 46.9953 251.652 47.5044C252.283 48.0135 252.767 48.7357 253.104 49.6709C253.448 50.6061 253.619 51.7157 253.619 52.9995V53.0161C253.619 54.3 253.448 55.4123 253.104 56.353C252.767 57.2882 252.283 58.0104 251.652 58.5195C251.021 59.0286 250.263 59.2832 249.377 59.2832ZM249.377 57.98C249.953 57.98 250.443 57.778 250.847 57.374C251.256 56.9701 251.569 56.3973 251.785 55.6558C252.006 54.9142 252.117 54.0343 252.117 53.0161V52.9995C252.117 51.9813 252.006 51.1042 251.785 50.3682C251.569 49.6266 251.256 49.0566 250.847 48.6582C250.443 48.2542 249.953 48.0522 249.377 48.0522C248.807 48.0522 248.318 48.2542 247.908 48.6582C247.504 49.0566 247.194 49.6266 246.979 50.3682C246.763 51.1042 246.655 51.9813 246.655 52.9995V53.0161C246.655 54.0343 246.763 54.9142 246.979 55.6558C247.194 56.3973 247.504 56.9701 247.908 57.374C248.318 57.778 248.807 57.98 249.377 57.98ZM260.085 59.2832C259.2 59.2832 258.442 59.0286 257.811 58.5195C257.186 58.0104 256.704 57.2882 256.367 56.353C256.029 55.4123 255.86 54.3 255.86 53.0161V52.9995C255.86 51.7157 256.029 50.6061 256.367 49.6709C256.704 48.7357 257.186 48.0135 257.811 47.5044C258.442 46.9953 259.2 46.7407 260.085 46.7407C260.971 46.7407 261.729 46.9953 262.36 47.5044C262.991 48.0135 263.475 48.7357 263.812 49.6709C264.156 50.6061 264.327 51.7157 264.327 52.9995V53.0161C264.327 54.3 264.156 55.4123 263.812 56.353C263.475 57.2882 262.991 58.0104 262.36 58.5195C261.729 59.0286 260.971 59.2832 260.085 59.2832ZM260.085 57.98C260.661 57.98 261.151 57.778 261.555 57.374C261.964 56.9701 262.277 56.3973 262.493 55.6558C262.714 54.9142 262.825 54.0343 262.825 53.0161V52.9995C262.825 51.9813 262.714 51.1042 262.493 50.3682C262.277 49.6266 261.964 49.0566 261.555 48.6582C261.151 48.2542 260.661 48.0522 260.085 48.0522C259.515 48.0522 259.026 48.2542 258.616 48.6582C258.212 49.0566 257.902 49.6266 257.687 50.3682C257.471 51.1042 257.363 51.9813 257.363 52.9995V53.0161C257.363 54.0343 257.471 54.9142 257.687 55.6558C257.902 56.3973 258.212 56.9701 258.616 57.374C259.026 57.778 259.515 57.98 260.085 57.98Z" fill="#8E8E93"/>
<rect x="297.072" y="32.501" width="89.8571" height="41" rx="20.5" stroke="#E0E0E0"/>
<path d="M323.763 59.001V48.6831H323.63L320.584 50.8911V49.314L323.771 47.0229H325.257V59.001H323.763ZM332.794 59.2002C331.97 59.2002 331.25 59.0591 330.636 58.7769C330.022 58.4946 329.535 58.1073 329.175 57.6147C328.821 57.1222 328.616 56.5605 328.561 55.9297L328.553 55.8301H329.989L329.997 55.9131C330.058 56.4997 330.34 56.9784 330.844 57.3491C331.347 57.7199 331.998 57.9053 332.794 57.9053C333.32 57.9053 333.779 57.814 334.172 57.6313C334.571 57.4487 334.881 57.1969 335.102 56.876C335.323 56.5495 335.434 56.1759 335.434 55.7554V55.7388C335.434 55.0028 335.188 54.4383 334.695 54.0454C334.208 53.647 333.544 53.4478 332.703 53.4478H331.201V52.186H332.637C333.113 52.186 333.533 52.0975 333.898 51.9204C334.264 51.7378 334.549 51.4915 334.753 51.1816C334.958 50.8662 335.061 50.5093 335.061 50.1108V50.0942C335.061 49.6737 334.972 49.3167 334.795 49.0234C334.618 48.7301 334.358 48.506 334.015 48.3511C333.677 48.1961 333.265 48.1187 332.778 48.1187C332.307 48.1187 331.887 48.1989 331.516 48.3594C331.151 48.5143 330.858 48.7384 330.636 49.0317C330.415 49.325 330.282 49.6737 330.238 50.0776L330.229 50.1606H328.793L328.802 50.0776C328.868 49.4246 329.073 48.8547 329.416 48.3677C329.765 47.8807 330.224 47.5016 330.794 47.2305C331.369 46.9593 332.031 46.8237 332.778 46.8237C333.542 46.8237 334.206 46.9565 334.77 47.2222C335.34 47.4823 335.78 47.8447 336.09 48.3096C336.405 48.7689 336.563 49.3029 336.563 49.9116V49.9282C336.563 50.4207 336.455 50.8579 336.239 51.2397C336.023 51.6216 335.725 51.9398 335.343 52.1943C334.961 52.4489 334.521 52.6287 334.023 52.7339V52.7671C334.897 52.839 335.603 53.1351 336.14 53.6553C336.682 54.1699 336.953 54.8534 336.953 55.7056V55.7222C336.953 56.3862 336.773 56.9811 336.414 57.5068C336.054 58.0326 335.561 58.4476 334.936 58.752C334.311 59.0508 333.597 59.2002 332.794 59.2002ZM340.564 57.2993C340.271 57.2993 340.016 57.1942 339.8 56.9839C339.59 56.7681 339.485 56.5135 339.485 56.2202C339.485 55.9214 339.59 55.6668 339.8 55.4565C340.016 55.2463 340.271 55.1411 340.564 55.1411C340.863 55.1411 341.117 55.2463 341.328 55.4565C341.538 55.6668 341.643 55.9214 341.643 56.2202C341.643 56.5135 341.538 56.7681 341.328 56.9839C341.117 57.1942 340.863 57.2993 340.564 57.2993ZM340.564 50.8745C340.271 50.8745 340.016 50.7694 339.8 50.5591C339.59 50.3433 339.485 50.0887 339.485 49.7954C339.485 49.4966 339.59 49.242 339.8 49.0317C340.016 48.8215 340.271 48.7163 340.564 48.7163C340.863 48.7163 341.117 48.8215 341.328 49.0317C341.538 49.242 341.643 49.4966 341.643 49.7954C341.643 50.0887 341.538 50.3433 341.328 50.5591C341.117 50.7694 340.863 50.8745 340.564 50.8745ZM348.433 59.2832C347.548 59.2832 346.79 59.0286 346.159 58.5195C345.533 58.0104 345.052 57.2882 344.714 56.353C344.377 55.4123 344.208 54.3 344.208 53.0161V52.9995C344.208 51.7157 344.377 50.6061 344.714 49.6709C345.052 48.7357 345.533 48.0135 346.159 47.5044C346.79 46.9953 347.548 46.7407 348.433 46.7407C349.319 46.7407 350.077 46.9953 350.708 47.5044C351.338 48.0135 351.823 48.7357 352.16 49.6709C352.503 50.6061 352.675 51.7157 352.675 52.9995V53.0161C352.675 54.3 352.503 55.4123 352.16 56.353C351.823 57.2882 351.338 58.0104 350.708 58.5195C350.077 59.0286 349.319 59.2832 348.433 59.2832ZM348.433 57.98C349.009 57.98 349.498 57.778 349.902 57.374C350.312 56.9701 350.625 56.3973 350.84 55.6558C351.062 54.9142 351.172 54.0343 351.172 53.0161V52.9995C351.172 51.9813 351.062 51.1042 350.84 50.3682C350.625 49.6266 350.312 49.0566 349.902 48.6582C349.498 48.2542 349.009 48.0522 348.433 48.0522C347.863 48.0522 347.373 48.2542 346.964 48.6582C346.56 49.0566 346.25 49.6266 346.034 50.3682C345.818 51.1042 345.71 51.9813 345.71 52.9995V53.0161C345.71 54.0343 345.818 54.9142 346.034 55.6558C346.25 56.3973 346.56 56.9701 346.964 57.374C347.373 57.778 347.863 57.98 348.433 57.98ZM359.141 59.2832C358.256 59.2832 357.498 59.0286 356.867 58.5195C356.241 58.0104 355.76 57.2882 355.422 56.353C355.085 55.4123 354.916 54.3 354.916 53.0161V52.9995C354.916 51.7157 355.085 50.6061 355.422 49.6709C355.76 48.7357 356.241 48.0135 356.867 47.5044C357.498 46.9953 358.256 46.7407 359.141 46.7407C360.027 46.7407 360.785 46.9953 361.416 47.5044C362.046 48.0135 362.531 48.7357 362.868 49.6709C363.211 50.6061 363.383 51.7157 363.383 52.9995V53.0161C363.383 54.3 363.211 55.4123 362.868 56.353C362.531 57.2882 362.046 58.0104 361.416 58.5195C360.785 59.0286 360.027 59.2832 359.141 59.2832ZM359.141 57.98C359.717 57.98 360.206 57.778 360.61 57.374C361.02 56.9701 361.333 56.3973 361.548 55.6558C361.77 54.9142 361.88 54.0343 361.88 53.0161V52.9995C361.88 51.9813 361.77 51.1042 361.548 50.3682C361.333 49.6266 361.02 49.0566 360.61 48.6582C360.206 48.2542 359.717 48.0522 359.141 48.0522C358.571 48.0522 358.081 48.2542 357.672 48.6582C357.268 49.0566 356.958 49.6266 356.742 50.3682C356.526 51.1042 356.418 51.9813 356.418 52.9995V53.0161C356.418 54.0343 356.526 54.9142 356.742 55.6558C356.958 56.3973 357.268 56.9701 357.672 57.374C358.081 57.778 358.571 57.98 359.141 57.98Z" fill="#8E8E93"/>
<rect x="395.929" y="32.501" width="89.8571" height="41" rx="20.5" stroke="#E0E0E0"/>
<path d="M422.479 59.001V48.6831H422.347L419.3 50.8911V49.314L422.488 47.0229H423.974V59.001H422.479ZM432.905 59.001V56.519H427.07V55.1577C427.396 54.6154 427.728 54.0675 428.066 53.5142C428.403 52.9552 428.744 52.3991 429.087 51.8457C429.436 51.2868 429.784 50.7334 430.133 50.1855C430.481 49.6377 430.827 49.0981 431.17 48.5669C431.519 48.0356 431.862 47.521 432.2 47.0229H434.366V55.1826H436.068V56.519H434.366V59.001H432.905ZM428.597 55.1909H432.914V48.4092H432.814C432.543 48.8132 432.266 49.2337 431.984 49.6709C431.702 50.1025 431.414 50.5452 431.121 50.999C430.833 51.4528 430.545 51.9093 430.257 52.3687C429.97 52.828 429.685 53.2873 429.402 53.7466C429.126 54.2004 428.857 54.6486 428.597 55.0913V55.1909ZM439.562 57.2993C439.269 57.2993 439.015 57.1942 438.799 56.9839C438.589 56.7681 438.483 56.5135 438.483 56.2202C438.483 55.9214 438.589 55.6668 438.799 55.4565C439.015 55.2463 439.269 55.1411 439.562 55.1411C439.861 55.1411 440.116 55.2463 440.326 55.4565C440.536 55.6668 440.642 55.9214 440.642 56.2202C440.642 56.5135 440.536 56.7681 440.326 56.9839C440.116 57.1942 439.861 57.2993 439.562 57.2993ZM439.562 50.8745C439.269 50.8745 439.015 50.7694 438.799 50.5591C438.589 50.3433 438.483 50.0887 438.483 49.7954C438.483 49.4966 438.589 49.242 438.799 49.0317C439.015 48.8215 439.269 48.7163 439.562 48.7163C439.861 48.7163 440.116 48.8215 440.326 49.0317C440.536 49.242 440.642 49.4966 440.642 49.7954C440.642 50.0887 440.536 50.3433 440.326 50.5591C440.116 50.7694 439.861 50.8745 439.562 50.8745ZM447.432 59.2832C446.546 59.2832 445.788 59.0286 445.157 58.5195C444.532 58.0104 444.05 57.2882 443.713 56.353C443.375 55.4123 443.207 54.3 443.207 53.0161V52.9995C443.207 51.7157 443.375 50.6061 443.713 49.6709C444.05 48.7357 444.532 48.0135 445.157 47.5044C445.788 46.9953 446.546 46.7407 447.432 46.7407C448.317 46.7407 449.075 46.9953 449.706 47.5044C450.337 48.0135 450.821 48.7357 451.159 49.6709C451.502 50.6061 451.673 51.7157 451.673 52.9995V53.0161C451.673 54.3 451.502 55.4123 451.159 56.353C450.821 57.2882 450.337 58.0104 449.706 58.5195C449.075 59.0286 448.317 59.2832 447.432 59.2832ZM447.432 57.98C448.007 57.98 448.497 57.778 448.901 57.374C449.31 56.9701 449.623 56.3973 449.839 55.6558C450.06 54.9142 450.171 54.0343 450.171 53.0161V52.9995C450.171 51.9813 450.06 51.1042 449.839 50.3682C449.623 49.6266 449.31 49.0566 448.901 48.6582C448.497 48.2542 448.007 48.0522 447.432 48.0522C446.862 48.0522 446.372 48.2542 445.962 48.6582C445.558 49.0566 445.249 49.6266 445.033 50.3682C444.817 51.1042 444.709 51.9813 444.709 52.9995V53.0161C444.709 54.0343 444.817 54.9142 445.033 55.6558C445.249 56.3973 445.558 56.9701 445.962 57.374C446.372 57.778 446.862 57.98 447.432 57.98ZM458.14 59.2832C457.254 59.2832 456.496 59.0286 455.865 58.5195C455.24 58.0104 454.758 57.2882 454.421 56.353C454.083 55.4123 453.915 54.3 453.915 53.0161V52.9995C453.915 51.7157 454.083 50.6061 454.421 49.6709C454.758 48.7357 455.24 48.0135 455.865 47.5044C456.496 46.9953 457.254 46.7407 458.14 46.7407C459.025 46.7407 459.783 46.9953 460.414 47.5044C461.045 48.0135 461.529 48.7357 461.867 49.6709C462.21 50.6061 462.381 51.7157 462.381 52.9995V53.0161C462.381 54.3 462.21 55.4123 461.867 56.353C461.529 57.2882 461.045 58.0104 460.414 58.5195C459.783 59.0286 459.025 59.2832 458.14 59.2832ZM458.14 57.98C458.715 57.98 459.205 57.778 459.609 57.374C460.018 56.9701 460.331 56.3973 460.547 55.6558C460.768 54.9142 460.879 54.0343 460.879 53.0161V52.9995C460.879 51.9813 460.768 51.1042 460.547 50.3682C460.331 49.6266 460.018 49.0566 459.609 48.6582C459.205 48.2542 458.715 48.0522 458.14 48.0522C457.57 48.0522 457.08 48.2542 456.67 48.6582C456.266 49.0566 455.957 49.6266 455.741 50.3682C455.525 51.1042 455.417 51.9813 455.417 52.9995V53.0161C455.417 54.0343 455.525 54.9142 455.741 55.6558C455.957 56.3973 456.266 56.9701 456.67 57.374C457.08 57.778 457.57 57.98 458.14 57.98Z" fill="#8E8E93"/>
<rect x="494.786" y="32.501" width="89.8571" height="41" rx="20.5" stroke="#E0E0E0"/>
<path d="M522.051 59.001V48.6831H521.918L518.872 50.8911V49.314L522.059 47.0229H523.545V59.001H522.051ZM527.504 59.001L532.883 48.4756V48.3594H526.475V47.0229H534.402V48.4092L529.073 59.001H527.504ZM537.706 57.2993C537.413 57.2993 537.158 57.1942 536.942 56.9839C536.732 56.7681 536.627 56.5135 536.627 56.2202C536.627 55.9214 536.732 55.6668 536.942 55.4565C537.158 55.2463 537.413 55.1411 537.706 55.1411C538.005 55.1411 538.259 55.2463 538.47 55.4565C538.68 55.6668 538.785 55.9214 538.785 56.2202C538.785 56.5135 538.68 56.7681 538.47 56.9839C538.259 57.1942 538.005 57.2993 537.706 57.2993ZM537.706 50.8745C537.413 50.8745 537.158 50.7694 536.942 50.5591C536.732 50.3433 536.627 50.0887 536.627 49.7954C536.627 49.4966 536.732 49.242 536.942 49.0317C537.158 48.8215 537.413 48.7163 537.706 48.7163C538.005 48.7163 538.259 48.8215 538.47 49.0317C538.68 49.242 538.785 49.4966 538.785 49.7954C538.785 50.0887 538.68 50.3433 538.47 50.5591C538.259 50.7694 538.005 50.8745 537.706 50.8745ZM545.575 59.2832C544.69 59.2832 543.932 59.0286 543.301 58.5195C542.675 58.0104 542.194 57.2882 541.856 56.353C541.519 55.4123 541.35 54.3 541.35 53.0161V52.9995C541.35 51.7157 541.519 50.6061 541.856 49.6709C542.194 48.7357 542.675 48.0135 543.301 47.5044C543.932 46.9953 544.69 46.7407 545.575 46.7407C546.461 46.7407 547.219 46.9953 547.85 47.5044C548.48 48.0135 548.965 48.7357 549.302 49.6709C549.645 50.6061 549.817 51.7157 549.817 52.9995V53.0161C549.817 54.3 549.645 55.4123 549.302 56.353C548.965 57.2882 548.48 58.0104 547.85 58.5195C547.219 59.0286 546.461 59.2832 545.575 59.2832ZM545.575 57.98C546.151 57.98 546.64 57.778 547.044 57.374C547.454 56.9701 547.767 56.3973 547.982 55.6558C548.204 54.9142 548.314 54.0343 548.314 53.0161V52.9995C548.314 51.9813 548.204 51.1042 547.982 50.3682C547.767 49.6266 547.454 49.0566 547.044 48.6582C546.64 48.2542 546.151 48.0522 545.575 48.0522C545.005 48.0522 544.515 48.2542 544.106 48.6582C543.702 49.0566 543.392 49.6266 543.176 50.3682C542.96 51.1042 542.853 51.9813 542.853 52.9995V53.0161C542.853 54.0343 542.96 54.9142 543.176 55.6558C543.392 56.3973 543.702 56.9701 544.106 57.374C544.515 57.778 545.005 57.98 545.575 57.98ZM556.283 59.2832C555.398 59.2832 554.64 59.0286 554.009 58.5195C553.383 58.0104 552.902 57.2882 552.564 56.353C552.227 55.4123 552.058 54.3 552.058 53.0161V52.9995C552.058 51.7157 552.227 50.6061 552.564 49.6709C552.902 48.7357 553.383 48.0135 554.009 47.5044C554.64 46.9953 555.398 46.7407 556.283 46.7407C557.169 46.7407 557.927 46.9953 558.558 47.5044C559.188 48.0135 559.673 48.7357 560.01 49.6709C560.353 50.6061 560.525 51.7157 560.525 52.9995V53.0161C560.525 54.3 560.353 55.4123 560.01 56.353C559.673 57.2882 559.188 58.0104 558.558 58.5195C557.927 59.0286 557.169 59.2832 556.283 59.2832ZM556.283 57.98C556.859 57.98 557.348 57.778 557.752 57.374C558.162 56.9701 558.475 56.3973 558.69 55.6558C558.912 54.9142 559.022 54.0343 559.022 53.0161V52.9995C559.022 51.9813 558.912 51.1042 558.69 50.3682C558.475 49.6266 558.162 49.0566 557.752 48.6582C557.348 48.2542 556.859 48.0522 556.283 48.0522C555.713 48.0522 555.223 48.2542 554.814 48.6582C554.41 49.0566 554.1 49.6266 553.884 50.3682C553.668 51.1042 553.561 51.9813 553.561 52.9995V53.0161C553.561 54.0343 553.668 54.9142 553.884 55.6558C554.1 56.3973 554.41 56.9701 554.814 57.374C555.223 57.778 555.713 57.98 556.283 57.98Z" fill="#8E8E93"/>
<rect x="593.644" y="32.501" width="89.8571" height="41" rx="20.5" stroke="#E0E0E0"/>
<path d="M620.236 59.001V48.6831H620.103L617.057 50.8911V49.314L620.244 47.0229H621.73V59.001H620.236ZM629.284 59.2002C628.437 59.2002 627.687 59.0535 627.034 58.7603C626.381 58.467 625.867 58.063 625.49 57.5483C625.119 57.0282 624.934 56.4333 624.934 55.7637V55.7471C624.934 55.2546 625.042 54.798 625.258 54.3774C625.474 53.9569 625.775 53.5999 626.163 53.3066C626.55 53.0078 626.998 52.8003 627.507 52.6841V52.6509C626.854 52.4461 626.334 52.1086 625.947 51.6382C625.559 51.1678 625.366 50.6172 625.366 49.9863V49.9697C625.366 49.3665 625.535 48.8298 625.872 48.3594C626.21 47.8835 626.674 47.5099 627.267 47.2388C627.859 46.9621 628.531 46.8237 629.284 46.8237C630.042 46.8237 630.714 46.9621 631.301 47.2388C631.893 47.5099 632.358 47.8835 632.695 48.3594C633.033 48.8298 633.202 49.3665 633.202 49.9697V49.9863C633.202 50.6172 633.008 51.1678 632.621 51.6382C632.239 52.1086 631.719 52.4461 631.06 52.6509V52.6841C631.575 52.8003 632.023 53.0078 632.405 53.3066C632.792 53.5999 633.094 53.9569 633.31 54.3774C633.525 54.798 633.633 55.2546 633.633 55.7471V55.7637C633.633 56.4333 633.448 57.0282 633.077 57.5483C632.706 58.063 632.192 58.467 631.533 58.7603C630.88 59.0535 630.13 59.2002 629.284 59.2002ZM629.284 57.897C629.837 57.897 630.324 57.8029 630.745 57.6147C631.171 57.4211 631.506 57.1582 631.749 56.8262C631.993 56.4886 632.114 56.104 632.114 55.6724V55.6558C632.114 55.2186 631.993 54.8312 631.749 54.4937C631.511 54.1561 631.179 53.8905 630.753 53.6968C630.327 53.5031 629.837 53.4062 629.284 53.4062C628.73 53.4062 628.241 53.5031 627.814 53.6968C627.388 53.8905 627.054 54.1561 626.81 54.4937C626.572 54.8312 626.453 55.2186 626.453 55.6558V55.6724C626.453 56.104 626.575 56.4886 626.818 56.8262C627.062 57.1582 627.397 57.4211 627.823 57.6147C628.249 57.8029 628.736 57.897 629.284 57.897ZM629.284 52.0947C629.765 52.0947 630.188 52.0117 630.554 51.8457C630.919 51.6742 631.204 51.439 631.409 51.1401C631.613 50.8413 631.716 50.4982 631.716 50.1108V50.0942C631.716 49.7069 631.613 49.3638 631.409 49.0649C631.204 48.7661 630.919 48.5337 630.554 48.3677C630.188 48.1961 629.765 48.1104 629.284 48.1104C628.802 48.1104 628.379 48.1961 628.014 48.3677C627.648 48.5337 627.363 48.7661 627.159 49.0649C626.954 49.3638 626.852 49.7069 626.852 50.0942V50.1108C626.852 50.4982 626.954 50.8413 627.159 51.1401C627.363 51.439 627.648 51.6742 628.014 51.8457C628.379 52.0117 628.802 52.0947 629.284 52.0947ZM637.236 57.2993C636.943 57.2993 636.688 57.1942 636.472 56.9839C636.262 56.7681 636.157 56.5135 636.157 56.2202C636.157 55.9214 636.262 55.6668 636.472 55.4565C636.688 55.2463 636.943 55.1411 637.236 55.1411C637.535 55.1411 637.789 55.2463 638 55.4565C638.21 55.6668 638.315 55.9214 638.315 56.2202C638.315 56.5135 638.21 56.7681 638 56.9839C637.789 57.1942 637.535 57.2993 637.236 57.2993ZM637.236 50.8745C636.943 50.8745 636.688 50.7694 636.472 50.5591C636.262 50.3433 636.157 50.0887 636.157 49.7954C636.157 49.4966 636.262 49.242 636.472 49.0317C636.688 48.8215 636.943 48.7163 637.236 48.7163C637.535 48.7163 637.789 48.8215 638 49.0317C638.21 49.242 638.315 49.4966 638.315 49.7954C638.315 50.0887 638.21 50.3433 638 50.5591C637.789 50.7694 637.535 50.8745 637.236 50.8745ZM645.105 59.2832C644.22 59.2832 643.461 59.0286 642.831 58.5195C642.205 58.0104 641.724 57.2882 641.386 56.353C641.049 55.4123 640.88 54.3 640.88 53.0161V52.9995C640.88 51.7157 641.049 50.6061 641.386 49.6709C641.724 48.7357 642.205 48.0135 642.831 47.5044C643.461 46.9953 644.22 46.7407 645.105 46.7407C645.99 46.7407 646.749 46.9953 647.379 47.5044C648.01 48.0135 648.494 48.7357 648.832 49.6709C649.175 50.6061 649.347 51.7157 649.347 52.9995V53.0161C649.347 54.3 649.175 55.4123 648.832 56.353C648.494 57.2882 648.01 58.0104 647.379 58.5195C646.749 59.0286 645.99 59.2832 645.105 59.2832ZM645.105 57.98C645.681 57.98 646.17 57.778 646.574 57.374C646.984 56.9701 647.296 56.3973 647.512 55.6558C647.734 54.9142 647.844 54.0343 647.844 53.0161V52.9995C647.844 51.9813 647.734 51.1042 647.512 50.3682C647.296 49.6266 646.984 49.0566 646.574 48.6582C646.17 48.2542 645.681 48.0522 645.105 48.0522C644.535 48.0522 644.045 48.2542 643.636 48.6582C643.232 49.0566 642.922 49.6266 642.706 50.3682C642.49 51.1042 642.382 51.9813 642.382 52.9995V53.0161C642.382 54.0343 642.49 54.9142 642.706 55.6558C642.922 56.3973 643.232 56.9701 643.636 57.374C644.045 57.778 644.535 57.98 645.105 57.98ZM655.813 59.2832C654.928 59.2832 654.169 59.0286 653.539 58.5195C652.913 58.0104 652.432 57.2882 652.094 56.353C651.757 55.4123 651.588 54.3 651.588 53.0161V52.9995C651.588 51.7157 651.757 50.6061 652.094 49.6709C652.432 48.7357 652.913 48.0135 653.539 47.5044C654.169 46.9953 654.928 46.7407 655.813 46.7407C656.698 46.7407 657.457 46.9953 658.087 47.5044C658.718 48.0135 659.202 48.7357 659.54 49.6709C659.883 50.6061 660.055 51.7157 660.055 52.9995V53.0161C660.055 54.3 659.883 55.4123 659.54 56.353C659.202 57.2882 658.718 58.0104 658.087 58.5195C657.457 59.0286 656.698 59.2832 655.813 59.2832ZM655.813 57.98C656.389 57.98 656.878 57.778 657.282 57.374C657.692 56.9701 658.004 56.3973 658.22 55.6558C658.442 54.9142 658.552 54.0343 658.552 53.0161V52.9995C658.552 51.9813 658.442 51.1042 658.22 50.3682C658.004 49.6266 657.692 49.0566 657.282 48.6582C656.878 48.2542 656.389 48.0522 655.813 48.0522C655.243 48.0522 654.753 48.2542 654.344 48.6582C653.94 49.0566 653.63 49.6266 653.414 50.3682C653.198 51.1042 653.09 51.9813 653.09 52.9995V53.0161C653.09 54.0343 653.198 54.9142 653.414 55.6558C653.63 56.3973 653.94 56.9701 654.344 57.374C654.753 57.778 655.243 57.98 655.813 57.98Z" fill="#8E8E93"/>
<rect x="0.500488" y="86.501" width="89.8571" height="41" rx="20.5" stroke="#E0E0E0"/>
<path d="M27.1089 113.001V102.683H26.9761L23.9297 104.891V103.314L27.1172 101.023H28.603V113.001H27.1089ZM35.9824 100.741C36.5303 100.741 37.0698 100.846 37.6011 101.056C38.1379 101.266 38.6221 101.607 39.0537 102.077C39.4909 102.548 39.8395 103.17 40.0996 103.945C40.3597 104.714 40.4897 105.663 40.4897 106.792V106.809C40.4897 108.17 40.3071 109.335 39.9419 110.303C39.5767 111.266 39.0509 112.005 38.3647 112.52C37.6785 113.029 36.8512 113.283 35.8828 113.283C35.2132 113.283 34.6073 113.161 34.0649 112.918C33.5282 112.669 33.0799 112.323 32.7202 111.88C32.3605 111.438 32.1115 110.923 31.9731 110.336L31.9482 110.229H33.4507L33.4839 110.32C33.6056 110.652 33.7772 110.94 33.9985 111.183C34.2254 111.427 34.4966 111.615 34.812 111.748C35.133 111.88 35.4954 111.947 35.8994 111.947C36.6243 111.947 37.2137 111.736 37.6675 111.316C38.1213 110.89 38.4588 110.325 38.6802 109.623C38.9015 108.92 39.026 108.153 39.0537 107.323C39.0592 107.246 39.062 107.171 39.062 107.099C39.062 107.022 39.062 106.947 39.062 106.875L38.7051 104.883C38.7051 104.357 38.5833 103.881 38.3398 103.455C38.1019 103.029 37.7782 102.691 37.3687 102.442C36.9647 102.188 36.5081 102.061 35.999 102.061C35.501 102.061 35.0472 102.185 34.6377 102.434C34.2282 102.678 33.9017 103.01 33.6582 103.43C33.4147 103.845 33.293 104.313 33.293 104.833V104.85C33.293 105.381 33.4092 105.854 33.6416 106.269C33.874 106.679 34.1922 107.002 34.5962 107.24C35.0002 107.473 35.4595 107.589 35.9741 107.589C36.4943 107.589 36.9591 107.473 37.3687 107.24C37.7782 107.008 38.1019 106.69 38.3398 106.286C38.5833 105.876 38.7051 105.411 38.7051 104.891V104.883H39.1948V107.041H38.9043C38.7604 107.368 38.5391 107.672 38.2402 107.954C37.9469 108.236 37.5872 108.463 37.1611 108.635C36.7406 108.806 36.2591 108.892 35.7168 108.892C34.9697 108.892 34.3001 108.718 33.708 108.369C33.1159 108.021 32.6483 107.545 32.3052 106.941C31.9621 106.333 31.7905 105.646 31.7905 104.883V104.866C31.7905 104.069 31.9704 103.361 32.3301 102.741C32.6953 102.116 33.1934 101.626 33.8242 101.272C34.4606 100.918 35.18 100.741 35.9824 100.741ZM44.0757 111.299C43.7824 111.299 43.5278 111.194 43.312 110.984C43.1017 110.768 42.9966 110.514 42.9966 110.22C42.9966 109.921 43.1017 109.667 43.312 109.457C43.5278 109.246 43.7824 109.141 44.0757 109.141C44.3745 109.141 44.6291 109.246 44.8394 109.457C45.0496 109.667 45.1548 109.921 45.1548 110.22C45.1548 110.514 45.0496 110.768 44.8394 110.984C44.6291 111.194 44.3745 111.299 44.0757 111.299ZM44.0757 104.875C43.7824 104.875 43.5278 104.769 43.312 104.559C43.1017 104.343 42.9966 104.089 42.9966 103.795C42.9966 103.497 43.1017 103.242 43.312 103.032C43.5278 102.821 43.7824 102.716 44.0757 102.716C44.3745 102.716 44.6291 102.821 44.8394 103.032C45.0496 103.242 45.1548 103.497 45.1548 103.795C45.1548 104.089 45.0496 104.343 44.8394 104.559C44.6291 104.769 44.3745 104.875 44.0757 104.875ZM51.9448 113.283C51.0594 113.283 50.3013 113.029 49.6704 112.52C49.0451 112.01 48.5636 111.288 48.2261 110.353C47.8885 109.412 47.7197 108.3 47.7197 107.016V107C47.7197 105.716 47.8885 104.606 48.2261 103.671C48.5636 102.736 49.0451 102.014 49.6704 101.504C50.3013 100.995 51.0594 100.741 51.9448 100.741C52.8302 100.741 53.5884 100.995 54.2192 101.504C54.8501 102.014 55.3343 102.736 55.6719 103.671C56.015 104.606 56.1865 105.716 56.1865 107V107.016C56.1865 108.3 56.015 109.412 55.6719 110.353C55.3343 111.288 54.8501 112.01 54.2192 112.52C53.5884 113.029 52.8302 113.283 51.9448 113.283ZM51.9448 111.98C52.5203 111.98 53.0101 111.778 53.4141 111.374C53.8236 110.97 54.1362 110.397 54.3521 109.656C54.5734 108.914 54.6841 108.034 54.6841 107.016V107C54.6841 105.981 54.5734 105.104 54.3521 104.368C54.1362 103.627 53.8236 103.057 53.4141 102.658C53.0101 102.254 52.5203 102.052 51.9448 102.052C51.3748 102.052 50.8851 102.254 50.4756 102.658C50.0716 103.057 49.7617 103.627 49.5459 104.368C49.3301 105.104 49.2222 105.981 49.2222 107V107.016C49.2222 108.034 49.3301 108.914 49.5459 109.656C49.7617 110.397 50.0716 110.97 50.4756 111.374C50.8851 111.778 51.3748 111.98 51.9448 111.98ZM62.6528 113.283C61.7674 113.283 61.0093 113.029 60.3784 112.52C59.7531 112.01 59.2716 111.288 58.9341 110.353C58.5965 109.412 58.4277 108.3 58.4277 107.016V107C58.4277 105.716 58.5965 104.606 58.9341 103.671C59.2716 102.736 59.7531 102.014 60.3784 101.504C61.0093 100.995 61.7674 100.741 62.6528 100.741C63.5382 100.741 64.2964 100.995 64.9272 101.504C65.5581 102.014 66.0423 102.736 66.3799 103.671C66.723 104.606 66.8945 105.716 66.8945 107V107.016C66.8945 108.3 66.723 109.412 66.3799 110.353C66.0423 111.288 65.5581 112.01 64.9272 112.52C64.2964 113.029 63.5382 113.283 62.6528 113.283ZM62.6528 111.98C63.2284 111.98 63.7181 111.778 64.1221 111.374C64.5316 110.97 64.8442 110.397 65.0601 109.656C65.2814 108.914 65.3921 108.034 65.3921 107.016V107C65.3921 105.981 65.2814 105.104 65.0601 104.368C64.8442 103.627 64.5316 103.057 64.1221 102.658C63.7181 102.254 63.2284 102.052 62.6528 102.052C62.0828 102.052 61.5931 102.254 61.1836 102.658C60.7796 103.057 60.4697 103.627 60.2539 104.368C60.0381 105.104 59.9302 105.981 59.9302 107V107.016C59.9302 108.034 60.0381 108.914 60.2539 109.656C60.4697 110.397 60.7796 110.97 61.1836 111.374C61.5931 111.778 62.0828 111.98 62.6528 111.98Z" fill="#8E8E93"/>
<rect x="99.3574" y="86.501" width="89.8571" height="41" rx="20.5" stroke="#E0E0E0"/>
<path d="M121.907 113.001V111.972L125.958 107.589C126.467 107.035 126.866 106.579 127.153 106.219C127.441 105.854 127.643 105.525 127.759 105.231C127.875 104.938 127.934 104.617 127.934 104.269V104.252C127.934 103.831 127.842 103.455 127.66 103.123C127.477 102.791 127.217 102.528 126.879 102.334C126.542 102.141 126.138 102.044 125.667 102.044C125.192 102.044 124.774 102.144 124.414 102.343C124.054 102.536 123.775 102.81 123.576 103.165C123.376 103.513 123.277 103.923 123.277 104.393L123.269 104.41L121.841 104.401L121.824 104.393C121.83 103.685 122.001 103.057 122.339 102.509C122.676 101.955 123.141 101.524 123.733 101.214C124.326 100.898 125.003 100.741 125.767 100.741C126.464 100.741 127.092 100.887 127.651 101.181C128.21 101.468 128.65 101.864 128.971 102.368C129.298 102.871 129.461 103.447 129.461 104.094V104.111C129.461 104.565 129.381 105.002 129.22 105.422C129.065 105.843 128.789 106.311 128.39 106.825C127.992 107.334 127.43 107.962 126.705 108.709L123.609 111.905L123.982 111.216V111.905L123.617 111.656H129.66V113.001H121.907ZM136.176 113.283C135.291 113.283 134.533 113.029 133.902 112.52C133.277 112.01 132.795 111.288 132.458 110.353C132.12 109.412 131.951 108.3 131.951 107.016V107C131.951 105.716 132.12 104.606 132.458 103.671C132.795 102.736 133.277 102.014 133.902 101.504C134.533 100.995 135.291 100.741 136.176 100.741C137.062 100.741 137.82 100.995 138.451 101.504C139.082 102.014 139.566 102.736 139.903 103.671C140.246 104.606 140.418 105.716 140.418 107V107.016C140.418 108.3 140.246 109.412 139.903 110.353C139.566 111.288 139.082 112.01 138.451 112.52C137.82 113.029 137.062 113.283 136.176 113.283ZM136.176 111.98C136.752 111.98 137.242 111.778 137.646 111.374C138.055 110.97 138.368 110.397 138.583 109.656C138.805 108.914 138.916 108.034 138.916 107.016V107C138.916 105.981 138.805 105.104 138.583 104.368C138.368 103.627 138.055 103.057 137.646 102.658C137.242 102.254 136.752 102.052 136.176 102.052C135.606 102.052 135.117 102.254 134.707 102.658C134.303 103.057 133.993 103.627 133.777 104.368C133.562 105.104 133.454 105.981 133.454 107V107.016C133.454 108.034 133.562 108.914 133.777 109.656C133.993 110.397 134.303 110.97 134.707 111.374C135.117 111.778 135.606 111.98 136.176 111.98ZM144.062 111.299C143.769 111.299 143.514 111.194 143.298 110.984C143.088 110.768 142.983 110.514 142.983 110.22C142.983 109.921 143.088 109.667 143.298 109.457C143.514 109.246 143.769 109.141 144.062 109.141C144.361 109.141 144.615 109.246 144.826 109.457C145.036 109.667 145.141 109.921 145.141 110.22C145.141 110.514 145.036 110.768 144.826 110.984C144.615 111.194 144.361 111.299 144.062 111.299ZM144.062 104.875C143.769 104.875 143.514 104.769 143.298 104.559C143.088 104.343 142.983 104.089 142.983 103.795C142.983 103.497 143.088 103.242 143.298 103.032C143.514 102.821 143.769 102.716 144.062 102.716C144.361 102.716 144.615 102.821 144.826 103.032C145.036 103.242 145.141 103.497 145.141 103.795C145.141 104.089 145.036 104.343 144.826 104.559C144.615 104.769 144.361 104.875 144.062 104.875ZM151.931 113.283C151.046 113.283 150.288 113.029 149.657 112.52C149.031 112.01 148.55 111.288 148.212 110.353C147.875 109.412 147.706 108.3 147.706 107.016V107C147.706 105.716 147.875 104.606 148.212 103.671C148.55 102.736 149.031 102.014 149.657 101.504C150.288 100.995 151.046 100.741 151.931 100.741C152.817 100.741 153.575 100.995 154.206 101.504C154.836 102.014 155.321 102.736 155.658 103.671C156.001 104.606 156.173 105.716 156.173 107V107.016C156.173 108.3 156.001 109.412 155.658 110.353C155.321 111.288 154.836 112.01 154.206 112.52C153.575 113.029 152.817 113.283 151.931 113.283ZM151.931 111.98C152.507 111.98 152.996 111.778 153.4 111.374C153.81 110.97 154.123 110.397 154.338 109.656C154.56 108.914 154.67 108.034 154.67 107.016V107C154.67 105.981 154.56 105.104 154.338 104.368C154.123 103.627 153.81 103.057 153.4 102.658C152.996 102.254 152.507 102.052 151.931 102.052C151.361 102.052 150.871 102.254 150.462 102.658C150.058 103.057 149.748 103.627 149.532 104.368C149.316 105.104 149.208 105.981 149.208 107V107.016C149.208 108.034 149.316 108.914 149.532 109.656C149.748 110.397 150.058 110.97 150.462 111.374C150.871 111.778 151.361 111.98 151.931 111.98ZM162.639 113.283C161.754 113.283 160.996 113.029 160.365 112.52C159.739 112.01 159.258 111.288 158.92 110.353C158.583 109.412 158.414 108.3 158.414 107.016V107C158.414 105.716 158.583 104.606 158.92 103.671C159.258 102.736 159.739 102.014 160.365 101.504C160.996 100.995 161.754 100.741 162.639 100.741C163.525 100.741 164.283 100.995 164.914 101.504C165.544 102.014 166.029 102.736 166.366 103.671C166.709 104.606 166.881 105.716 166.881 107V107.016C166.881 108.3 166.709 109.412 166.366 110.353C166.029 111.288 165.544 112.01 164.914 112.52C164.283 113.029 163.525 113.283 162.639 113.283ZM162.639 111.98C163.215 111.98 163.704 111.778 164.108 111.374C164.518 110.97 164.831 110.397 165.046 109.656C165.268 108.914 165.378 108.034 165.378 107.016V107C165.378 105.981 165.268 105.104 165.046 104.368C164.831 103.627 164.518 103.057 164.108 102.658C163.704 102.254 163.215 102.052 162.639 102.052C162.069 102.052 161.579 102.254 161.17 102.658C160.766 103.057 160.456 103.627 160.24 104.368C160.024 105.104 159.917 105.981 159.917 107V107.016C159.917 108.034 160.024 108.914 160.24 109.656C160.456 110.397 160.766 110.97 161.17 111.374C161.579 111.778 162.069 111.98 162.639 111.98Z" fill="#8E8E93"/>
<rect x="198.215" y="86.501" width="89.8571" height="41" rx="20.5" stroke="#E0E0E0"/>
<path d="M222.176 113.001V111.972L226.227 107.589C226.736 107.035 227.134 106.579 227.422 106.219C227.71 105.854 227.912 105.525 228.028 105.231C228.144 104.938 228.202 104.617 228.202 104.269V104.252C228.202 103.831 228.111 103.455 227.928 103.123C227.746 102.791 227.486 102.528 227.148 102.334C226.81 102.141 226.406 102.044 225.936 102.044C225.46 102.044 225.042 102.144 224.683 102.343C224.323 102.536 224.043 102.81 223.844 103.165C223.645 103.513 223.545 103.923 223.545 104.393L223.537 104.41L222.109 104.401L222.093 104.393C222.098 103.685 222.27 103.057 222.607 102.509C222.945 101.955 223.41 101.524 224.002 101.214C224.594 100.898 225.272 100.741 226.036 100.741C226.733 100.741 227.361 100.887 227.92 101.181C228.479 101.468 228.919 101.864 229.24 102.368C229.566 102.871 229.729 103.447 229.729 104.094V104.111C229.729 104.565 229.649 105.002 229.489 105.422C229.334 105.843 229.057 106.311 228.659 106.825C228.26 107.334 227.699 107.962 226.974 108.709L223.877 111.905L224.251 111.216V111.905L223.886 111.656H229.929V113.001H222.176ZM235.366 113.001V102.683H235.233L232.187 104.891V103.314L235.374 101.023H236.86V113.001H235.366ZM241.508 111.299C241.215 111.299 240.96 111.194 240.745 110.984C240.534 110.768 240.429 110.514 240.429 110.22C240.429 109.921 240.534 109.667 240.745 109.457C240.96 109.246 241.215 109.141 241.508 109.141C241.807 109.141 242.062 109.246 242.272 109.457C242.482 109.667 242.587 109.921 242.587 110.22C242.587 110.514 242.482 110.768 242.272 110.984C242.062 111.194 241.807 111.299 241.508 111.299ZM241.508 104.875C241.215 104.875 240.96 104.769 240.745 104.559C240.534 104.343 240.429 104.089 240.429 103.795C240.429 103.497 240.534 103.242 240.745 103.032C240.96 102.821 241.215 102.716 241.508 102.716C241.807 102.716 242.062 102.821 242.272 103.032C242.482 103.242 242.587 103.497 242.587 103.795C242.587 104.089 242.482 104.343 242.272 104.559C242.062 104.769 241.807 104.875 241.508 104.875ZM249.377 113.283C248.492 113.283 247.734 113.029 247.103 112.52C246.478 112.01 245.996 111.288 245.659 110.353C245.321 109.412 245.152 108.3 245.152 107.016V107C245.152 105.716 245.321 104.606 245.659 103.671C245.996 102.736 246.478 102.014 247.103 101.504C247.734 100.995 248.492 100.741 249.377 100.741C250.263 100.741 251.021 100.995 251.652 101.504C252.283 102.014 252.767 102.736 253.104 103.671C253.448 104.606 253.619 105.716 253.619 107V107.016C253.619 108.3 253.448 109.412 253.104 110.353C252.767 111.288 252.283 112.01 251.652 112.52C251.021 113.029 250.263 113.283 249.377 113.283ZM249.377 111.98C249.953 111.98 250.443 111.778 250.847 111.374C251.256 110.97 251.569 110.397 251.785 109.656C252.006 108.914 252.117 108.034 252.117 107.016V107C252.117 105.981 252.006 105.104 251.785 104.368C251.569 103.627 251.256 103.057 250.847 102.658C250.443 102.254 249.953 102.052 249.377 102.052C248.807 102.052 248.318 102.254 247.908 102.658C247.504 103.057 247.194 103.627 246.979 104.368C246.763 105.104 246.655 105.981 246.655 107V107.016C246.655 108.034 246.763 108.914 246.979 109.656C247.194 110.397 247.504 110.97 247.908 111.374C248.318 111.778 248.807 111.98 249.377 111.98ZM260.085 113.283C259.2 113.283 258.442 113.029 257.811 112.52C257.186 112.01 256.704 111.288 256.367 110.353C256.029 109.412 255.86 108.3 255.86 107.016V107C255.86 105.716 256.029 104.606 256.367 103.671C256.704 102.736 257.186 102.014 257.811 101.504C258.442 100.995 259.2 100.741 260.085 100.741C260.971 100.741 261.729 100.995 262.36 101.504C262.991 102.014 263.475 102.736 263.812 103.671C264.156 104.606 264.327 105.716 264.327 107V107.016C264.327 108.3 264.156 109.412 263.812 110.353C263.475 111.288 262.991 112.01 262.36 112.52C261.729 113.029 260.971 113.283 260.085 113.283ZM260.085 111.98C260.661 111.98 261.151 111.778 261.555 111.374C261.964 110.97 262.277 110.397 262.493 109.656C262.714 108.914 262.825 108.034 262.825 107.016V107C262.825 105.981 262.714 105.104 262.493 104.368C262.277 103.627 261.964 103.057 261.555 102.658C261.151 102.254 260.661 102.052 260.085 102.052C259.515 102.052 259.026 102.254 258.616 102.658C258.212 103.057 257.902 103.627 257.687 104.368C257.471 105.104 257.363 105.981 257.363 107V107.016C257.363 108.034 257.471 108.914 257.687 109.656C257.902 110.397 258.212 110.97 258.616 111.374C259.026 111.778 259.515 111.98 260.085 111.98Z" fill="#8E8E93"/>
</svg>
