<svg width="720" height="32" viewBox="0 0 720 32" fill="none" xmlns="http://www.w3.org/2000/svg">
<rect y="0.00109863" width="32" height="32" rx="16" fill="#FF5924"/>
<path d="M21.9998 8.80107H20.1998V8.20107C20.1998 8.04194 20.1366 7.88933 20.0241 7.77681C19.9115 7.66429 19.7589 7.60107 19.5998 7.60107C19.4407 7.60107 19.2881 7.66429 19.1755 7.77681C19.063 7.88933 18.9998 8.04194 18.9998 8.20107V8.80107H12.9998V8.20107C12.9998 8.04194 12.9366 7.88933 12.8241 7.77681C12.7115 7.66429 12.5589 7.60107 12.3998 7.60107C12.2407 7.60107 12.0881 7.66429 11.9755 7.77681C11.863 7.88933 11.7998 8.04194 11.7998 8.20107V8.80107H9.9998C9.68154 8.80107 9.37632 8.9275 9.15128 9.15255C8.92623 9.37759 8.7998 9.68281 8.7998 10.0011V22.0011C8.7998 22.3193 8.92623 22.6246 9.15128 22.8496C9.37632 23.0746 9.68154 23.2011 9.9998 23.2011H21.9998C22.3181 23.2011 22.6233 23.0746 22.8483 22.8496C23.0734 22.6246 23.1998 22.3193 23.1998 22.0011V10.0011C23.1998 9.68281 23.0734 9.37759 22.8483 9.15255C22.6233 8.9275 22.3181 8.80107 21.9998 8.80107ZM12.6998 20.2011C12.5218 20.2011 12.3478 20.1483 12.1998 20.0494C12.0518 19.9505 11.9364 19.8099 11.8683 19.6455C11.8002 19.481 11.7824 19.3001 11.8171 19.1255C11.8518 18.9509 11.9375 18.7905 12.0634 18.6647C12.1893 18.5388 12.3496 18.4531 12.5242 18.4184C12.6988 18.3836 12.8798 18.4015 13.0442 18.4696C13.2087 18.5377 13.3492 18.6531 13.4481 18.8011C13.547 18.9491 13.5998 19.1231 13.5998 19.3011C13.5998 19.5398 13.505 19.7687 13.3362 19.9375C13.1674 20.1063 12.9385 20.2011 12.6998 20.2011ZM15.9998 20.2011C15.8218 20.2011 15.6478 20.1483 15.4998 20.0494C15.3518 19.9505 15.2364 19.8099 15.1683 19.6455C15.1002 19.481 15.0824 19.3001 15.1171 19.1255C15.1518 18.9509 15.2375 18.7905 15.3634 18.6647C15.4893 18.5388 15.6496 18.4531 15.8242 18.4184C15.9988 18.3836 16.1798 18.4015 16.3442 18.4696C16.5087 18.5377 16.6492 18.6531 16.7481 18.8011C16.847 18.9491 16.8998 19.1231 16.8998 19.3011C16.8998 19.5398 16.805 19.7687 16.6362 19.9375C16.4674 20.1063 16.2385 20.2011 15.9998 20.2011ZM15.9998 17.2011C15.8218 17.2011 15.6478 17.1483 15.4998 17.0494C15.3518 16.9505 15.2364 16.8099 15.1683 16.6455C15.1002 16.481 15.0824 16.3001 15.1171 16.1255C15.1518 15.9509 15.2375 15.7905 15.3634 15.6647C15.4893 15.5388 15.6496 15.4531 15.8242 15.4184C15.9988 15.3836 16.1798 15.4015 16.3442 15.4696C16.5087 15.5377 16.6492 15.6531 16.7481 15.8011C16.847 15.9491 16.8998 16.1231 16.8998 16.3011C16.8998 16.5398 16.805 16.7687 16.6362 16.9375C16.4674 17.1063 16.2385 17.2011 15.9998 17.2011ZM19.2998 20.2011C19.1218 20.2011 18.9478 20.1483 18.7998 20.0494C18.6518 19.9505 18.5364 19.8099 18.4683 19.6455C18.4002 19.481 18.3824 19.3001 18.4171 19.1255C18.4518 18.9509 18.5375 18.7905 18.6634 18.6647C18.7893 18.5388 18.9496 18.4531 19.1242 18.4184C19.2988 18.3836 19.4798 18.4015 19.6442 18.4696C19.8087 18.5377 19.9492 18.6531 20.0481 18.8011C20.147 18.9491 20.1998 19.1231 20.1998 19.3011C20.1998 19.5398 20.105 19.7687 19.9362 19.9375C19.7674 20.1063 19.5385 20.2011 19.2998 20.2011ZM19.2998 17.2011C19.1218 17.2011 18.9478 17.1483 18.7998 17.0494C18.6518 16.9505 18.5364 16.8099 18.4683 16.6455C18.4002 16.481 18.3824 16.3001 18.4171 16.1255C18.4518 15.9509 18.5375 15.7905 18.6634 15.6647C18.7893 15.5388 18.9496 15.4531 19.1242 15.4184C19.2988 15.3836 19.4798 15.4015 19.6442 15.4696C19.8087 15.5377 19.9492 15.6531 20.0481 15.8011C20.147 15.9491 20.1998 16.1231 20.1998 16.3011C20.1998 16.5398 20.105 16.7687 19.9362 16.9375C19.7674 17.1063 19.5385 17.2011 19.2998 17.2011ZM21.9998 12.4011H9.9998V10.0011H11.7998V10.6011C11.7998 10.7602 11.863 10.9128 11.9755 11.0253C12.0881 11.1379 12.2407 11.2011 12.3998 11.2011C12.5589 11.2011 12.7115 11.1379 12.8241 11.0253C12.9366 10.9128 12.9998 10.7602 12.9998 10.6011V10.0011H18.9998V10.6011C18.9998 10.7602 19.063 10.9128 19.1755 11.0253C19.2881 11.1379 19.4407 11.2011 19.5998 11.2011C19.7589 11.2011 19.9115 11.1379 20.0241 11.0253C20.1366 10.9128 20.1998 10.7602 20.1998 10.6011V10.0011H21.9998V12.4011Z" fill="white"/>
<path d="M44.0093 22.0011L40.7471 10.0231H42.3076L44.6899 19.7599H44.7896L47.4707 10.0231H48.9814L51.6626 19.7599H51.7622L54.1445 10.0231H55.7051L52.4429 22.0011H51.0317L48.2759 12.5465H48.1763L45.4204 22.0011H44.0093ZM57.8799 22.0011V9.50012H59.3242V14.3976H59.457C59.6839 13.9217 60.0104 13.5537 60.4365 13.2936C60.8626 13.028 61.4049 12.8951 62.0635 12.8951C62.7331 12.8951 63.3003 13.0252 63.7651 13.2853C64.23 13.5398 64.5841 13.9134 64.8276 14.4059C65.0711 14.8984 65.1929 15.4988 65.1929 16.2072V22.0011H63.7485V16.5558C63.7485 15.7478 63.577 15.1502 63.2339 14.7628C62.8963 14.3699 62.3706 14.1735 61.6567 14.1735C61.1808 14.1735 60.7686 14.2758 60.4199 14.4806C60.0713 14.6853 59.8001 14.9759 59.6064 15.3522C59.4183 15.7285 59.3242 16.1795 59.3242 16.7052V22.0011H57.8799ZM71.46 22.1588C70.6077 22.1588 69.8745 21.9707 69.2603 21.5944C68.6515 21.2181 68.1812 20.6868 67.8491 20.0006C67.5226 19.3089 67.3594 18.4954 67.3594 17.5602V17.5519C67.3594 16.6277 67.5226 15.817 67.8491 15.1198C68.1812 14.4225 68.6488 13.8774 69.252 13.4845C69.8551 13.0916 70.5607 12.8951 71.3687 12.8951C72.1821 12.8951 72.8794 13.0833 73.4604 13.4596C74.047 13.8359 74.4953 14.3616 74.8052 15.0367C75.1206 15.7063 75.2783 16.4866 75.2783 17.3776V17.942H68.1064V16.7882H74.5396L73.8257 17.8424V17.2697C73.8257 16.5669 73.7205 15.9886 73.5103 15.5348C73.3 15.081 73.0094 14.7434 72.6387 14.5221C72.2679 14.2952 71.8418 14.1818 71.3604 14.1818C70.8789 14.1818 70.4473 14.3007 70.0654 14.5387C69.6891 14.7711 69.3903 15.117 69.1689 15.5763C68.9476 16.0356 68.8369 16.6001 68.8369 17.2697V17.8424C68.8369 18.4788 68.9448 19.0239 69.1606 19.4777C69.3765 19.9259 69.6836 20.2718 70.082 20.5153C70.4805 20.7532 70.9508 20.8722 71.4932 20.8722C71.8971 20.8722 72.2485 20.8169 72.5474 20.7062C72.8462 20.5955 73.0924 20.4544 73.2861 20.2828C73.4798 20.1113 73.6154 19.937 73.6929 19.7599L73.7261 19.6852H75.1704L75.1538 19.7516C75.0763 20.0559 74.938 20.352 74.7388 20.6398C74.5451 20.922 74.2933 21.1793 73.9834 21.4117C73.6735 21.6386 73.3055 21.8212 72.8794 21.9596C72.4588 22.0924 71.9857 22.1588 71.46 22.1588ZM77.5195 22.0011V13.0529H78.9639V14.3976H79.0967C79.3236 13.9217 79.6501 13.5537 80.0762 13.2936C80.5023 13.028 81.0446 12.8951 81.7031 12.8951C82.7103 12.8951 83.4823 13.1829 84.019 13.7584C84.5614 14.3284 84.8325 15.1447 84.8325 16.2072V22.0011H83.3882V16.5558C83.3882 15.7478 83.2166 15.1502 82.8735 14.7628C82.536 14.3699 82.0103 14.1735 81.2964 14.1735C80.8205 14.1735 80.4082 14.2758 80.0596 14.4806C79.7109 14.6853 79.4398 14.9759 79.2461 15.3522C79.0579 15.7285 78.9639 16.1795 78.9639 16.7052V22.0011H77.5195ZM94.6855 22.1588C94.1211 22.1588 93.612 22.0509 93.1582 21.8351C92.71 21.6193 92.353 21.3121 92.0874 20.9137C91.8273 20.5153 91.6973 20.0449 91.6973 19.5026V19.486C91.6973 18.6891 91.9795 18.0665 92.5439 17.6183C93.1139 17.1645 93.9191 16.9072 94.9595 16.8463L98.2466 16.6471V17.8009L95.1338 18.0001C94.4531 18.0389 93.9551 18.18 93.6396 18.4235C93.3298 18.667 93.1748 19.0101 93.1748 19.4528V19.4694C93.1748 19.9231 93.3464 20.2773 93.6895 20.5319C94.0326 20.7809 94.4642 20.9054 94.9844 20.9054C95.4769 20.9054 95.9141 20.8086 96.2959 20.6149C96.6777 20.4156 96.9766 20.1473 97.1924 19.8097C97.4137 19.4721 97.5244 19.0903 97.5244 18.6642V15.8751C97.5244 15.3217 97.3556 14.9012 97.0181 14.6134C96.686 14.3201 96.1852 14.1735 95.5156 14.1735C94.9788 14.1735 94.5389 14.2703 94.1958 14.464C93.8527 14.6521 93.623 14.9205 93.5068 15.2692L93.4985 15.2941H92.0542L92.0625 15.2443C92.14 14.7739 92.3337 14.3644 92.6436 14.0157C92.959 13.6616 93.3657 13.3877 93.8638 13.194C94.3618 12.9948 94.929 12.8951 95.5654 12.8951C96.2959 12.8951 96.9129 13.0141 97.4165 13.2521C97.9256 13.49 98.3102 13.8331 98.5703 14.2814C98.8359 14.7241 98.9688 15.2553 98.9688 15.8751V22.0011H97.5244V20.6813H97.3916C97.2035 20.9967 96.9738 21.2651 96.7026 21.4865C96.437 21.7078 96.1354 21.8766 95.7979 21.9928C95.4603 22.1035 95.0895 22.1588 94.6855 22.1588ZM101.608 22.0011V13.0529H103.053V14.381H103.186C103.357 13.9106 103.648 13.5454 104.057 13.2853C104.467 13.0252 104.973 12.8951 105.576 12.8951C105.715 12.8951 105.85 12.9034 105.983 12.92C106.121 12.9311 106.226 12.9422 106.298 12.9532V14.3561C106.149 14.3284 106.002 14.309 105.858 14.298C105.72 14.2814 105.571 14.2731 105.41 14.2731C104.951 14.2731 104.544 14.3644 104.19 14.547C103.836 14.7296 103.556 14.9842 103.352 15.3107C103.152 15.6372 103.053 16.019 103.053 16.4562V22.0011H101.608ZM111.486 22.1588C110.634 22.1588 109.901 21.9707 109.287 21.5944C108.678 21.2181 108.208 20.6868 107.875 20.0006C107.549 19.3089 107.386 18.4954 107.386 17.5602V17.5519C107.386 16.6277 107.549 15.817 107.875 15.1198C108.208 14.4225 108.675 13.8774 109.278 13.4845C109.882 13.0916 110.587 12.8951 111.395 12.8951C112.208 12.8951 112.906 13.0833 113.487 13.4596C114.073 13.8359 114.522 14.3616 114.832 15.0367C115.147 15.7063 115.305 16.4866 115.305 17.3776V17.942H108.133V16.7882H114.566L113.852 17.8424V17.2697C113.852 16.5669 113.747 15.9886 113.537 15.5348C113.326 15.081 113.036 14.7434 112.665 14.5221C112.294 14.2952 111.868 14.1818 111.387 14.1818C110.905 14.1818 110.474 14.3007 110.092 14.5387C109.715 14.7711 109.417 15.117 109.195 15.5763C108.974 16.0356 108.863 16.6001 108.863 17.2697V17.8424C108.863 18.4788 108.971 19.0239 109.187 19.4777C109.403 19.9259 109.71 20.2718 110.108 20.5153C110.507 20.7532 110.977 20.8722 111.52 20.8722C111.924 20.8722 112.275 20.8169 112.574 20.7062C112.873 20.5955 113.119 20.4544 113.312 20.2828C113.506 20.1113 113.642 19.937 113.719 19.7599L113.752 19.6852H115.197L115.18 19.7516C115.103 20.0559 114.964 20.352 114.765 20.6398C114.571 20.922 114.32 21.1793 114.01 21.4117C113.7 21.6386 113.332 21.8212 112.906 21.9596C112.485 22.0924 112.012 22.1588 111.486 22.1588ZM123.091 25.1388C122.997 25.1388 122.892 25.1333 122.775 25.1222C122.659 25.1167 122.551 25.1056 122.452 25.089V23.902C122.54 23.9186 122.637 23.9296 122.742 23.9352C122.847 23.9407 122.95 23.9435 123.049 23.9435C123.459 23.9435 123.794 23.8383 124.054 23.6281C124.319 23.4178 124.532 23.0553 124.693 22.5406L124.859 22.0094L121.547 13.0529H123.091L125.847 21.3204L125.274 20.4156H125.955L125.382 21.3204L128.129 13.0529H129.648L126.154 22.549C125.905 23.2185 125.645 23.7415 125.374 24.1178C125.108 24.4941 124.792 24.757 124.427 24.9064C124.068 25.0613 123.622 25.1388 123.091 25.1388ZM134.903 22.1588C134.056 22.1588 133.323 21.9734 132.703 21.6027C132.089 21.2264 131.613 20.6923 131.275 20.0006C130.943 19.3089 130.777 18.4871 130.777 17.5353V17.5187C130.777 16.5613 130.943 15.7368 131.275 15.045C131.613 14.3533 132.089 13.8221 132.703 13.4513C133.323 13.0805 134.056 12.8951 134.903 12.8951C135.755 12.8951 136.488 13.0805 137.103 13.4513C137.717 13.8221 138.19 14.3533 138.522 15.045C138.86 15.7368 139.028 16.5613 139.028 17.5187V17.5353C139.028 18.4871 138.86 19.3089 138.522 20.0006C138.19 20.6923 137.717 21.2264 137.103 21.6027C136.488 21.9734 135.755 22.1588 134.903 22.1588ZM134.903 20.8805C135.467 20.8805 135.946 20.7477 136.339 20.4821C136.732 20.2164 137.031 19.8346 137.235 19.3365C137.446 18.8385 137.551 18.2381 137.551 17.5353V17.5187C137.551 16.8103 137.446 16.2072 137.235 15.7091C137.031 15.2111 136.732 14.832 136.339 14.5719C135.946 14.3063 135.467 14.1735 134.903 14.1735C134.338 14.1735 133.86 14.3063 133.467 14.5719C133.074 14.832 132.772 15.2111 132.562 15.7091C132.357 16.2072 132.255 16.8103 132.255 17.5187V17.5353C132.255 18.2381 132.357 18.8385 132.562 19.3365C132.772 19.8346 133.074 20.2164 133.467 20.4821C133.86 20.7477 134.338 20.8805 134.903 20.8805ZM144.266 22.1588C143.591 22.1588 143.024 22.0315 142.564 21.777C142.105 21.5169 141.759 21.1406 141.527 20.6481C141.3 20.15 141.187 19.5496 141.187 18.8468V13.0529H142.631V18.4982C142.631 19.3006 142.786 19.8982 143.096 20.2911C143.411 20.684 143.926 20.8805 144.64 20.8805C145.165 20.8805 145.608 20.7781 145.968 20.5734C146.327 20.3686 146.599 20.0781 146.781 19.7018C146.964 19.3199 147.055 18.8689 147.055 18.3488V13.0529H148.5V22.0011H147.055V20.6647H146.922C146.701 21.1406 146.366 21.5086 145.918 21.7687C145.475 22.0288 144.925 22.1588 144.266 22.1588ZM155.979 24.9894V13.0529H157.423V14.4806H157.556C157.738 14.1486 157.968 13.8663 158.245 13.6339C158.521 13.396 158.837 13.2133 159.191 13.0861C159.545 12.9588 159.93 12.8951 160.345 12.8951C161.103 12.8951 161.761 13.0888 162.32 13.4762C162.885 13.858 163.322 14.3948 163.632 15.0865C163.942 15.7783 164.097 16.589 164.097 17.5187V17.5353C164.097 18.4705 163.942 19.284 163.632 19.9757C163.322 20.6674 162.885 21.2042 162.32 21.5861C161.761 21.9679 161.103 22.1588 160.345 22.1588C159.935 22.1588 159.548 22.0952 159.183 21.9679C158.823 21.8351 158.502 21.6525 158.22 21.42C157.943 21.1876 157.722 20.9109 157.556 20.59H157.423V24.9894H155.979ZM160.013 20.8805C160.561 20.8805 161.028 20.7477 161.416 20.4821C161.803 20.2109 162.099 19.8263 162.304 19.3282C162.514 18.8247 162.619 18.227 162.619 17.5353V17.5187C162.619 16.8214 162.514 16.2238 162.304 15.7257C162.099 15.2277 161.803 14.8458 161.416 14.5802C161.028 14.309 160.561 14.1735 160.013 14.1735C159.47 14.1735 159.003 14.309 158.61 14.5802C158.217 14.8514 157.915 15.236 157.705 15.734C157.495 16.2321 157.39 16.8269 157.39 17.5187V17.5353C157.39 18.2215 157.495 18.8164 157.705 19.3199C157.915 19.818 158.217 20.2026 158.61 20.4738C159.003 20.7449 159.47 20.8805 160.013 20.8805ZM166.438 22.0011V9.50012H167.882V22.0011H166.438ZM173.111 22.1588C172.547 22.1588 172.038 22.0509 171.584 21.8351C171.136 21.6193 170.779 21.3121 170.513 20.9137C170.253 20.5153 170.123 20.0449 170.123 19.5026V19.486C170.123 18.6891 170.405 18.0665 170.97 17.6183C171.54 17.1645 172.345 16.9072 173.385 16.8463L176.672 16.6471V17.8009L173.56 18.0001C172.879 18.0389 172.381 18.18 172.065 18.4235C171.756 18.667 171.601 19.0101 171.601 19.4528V19.4694C171.601 19.9231 171.772 20.2773 172.115 20.5319C172.458 20.7809 172.89 20.9054 173.41 20.9054C173.903 20.9054 174.34 20.8086 174.722 20.6149C175.104 20.4156 175.402 20.1473 175.618 19.8097C175.84 19.4721 175.95 19.0903 175.95 18.6642V15.8751C175.95 15.3217 175.781 14.9012 175.444 14.6134C175.112 14.3201 174.611 14.1735 173.941 14.1735C173.405 14.1735 172.965 14.2703 172.622 14.464C172.278 14.6521 172.049 14.9205 171.933 15.2692L171.924 15.2941H170.48L170.488 15.2443C170.566 14.7739 170.759 14.3644 171.069 14.0157C171.385 13.6616 171.792 13.3877 172.29 13.194C172.788 12.9948 173.355 12.8951 173.991 12.8951C174.722 12.8951 175.339 13.0141 175.842 13.2521C176.351 13.49 176.736 13.8331 176.996 14.2814C177.262 14.7241 177.395 15.2553 177.395 15.8751V22.0011H175.95V20.6813H175.817C175.629 20.9967 175.4 21.2651 175.128 21.4865C174.863 21.7078 174.561 21.8766 174.224 21.9928C173.886 22.1035 173.515 22.1588 173.111 22.1588ZM180.034 22.0011V13.0529H181.479V14.3976H181.611C181.838 13.9217 182.165 13.5537 182.591 13.2936C183.017 13.028 183.559 12.8951 184.218 12.8951C185.225 12.8951 185.997 13.1829 186.534 13.7584C187.076 14.3284 187.347 15.1447 187.347 16.2072V22.0011H185.903V16.5558C185.903 15.7478 185.731 15.1502 185.388 14.7628C185.051 14.3699 184.525 14.1735 183.811 14.1735C183.335 14.1735 182.923 14.2758 182.574 14.4806C182.226 14.6853 181.954 14.9759 181.761 15.3522C181.573 15.7285 181.479 16.1795 181.479 16.7052V22.0011H180.034ZM189.962 22.0011V13.0529H191.406V14.3976H191.539C191.766 13.9217 192.092 13.5537 192.519 13.2936C192.945 13.028 193.487 12.8951 194.146 12.8951C195.153 12.8951 195.925 13.1829 196.461 13.7584C197.004 14.3284 197.275 15.1447 197.275 16.2072V22.0011H195.831V16.5558C195.831 15.7478 195.659 15.1502 195.316 14.7628C194.978 14.3699 194.453 14.1735 193.739 14.1735C193.263 14.1735 192.851 14.2758 192.502 14.4806C192.153 14.6853 191.882 14.9759 191.688 15.3522C191.5 15.7285 191.406 16.1795 191.406 16.7052V22.0011H189.962ZM199.923 22.0011V13.0529H201.367V22.0011H199.923ZM200.653 11.3263C200.382 11.3263 200.147 11.2295 199.948 11.0358C199.754 10.8365 199.657 10.6014 199.657 10.3302C199.657 10.0535 199.754 9.81832 199.948 9.62463C200.147 9.43095 200.382 9.33411 200.653 9.33411C200.93 9.33411 201.165 9.43095 201.359 9.62463C201.553 9.81832 201.649 10.0535 201.649 10.3302C201.649 10.6014 201.553 10.8365 201.359 11.0358C201.165 11.2295 200.93 11.3263 200.653 11.3263ZM204.09 22.0011V13.0529H205.534V14.3976H205.667C205.894 13.9217 206.22 13.5537 206.646 13.2936C207.073 13.028 207.615 12.8951 208.273 12.8951C209.281 12.8951 210.053 13.1829 210.589 13.7584C211.132 14.3284 211.403 15.1447 211.403 16.2072V22.0011H209.958V16.5558C209.958 15.7478 209.787 15.1502 209.444 14.7628C209.106 14.3699 208.581 14.1735 207.867 14.1735C207.391 14.1735 206.979 14.2758 206.63 14.4806C206.281 14.6853 206.01 14.9759 205.816 15.3522C205.628 15.7285 205.534 16.1795 205.534 16.7052V22.0011H204.09ZM217.703 25.1554C216.984 25.1554 216.356 25.053 215.819 24.8483C215.282 24.649 214.853 24.3641 214.532 23.9933C214.217 23.6281 214.02 23.2019 213.943 22.715L213.959 22.7067H215.454L215.462 22.715C215.539 23.0525 215.772 23.3292 216.159 23.545C216.547 23.7664 217.061 23.8771 217.703 23.8771C218.506 23.8771 219.131 23.6945 219.579 23.3292C220.033 22.9695 220.26 22.4604 220.26 21.8019V19.9923H220.127C219.939 20.3188 219.704 20.5983 219.421 20.8307C219.139 21.0631 218.821 21.2402 218.467 21.3619C218.113 21.4781 217.731 21.5363 217.321 21.5363C216.552 21.5363 215.885 21.3536 215.321 20.9884C214.762 20.6176 214.33 20.1085 214.026 19.4611C213.722 18.8136 213.569 18.0721 213.569 17.2365V17.2198C213.569 16.3842 213.722 15.6427 214.026 14.9952C214.336 14.3422 214.773 13.8304 215.337 13.4596C215.902 13.0833 216.574 12.8951 217.354 12.8951C217.775 12.8951 218.162 12.9615 218.517 13.0944C218.871 13.2272 219.183 13.4153 219.455 13.6588C219.731 13.9023 219.961 14.1928 220.144 14.5304H220.243V13.0529H221.688V21.8766C221.688 22.5406 221.524 23.1189 221.198 23.6115C220.877 24.104 220.417 24.483 219.82 24.7487C219.222 25.0198 218.517 25.1554 217.703 25.1554ZM217.637 20.2579C218.19 20.2579 218.663 20.1307 219.056 19.8761C219.455 19.616 219.759 19.2591 219.969 18.8053C220.185 18.3515 220.293 17.8286 220.293 17.2365V17.2198C220.293 16.6277 220.185 16.102 219.969 15.6427C219.759 15.1834 219.455 14.8237 219.056 14.5636C218.663 14.3035 218.19 14.1735 217.637 14.1735C217.083 14.1735 216.613 14.3035 216.226 14.5636C215.844 14.8237 215.55 15.1834 215.346 15.6427C215.146 16.102 215.047 16.6277 215.047 17.2198V17.2365C215.047 17.8286 215.146 18.3515 215.346 18.8053C215.55 19.2591 215.844 19.616 216.226 19.8761C216.613 20.1307 217.083 20.2579 217.637 20.2579ZM232.337 22.0675C231.419 22.0675 230.752 21.8821 230.337 21.5114C229.927 21.1406 229.723 20.5291 229.723 19.6769V14.2482H228.312V13.0529H229.723V10.7369H231.217V13.0529H233.176V14.2482H231.217V19.3116C231.217 19.8374 231.316 20.2164 231.516 20.4489C231.715 20.6757 232.047 20.7892 232.512 20.7892C232.639 20.7892 232.747 20.7864 232.835 20.7809C232.93 20.7753 233.043 20.767 233.176 20.756V21.9845C233.037 22.0066 232.899 22.026 232.761 22.0426C232.622 22.0592 232.481 22.0675 232.337 22.0675ZM238.895 22.1588C238.048 22.1588 237.315 21.9734 236.695 21.6027C236.081 21.2264 235.605 20.6923 235.268 20.0006C234.936 19.3089 234.77 18.4871 234.77 17.5353V17.5187C234.77 16.5613 234.936 15.7368 235.268 15.045C235.605 14.3533 236.081 13.8221 236.695 13.4513C237.315 13.0805 238.048 12.8951 238.895 12.8951C239.747 12.8951 240.48 13.0805 241.095 13.4513C241.709 13.8221 242.182 14.3533 242.514 15.045C242.852 15.7368 243.021 16.5613 243.021 17.5187V17.5353C243.021 18.4871 242.852 19.3089 242.514 20.0006C242.182 20.6923 241.709 21.2264 241.095 21.6027C240.48 21.9734 239.747 22.1588 238.895 22.1588ZM238.895 20.8805C239.459 20.8805 239.938 20.7477 240.331 20.4821C240.724 20.2164 241.023 19.8346 241.228 19.3365C241.438 18.8385 241.543 18.2381 241.543 17.5353V17.5187C241.543 16.8103 241.438 16.2072 241.228 15.7091C241.023 15.2111 240.724 14.832 240.331 14.5719C239.938 14.3063 239.459 14.1735 238.895 14.1735C238.331 14.1735 237.852 14.3063 237.459 14.5719C237.066 14.832 236.764 15.2111 236.554 15.7091C236.349 16.2072 236.247 16.8103 236.247 17.5187V17.5353C236.247 18.2381 236.349 18.8385 236.554 19.3365C236.764 19.8346 237.066 20.2164 237.459 20.4821C237.852 20.7477 238.331 20.8805 238.895 20.8805ZM252.575 22.0011L249.263 13.0529H250.79L253.239 20.424H253.372L255.82 13.0529H257.348L254.036 22.0011H252.575ZM259.29 22.0011V13.0529H260.734V22.0011H259.29ZM260.021 11.3263C259.749 11.3263 259.514 11.2295 259.315 11.0358C259.121 10.8365 259.024 10.6014 259.024 10.3302C259.024 10.0535 259.121 9.81832 259.315 9.62463C259.514 9.43095 259.749 9.33411 260.021 9.33411C260.297 9.33411 260.532 9.43095 260.726 9.62463C260.92 9.81832 261.017 10.0535 261.017 10.3302C261.017 10.6014 260.92 10.8365 260.726 11.0358C260.532 11.2295 260.297 11.3263 260.021 11.3263ZM266.528 22.1588C265.864 22.1588 265.278 22.0592 264.769 21.86C264.259 21.6552 263.85 21.3702 263.54 21.005C263.236 20.6398 263.056 20.2109 263 19.7184H264.478C264.6 20.0892 264.838 20.388 265.192 20.6149C265.546 20.8418 266.008 20.9552 266.578 20.9552C266.982 20.9552 267.336 20.8971 267.641 20.7809C267.951 20.6591 268.194 20.4959 268.371 20.2911C268.548 20.0809 268.637 19.8401 268.637 19.569V19.5524C268.637 19.248 268.515 18.9907 268.271 18.7804C268.028 18.5646 267.63 18.3903 267.076 18.2574L265.69 17.9254C264.854 17.7262 264.24 17.4357 263.847 17.0538C263.454 16.6665 263.258 16.1518 263.258 15.5099V15.5016C263.258 15.0035 263.402 14.5581 263.689 14.1652C263.983 13.7723 264.381 13.4624 264.885 13.2355C265.388 13.0086 265.956 12.8951 266.586 12.8951C267.212 12.8951 267.765 12.9948 268.247 13.194C268.734 13.3877 269.124 13.6643 269.417 14.024C269.716 14.3837 269.898 14.8071 269.965 15.2941H268.545C268.451 14.9399 268.236 14.6521 267.898 14.4308C267.56 14.2094 267.12 14.0988 266.578 14.0988C266.224 14.0988 265.909 14.1569 265.632 14.2731C265.355 14.3837 265.137 14.5387 264.976 14.7379C264.816 14.9371 264.735 15.1696 264.735 15.4352V15.4518C264.735 15.7561 264.854 16.0079 265.092 16.2072C265.33 16.4064 265.712 16.5696 266.238 16.6969L267.616 17.0289C268.457 17.2337 269.082 17.527 269.492 17.9088C269.907 18.2906 270.114 18.8025 270.114 19.4445V19.4611C270.114 19.9923 269.957 20.4627 269.641 20.8722C269.326 21.2762 268.897 21.5916 268.354 21.8185C267.818 22.0454 267.209 22.1588 266.528 22.1588ZM272.389 22.0011V13.0529H273.833V22.0011H272.389ZM273.119 11.3263C272.848 11.3263 272.613 11.2295 272.414 11.0358C272.22 10.8365 272.123 10.6014 272.123 10.3302C272.123 10.0535 272.22 9.81832 272.414 9.62463C272.613 9.43095 272.848 9.33411 273.119 9.33411C273.396 9.33411 273.631 9.43095 273.825 9.62463C274.018 9.81832 274.115 10.0535 274.115 10.3302C274.115 10.6014 274.018 10.8365 273.825 11.0358C273.631 11.2295 273.396 11.3263 273.119 11.3263ZM279.735 22.0675C278.816 22.0675 278.149 21.8821 277.734 21.5114C277.325 21.1406 277.12 20.5291 277.12 19.6769V14.2482H275.709V13.0529H277.12V10.7369H278.614V13.0529H280.573V14.2482H278.614V19.3116C278.614 19.8374 278.714 20.2164 278.913 20.4489C279.112 20.6757 279.444 20.7892 279.909 20.7892C280.036 20.7892 280.144 20.7864 280.233 20.7809C280.327 20.7753 280.44 20.767 280.573 20.756V21.9845C280.435 22.0066 280.297 22.026 280.158 22.0426C280.02 22.0592 279.879 22.0675 279.735 22.0675ZM284.649 18.299V17.5353C284.649 17.17 284.707 16.8408 284.823 16.5475C284.939 16.2487 285.122 15.9747 285.371 15.7257C285.62 15.4767 285.933 15.2387 286.309 15.0118C286.63 14.8126 286.887 14.6189 287.081 14.4308C287.28 14.2371 287.424 14.0268 287.513 13.7999C287.601 13.573 287.646 13.3129 287.646 13.0197V13.0031C287.646 12.66 287.562 12.3556 287.396 12.09C287.23 11.8243 286.995 11.6141 286.691 11.4591C286.387 11.3042 286.027 11.2267 285.612 11.2267C285.197 11.2267 284.834 11.3042 284.524 11.4591C284.215 11.6141 283.968 11.8354 283.786 12.1232C283.609 12.4109 283.506 12.7513 283.479 13.1442L283.462 13.1525L282.051 13.1608V13.1442C282.084 12.552 282.239 12.0125 282.516 11.5255C282.792 11.0385 283.194 10.6512 283.719 10.3634C284.245 10.0756 284.895 9.93176 285.67 9.93176C286.367 9.93176 286.979 10.0646 287.504 10.3302C288.036 10.5903 288.448 10.9472 288.741 11.401C289.04 11.8492 289.189 12.3584 289.189 12.9283V12.9449C289.189 13.5924 289.032 14.1513 288.716 14.6217C288.406 15.0865 287.986 15.4795 287.455 15.8004C287.106 16.0052 286.832 16.2016 286.633 16.3898C286.439 16.5779 286.301 16.7799 286.218 16.9957C286.14 17.2115 286.102 17.4661 286.102 17.7594V18.299H284.649ZM285.487 22.1505C285.15 22.1505 284.873 22.0426 284.657 21.8268C284.441 21.611 284.333 21.3343 284.333 20.9967C284.333 20.6536 284.441 20.3741 284.657 20.1583C284.873 19.9425 285.15 19.8346 285.487 19.8346C285.825 19.8346 286.099 19.9425 286.309 20.1583C286.525 20.3741 286.633 20.6536 286.633 20.9967C286.633 21.3343 286.525 21.611 286.309 21.8268C286.099 22.0426 285.825 22.1505 285.487 22.1505Z" fill="black"/>
</svg>
