<svg width="16" height="16" viewBox="0 0 16 16" fill="none" xmlns="http://www.w3.org/2000/svg">
<g clip-path="url(#clip0_407_1697)">
<path d="M15.1683 14.3707L11.642 10.8299C12.6641 9.59761 13.1737 8.017 13.065 6.4169C12.9562 4.81681 12.2373 3.32043 11.058 2.23905C9.87865 1.15767 8.32958 0.574546 6.73304 0.610986C5.1365 0.647426 3.61542 1.30062 2.4862 2.43469C1.35699 3.56877 0.706589 5.0964 0.670305 6.6998C0.634021 8.30321 1.21465 9.85894 2.29139 11.0434C3.36814 12.2278 4.85811 12.9497 6.45135 13.0589C8.04459 13.1682 9.61844 12.6563 10.8455 11.6299L14.3711 15.1713C14.4234 15.2239 14.4856 15.2656 14.554 15.2941C14.6223 15.3225 14.6957 15.3372 14.7697 15.3372C14.8437 15.3372 14.917 15.3225 14.9854 15.2941C15.0538 15.2656 15.116 15.2239 15.1683 15.1713C15.2206 15.1188 15.2622 15.0564 15.2905 14.9877C15.3188 14.919 15.3334 14.8454 15.3334 14.771C15.3334 14.6967 15.3188 14.623 15.2905 14.5544C15.2622 14.4857 15.2206 14.4233 15.1683 14.3707ZM1.8111 6.84925C1.8111 5.84204 2.1085 4.85744 2.66568 4.01997C3.22286 3.18251 4.0148 2.52978 4.94136 2.14434C5.86792 1.75889 6.88748 1.65804 7.8711 1.85454C8.85473 2.05104 9.75826 2.53606 10.4674 3.24827C11.1766 3.96047 11.6595 4.86788 11.8552 5.85574C12.0508 6.8436 11.9504 7.86754 11.5666 8.79809C11.1828 9.72863 10.5329 10.524 9.69901 11.0836C8.86513 11.6431 7.88475 11.9418 6.88185 11.9418C5.53746 11.9403 4.24856 11.4033 3.29794 10.4486C2.34731 9.49387 1.81259 8.19942 1.8111 6.84925Z" fill="#8E8E8E"/>
</g>
<defs>
<clipPath id="clip0_407_1697">
<rect width="16" height="16" fill="white"/>
</clipPath>
</defs>
</svg>
