<svg width="16" height="16" viewBox="0 0 16 16" fill="none" xmlns="http://www.w3.org/2000/svg">
<path d="M14.5305 13.4694L11.5624 10.5C12.4524 9.34033 12.8678 7.88553 12.7246 6.43075C12.5814 4.97597 11.8901 3.63014 10.7911 2.66628C9.69203 1.70242 8.26751 1.19269 6.80648 1.24051C5.34544 1.28833 3.9573 1.8901 2.92364 2.92376C1.88998 3.95742 1.2882 5.34557 1.24039 6.8066C1.19257 8.26764 1.7023 9.69215 2.66616 10.7912C3.63002 11.8902 4.97585 12.5815 6.43063 12.7247C7.88541 12.868 9.34021 12.4525 10.4999 11.5625L13.4705 14.5338C13.5403 14.6036 13.6231 14.6589 13.7143 14.6966C13.8054 14.7344 13.9031 14.7538 14.0018 14.7538C14.1005 14.7538 14.1981 14.7344 14.2893 14.6966C14.3805 14.6589 14.4633 14.6036 14.533 14.5338C14.6028 14.464 14.6581 14.3812 14.6959 14.29C14.7337 14.1989 14.7531 14.1012 14.7531 14.0025C14.7531 13.9039 14.7337 13.8062 14.6959 13.715C14.6581 13.6239 14.6028 13.5411 14.533 13.4713L14.5305 13.4694ZM2.74991 7.00004C2.74991 6.15947 2.99917 5.33777 3.46617 4.63886C3.93316 3.93995 4.59692 3.39522 5.37351 3.07355C6.1501 2.75188 7.00463 2.66771 7.82905 2.8317C8.65347 2.99569 9.41075 3.40046 10.0051 3.99483C10.5995 4.58921 11.0043 5.34648 11.1683 6.1709C11.3322 6.99532 11.2481 7.84986 10.9264 8.62644C10.6047 9.40303 10.06 10.0668 9.36109 10.5338C8.66218 11.0008 7.84049 11.25 6.99991 11.25C5.8731 11.2489 4.79277 10.8007 3.99599 10.004C3.19921 9.20718 2.75107 8.12685 2.74991 7.00004Z" fill="white"/>
</svg>
