<svg width="235" height="42" viewBox="0 0 235 42" fill="none" xmlns="http://www.w3.org/2000/svg">
<rect y="1.36523" width="235" height="40.6348" fill="url(#paint0_linear_722_768)"/>
<path d="M25.3124 23.8912C25.2324 23.8336 25.1419 23.7924 25.0459 23.7698C24.9499 23.7472 24.8505 23.7438 24.7532 23.7597C24.6559 23.7756 24.5627 23.8105 24.4789 23.8625C24.3951 23.9145 24.3224 23.9824 24.2649 24.0625C24.2037 24.1483 24.1401 24.2317 24.0743 24.3125C23.6249 23.5598 22.976 22.9461 22.1993 22.5394C22.5967 22.1113 22.8606 21.5764 22.9584 21.0005C23.0562 20.4246 22.9837 19.8327 22.7499 19.2974C22.5161 18.7621 22.131 18.3067 21.6421 17.9871C21.1531 17.6675 20.5815 17.4976 19.9973 17.4982C19.4132 17.4989 18.8419 17.6701 18.3537 17.9908C17.8654 18.3115 17.4814 18.7678 17.2488 19.3036C17.0162 19.8395 16.9451 20.4316 17.0442 21.0073C17.1433 21.583 17.4084 22.1172 17.8068 22.5444C17.0312 22.9506 16.3816 23.5611 15.928 24.31C15.2931 23.5315 14.896 22.5865 14.7843 21.5881C14.9333 21.7154 15.1261 21.7793 15.3216 21.7662C15.5171 21.7531 15.6997 21.664 15.8303 21.518C15.961 21.372 16.0293 21.1807 16.0207 20.9849C16.0121 20.7892 15.9272 20.6046 15.7843 20.4706L14.5343 19.2206C14.4646 19.1507 14.3818 19.0952 14.2907 19.0574C14.1995 19.0195 14.1018 19 14.003 19C13.9043 19 13.8066 19.0195 13.7154 19.0574C13.6243 19.0952 13.5415 19.1507 13.4718 19.2206L12.2218 20.4706C12.0857 20.6113 12.0099 20.7996 12.0107 20.9954C12.0116 21.1911 12.0889 21.3788 12.2262 21.5183C12.3635 21.6578 12.5499 21.7381 12.7456 21.742C12.9414 21.746 13.1309 21.6733 13.2737 21.5394C13.3447 22.4236 13.5895 23.2851 13.994 24.0746C14.3985 24.8641 14.9549 25.5659 15.6312 26.14C15.667 26.1765 15.7063 26.2094 15.7487 26.2381C16.9541 27.2196 18.4618 27.7541 20.0163 27.7512C21.5707 27.7482 23.0764 27.2079 24.278 26.2219C24.3061 26.2015 24.3328 26.1794 24.358 26.1556C24.7817 25.7981 25.1596 25.3896 25.483 24.9394C25.5408 24.8594 25.5822 24.7688 25.6048 24.6728C25.6275 24.5768 25.631 24.4773 25.6152 24.3799C25.5993 24.2826 25.5644 24.1893 25.5125 24.1054C25.4605 24.0216 25.3925 23.9488 25.3124 23.8912ZM19.9999 19C20.2966 19 20.5866 19.088 20.8333 19.2528C21.08 19.4176 21.2722 19.6519 21.3857 19.926C21.4993 20.2001 21.529 20.5017 21.4711 20.7926C21.4132 21.0836 21.2704 21.3509 21.0606 21.5607C20.8508 21.7704 20.5835 21.9133 20.2926 21.9712C20.0016 22.0291 19.7 21.9994 19.4259 21.8858C19.1518 21.7723 18.9175 21.58 18.7527 21.3334C18.5879 21.0867 18.4999 20.7967 18.4999 20.5C18.4999 20.1022 18.658 19.7206 18.9393 19.4393C19.2206 19.158 19.6021 19 19.9999 19ZM19.9999 26.25C18.9541 26.2513 17.932 25.9384 17.0662 25.3519C17.3304 24.7976 17.7461 24.3296 18.2653 24.0019C18.7845 23.6742 19.386 23.5003 19.9999 23.5003C20.6139 23.5003 21.2153 23.6742 21.7345 24.0019C22.2537 24.3296 22.6695 24.7976 22.9337 25.3519C22.0669 25.9365 21.0454 26.2492 19.9999 26.25ZM27.7805 21.5306L26.5305 22.7806C26.4609 22.8505 26.3781 22.906 26.2869 22.9439C26.1957 22.9817 26.098 23.0012 25.9993 23.0012C25.9006 23.0012 25.8028 22.9817 25.7117 22.9439C25.6205 22.906 25.5377 22.8505 25.468 22.7806L24.218 21.5306C24.0751 21.3966 23.9902 21.2121 23.9816 21.0163C23.973 20.8206 24.0414 20.6293 24.172 20.4833C24.3027 20.3373 24.4853 20.2482 24.6807 20.2351C24.8762 20.222 25.0691 20.2859 25.218 20.4131C25.1001 19.358 24.6651 18.3635 23.9703 17.5607C23.2755 16.7579 22.3537 16.1846 21.3265 15.9165C20.2992 15.6484 19.2148 15.698 18.2163 16.0588C17.2179 16.4196 16.3522 17.0746 15.7337 17.9375C15.6776 18.0208 15.6053 18.0919 15.5212 18.1468C15.4371 18.2016 15.3428 18.239 15.244 18.2567C15.1452 18.2744 15.0438 18.2721 14.9459 18.2499C14.848 18.2277 14.7555 18.1861 14.6739 18.1275C14.5924 18.0689 14.5235 17.9945 14.4712 17.9088C14.419 17.8231 14.3845 17.7277 14.3697 17.6284C14.355 17.5291 14.3604 17.4278 14.3856 17.3306C14.4107 17.2334 14.4551 17.1422 14.5162 17.0625C15.3226 15.9389 16.4547 15.0902 17.7593 14.6311C19.0639 14.172 20.478 14.1247 21.8103 14.4956C23.1427 14.8665 24.3289 15.6378 25.2086 16.705C26.0883 17.7722 26.6189 19.0838 26.7287 20.4625C26.8715 20.3286 27.061 20.2559 27.2567 20.2598C27.4524 20.2638 27.6388 20.3441 27.7761 20.4836C27.9134 20.6231 27.9908 20.8108 27.9916 21.0065C27.9924 21.2023 27.9167 21.3906 27.7805 21.5312V21.5306Z" fill="white"/>
<path d="M35.541 26.1465C33.5342 26.1465 32.0254 24.9233 31.9521 23.2314H33.5195C33.6074 24.1323 34.4717 24.7915 35.541 24.7988C36.8301 24.7915 37.7529 23.8613 37.7529 22.6016C37.7529 21.3125 36.8008 20.375 35.4678 20.3604C34.6182 20.3604 33.9663 20.646 33.6074 21.2979H32.084L32.7725 15.3945H38.7783V16.7715H34.1055L33.7539 19.7451H33.8564C34.2959 19.3203 35.043 19.0347 35.8486 19.0273C37.8481 19.0347 39.3203 20.5142 39.3203 22.5576C39.3203 24.645 37.7529 26.1465 35.541 26.1465Z" fill="white"/>
<path d="M141 14C139.542 14.0017 138.144 14.5816 137.113 15.6127C136.082 16.6438 135.502 18.0418 135.5 19.5C135.5 24.2063 140.5 27.7606 140.713 27.9094C140.797 27.9683 140.897 27.9999 141 27.9999C141.103 27.9999 141.203 27.9683 141.287 27.9094C141.5 27.7606 146.5 24.2063 146.5 19.5C146.498 18.0418 145.918 16.6438 144.887 15.6127C143.856 14.5816 142.458 14.0017 141 14ZM141 17.5C141.396 17.5 141.782 17.6173 142.111 17.8371C142.44 18.0568 142.696 18.3692 142.848 18.7346C142.999 19.1001 143.039 19.5022 142.962 19.8902C142.884 20.2781 142.694 20.6345 142.414 20.9142C142.135 21.1939 141.778 21.3844 141.39 21.4616C141.002 21.5387 140.6 21.4991 140.235 21.3478C139.869 21.1964 139.557 20.94 139.337 20.6111C139.117 20.2822 139 19.8956 139 19.5C139 18.9696 139.211 18.4609 139.586 18.0858C139.961 17.7107 140.47 17.5 141 17.5Z" fill="#FF5924"/>
<path d="M156.048 26.249C155.276 26.249 154.603 26.1245 154.026 25.8755C153.455 25.6216 153.001 25.2749 152.664 24.8354C152.332 24.3911 152.139 23.8833 152.085 23.312L152.078 23.2314H153.396L153.404 23.312C153.438 23.6636 153.572 23.9688 153.807 24.2275C154.046 24.4814 154.363 24.6792 154.759 24.8208C155.159 24.9624 155.613 25.0332 156.121 25.0332C156.6 25.0332 157.024 24.9575 157.396 24.8062C157.771 24.6499 158.067 24.4351 158.282 24.1616C158.497 23.8882 158.604 23.5732 158.604 23.2168V23.2095C158.604 22.77 158.443 22.4014 158.121 22.1035C157.798 21.8008 157.273 21.5688 156.546 21.4077L155.374 21.1514C154.314 20.917 153.543 20.5557 153.06 20.0674C152.581 19.5742 152.342 18.9443 152.342 18.1777V18.1704C152.347 17.5845 152.505 17.0669 152.818 16.6177C153.135 16.1685 153.572 15.8169 154.129 15.563C154.69 15.3091 155.335 15.1821 156.062 15.1821C156.766 15.1821 157.388 15.3091 157.93 15.563C158.472 15.812 158.902 16.1489 159.219 16.5737C159.542 16.9985 159.72 17.4746 159.754 18.002L159.761 18.1045H158.443L158.428 18.0093C158.379 17.6968 158.252 17.4209 158.047 17.1816C157.842 16.9375 157.569 16.7446 157.227 16.603C156.885 16.4614 156.485 16.3931 156.026 16.3979C155.586 16.3979 155.191 16.4663 154.839 16.603C154.488 16.7397 154.207 16.9375 153.997 17.1963C153.792 17.4502 153.689 17.7627 153.689 18.1338V18.1411C153.689 18.561 153.846 18.915 154.158 19.2031C154.471 19.4912 154.986 19.7134 155.704 19.8696L156.875 20.1333C157.613 20.2944 158.206 20.5044 158.655 20.7632C159.104 21.022 159.432 21.3394 159.637 21.7153C159.847 22.0864 159.952 22.5259 159.952 23.0337V23.041C159.952 23.7002 159.791 24.269 159.468 24.7476C159.146 25.2261 158.692 25.5972 158.106 25.8608C157.52 26.1196 156.834 26.249 156.048 26.249ZM162.017 26V18.1045H163.292V26H162.017ZM162.662 16.5811C162.422 16.5811 162.215 16.4956 162.039 16.3247C161.868 16.1489 161.783 15.9414 161.783 15.7021C161.783 15.458 161.868 15.2505 162.039 15.0796C162.215 14.9087 162.422 14.8232 162.662 14.8232C162.906 14.8232 163.113 14.9087 163.284 15.0796C163.455 15.2505 163.541 15.458 163.541 15.7021C163.541 15.9414 163.455 16.1489 163.284 16.3247C163.113 16.4956 162.906 16.5811 162.662 16.5811ZM165.694 26V18.1045H166.968V19.291H167.085C167.286 18.8711 167.574 18.5464 167.95 18.3169C168.326 18.0825 168.804 17.9653 169.385 17.9653C170.274 17.9653 170.955 18.2192 171.429 18.7271C171.907 19.23 172.146 19.9502 172.146 20.8877V26H170.872V21.1953C170.872 20.4824 170.721 19.9551 170.418 19.6133C170.12 19.2666 169.656 19.0933 169.026 19.0933C168.606 19.0933 168.243 19.1836 167.935 19.3643C167.627 19.5449 167.388 19.8013 167.217 20.1333C167.051 20.4653 166.968 20.8633 166.968 21.3271V26H165.694ZM177.706 28.7832C177.071 28.7832 176.517 28.6929 176.043 28.5122C175.569 28.3364 175.191 28.085 174.908 27.7578C174.629 27.4355 174.456 27.0596 174.388 26.6299L174.402 26.6226H175.721L175.728 26.6299C175.796 26.9277 176.001 27.1719 176.343 27.3623C176.685 27.5576 177.139 27.6553 177.706 27.6553C178.414 27.6553 178.965 27.4941 179.361 27.1719C179.761 26.8545 179.961 26.4053 179.961 25.8242V24.2275H179.844C179.678 24.5156 179.471 24.7622 179.222 24.9673C178.973 25.1724 178.692 25.3286 178.379 25.436C178.067 25.5386 177.73 25.5898 177.369 25.5898C176.69 25.5898 176.102 25.4287 175.604 25.1064C175.11 24.7793 174.729 24.3301 174.461 23.7588C174.192 23.1875 174.058 22.5332 174.058 21.7959V21.7812C174.058 21.0439 174.192 20.3896 174.461 19.8184C174.734 19.2422 175.12 18.7905 175.618 18.4634C176.116 18.1313 176.709 17.9653 177.398 17.9653C177.769 17.9653 178.111 18.0239 178.423 18.1411C178.736 18.2583 179.012 18.4243 179.251 18.6392C179.495 18.854 179.698 19.1104 179.859 19.4082H179.947V18.1045H181.221V25.8901C181.221 26.4761 181.077 26.9863 180.789 27.4209C180.506 27.8555 180.101 28.1899 179.573 28.4243C179.046 28.6636 178.423 28.7832 177.706 28.7832ZM177.647 24.4619C178.135 24.4619 178.553 24.3496 178.899 24.125C179.251 23.8955 179.52 23.5806 179.705 23.1802C179.896 22.7798 179.991 22.3184 179.991 21.7959V21.7812C179.991 21.2588 179.896 20.7949 179.705 20.3896C179.52 19.9844 179.251 19.667 178.899 19.4375C178.553 19.208 178.135 19.0933 177.647 19.0933C177.159 19.0933 176.744 19.208 176.402 19.4375C176.065 19.667 175.806 19.9844 175.625 20.3896C175.45 20.7949 175.362 21.2588 175.362 21.7812V21.7959C175.362 22.3184 175.45 22.7798 175.625 23.1802C175.806 23.5806 176.065 23.8955 176.402 24.125C176.744 24.3496 177.159 24.4619 177.647 24.4619ZM185.762 26.1392C185.264 26.1392 184.815 26.0439 184.415 25.8535C184.019 25.6631 183.704 25.3921 183.47 25.0405C183.24 24.689 183.125 24.2739 183.125 23.7954V23.7808C183.125 23.312 183.238 22.9116 183.462 22.5796C183.687 22.2427 184.014 21.979 184.444 21.7886C184.874 21.5981 185.394 21.4858 186.004 21.4517L188.904 21.2759V22.2939L186.158 22.4697C185.557 22.5039 185.118 22.6284 184.839 22.8433C184.566 23.0581 184.429 23.3608 184.429 23.7515V23.7661C184.429 24.1665 184.581 24.479 184.883 24.7036C185.186 24.9233 185.567 25.0332 186.026 25.0332C186.46 25.0332 186.846 24.9478 187.183 24.7769C187.52 24.6011 187.784 24.3643 187.974 24.0664C188.169 23.7686 188.267 23.4316 188.267 23.0557V20.5947C188.267 20.1064 188.118 19.7354 187.82 19.4814C187.527 19.2227 187.085 19.0933 186.495 19.0933C186.021 19.0933 185.633 19.1787 185.33 19.3496C185.027 19.5156 184.825 19.7524 184.722 20.0601L184.715 20.082H183.44L183.448 20.0381C183.516 19.623 183.687 19.2617 183.96 18.9541C184.239 18.6416 184.598 18.3999 185.037 18.229C185.477 18.0532 185.977 17.9653 186.539 17.9653C187.183 17.9653 187.728 18.0703 188.172 18.2803C188.621 18.4902 188.96 18.793 189.19 19.1885C189.424 19.5791 189.542 20.0479 189.542 20.5947V26H188.267V24.8354H188.15C187.984 25.1138 187.781 25.3506 187.542 25.5459C187.308 25.7412 187.042 25.8901 186.744 25.9927C186.446 26.0903 186.119 26.1392 185.762 26.1392ZM191.871 28.6367V18.1045H193.145V19.3643H193.262C193.423 19.0713 193.626 18.8223 193.87 18.6172C194.114 18.4072 194.393 18.2461 194.705 18.1338C195.018 18.0215 195.357 17.9653 195.723 17.9653C196.392 17.9653 196.973 18.1362 197.466 18.478C197.964 18.8149 198.35 19.2886 198.624 19.8989C198.897 20.5093 199.034 21.2246 199.034 22.0449V22.0596C199.034 22.8848 198.897 23.6025 198.624 24.2129C198.35 24.8232 197.964 25.2969 197.466 25.6338C196.973 25.9707 196.392 26.1392 195.723 26.1392C195.362 26.1392 195.02 26.083 194.698 25.9707C194.38 25.8535 194.097 25.6924 193.848 25.4873C193.604 25.2822 193.409 25.0381 193.262 24.7549H193.145V28.6367H191.871ZM195.43 25.0112C195.914 25.0112 196.326 24.894 196.668 24.6597C197.01 24.4204 197.271 24.0811 197.452 23.6416C197.637 23.1973 197.73 22.6699 197.73 22.0596V22.0449C197.73 21.4297 197.637 20.9023 197.452 20.4629C197.271 20.0234 197.01 19.6865 196.668 19.4521C196.326 19.2129 195.914 19.0933 195.43 19.0933C194.952 19.0933 194.539 19.2129 194.192 19.4521C193.846 19.6914 193.58 20.0308 193.394 20.4702C193.208 20.9097 193.116 21.4346 193.116 22.0449V22.0596C193.116 22.665 193.208 23.1899 193.394 23.6343C193.58 24.0737 193.846 24.4131 194.192 24.6523C194.539 24.8916 194.952 25.0112 195.43 25.0112ZM204.271 26.1392C203.523 26.1392 202.876 25.9756 202.33 25.6484C201.788 25.3164 201.368 24.8452 201.07 24.2349C200.777 23.6245 200.63 22.8994 200.63 22.0596V22.0449C200.63 21.2002 200.777 20.4727 201.07 19.8623C201.368 19.252 201.788 18.7832 202.33 18.4561C202.876 18.1289 203.523 17.9653 204.271 17.9653C205.022 17.9653 205.669 18.1289 206.211 18.4561C206.753 18.7832 207.171 19.252 207.464 19.8623C207.762 20.4727 207.911 21.2002 207.911 22.0449V22.0596C207.911 22.8994 207.762 23.6245 207.464 24.2349C207.171 24.8452 206.753 25.3164 206.211 25.6484C205.669 25.9756 205.022 26.1392 204.271 26.1392ZM204.271 25.0112C204.769 25.0112 205.191 24.894 205.538 24.6597C205.884 24.4253 206.148 24.0884 206.329 23.6489C206.514 23.2095 206.607 22.6797 206.607 22.0596V22.0449C206.607 21.4199 206.514 20.8877 206.329 20.4482C206.148 20.0088 205.884 19.6743 205.538 19.4448C205.191 19.2104 204.769 19.0933 204.271 19.0933C203.772 19.0933 203.35 19.2104 203.003 19.4448C202.657 19.6743 202.391 20.0088 202.205 20.4482C202.024 20.8877 201.934 21.4199 201.934 22.0449V22.0596C201.934 22.6797 202.024 23.2095 202.205 23.6489C202.391 24.0884 202.657 24.4253 203.003 24.6597C203.35 24.894 203.772 25.0112 204.271 25.0112ZM209.888 26V18.1045H211.163V19.2764H211.28C211.431 18.8613 211.688 18.5391 212.049 18.3096C212.41 18.0801 212.857 17.9653 213.389 17.9653C213.511 17.9653 213.631 17.9727 213.748 17.9873C213.87 17.9971 213.963 18.0068 214.026 18.0166V19.2544C213.895 19.23 213.765 19.2129 213.638 19.2031C213.516 19.1885 213.384 19.1812 213.243 19.1812C212.837 19.1812 212.479 19.2617 212.166 19.4229C211.854 19.584 211.607 19.8086 211.426 20.0967C211.25 20.3848 211.163 20.7217 211.163 21.1074V26H209.888ZM218.604 26.1392C217.852 26.1392 217.205 25.9731 216.663 25.6411C216.126 25.3091 215.711 24.8403 215.418 24.2349C215.13 23.6245 214.986 22.9067 214.986 22.0815V22.0742C214.986 21.2588 215.13 20.5435 215.418 19.9282C215.711 19.313 216.124 18.832 216.656 18.4854C217.188 18.1387 217.811 17.9653 218.523 17.9653C219.241 17.9653 219.856 18.1313 220.369 18.4634C220.887 18.7954 221.282 19.2593 221.556 19.855C221.834 20.4458 221.973 21.1343 221.973 21.9204V22.4185H215.645V21.4004H221.321L220.691 22.3306V21.8252C220.691 21.2051 220.599 20.6948 220.413 20.2944C220.228 19.894 219.971 19.5962 219.644 19.4009C219.317 19.2007 218.941 19.1006 218.516 19.1006C218.091 19.1006 217.71 19.2056 217.374 19.4155C217.042 19.6206 216.778 19.9258 216.583 20.3311C216.387 20.7363 216.29 21.2344 216.29 21.8252V22.3306C216.29 22.8921 216.385 23.373 216.575 23.7734C216.766 24.1689 217.037 24.4741 217.388 24.689C217.74 24.8989 218.155 25.0039 218.633 25.0039C218.99 25.0039 219.3 24.9551 219.563 24.8574C219.827 24.7598 220.044 24.6353 220.215 24.4839C220.386 24.3325 220.506 24.1787 220.574 24.0225L220.604 23.9565H221.878L221.863 24.0151C221.795 24.2837 221.673 24.5449 221.497 24.7988C221.326 25.0479 221.104 25.2749 220.831 25.48C220.557 25.6802 220.232 25.8413 219.856 25.9634C219.485 26.0806 219.068 26.1392 218.604 26.1392Z" fill="white"/>
<defs>
<linearGradient id="paint0_linear_722_768" x1="101.95" y1="-20.6044" x2="101.95" y2="62.6756" gradientUnits="userSpaceOnUse">
<stop offset="0.4" stop-opacity="0"/>
<stop offset="1" stop-opacity="0.7"/>
</linearGradient>
</defs>
</svg>
