<svg width="236" height="42" viewBox="0 0 236 42" fill="none" xmlns="http://www.w3.org/2000/svg">
<g clip-path="url(#clip0_722_738)">
<rect x="0.49707" y="1.36523" width="235" height="40.6348" fill="url(#paint0_linear_722_738)"/>
<g clip-path="url(#clip1_722_738)">
<path d="M25.8095 23.8912C25.7295 23.8336 25.6389 23.7924 25.543 23.7698C25.447 23.7472 25.3475 23.7438 25.2502 23.7597C25.153 23.7756 25.0598 23.8105 24.976 23.8625C24.8922 23.9145 24.8195 23.9824 24.762 24.0625C24.7007 24.1483 24.6372 24.2317 24.5714 24.3125C24.122 23.5598 23.473 22.9461 22.6964 22.5394C23.0938 22.1113 23.3576 21.5764 23.4554 21.0005C23.5532 20.4246 23.4808 19.8327 23.247 19.2974C23.0131 18.7621 22.6281 18.3067 22.1391 17.9871C21.6502 17.6675 21.0785 17.4976 20.4944 17.4982C19.9102 17.4989 19.339 17.6701 18.8507 17.9908C18.3625 18.3115 17.9785 18.7678 17.7459 19.3036C17.5133 19.8395 17.4422 20.4316 17.5413 21.0073C17.6404 21.583 17.9054 22.1172 18.3039 22.5444C17.5283 22.9506 16.8786 23.5611 16.4251 24.31C15.7902 23.5315 15.3931 22.5865 15.2814 21.5881C15.4303 21.7154 15.6232 21.7793 15.8187 21.7662C16.0142 21.7531 16.1967 21.664 16.3274 21.518C16.458 21.372 16.5264 21.1807 16.5178 20.9849C16.5092 20.7892 16.4243 20.6046 16.2814 20.4706L15.0314 19.2206C14.9617 19.1507 14.8789 19.0952 14.7877 19.0574C14.6966 19.0195 14.5988 19 14.5001 19C14.4014 19 14.3037 19.0195 14.2125 19.0574C14.1213 19.0952 14.0385 19.1507 13.9689 19.2206L12.7189 20.4706C12.5827 20.6113 12.507 20.7996 12.5078 20.9954C12.5086 21.1911 12.586 21.3788 12.7233 21.5183C12.8606 21.6578 13.047 21.7381 13.2427 21.742C13.4384 21.746 13.6279 21.6733 13.7707 21.5394C13.8417 22.4236 14.0865 23.2851 14.4911 24.0746C14.8956 24.8641 15.452 25.5659 16.1282 26.14C16.1641 26.1765 16.2034 26.2094 16.2457 26.2381C17.4512 27.2196 18.9589 27.7541 20.5133 27.7512C22.0678 27.7482 23.5734 27.2079 24.7751 26.2219C24.8032 26.2015 24.8299 26.1794 24.8551 26.1556C25.2788 25.7981 25.6567 25.3896 25.9801 24.9394C26.0379 24.8594 26.0792 24.7688 26.1019 24.6728C26.1246 24.5768 26.1281 24.4773 26.1122 24.3799C26.0964 24.2826 26.0615 24.1893 26.0095 24.1054C25.9576 24.0216 25.8896 23.9488 25.8095 23.8912ZM20.497 19C20.7937 19 21.0837 19.088 21.3303 19.2528C21.577 19.4176 21.7693 19.6519 21.8828 19.926C21.9963 20.2001 22.026 20.5017 21.9682 20.7926C21.9103 21.0836 21.7674 21.3509 21.5577 21.5607C21.3479 21.7704 21.0806 21.9133 20.7896 21.9712C20.4987 22.0291 20.1971 21.9994 19.923 21.8858C19.6489 21.7723 19.4146 21.58 19.2498 21.3334C19.085 21.0867 18.997 20.7967 18.997 20.5C18.997 20.1022 19.155 19.7206 19.4363 19.4393C19.7176 19.158 20.0992 19 20.497 19ZM20.497 26.25C19.4512 26.2513 18.4291 25.9384 17.5632 25.3519C17.8274 24.7976 18.2432 24.3296 18.7624 24.0019C19.2816 23.6742 19.883 23.5003 20.497 23.5003C21.111 23.5003 21.7124 23.6742 22.2316 24.0019C22.7508 24.3296 23.1666 24.7976 23.4307 25.3519C22.564 25.9365 21.5425 26.2492 20.497 26.25ZM28.2776 21.5306L27.0276 22.7806C26.9579 22.8505 26.8751 22.906 26.784 22.9439C26.6928 22.9817 26.5951 23.0012 26.4964 23.0012C26.3977 23.0012 26.2999 22.9817 26.2088 22.9439C26.1176 22.906 26.0348 22.8505 25.9651 22.7806L24.7151 21.5306C24.5722 21.3966 24.4873 21.2121 24.4787 21.0163C24.4701 20.8206 24.5384 20.6293 24.6691 20.4833C24.7997 20.3373 24.9823 20.2482 25.1778 20.2351C25.3733 20.222 25.5661 20.2859 25.7151 20.4131C25.5972 19.358 25.1621 18.3635 24.4674 17.5607C23.7726 16.7579 22.8508 16.1846 21.8235 15.9165C20.7963 15.6484 19.7119 15.698 18.7134 16.0588C17.7149 16.4196 16.8493 17.0746 16.2307 17.9375C16.1746 18.0208 16.1024 18.0919 16.0183 18.1468C15.9342 18.2016 15.8399 18.239 15.7411 18.2567C15.6422 18.2744 15.5409 18.2721 15.4429 18.2499C15.345 18.2277 15.2526 18.1861 15.171 18.1275C15.0895 18.0689 15.0205 17.9945 14.9683 17.9088C14.916 17.8231 14.8815 17.7277 14.8668 17.6284C14.8521 17.5291 14.8575 17.4278 14.8826 17.3306C14.9078 17.2334 14.9522 17.1422 15.0132 17.0625C15.8197 15.9389 16.9517 15.0902 18.2563 14.6311C19.5609 14.172 20.9751 14.1247 22.3074 14.4956C23.6398 14.8665 24.826 15.6378 25.7057 16.705C26.5853 17.7722 27.116 19.0838 27.2257 20.4625C27.3686 20.3286 27.5581 20.2559 27.7538 20.2598C27.9495 20.2638 28.1359 20.3441 28.2732 20.4836C28.4105 20.6231 28.4878 20.8108 28.4887 21.0065C28.4895 21.2023 28.4138 21.3906 28.2776 21.5312V21.5306Z" fill="white"/>
</g>
<path d="M36.0381 26.1465C34.0312 26.1465 32.5225 24.9233 32.4492 23.2314H34.0166C34.1045 24.1323 34.9688 24.7915 36.0381 24.7988C37.3271 24.7915 38.25 23.8613 38.25 22.6016C38.25 21.3125 37.2979 20.375 35.9648 20.3604C35.1152 20.3604 34.4634 20.646 34.1045 21.2979H32.5811L33.2695 15.3945H39.2754V16.7715H34.6025L34.251 19.7451H34.3535C34.793 19.3203 35.54 19.0347 36.3457 19.0273C38.3452 19.0347 39.8174 20.5142 39.8174 22.5576C39.8174 24.645 38.25 26.1465 36.0381 26.1465Z" fill="white"/>
<path d="M141.497 14C140.039 14.0017 138.641 14.5816 137.61 15.6127C136.579 16.6438 135.999 18.0418 135.997 19.5C135.997 24.2063 140.997 27.7606 141.21 27.9094C141.294 27.9683 141.394 27.9999 141.497 27.9999C141.6 27.9999 141.7 27.9683 141.784 27.9094C141.997 27.7606 146.997 24.2063 146.997 19.5C146.995 18.0418 146.415 16.6438 145.384 15.6127C144.353 14.5816 142.955 14.0017 141.497 14ZM141.497 17.5C141.893 17.5 142.279 17.6173 142.608 17.8371C142.937 18.0568 143.193 18.3692 143.345 18.7346C143.496 19.1001 143.536 19.5022 143.459 19.8902C143.381 20.2781 143.191 20.6345 142.911 20.9142C142.632 21.1939 142.275 21.3844 141.887 21.4616C141.499 21.5387 141.097 21.4991 140.732 21.3478C140.366 21.1964 140.054 20.94 139.834 20.6111C139.614 20.2822 139.497 19.8956 139.497 19.5C139.497 18.9696 139.708 18.4609 140.083 18.0858C140.458 17.7107 140.967 17.5 141.497 17.5Z" fill="#FF5924"/>
<path d="M156.545 26.249C155.773 26.249 155.1 26.1245 154.523 25.8755C153.952 25.6216 153.498 25.2749 153.161 24.8354C152.829 24.3911 152.636 23.8833 152.583 23.312L152.575 23.2314H153.894L153.901 23.312C153.935 23.6636 154.069 23.9688 154.304 24.2275C154.543 24.4814 154.86 24.6792 155.256 24.8208C155.656 24.9624 156.11 25.0332 156.618 25.0332C157.097 25.0332 157.521 24.9575 157.893 24.8062C158.269 24.6499 158.564 24.4351 158.779 24.1616C158.994 23.8882 159.101 23.5732 159.101 23.2168V23.2095C159.101 22.77 158.94 22.4014 158.618 22.1035C158.295 21.8008 157.771 21.5688 157.043 21.4077L155.871 21.1514C154.812 20.917 154.04 20.5557 153.557 20.0674C153.078 19.5742 152.839 18.9443 152.839 18.1777V18.1704C152.844 17.5845 153.002 17.0669 153.315 16.6177C153.632 16.1685 154.069 15.8169 154.626 15.563C155.188 15.3091 155.832 15.1821 156.56 15.1821C157.263 15.1821 157.885 15.3091 158.427 15.563C158.969 15.812 159.399 16.1489 159.716 16.5737C160.039 16.9985 160.217 17.4746 160.251 18.002L160.258 18.1045H158.94L158.925 18.0093C158.876 17.6968 158.75 17.4209 158.544 17.1816C158.339 16.9375 158.066 16.7446 157.724 16.603C157.382 16.4614 156.982 16.3931 156.523 16.3979C156.083 16.3979 155.688 16.4663 155.336 16.603C154.985 16.7397 154.704 16.9375 154.494 17.1963C154.289 17.4502 154.187 17.7627 154.187 18.1338V18.1411C154.187 18.561 154.343 18.915 154.655 19.2031C154.968 19.4912 155.483 19.7134 156.201 19.8696L157.373 20.1333C158.11 20.2944 158.703 20.5044 159.152 20.7632C159.602 21.022 159.929 21.3394 160.134 21.7153C160.344 22.0864 160.449 22.5259 160.449 23.0337V23.041C160.449 23.7002 160.288 24.269 159.965 24.7476C159.643 25.2261 159.189 25.5972 158.603 25.8608C158.017 26.1196 157.331 26.249 156.545 26.249ZM162.514 26V18.1045H163.789V26H162.514ZM163.159 16.5811C162.919 16.5811 162.712 16.4956 162.536 16.3247C162.365 16.1489 162.28 15.9414 162.28 15.7021C162.28 15.458 162.365 15.2505 162.536 15.0796C162.712 14.9087 162.919 14.8232 163.159 14.8232C163.403 14.8232 163.61 14.9087 163.781 15.0796C163.952 15.2505 164.038 15.458 164.038 15.7021C164.038 15.9414 163.952 16.1489 163.781 16.3247C163.61 16.4956 163.403 16.5811 163.159 16.5811ZM166.191 26V18.1045H167.465V19.291H167.583C167.783 18.8711 168.071 18.5464 168.447 18.3169C168.823 18.0825 169.301 17.9653 169.882 17.9653C170.771 17.9653 171.452 18.2192 171.926 18.7271C172.404 19.23 172.644 19.9502 172.644 20.8877V26H171.369V21.1953C171.369 20.4824 171.218 19.9551 170.915 19.6133C170.617 19.2666 170.153 19.0933 169.523 19.0933C169.104 19.0933 168.74 19.1836 168.432 19.3643C168.125 19.5449 167.885 19.8013 167.714 20.1333C167.548 20.4653 167.465 20.8633 167.465 21.3271V26H166.191ZM178.203 28.7832C177.568 28.7832 177.014 28.6929 176.54 28.5122C176.066 28.3364 175.688 28.085 175.405 27.7578C175.126 27.4355 174.953 27.0596 174.885 26.6299L174.899 26.6226H176.218L176.225 26.6299C176.293 26.9277 176.499 27.1719 176.84 27.3623C177.182 27.5576 177.636 27.6553 178.203 27.6553C178.911 27.6553 179.462 27.4941 179.858 27.1719C180.258 26.8545 180.458 26.4053 180.458 25.8242V24.2275H180.341C180.175 24.5156 179.968 24.7622 179.719 24.9673C179.47 25.1724 179.189 25.3286 178.876 25.436C178.564 25.5386 178.227 25.5898 177.866 25.5898C177.187 25.5898 176.599 25.4287 176.101 25.1064C175.607 24.7793 175.227 24.3301 174.958 23.7588C174.689 23.1875 174.555 22.5332 174.555 21.7959V21.7812C174.555 21.0439 174.689 20.3896 174.958 19.8184C175.231 19.2422 175.617 18.7905 176.115 18.4634C176.613 18.1313 177.207 17.9653 177.895 17.9653C178.266 17.9653 178.608 18.0239 178.92 18.1411C179.233 18.2583 179.509 18.4243 179.748 18.6392C179.992 18.854 180.195 19.1104 180.356 19.4082H180.444V18.1045H181.718V25.8901C181.718 26.4761 181.574 26.9863 181.286 27.4209C181.003 27.8555 180.598 28.1899 180.07 28.4243C179.543 28.6636 178.92 28.7832 178.203 28.7832ZM178.144 24.4619C178.632 24.4619 179.05 24.3496 179.396 24.125C179.748 23.8955 180.017 23.5806 180.202 23.1802C180.393 22.7798 180.488 22.3184 180.488 21.7959V21.7812C180.488 21.2588 180.393 20.7949 180.202 20.3896C180.017 19.9844 179.748 19.667 179.396 19.4375C179.05 19.208 178.632 19.0933 178.144 19.0933C177.656 19.0933 177.241 19.208 176.899 19.4375C176.562 19.667 176.303 19.9844 176.123 20.3896C175.947 20.7949 175.859 21.2588 175.859 21.7812V21.7959C175.859 22.3184 175.947 22.7798 176.123 23.1802C176.303 23.5806 176.562 23.8955 176.899 24.125C177.241 24.3496 177.656 24.4619 178.144 24.4619ZM186.259 26.1392C185.761 26.1392 185.312 26.0439 184.912 25.8535C184.516 25.6631 184.201 25.3921 183.967 25.0405C183.737 24.689 183.623 24.2739 183.623 23.7954V23.7808C183.623 23.312 183.735 22.9116 183.959 22.5796C184.184 22.2427 184.511 21.979 184.941 21.7886C185.371 21.5981 185.891 21.4858 186.501 21.4517L189.401 21.2759V22.2939L186.655 22.4697C186.054 22.5039 185.615 22.6284 185.336 22.8433C185.063 23.0581 184.926 23.3608 184.926 23.7515V23.7661C184.926 24.1665 185.078 24.479 185.38 24.7036C185.683 24.9233 186.064 25.0332 186.523 25.0332C186.958 25.0332 187.343 24.9478 187.68 24.7769C188.017 24.6011 188.281 24.3643 188.471 24.0664C188.667 23.7686 188.764 23.4316 188.764 23.0557V20.5947C188.764 20.1064 188.615 19.7354 188.317 19.4814C188.024 19.2227 187.583 19.0933 186.992 19.0933C186.518 19.0933 186.13 19.1787 185.827 19.3496C185.524 19.5156 185.322 19.7524 185.219 20.0601L185.212 20.082H183.938L183.945 20.0381C184.013 19.623 184.184 19.2617 184.458 18.9541C184.736 18.6416 185.095 18.3999 185.534 18.229C185.974 18.0532 186.474 17.9653 187.036 17.9653C187.68 17.9653 188.225 18.0703 188.669 18.2803C189.118 18.4902 189.458 18.793 189.687 19.1885C189.921 19.5791 190.039 20.0479 190.039 20.5947V26H188.764V24.8354H188.647C188.481 25.1138 188.278 25.3506 188.039 25.5459C187.805 25.7412 187.539 25.8901 187.241 25.9927C186.943 26.0903 186.616 26.1392 186.259 26.1392ZM192.368 28.6367V18.1045H193.642V19.3643H193.759C193.92 19.0713 194.123 18.8223 194.367 18.6172C194.611 18.4072 194.89 18.2461 195.202 18.1338C195.515 18.0215 195.854 17.9653 196.22 17.9653C196.889 17.9653 197.47 18.1362 197.963 18.478C198.461 18.8149 198.847 19.2886 199.121 19.8989C199.394 20.5093 199.531 21.2246 199.531 22.0449V22.0596C199.531 22.8848 199.394 23.6025 199.121 24.2129C198.847 24.8232 198.461 25.2969 197.963 25.6338C197.47 25.9707 196.889 26.1392 196.22 26.1392C195.859 26.1392 195.517 26.083 195.195 25.9707C194.877 25.8535 194.594 25.6924 194.345 25.4873C194.101 25.2822 193.906 25.0381 193.759 24.7549H193.642V28.6367H192.368ZM195.927 25.0112C196.411 25.0112 196.823 24.894 197.165 24.6597C197.507 24.4204 197.768 24.0811 197.949 23.6416C198.134 23.1973 198.227 22.6699 198.227 22.0596V22.0449C198.227 21.4297 198.134 20.9023 197.949 20.4629C197.768 20.0234 197.507 19.6865 197.165 19.4521C196.823 19.2129 196.411 19.0933 195.927 19.0933C195.449 19.0933 195.036 19.2129 194.689 19.4521C194.343 19.6914 194.077 20.0308 193.891 20.4702C193.706 20.9097 193.613 21.4346 193.613 22.0449V22.0596C193.613 22.665 193.706 23.1899 193.891 23.6343C194.077 24.0737 194.343 24.4131 194.689 24.6523C195.036 24.8916 195.449 25.0112 195.927 25.0112ZM204.768 26.1392C204.021 26.1392 203.374 25.9756 202.827 25.6484C202.285 25.3164 201.865 24.8452 201.567 24.2349C201.274 23.6245 201.127 22.8994 201.127 22.0596V22.0449C201.127 21.2002 201.274 20.4727 201.567 19.8623C201.865 19.252 202.285 18.7832 202.827 18.4561C203.374 18.1289 204.021 17.9653 204.768 17.9653C205.52 17.9653 206.167 18.1289 206.708 18.4561C207.25 18.7832 207.668 19.252 207.961 19.8623C208.259 20.4727 208.408 21.2002 208.408 22.0449V22.0596C208.408 22.8994 208.259 23.6245 207.961 24.2349C207.668 24.8452 207.25 25.3164 206.708 25.6484C206.167 25.9756 205.52 26.1392 204.768 26.1392ZM204.768 25.0112C205.266 25.0112 205.688 24.894 206.035 24.6597C206.381 24.4253 206.645 24.0884 206.826 23.6489C207.011 23.2095 207.104 22.6797 207.104 22.0596V22.0449C207.104 21.4199 207.011 20.8877 206.826 20.4482C206.645 20.0088 206.381 19.6743 206.035 19.4448C205.688 19.2104 205.266 19.0933 204.768 19.0933C204.27 19.0933 203.847 19.2104 203.5 19.4448C203.154 19.6743 202.888 20.0088 202.702 20.4482C202.521 20.8877 202.431 21.4199 202.431 22.0449V22.0596C202.431 22.6797 202.521 23.2095 202.702 23.6489C202.888 24.0884 203.154 24.4253 203.5 24.6597C203.847 24.894 204.27 25.0112 204.768 25.0112ZM210.385 26V18.1045H211.66V19.2764H211.777C211.928 18.8613 212.185 18.5391 212.546 18.3096C212.907 18.0801 213.354 17.9653 213.886 17.9653C214.008 17.9653 214.128 17.9727 214.245 17.9873C214.367 17.9971 214.46 18.0068 214.523 18.0166V19.2544C214.392 19.23 214.262 19.2129 214.135 19.2031C214.013 19.1885 213.881 19.1812 213.74 19.1812C213.334 19.1812 212.976 19.2617 212.663 19.4229C212.351 19.584 212.104 19.8086 211.923 20.0967C211.748 20.3848 211.66 20.7217 211.66 21.1074V26H210.385ZM219.101 26.1392C218.349 26.1392 217.702 25.9731 217.16 25.6411C216.623 25.3091 216.208 24.8403 215.915 24.2349C215.627 23.6245 215.483 22.9067 215.483 22.0815V22.0742C215.483 21.2588 215.627 20.5435 215.915 19.9282C216.208 19.313 216.621 18.832 217.153 18.4854C217.685 18.1387 218.308 17.9653 219.021 17.9653C219.738 17.9653 220.354 18.1313 220.866 18.4634C221.384 18.7954 221.779 19.2593 222.053 19.855C222.331 20.4458 222.47 21.1343 222.47 21.9204V22.4185H216.142V21.4004H221.818L221.188 22.3306V21.8252C221.188 21.2051 221.096 20.6948 220.91 20.2944C220.725 19.894 220.468 19.5962 220.141 19.4009C219.814 19.2007 219.438 19.1006 219.013 19.1006C218.588 19.1006 218.208 19.2056 217.871 19.4155C217.539 19.6206 217.275 19.9258 217.08 20.3311C216.884 20.7363 216.787 21.2344 216.787 21.8252V22.3306C216.787 22.8921 216.882 23.373 217.072 23.7734C217.263 24.1689 217.534 24.4741 217.885 24.689C218.237 24.8989 218.652 25.0039 219.13 25.0039C219.487 25.0039 219.797 24.9551 220.061 24.8574C220.324 24.7598 220.542 24.6353 220.712 24.4839C220.883 24.3325 221.003 24.1787 221.071 24.0225L221.101 23.9565H222.375L222.36 24.0151C222.292 24.2837 222.17 24.5449 221.994 24.7988C221.823 25.0479 221.601 25.2749 221.328 25.48C221.054 25.6802 220.729 25.8413 220.354 25.9634C219.982 26.0806 219.565 26.1392 219.101 26.1392Z" fill="white"/>
</g>
<defs>
<linearGradient id="paint0_linear_722_738" x1="102.447" y1="-20.6044" x2="102.447" y2="62.6756" gradientUnits="userSpaceOnUse">
<stop offset="0.4" stop-opacity="0"/>
<stop offset="1" stop-opacity="0.7"/>
</linearGradient>
<clipPath id="clip0_722_738">
<path d="M0.49707 0H235.497V34C235.497 38.4183 231.915 42 227.497 42H8.49707C4.07879 42 0.49707 38.4183 0.49707 34V0Z" fill="white"/>
</clipPath>
<clipPath id="clip1_722_738">
<rect width="16" height="16" fill="white" transform="translate(12.4971 13)"/>
</clipPath>
</defs>
</svg>
