<svg width="235" height="43" viewBox="0 0 235 43" fill="none" xmlns="http://www.w3.org/2000/svg">
<g clip-path="url(#clip0_722_875)">
<rect y="1.82349" width="235" height="40.6348" fill="url(#paint0_linear_722_875)"/>
<path d="M25.3124 24.3495C25.2324 24.2919 25.1419 24.2506 25.0459 24.2281C24.9499 24.2055 24.8505 24.2021 24.7532 24.218C24.6559 24.2339 24.5627 24.2688 24.4789 24.3208C24.3951 24.3727 24.3224 24.4407 24.2649 24.5208C24.2037 24.6066 24.1401 24.6899 24.0743 24.7708C23.6249 24.018 22.976 23.4043 22.1993 22.9976C22.5967 22.5695 22.8606 22.0347 22.9584 21.4588C23.0562 20.8829 22.9837 20.2909 22.7499 19.7556C22.5161 19.2203 22.131 18.7649 21.6421 18.4453C21.1531 18.1257 20.5815 17.9558 19.9973 17.9565C19.4132 17.9572 18.8419 18.1283 18.3537 18.4491C17.8654 18.7698 17.4814 19.2261 17.2488 19.7619C17.0162 20.2977 16.9451 20.8898 17.0442 21.4655C17.1433 22.0412 17.4084 22.5754 17.8068 23.0026C17.0312 23.4088 16.3816 24.0194 15.928 24.7683C15.2931 23.9897 14.896 23.0447 14.7843 22.0464C14.9333 22.1736 15.1261 22.2375 15.3216 22.2244C15.5171 22.2113 15.6997 22.1222 15.8303 21.9762C15.961 21.8302 16.0293 21.6389 16.0207 21.4432C16.0121 21.2474 15.9272 21.0629 15.7843 20.9289L14.5343 19.6789C14.4646 19.609 14.3818 19.5535 14.2907 19.5156C14.1995 19.4778 14.1018 19.4583 14.003 19.4583C13.9043 19.4583 13.8066 19.4778 13.7154 19.5156C13.6243 19.5535 13.5415 19.609 13.4718 19.6789L12.2218 20.9289C12.0857 21.0695 12.0099 21.2579 12.0107 21.4536C12.0116 21.6494 12.0889 21.837 12.2262 21.9765C12.3635 22.1161 12.5499 22.1964 12.7456 22.2003C12.9414 22.2042 13.1309 22.1315 13.2737 21.9976C13.3447 22.8819 13.5895 23.7434 13.994 24.5328C14.3985 25.3223 14.9549 26.0242 15.6312 26.5983C15.667 26.6348 15.7063 26.6676 15.7487 26.6964C16.9541 27.6778 18.4618 28.2124 20.0163 28.2094C21.5707 28.2065 23.0764 27.6662 24.278 26.6801C24.3061 26.6598 24.3328 26.6376 24.358 26.6139C24.7817 26.2564 25.1596 25.8478 25.483 25.3976C25.5408 25.3176 25.5822 25.2271 25.6048 25.1311C25.6275 25.0351 25.631 24.9355 25.6152 24.8382C25.5993 24.7408 25.5644 24.6475 25.5125 24.5637C25.4605 24.4798 25.3925 24.407 25.3124 24.3495ZM19.9999 19.4583C20.2966 19.4583 20.5866 19.5462 20.8333 19.711C21.08 19.8759 21.2722 20.1101 21.3857 20.3842C21.4993 20.6583 21.529 20.9599 21.4711 21.2509C21.4132 21.5419 21.2704 21.8091 21.0606 22.0189C20.8508 22.2287 20.5835 22.3716 20.2926 22.4294C20.0016 22.4873 19.7 22.4576 19.4259 22.3441C19.1518 22.2305 18.9175 22.0383 18.7527 21.7916C18.5879 21.5449 18.4999 21.2549 18.4999 20.9583C18.4999 20.5604 18.658 20.1789 18.9393 19.8976C19.2206 19.6163 19.6021 19.4583 19.9999 19.4583ZM19.9999 26.7083C18.9541 26.7095 17.932 26.3966 17.0662 25.8101C17.3304 25.2559 17.7461 24.7878 18.2653 24.4602C18.7845 24.1325 19.386 23.9586 19.9999 23.9586C20.6139 23.9586 21.2153 24.1325 21.7345 24.4602C22.2537 24.7878 22.6695 25.2559 22.9337 25.8101C22.0669 26.3947 21.0454 26.7074 19.9999 26.7083ZM27.7805 21.9889L26.5305 23.2389C26.4609 23.3088 26.3781 23.3643 26.2869 23.4021C26.1957 23.44 26.098 23.4595 25.9993 23.4595C25.9006 23.4595 25.8028 23.44 25.7117 23.4021C25.6205 23.3643 25.5377 23.3088 25.468 23.2389L24.218 21.9889C24.0751 21.8549 23.9902 21.6703 23.9816 21.4746C23.973 21.2788 24.0414 21.0875 24.172 20.9415C24.3027 20.7955 24.4853 20.7064 24.6807 20.6933C24.8762 20.6802 25.0691 20.7441 25.218 20.8714C25.1001 19.8163 24.6651 18.8217 23.9703 18.019C23.2755 17.2162 22.3537 16.6429 21.3265 16.3748C20.2992 16.1066 19.2148 16.1562 18.2163 16.517C17.2179 16.8778 16.3522 17.5329 15.7337 18.3958C15.6776 18.479 15.6053 18.5502 15.5212 18.605C15.4371 18.6598 15.3428 18.6972 15.244 18.7149C15.1452 18.7327 15.0438 18.7304 14.9459 18.7082C14.848 18.686 14.7555 18.6443 14.6739 18.5857C14.5924 18.5272 14.5235 18.4528 14.4712 18.367C14.419 18.2813 14.3845 18.186 14.3697 18.0866C14.355 17.9873 14.3604 17.886 14.3856 17.7888C14.4107 17.6916 14.4551 17.6005 14.5162 17.5208C15.3226 16.3972 16.4547 15.5484 17.7593 15.0893C19.0639 14.6302 20.478 14.5829 21.8103 14.9538C23.1427 15.3248 24.3289 16.096 25.2086 17.1632C26.0883 18.2304 26.6189 19.5421 26.7287 20.9208C26.8715 20.7869 27.061 20.7141 27.2567 20.7181C27.4524 20.722 27.6388 20.8023 27.7761 20.9418C27.9134 21.0813 27.9908 21.269 27.9916 21.4648C27.9924 21.6605 27.9167 21.8488 27.7805 21.9895V21.9889Z" fill="white"/>
<path d="M32.3037 26.4583L37.0352 17.3176V17.2297H31.5713V15.8528H38.7051V17.2883L33.9883 26.4583H32.3037Z" fill="white"/>
<path d="M141 14.4583C139.542 14.4599 138.144 15.0399 137.113 16.071C136.082 17.1021 135.502 18.5001 135.5 19.9583C135.5 24.6645 140.5 28.2189 140.713 28.3676C140.797 28.4265 140.897 28.4581 141 28.4581C141.103 28.4581 141.203 28.4265 141.287 28.3676C141.5 28.2189 146.5 24.6645 146.5 19.9583C146.498 18.5001 145.918 17.1021 144.887 16.071C143.856 15.0399 142.458 14.4599 141 14.4583ZM141 17.9583C141.396 17.9583 141.782 18.0756 142.111 18.2953C142.44 18.5151 142.696 18.8274 142.848 19.1929C142.999 19.5583 143.039 19.9605 142.962 20.3484C142.884 20.7364 142.694 21.0928 142.414 21.3725C142.135 21.6522 141.778 21.8427 141.39 21.9198C141.002 21.997 140.6 21.9574 140.235 21.806C139.869 21.6546 139.557 21.3983 139.337 21.0694C139.117 20.7405 139 20.3538 139 19.9583C139 19.4278 139.211 18.9191 139.586 18.544C139.961 18.169 140.47 17.9583 141 17.9583Z" fill="#FF5924"/>
<path d="M156.048 26.7073C155.276 26.7073 154.603 26.5828 154.026 26.3337C153.455 26.0798 153.001 25.7332 152.664 25.2937C152.332 24.8494 152.139 24.3416 152.085 23.7703L152.078 23.6897H153.396L153.404 23.7703C153.438 24.1218 153.572 24.427 153.807 24.6858C154.046 24.9397 154.363 25.1375 154.759 25.2791C155.159 25.4207 155.613 25.4915 156.121 25.4915C156.6 25.4915 157.024 25.4158 157.396 25.2644C157.771 25.1082 158.067 24.8933 158.282 24.6199C158.497 24.3464 158.604 24.0315 158.604 23.675V23.6677C158.604 23.2283 158.443 22.8596 158.121 22.5618C157.798 22.259 157.273 22.0271 156.546 21.866L155.374 21.6096C154.314 21.3752 153.543 21.0139 153.06 20.5256C152.581 20.0325 152.342 19.4026 152.342 18.636V18.6287C152.347 18.0427 152.505 17.5251 152.818 17.0759C153.135 16.6267 153.572 16.2751 154.129 16.0212C154.69 15.7673 155.335 15.6404 156.062 15.6404C156.766 15.6404 157.388 15.7673 157.93 16.0212C158.472 16.2703 158.902 16.6072 159.219 17.032C159.542 17.4568 159.72 17.9329 159.754 18.4602L159.761 18.5627H158.443L158.428 18.4675C158.379 18.155 158.252 17.8792 158.047 17.6399C157.842 17.3958 157.569 17.2029 157.227 17.0613C156.885 16.9197 156.485 16.8513 156.026 16.8562C155.586 16.8562 155.191 16.9246 154.839 17.0613C154.488 17.198 154.207 17.3958 153.997 17.6545C153.792 17.9084 153.689 18.2209 153.689 18.592V18.5994C153.689 19.0193 153.846 19.3733 154.158 19.6614C154.471 19.9495 154.986 20.1716 155.704 20.3279L156.875 20.5916C157.613 20.7527 158.206 20.9626 158.655 21.2214C159.104 21.4802 159.432 21.7976 159.637 22.1736C159.847 22.5447 159.952 22.9841 159.952 23.4919V23.4993C159.952 24.1584 159.791 24.7273 159.468 25.2058C159.146 25.6843 158.692 26.0554 158.106 26.3191C157.52 26.5779 156.834 26.7073 156.048 26.7073ZM162.017 26.4583V18.5627H163.292V26.4583H162.017ZM162.662 17.0393C162.422 17.0393 162.215 16.9539 162.039 16.783C161.868 16.6072 161.783 16.3997 161.783 16.1604C161.783 15.9163 161.868 15.7087 162.039 15.5378C162.215 15.3669 162.422 15.2815 162.662 15.2815C162.906 15.2815 163.113 15.3669 163.284 15.5378C163.455 15.7087 163.541 15.9163 163.541 16.1604C163.541 16.3997 163.455 16.6072 163.284 16.783C163.113 16.9539 162.906 17.0393 162.662 17.0393ZM165.694 26.4583V18.5627H166.968V19.7493H167.085C167.286 19.3293 167.574 19.0046 167.95 18.7751C168.326 18.5408 168.804 18.4236 169.385 18.4236C170.274 18.4236 170.955 18.6775 171.429 19.1853C171.907 19.6882 172.146 20.4084 172.146 21.3459V26.4583H170.872V21.6536C170.872 20.9407 170.721 20.4133 170.418 20.0715C170.12 19.7249 169.656 19.5515 169.026 19.5515C168.606 19.5515 168.243 19.6418 167.935 19.8225C167.627 20.0032 167.388 20.2595 167.217 20.5916C167.051 20.9236 166.968 21.3215 166.968 21.7854V26.4583H165.694ZM177.706 29.2415C177.071 29.2415 176.517 29.1511 176.043 28.9705C175.569 28.7947 175.191 28.5432 174.908 28.2161C174.629 27.8938 174.456 27.5178 174.388 27.0881L174.402 27.0808H175.721L175.728 27.0881C175.796 27.386 176.001 27.6301 176.343 27.8206C176.685 28.0159 177.139 28.1135 177.706 28.1135C178.414 28.1135 178.965 27.9524 179.361 27.6301C179.761 27.3127 179.961 26.8635 179.961 26.2825V24.6858H179.844C179.678 24.9739 179.471 25.2205 179.222 25.4255C178.973 25.6306 178.692 25.7869 178.379 25.8943C178.067 25.9968 177.73 26.0481 177.369 26.0481C176.69 26.0481 176.102 25.887 175.604 25.5647C175.11 25.2375 174.729 24.7883 174.461 24.217C174.192 23.6458 174.058 22.9915 174.058 22.2542V22.2395C174.058 21.5022 174.192 20.8479 174.461 20.2766C174.734 19.7004 175.12 19.2488 175.618 18.9216C176.116 18.5896 176.709 18.4236 177.398 18.4236C177.769 18.4236 178.111 18.4822 178.423 18.5994C178.736 18.7166 179.012 18.8826 179.251 19.0974C179.495 19.3123 179.698 19.5686 179.859 19.8665H179.947V18.5627H181.221V26.3484C181.221 26.9343 181.077 27.4446 180.789 27.8792C180.506 28.3137 180.101 28.6482 179.573 28.8826C179.046 29.1218 178.423 29.2415 177.706 29.2415ZM177.647 24.9202C178.135 24.9202 178.553 24.8079 178.899 24.5833C179.251 24.3538 179.52 24.0388 179.705 23.6384C179.896 23.238 179.991 22.7766 179.991 22.2542V22.2395C179.991 21.717 179.896 21.2532 179.705 20.8479C179.52 20.4426 179.251 20.1252 178.899 19.8958C178.553 19.6663 178.135 19.5515 177.647 19.5515C177.159 19.5515 176.744 19.6663 176.402 19.8958C176.065 20.1252 175.806 20.4426 175.625 20.8479C175.45 21.2532 175.362 21.717 175.362 22.2395V22.2542C175.362 22.7766 175.45 23.238 175.625 23.6384C175.806 24.0388 176.065 24.3538 176.402 24.5833C176.744 24.8079 177.159 24.9202 177.647 24.9202ZM185.762 26.5974C185.264 26.5974 184.815 26.5022 184.415 26.3118C184.019 26.1213 183.704 25.8503 183.47 25.4988C183.24 25.1472 183.125 24.7322 183.125 24.2537V24.239C183.125 23.7703 183.238 23.3699 183.462 23.0378C183.687 22.7009 184.014 22.4373 184.444 22.2468C184.874 22.0564 185.394 21.9441 186.004 21.9099L188.904 21.7341V22.7522L186.158 22.928C185.557 22.9622 185.118 23.0867 184.839 23.3015C184.566 23.5164 184.429 23.8191 184.429 24.2097V24.2244C184.429 24.6248 184.581 24.9373 184.883 25.1619C185.186 25.3816 185.567 25.4915 186.026 25.4915C186.46 25.4915 186.846 25.406 187.183 25.2351C187.52 25.0593 187.784 24.8225 187.974 24.5247C188.169 24.2268 188.267 23.8899 188.267 23.5139V21.053C188.267 20.5647 188.118 20.1936 187.82 19.9397C187.527 19.6809 187.085 19.5515 186.495 19.5515C186.021 19.5515 185.633 19.637 185.33 19.8079C185.027 19.9739 184.825 20.2107 184.722 20.5183L184.715 20.5403H183.44L183.448 20.4963C183.516 20.0813 183.687 19.72 183.96 19.4124C184.239 19.0999 184.598 18.8582 185.037 18.6873C185.477 18.5115 185.977 18.4236 186.539 18.4236C187.183 18.4236 187.728 18.5286 188.172 18.7385C188.621 18.9485 188.96 19.2512 189.19 19.6467C189.424 20.0374 189.542 20.5061 189.542 21.053V26.4583H188.267V25.2937H188.15C187.984 25.572 187.781 25.8088 187.542 26.0042C187.308 26.1995 187.042 26.3484 186.744 26.4509C186.446 26.5486 186.119 26.5974 185.762 26.5974ZM191.871 29.095V18.5627H193.145V19.8225H193.262C193.423 19.5295 193.626 19.2805 193.87 19.0754C194.114 18.8655 194.393 18.7043 194.705 18.592C195.018 18.4797 195.357 18.4236 195.723 18.4236C196.392 18.4236 196.973 18.5945 197.466 18.9363C197.964 19.2732 198.35 19.7468 198.624 20.3572C198.897 20.9675 199.034 21.6829 199.034 22.5032V22.5178C199.034 23.343 198.897 24.0608 198.624 24.6711C198.35 25.2815 197.964 25.7551 197.466 26.092C196.973 26.429 196.392 26.5974 195.723 26.5974C195.362 26.5974 195.02 26.5413 194.698 26.429C194.38 26.3118 194.097 26.1506 193.848 25.9456C193.604 25.7405 193.409 25.4963 193.262 25.2131H193.145V29.095H191.871ZM195.43 25.4695C195.914 25.4695 196.326 25.3523 196.668 25.1179C197.01 24.8787 197.271 24.5393 197.452 24.0999C197.637 23.6555 197.73 23.1282 197.73 22.5178V22.5032C197.73 21.8879 197.637 21.3606 197.452 20.9211C197.271 20.4817 197.01 20.1448 196.668 19.9104C196.326 19.6711 195.914 19.5515 195.43 19.5515C194.952 19.5515 194.539 19.6711 194.192 19.9104C193.846 20.1497 193.58 20.489 193.394 20.9285C193.208 21.3679 193.116 21.8928 193.116 22.5032V22.5178C193.116 23.1233 193.208 23.6482 193.394 24.0925C193.58 24.532 193.846 24.8713 194.192 25.1106C194.539 25.3499 194.952 25.4695 195.43 25.4695ZM204.271 26.5974C203.523 26.5974 202.876 26.4338 202.33 26.1067C201.788 25.7747 201.368 25.3035 201.07 24.6931C200.777 24.0828 200.63 23.3577 200.63 22.5178V22.5032C200.63 21.6584 200.777 20.9309 201.07 20.3206C201.368 19.7102 201.788 19.2415 202.33 18.9143C202.876 18.5872 203.523 18.4236 204.271 18.4236C205.022 18.4236 205.669 18.5872 206.211 18.9143C206.753 19.2415 207.171 19.7102 207.464 20.3206C207.762 20.9309 207.911 21.6584 207.911 22.5032V22.5178C207.911 23.3577 207.762 24.0828 207.464 24.6931C207.171 25.3035 206.753 25.7747 206.211 26.1067C205.669 26.4338 205.022 26.5974 204.271 26.5974ZM204.271 25.4695C204.769 25.4695 205.191 25.3523 205.538 25.1179C205.884 24.8835 206.148 24.5466 206.329 24.1072C206.514 23.6677 206.607 23.1379 206.607 22.5178V22.5032C206.607 21.8782 206.514 21.3459 206.329 20.9065C206.148 20.467 205.884 20.1326 205.538 19.9031C205.191 19.6687 204.769 19.5515 204.271 19.5515C203.772 19.5515 203.35 19.6687 203.003 19.9031C202.657 20.1326 202.391 20.467 202.205 20.9065C202.024 21.3459 201.934 21.8782 201.934 22.5032V22.5178C201.934 23.1379 202.024 23.6677 202.205 24.1072C202.391 24.5466 202.657 24.8835 203.003 25.1179C203.35 25.3523 203.772 25.4695 204.271 25.4695ZM209.888 26.4583V18.5627H211.163V19.7346H211.28C211.431 19.3196 211.688 18.9973 212.049 18.7678C212.41 18.5383 212.857 18.4236 213.389 18.4236C213.511 18.4236 213.631 18.4309 213.748 18.4456C213.87 18.4553 213.963 18.4651 214.026 18.4749V19.7126C213.895 19.6882 213.765 19.6711 213.638 19.6614C213.516 19.6467 213.384 19.6394 213.243 19.6394C212.837 19.6394 212.479 19.72 212.166 19.8811C211.854 20.0422 211.607 20.2668 211.426 20.5549C211.25 20.843 211.163 21.1799 211.163 21.5657V26.4583H209.888ZM218.604 26.5974C217.852 26.5974 217.205 26.4314 216.663 26.0994C216.126 25.7673 215.711 25.2986 215.418 24.6931C215.13 24.0828 214.986 23.365 214.986 22.5398V22.5325C214.986 21.717 215.13 21.0017 215.418 20.3865C215.711 19.7712 216.124 19.2903 216.656 18.9436C217.188 18.5969 217.811 18.4236 218.523 18.4236C219.241 18.4236 219.856 18.5896 220.369 18.9216C220.887 19.2537 221.282 19.7175 221.556 20.3132C221.834 20.9041 221.973 21.5925 221.973 22.3787V22.8767H215.645V21.8586H221.321L220.691 22.7888V22.2834C220.691 21.6633 220.599 21.1531 220.413 20.7527C220.228 20.3523 219.971 20.0544 219.644 19.8591C219.317 19.6589 218.941 19.5588 218.516 19.5588C218.091 19.5588 217.71 19.6638 217.374 19.8738C217.042 20.0789 216.778 20.384 216.583 20.7893C216.387 21.1946 216.29 21.6926 216.29 22.2834V22.7888C216.29 23.3503 216.385 23.8313 216.575 24.2317C216.766 24.6272 217.037 24.9324 217.388 25.1472C217.74 25.3572 218.155 25.4622 218.633 25.4622C218.99 25.4622 219.3 25.4133 219.563 25.3157C219.827 25.218 220.044 25.0935 220.215 24.9421C220.386 24.7908 220.506 24.637 220.574 24.4807L220.604 24.4148H221.878L221.863 24.4734C221.795 24.7419 221.673 25.0032 221.497 25.2571C221.326 25.5061 221.104 25.7332 220.831 25.9382C220.557 26.1384 220.232 26.2996 219.856 26.4216C219.485 26.5388 219.068 26.5974 218.604 26.5974Z" fill="white"/>
</g>
<defs>
<linearGradient id="paint0_linear_722_875" x1="101.95" y1="-20.1462" x2="101.95" y2="63.1339" gradientUnits="userSpaceOnUse">
<stop offset="0.4" stop-opacity="0"/>
<stop offset="1" stop-opacity="0.7"/>
</linearGradient>
<clipPath id="clip0_722_875">
<path d="M0 0.458252H235V34.4583C235 38.8765 231.418 42.4583 227 42.4583H8C3.58172 42.4583 0 38.8765 0 34.4583V0.458252Z" fill="white"/>
</clipPath>
</defs>
</svg>
