<svg width="235" height="43" viewBox="0 0 235 43" fill="none" xmlns="http://www.w3.org/2000/svg">
<g clip-path="url(#clip0_732_998)">
<rect y="1.82324" width="235" height="40.6348" fill="url(#paint0_linear_732_998)"/>
<path d="M27.6873 21.1536C27.6641 21.103 27.1166 19.8874 25.9073 18.678C24.2891 17.0624 22.2498 16.208 19.9998 16.208C17.7498 16.208 15.7104 17.0624 14.0941 18.678C12.8848 19.8874 12.3373 21.103 12.3123 21.1536C12.2699 21.2496 12.248 21.3534 12.248 21.4583C12.248 21.5632 12.2699 21.667 12.3123 21.763C12.3354 21.8143 12.8829 23.0293 14.0929 24.2386C15.7104 25.8543 17.7498 26.708 19.9998 26.708C22.2498 26.708 24.2891 25.8543 25.9048 24.2386C27.1148 23.0293 27.6623 21.8143 27.6854 21.763C27.728 21.6671 27.7502 21.5634 27.7505 21.4585C27.7509 21.3536 27.7293 21.2498 27.6873 21.1536ZM24.8085 23.2161C23.4666 24.5374 21.8491 25.208 19.9998 25.208C18.1504 25.208 16.5329 24.5374 15.1929 23.2155C14.6656 22.6938 14.212 22.1025 13.8448 21.458C14.2121 20.8138 14.6657 20.2227 15.1929 19.7011C16.5335 18.3786 18.1504 17.708 19.9998 17.708C21.8491 17.708 23.466 18.3786 24.8066 19.7011C25.3339 20.2227 25.7874 20.8138 26.1548 21.458C25.7874 22.1024 25.3339 22.6937 24.8066 23.2155L24.8085 23.2161ZM19.9998 18.708C19.4559 18.708 18.9242 18.8693 18.4719 19.1715C18.0197 19.4736 17.6672 19.9031 17.4591 20.4056C17.2509 20.9081 17.1965 21.4611 17.3026 21.9945C17.4087 22.528 17.6706 23.018 18.0552 23.4026C18.4398 23.7871 18.9298 24.0491 19.4633 24.1552C19.9967 24.2613 20.5496 24.2068 21.0521 23.9987C21.5546 23.7905 21.9841 23.4381 22.2863 22.9858C22.5885 22.5336 22.7498 22.0019 22.7498 21.458C22.7489 20.7289 22.4589 20.0299 21.9434 19.5144C21.4278 18.9988 20.7288 18.7088 19.9998 18.708ZM19.9998 22.708C19.7525 22.708 19.5109 22.6347 19.3053 22.4973C19.0997 22.36 18.9395 22.1648 18.8449 21.9364C18.7503 21.708 18.7255 21.4566 18.7738 21.2141C18.822 20.9717 18.9411 20.7489 19.1159 20.5741C19.2907 20.3993 19.5134 20.2803 19.7559 20.232C19.9984 20.1838 20.2497 20.2085 20.4781 20.3032C20.7065 20.3978 20.9017 20.558 21.0391 20.7635C21.1764 20.9691 21.2498 21.2108 21.2498 21.458C21.2498 21.7895 21.1181 22.1075 20.8836 22.3419C20.6492 22.5763 20.3313 22.708 19.9998 22.708Z" fill="white"/>
<path d="M32.3037 26.458L37.0352 17.3174V17.2295H31.5713V15.8525H38.7051V17.2881L33.9883 26.458H32.3037ZM40.3311 26.458V25.2861L44.0078 21.5801C45.1724 20.3716 45.751 19.6978 45.751 18.7676C45.751 17.7202 44.9014 17.0537 43.7881 17.0537C42.6089 17.0537 41.8618 17.8008 41.8545 18.9287H40.3311C40.3164 16.9878 41.7959 15.7061 43.8174 15.7061C45.8608 15.7061 47.2744 17.0024 47.2891 18.7236C47.2744 19.9102 46.7178 20.855 44.7256 22.8105L42.5723 24.9932V25.0811H47.4648V26.458H40.3311ZM50.292 26.5605C49.7207 26.5532 49.2446 26.0918 49.252 25.5205C49.2446 24.9492 49.7207 24.4805 50.292 24.4805C50.856 24.4805 51.3247 24.9492 51.332 25.5205C51.3247 26.0918 50.856 26.5532 50.292 26.5605ZM56.7227 15.7061C58.6709 15.7207 60.7144 16.8926 60.7217 20.7744C60.7217 24.4951 59.1177 26.6045 56.5762 26.6045C54.6206 26.6045 53.2583 25.396 53.002 23.6748H54.5986C54.8184 24.5684 55.5068 25.1909 56.5762 25.1982C58.2095 25.1909 59.1689 23.77 59.1836 21.3457H59.0518C58.4805 22.2393 57.4844 22.7812 56.3418 22.7812C54.4375 22.7812 52.9141 21.3237 52.9141 19.2949C52.9141 17.2734 54.4155 15.6914 56.7227 15.7061ZM54.4814 19.2656C54.4888 20.4961 55.4043 21.4702 56.6934 21.4629C57.9751 21.4702 58.9639 20.4229 58.9639 19.251C58.9639 18.1011 58.019 17.0537 56.7227 17.0537C55.4409 17.0537 54.4741 18.0498 54.4814 19.2656ZM62.5674 15.8525H64.5303L67.8848 24.0703H68.0166L71.3711 15.8525H73.334V26.458H71.7959V18.7969H71.6934L68.5879 26.4434H67.3135L64.1934 18.7822H64.1055V26.458H62.5674V15.8525Z" fill="white"/>
<path d="M96.3124 24.3493C96.2324 24.2917 96.1419 24.2504 96.0459 24.2278C95.9499 24.2052 95.8505 24.2018 95.7532 24.2177C95.6559 24.2336 95.5627 24.2686 95.4789 24.3205C95.3951 24.3725 95.3224 24.4404 95.2649 24.5205C95.2037 24.6063 95.1401 24.6897 95.0743 24.7705C94.6249 24.0178 93.976 23.4041 93.1993 22.9974C93.5967 22.5693 93.8606 22.0345 93.9584 21.4585C94.0562 20.8826 93.9837 20.2907 93.7499 19.7554C93.5161 19.2201 93.131 18.7647 92.6421 18.4451C92.1531 18.1255 91.5815 17.9556 90.9973 17.9562C90.4132 17.9569 89.8419 18.1281 89.3537 18.4488C88.8654 18.7695 88.4814 19.2258 88.2488 19.7617C88.0162 20.2975 87.9451 20.8896 88.0442 21.4653C88.1433 22.041 88.4084 22.5752 88.8068 23.0024C88.0312 23.4086 87.3816 24.0191 86.928 24.768C86.2931 23.9895 85.896 23.0445 85.7843 22.0461C85.9333 22.1734 86.1261 22.2373 86.3216 22.2242C86.5171 22.2111 86.6997 22.122 86.8303 21.976C86.961 21.83 87.0293 21.6387 87.0207 21.4429C87.0121 21.2472 86.9272 21.0626 86.7843 20.9286L85.5343 19.6786C85.4646 19.6087 85.3818 19.5532 85.2907 19.5154C85.1995 19.4775 85.1018 19.458 85.003 19.458C84.9043 19.458 84.8066 19.4775 84.7154 19.5154C84.6243 19.5532 84.5415 19.6087 84.4718 19.6786L83.2218 20.9286C83.0857 21.0693 83.0099 21.2576 83.0107 21.4534C83.0116 21.6491 83.0889 21.8368 83.2262 21.9763C83.3635 22.1158 83.5499 22.1961 83.7456 22.2001C83.9414 22.204 84.1309 22.1313 84.2737 21.9974C84.3447 22.8816 84.5895 23.7431 84.994 24.5326C85.3985 25.3221 85.9549 26.0239 86.6312 26.598C86.667 26.6345 86.7063 26.6674 86.7487 26.6961C87.9541 27.6776 89.4618 28.2121 91.0163 28.2092C92.5707 28.2062 94.0764 27.6659 95.278 26.6799C95.3061 26.6595 95.3328 26.6374 95.358 26.6136C95.7817 26.2561 96.1596 25.8476 96.483 25.3974C96.5408 25.3174 96.5822 25.2268 96.6048 25.1308C96.6275 25.0348 96.631 24.9353 96.6152 24.8379C96.5993 24.7406 96.5644 24.6473 96.5125 24.5634C96.4605 24.4796 96.3925 24.4068 96.3124 24.3493ZM90.9999 19.458C91.2966 19.458 91.5866 19.546 91.8333 19.7108C92.08 19.8756 92.2722 20.1099 92.3857 20.384C92.4993 20.6581 92.529 20.9597 92.4711 21.2506C92.4132 21.5416 92.2704 21.8089 92.0606 22.0187C91.8508 22.2284 91.5835 22.3713 91.2926 22.4292C91.0016 22.4871 90.7 22.4574 90.4259 22.3438C90.1518 22.2303 89.9175 22.038 89.7527 21.7914C89.5879 21.5447 89.4999 21.2547 89.4999 20.958C89.4999 20.5602 89.658 20.1787 89.9393 19.8973C90.2206 19.616 90.6021 19.458 90.9999 19.458ZM90.9999 26.708C89.9541 26.7093 88.932 26.3964 88.0662 25.8099C88.3304 25.2557 88.7461 24.7876 89.2653 24.4599C89.7845 24.1322 90.386 23.9583 90.9999 23.9583C91.6139 23.9583 92.2153 24.1322 92.7345 24.4599C93.2537 24.7876 93.6695 25.2557 93.9337 25.8099C93.0669 26.3945 92.0454 26.7072 90.9999 26.708ZM98.7805 21.9886L97.5305 23.2386C97.4609 23.3086 97.3781 23.364 97.2869 23.4019C97.1957 23.4397 97.098 23.4592 96.9993 23.4592C96.9006 23.4592 96.8028 23.4397 96.7117 23.4019C96.6205 23.364 96.5377 23.3086 96.468 23.2386L95.218 21.9886C95.0751 21.8547 94.9902 21.6701 94.9816 21.4743C94.973 21.2786 95.0414 21.0873 95.172 20.9413C95.3027 20.7953 95.4853 20.7062 95.6807 20.6931C95.8762 20.68 96.0691 20.7439 96.218 20.8711C96.1001 19.816 95.6651 18.8215 94.9703 18.0187C94.2755 17.2159 93.3537 16.6427 92.3265 16.3745C91.2992 16.1064 90.2148 16.156 89.2163 16.5168C88.2179 16.8776 87.3522 17.5327 86.7337 18.3955C86.6776 18.4788 86.6053 18.5499 86.5212 18.6048C86.4371 18.6596 86.3428 18.697 86.244 18.7147C86.1452 18.7324 86.0438 18.7301 85.9459 18.7079C85.848 18.6857 85.7555 18.6441 85.6739 18.5855C85.5924 18.5269 85.5235 18.4525 85.4712 18.3668C85.419 18.2811 85.3845 18.1857 85.3697 18.0864C85.355 17.9871 85.3604 17.8858 85.3856 17.7886C85.4107 17.6914 85.4551 17.6002 85.5162 17.5205C86.3226 16.3969 87.4547 15.5482 88.7593 15.0891C90.0639 14.63 91.478 14.5827 92.8103 14.9536C94.1427 15.3245 95.3289 16.0958 96.2086 17.163C97.0883 18.2302 97.6189 19.5419 97.7287 20.9205C97.8715 20.7866 98.061 20.7139 98.2567 20.7178C98.4524 20.7218 98.6388 20.8021 98.7761 20.9416C98.9134 21.0811 98.9908 21.2688 98.9916 21.4645C98.9924 21.6603 98.9167 21.8486 98.7805 21.9893V21.9886Z" fill="white"/>
<path d="M106.966 15.8525V26.458H105.34V17.4639H105.281L102.747 19.1191V17.5811L105.384 15.8525H106.966ZM113.353 26.6045C110.899 26.6045 109.456 24.627 109.456 21.1553C109.456 17.7056 110.914 15.7061 113.353 15.7061C115.784 15.7061 117.242 17.7056 117.249 21.1553C117.242 24.627 115.806 26.6045 113.353 26.6045ZM111.067 21.1553C111.06 23.7993 111.917 25.2129 113.353 25.2129C114.781 25.2129 115.638 23.7993 115.638 21.1553C115.638 18.5186 114.773 17.0757 113.353 17.0684C111.924 17.0757 111.067 18.5186 111.067 21.1553Z" fill="white"/>
<path d="M141 14.458C139.542 14.4597 138.144 15.0397 137.113 16.0707C136.082 17.1018 135.502 18.4998 135.5 19.958C135.5 24.6643 140.5 28.2186 140.713 28.3674C140.797 28.4263 140.897 28.4579 141 28.4579C141.103 28.4579 141.203 28.4263 141.287 28.3674C141.5 28.2186 146.5 24.6643 146.5 19.958C146.498 18.4998 145.918 17.1018 144.887 16.0707C143.856 15.0397 142.458 14.4597 141 14.458ZM141 17.958C141.396 17.958 141.782 18.0753 142.111 18.2951C142.44 18.5148 142.696 18.8272 142.848 19.1926C142.999 19.5581 143.039 19.9602 142.962 20.3482C142.884 20.7362 142.694 21.0925 142.414 21.3722C142.135 21.6519 141.778 21.8424 141.39 21.9196C141.002 21.9967 140.6 21.9571 140.235 21.8058C139.869 21.6544 139.557 21.398 139.337 21.0691C139.117 20.7402 139 20.3536 139 19.958C139 19.4276 139.211 18.9189 139.586 18.5438C139.961 18.1687 140.47 17.958 141 17.958Z" fill="#FF5924"/>
<path d="M156.048 26.707C155.276 26.707 154.603 26.5825 154.026 26.3335C153.455 26.0796 153.001 25.7329 152.664 25.2935C152.332 24.8491 152.139 24.3413 152.085 23.77L152.078 23.6895H153.396L153.404 23.77C153.438 24.1216 153.572 24.4268 153.807 24.6855C154.046 24.9395 154.363 25.1372 154.759 25.2788C155.159 25.4204 155.613 25.4912 156.121 25.4912C156.6 25.4912 157.024 25.4155 157.396 25.2642C157.771 25.1079 158.067 24.8931 158.282 24.6196C158.497 24.3462 158.604 24.0312 158.604 23.6748V23.6675C158.604 23.228 158.443 22.8594 158.121 22.5615C157.798 22.2588 157.273 22.0269 156.546 21.8657L155.374 21.6094C154.314 21.375 153.543 21.0137 153.06 20.5254C152.581 20.0322 152.342 19.4023 152.342 18.6357V18.6284C152.347 18.0425 152.505 17.5249 152.818 17.0757C153.135 16.6265 153.572 16.2749 154.129 16.021C154.69 15.7671 155.335 15.6401 156.062 15.6401C156.766 15.6401 157.388 15.7671 157.93 16.021C158.472 16.27 158.902 16.6069 159.219 17.0317C159.542 17.4565 159.72 17.9326 159.754 18.46L159.761 18.5625H158.443L158.428 18.4673C158.379 18.1548 158.252 17.8789 158.047 17.6396C157.842 17.3955 157.569 17.2026 157.227 17.061C156.885 16.9194 156.485 16.8511 156.026 16.856C155.586 16.856 155.191 16.9243 154.839 17.061C154.488 17.1978 154.207 17.3955 153.997 17.6543C153.792 17.9082 153.689 18.2207 153.689 18.5918V18.5991C153.689 19.019 153.846 19.373 154.158 19.6611C154.471 19.9492 154.986 20.1714 155.704 20.3276L156.875 20.5913C157.613 20.7524 158.206 20.9624 158.655 21.2212C159.104 21.48 159.432 21.7974 159.637 22.1733C159.847 22.5444 159.952 22.9839 159.952 23.4917V23.499C159.952 24.1582 159.791 24.7271 159.468 25.2056C159.146 25.6841 158.692 26.0552 158.106 26.3188C157.52 26.5776 156.834 26.707 156.048 26.707ZM162.017 26.458V18.5625H163.292V26.458H162.017ZM162.662 17.0391C162.422 17.0391 162.215 16.9536 162.039 16.7827C161.868 16.6069 161.783 16.3994 161.783 16.1602C161.783 15.916 161.868 15.7085 162.039 15.5376C162.215 15.3667 162.422 15.2812 162.662 15.2812C162.906 15.2812 163.113 15.3667 163.284 15.5376C163.455 15.7085 163.541 15.916 163.541 16.1602C163.541 16.3994 163.455 16.6069 163.284 16.7827C163.113 16.9536 162.906 17.0391 162.662 17.0391ZM165.694 26.458V18.5625H166.968V19.749H167.085C167.286 19.3291 167.574 19.0044 167.95 18.7749C168.326 18.5405 168.804 18.4233 169.385 18.4233C170.274 18.4233 170.955 18.6772 171.429 19.1851C171.907 19.688 172.146 20.4082 172.146 21.3457V26.458H170.872V21.6533C170.872 20.9404 170.721 20.4131 170.418 20.0713C170.12 19.7246 169.656 19.5513 169.026 19.5513C168.606 19.5513 168.243 19.6416 167.935 19.8223C167.627 20.0029 167.388 20.2593 167.217 20.5913C167.051 20.9233 166.968 21.3213 166.968 21.7852V26.458H165.694ZM177.706 29.2412C177.071 29.2412 176.517 29.1509 176.043 28.9702C175.569 28.7944 175.191 28.543 174.908 28.2158C174.629 27.8936 174.456 27.5176 174.388 27.0879L174.402 27.0806H175.721L175.728 27.0879C175.796 27.3857 176.001 27.6299 176.343 27.8203C176.685 28.0156 177.139 28.1133 177.706 28.1133C178.414 28.1133 178.965 27.9521 179.361 27.6299C179.761 27.3125 179.961 26.8633 179.961 26.2822V24.6855H179.844C179.678 24.9736 179.471 25.2202 179.222 25.4253C178.973 25.6304 178.692 25.7866 178.379 25.894C178.067 25.9966 177.73 26.0479 177.369 26.0479C176.69 26.0479 176.102 25.8867 175.604 25.5645C175.11 25.2373 174.729 24.7881 174.461 24.2168C174.192 23.6455 174.058 22.9912 174.058 22.2539V22.2393C174.058 21.502 174.192 20.8477 174.461 20.2764C174.734 19.7002 175.12 19.2485 175.618 18.9214C176.116 18.5894 176.709 18.4233 177.398 18.4233C177.769 18.4233 178.111 18.4819 178.423 18.5991C178.736 18.7163 179.012 18.8823 179.251 19.0972C179.495 19.312 179.698 19.5684 179.859 19.8662H179.947V18.5625H181.221V26.3481C181.221 26.9341 181.077 27.4443 180.789 27.8789C180.506 28.3135 180.101 28.6479 179.573 28.8823C179.046 29.1216 178.423 29.2412 177.706 29.2412ZM177.647 24.9199C178.135 24.9199 178.553 24.8076 178.899 24.583C179.251 24.3535 179.52 24.0386 179.705 23.6382C179.896 23.2378 179.991 22.7764 179.991 22.2539V22.2393C179.991 21.7168 179.896 21.2529 179.705 20.8477C179.52 20.4424 179.251 20.125 178.899 19.8955C178.553 19.666 178.135 19.5513 177.647 19.5513C177.159 19.5513 176.744 19.666 176.402 19.8955C176.065 20.125 175.806 20.4424 175.625 20.8477C175.45 21.2529 175.362 21.7168 175.362 22.2393V22.2539C175.362 22.7764 175.45 23.2378 175.625 23.6382C175.806 24.0386 176.065 24.3535 176.402 24.583C176.744 24.8076 177.159 24.9199 177.647 24.9199ZM185.762 26.5972C185.264 26.5972 184.815 26.502 184.415 26.3115C184.019 26.1211 183.704 25.8501 183.47 25.4985C183.24 25.147 183.125 24.7319 183.125 24.2534V24.2388C183.125 23.77 183.238 23.3696 183.462 23.0376C183.687 22.7007 184.014 22.437 184.444 22.2466C184.874 22.0562 185.394 21.9438 186.004 21.9097L188.904 21.7339V22.752L186.158 22.9277C185.557 22.9619 185.118 23.0864 184.839 23.3013C184.566 23.5161 184.429 23.8188 184.429 24.2095V24.2241C184.429 24.6245 184.581 24.937 184.883 25.1616C185.186 25.3813 185.567 25.4912 186.026 25.4912C186.46 25.4912 186.846 25.4058 187.183 25.2349C187.52 25.0591 187.784 24.8223 187.974 24.5244C188.169 24.2266 188.267 23.8896 188.267 23.5137V21.0527C188.267 20.5645 188.118 20.1934 187.82 19.9395C187.527 19.6807 187.085 19.5513 186.495 19.5513C186.021 19.5513 185.633 19.6367 185.33 19.8076C185.027 19.9736 184.825 20.2104 184.722 20.5181L184.715 20.54H183.44L183.448 20.4961C183.516 20.0811 183.687 19.7197 183.96 19.4121C184.239 19.0996 184.598 18.8579 185.037 18.687C185.477 18.5112 185.977 18.4233 186.539 18.4233C187.183 18.4233 187.728 18.5283 188.172 18.7383C188.621 18.9482 188.96 19.251 189.19 19.6465C189.424 20.0371 189.542 20.5059 189.542 21.0527V26.458H188.267V25.2935H188.15C187.984 25.5718 187.781 25.8086 187.542 26.0039C187.308 26.1992 187.042 26.3481 186.744 26.4507C186.446 26.5483 186.119 26.5972 185.762 26.5972ZM191.871 29.0947V18.5625H193.145V19.8223H193.262C193.423 19.5293 193.626 19.2803 193.87 19.0752C194.114 18.8652 194.393 18.7041 194.705 18.5918C195.018 18.4795 195.357 18.4233 195.723 18.4233C196.392 18.4233 196.973 18.5942 197.466 18.936C197.964 19.2729 198.35 19.7466 198.624 20.3569C198.897 20.9673 199.034 21.6826 199.034 22.5029V22.5176C199.034 23.3428 198.897 24.0605 198.624 24.6709C198.35 25.2812 197.964 25.7549 197.466 26.0918C196.973 26.4287 196.392 26.5972 195.723 26.5972C195.362 26.5972 195.02 26.541 194.698 26.4287C194.38 26.3115 194.097 26.1504 193.848 25.9453C193.604 25.7402 193.409 25.4961 193.262 25.2129H193.145V29.0947H191.871ZM195.43 25.4692C195.914 25.4692 196.326 25.3521 196.668 25.1177C197.01 24.8784 197.271 24.5391 197.452 24.0996C197.637 23.6553 197.73 23.1279 197.73 22.5176V22.5029C197.73 21.8877 197.637 21.3604 197.452 20.9209C197.271 20.4814 197.01 20.1445 196.668 19.9102C196.326 19.6709 195.914 19.5513 195.43 19.5513C194.952 19.5513 194.539 19.6709 194.192 19.9102C193.846 20.1494 193.58 20.4888 193.394 20.9282C193.208 21.3677 193.116 21.8926 193.116 22.5029V22.5176C193.116 23.123 193.208 23.6479 193.394 24.0923C193.58 24.5317 193.846 24.8711 194.192 25.1104C194.539 25.3496 194.952 25.4692 195.43 25.4692ZM204.271 26.5972C203.523 26.5972 202.876 26.4336 202.33 26.1064C201.788 25.7744 201.368 25.3032 201.07 24.6929C200.777 24.0825 200.63 23.3574 200.63 22.5176V22.5029C200.63 21.6582 200.777 20.9307 201.07 20.3203C201.368 19.71 201.788 19.2412 202.33 18.9141C202.876 18.5869 203.523 18.4233 204.271 18.4233C205.022 18.4233 205.669 18.5869 206.211 18.9141C206.753 19.2412 207.171 19.71 207.464 20.3203C207.762 20.9307 207.911 21.6582 207.911 22.5029V22.5176C207.911 23.3574 207.762 24.0825 207.464 24.6929C207.171 25.3032 206.753 25.7744 206.211 26.1064C205.669 26.4336 205.022 26.5972 204.271 26.5972ZM204.271 25.4692C204.769 25.4692 205.191 25.3521 205.538 25.1177C205.884 24.8833 206.148 24.5464 206.329 24.1069C206.514 23.6675 206.607 23.1377 206.607 22.5176V22.5029C206.607 21.8779 206.514 21.3457 206.329 20.9062C206.148 20.4668 205.884 20.1323 205.538 19.9028C205.191 19.6685 204.769 19.5513 204.271 19.5513C203.772 19.5513 203.35 19.6685 203.003 19.9028C202.657 20.1323 202.391 20.4668 202.205 20.9062C202.024 21.3457 201.934 21.8779 201.934 22.5029V22.5176C201.934 23.1377 202.024 23.6675 202.205 24.1069C202.391 24.5464 202.657 24.8833 203.003 25.1177C203.35 25.3521 203.772 25.4692 204.271 25.4692ZM209.888 26.458V18.5625H211.163V19.7344H211.28C211.431 19.3193 211.688 18.9971 212.049 18.7676C212.41 18.5381 212.857 18.4233 213.389 18.4233C213.511 18.4233 213.631 18.4307 213.748 18.4453C213.87 18.4551 213.963 18.4648 214.026 18.4746V19.7124C213.895 19.688 213.765 19.6709 213.638 19.6611C213.516 19.6465 213.384 19.6392 213.243 19.6392C212.837 19.6392 212.479 19.7197 212.166 19.8809C211.854 20.042 211.607 20.2666 211.426 20.5547C211.25 20.8428 211.163 21.1797 211.163 21.5654V26.458H209.888ZM218.604 26.5972C217.852 26.5972 217.205 26.4312 216.663 26.0991C216.126 25.7671 215.711 25.2983 215.418 24.6929C215.13 24.0825 214.986 23.3647 214.986 22.5396V22.5322C214.986 21.7168 215.13 21.0015 215.418 20.3862C215.711 19.771 216.124 19.29 216.656 18.9434C217.188 18.5967 217.811 18.4233 218.523 18.4233C219.241 18.4233 219.856 18.5894 220.369 18.9214C220.887 19.2534 221.282 19.7173 221.556 20.313C221.834 20.9038 221.973 21.5923 221.973 22.3784V22.8765H215.645V21.8584H221.321L220.691 22.7886V22.2832C220.691 21.6631 220.599 21.1528 220.413 20.7524C220.228 20.3521 219.971 20.0542 219.644 19.8589C219.317 19.6587 218.941 19.5586 218.516 19.5586C218.091 19.5586 217.71 19.6636 217.374 19.8735C217.042 20.0786 216.778 20.3838 216.583 20.7891C216.387 21.1943 216.29 21.6924 216.29 22.2832V22.7886C216.29 23.3501 216.385 23.8311 216.575 24.2314C216.766 24.627 217.037 24.9321 217.388 25.147C217.74 25.3569 218.155 25.4619 218.633 25.4619C218.99 25.4619 219.3 25.4131 219.563 25.3154C219.827 25.2178 220.044 25.0933 220.215 24.9419C220.386 24.7905 220.506 24.6367 220.574 24.4805L220.604 24.4146H221.878L221.863 24.4731C221.795 24.7417 221.673 25.0029 221.497 25.2568C221.326 25.5059 221.104 25.7329 220.831 25.938C220.557 26.1382 220.232 26.2993 219.856 26.4214C219.485 26.5386 219.068 26.5972 218.604 26.5972Z" fill="white"/>
</g>
<defs>
<linearGradient id="paint0_linear_732_998" x1="101.95" y1="-20.1464" x2="101.95" y2="63.1337" gradientUnits="userSpaceOnUse">
<stop offset="0.4" stop-opacity="0"/>
<stop offset="1" stop-opacity="0.7"/>
</linearGradient>
<clipPath id="clip0_732_998">
<path d="M0 0.458008H235V34.458C235 38.8763 231.418 42.458 227 42.458H8C3.58172 42.458 0 38.8763 0 34.458V0.458008Z" fill="white"/>
</clipPath>
</defs>
</svg>
