<svg width="235" height="42" viewBox="0 0 235 42" fill="none" xmlns="http://www.w3.org/2000/svg">
<rect y="1.36523" width="235" height="40.6348" fill="url(#paint0_linear_732_902)"/>
<path d="M27.6873 20.6956C27.6641 20.645 27.1166 19.4294 25.9073 18.22C24.2891 16.6044 22.2498 15.75 19.9998 15.75C17.7498 15.75 15.7104 16.6044 14.0941 18.22C12.8848 19.4294 12.3373 20.645 12.3123 20.6956C12.2699 20.7916 12.248 20.8954 12.248 21.0003C12.248 21.1052 12.2699 21.209 12.3123 21.305C12.3354 21.3563 12.8829 22.5713 14.0929 23.7806C15.7104 25.3963 17.7498 26.25 19.9998 26.25C22.2498 26.25 24.2891 25.3963 25.9048 23.7806C27.1148 22.5713 27.6623 21.3563 27.6854 21.305C27.728 21.2091 27.7502 21.1054 27.7505 21.0005C27.7509 20.8956 27.7293 20.7918 27.6873 20.6956ZM24.8085 22.7581C23.4666 24.0794 21.8491 24.75 19.9998 24.75C18.1504 24.75 16.5329 24.0794 15.1929 22.7575C14.6656 22.2358 14.212 21.6445 13.8448 21C14.2121 20.3558 14.6657 19.7647 15.1929 19.2431C16.5335 17.9206 18.1504 17.25 19.9998 17.25C21.8491 17.25 23.466 17.9206 24.8066 19.2431C25.3339 19.7647 25.7874 20.3557 26.1548 21C25.7874 21.6444 25.3339 22.2357 24.8066 22.7575L24.8085 22.7581ZM19.9998 18.25C19.4559 18.25 18.9242 18.4113 18.4719 18.7135C18.0197 19.0156 17.6672 19.4451 17.4591 19.9476C17.2509 20.4501 17.1965 21.0031 17.3026 21.5365C17.4087 22.0699 17.6706 22.5599 18.0552 22.9445C18.4398 23.3291 18.9298 23.5911 19.4633 23.6972C19.9967 23.8033 20.5496 23.7488 21.0521 23.5407C21.5546 23.3325 21.9841 22.9801 22.2863 22.5278C22.5885 22.0756 22.7498 21.5439 22.7498 21C22.7489 20.2709 22.4589 19.5719 21.9434 19.0564C21.4278 18.5408 20.7288 18.2508 19.9998 18.25ZM19.9998 22.25C19.7525 22.25 19.5109 22.1767 19.3053 22.0393C19.0997 21.902 18.9395 21.7068 18.8449 21.4784C18.7503 21.2499 18.7255 20.9986 18.7738 20.7561C18.822 20.5137 18.9411 20.2909 19.1159 20.1161C19.2907 19.9413 19.5134 19.8222 19.7559 19.774C19.9984 19.7258 20.2497 19.7505 20.4781 19.8452C20.7065 19.9398 20.9017 20.1 21.0391 20.3055C21.1764 20.5111 21.2498 20.7528 21.2498 21C21.2498 21.3315 21.1181 21.6495 20.8836 21.8839C20.6492 22.1183 20.3313 22.25 19.9998 22.25Z" fill="white"/>
<path d="M35.541 26.1465C33.5342 26.1465 32.0254 24.9233 31.9521 23.2314H33.5195C33.6074 24.1323 34.4717 24.7915 35.541 24.7988C36.8301 24.7915 37.7529 23.8613 37.7529 22.6016C37.7529 21.3125 36.8008 20.375 35.4678 20.3604C34.6182 20.3604 33.9663 20.646 33.6074 21.2979H32.084L32.7725 15.3945H38.7783V16.7715H34.1055L33.7539 19.7451H33.8564C34.2959 19.3203 35.043 19.0347 35.8486 19.0273C37.8481 19.0347 39.3203 20.5142 39.3203 22.5576C39.3203 24.645 37.7529 26.1465 35.541 26.1465ZM44.7256 26.1465C42.272 26.1465 40.8291 24.1689 40.8291 20.6973C40.8291 17.2476 42.2866 15.248 44.7256 15.248C47.1572 15.248 48.6147 17.2476 48.6221 20.6973C48.6147 24.1689 47.1792 26.1465 44.7256 26.1465ZM42.4404 20.6973C42.4331 23.3413 43.29 24.7549 44.7256 24.7549C46.1538 24.7549 47.0107 23.3413 47.0107 20.6973C47.0107 18.0605 46.1465 16.6177 44.7256 16.6104C43.2974 16.6177 42.4404 18.0605 42.4404 20.6973ZM50.9365 26.1025C50.3652 26.0952 49.8892 25.6338 49.8965 25.0625C49.8892 24.4912 50.3652 24.0225 50.9365 24.0225C51.5005 24.0225 51.9692 24.4912 51.9766 25.0625C51.9692 25.6338 51.5005 26.0952 50.9365 26.1025ZM57.3672 15.248C59.3154 15.2627 61.3589 16.4346 61.3662 20.3164C61.3662 24.0371 59.7622 26.1465 57.2207 26.1465C55.2651 26.1465 53.9028 24.938 53.6465 23.2168H55.2432C55.4629 24.1104 56.1514 24.7329 57.2207 24.7402C58.854 24.7329 59.8135 23.312 59.8281 20.8877H59.6963C59.125 21.7812 58.1289 22.3232 56.9863 22.3232C55.082 22.3232 53.5586 20.8657 53.5586 18.8369C53.5586 16.8154 55.0601 15.2334 57.3672 15.248ZM55.126 18.8076C55.1333 20.0381 56.0488 21.0122 57.3379 21.0049C58.6196 21.0122 59.6084 19.9648 59.6084 18.793C59.6084 17.6431 58.6636 16.5957 57.3672 16.5957C56.0854 16.5957 55.1187 17.5918 55.126 18.8076ZM63.2119 26V15.3945H64.8232V20.4482H64.9551L69.3936 15.3945H71.415L67.1377 20.1699L71.4297 26H69.4814L66.0684 21.2686L64.8232 22.7041V26H63.2119Z" fill="white"/>
<path d="M93.3124 23.8912C93.2324 23.8336 93.1419 23.7924 93.0459 23.7698C92.9499 23.7472 92.8505 23.7438 92.7532 23.7597C92.6559 23.7756 92.5627 23.8105 92.4789 23.8625C92.3951 23.9145 92.3224 23.9824 92.2649 24.0625C92.2037 24.1483 92.1401 24.2317 92.0743 24.3125C91.6249 23.5598 90.976 22.9461 90.1993 22.5394C90.5967 22.1113 90.8606 21.5764 90.9584 21.0005C91.0562 20.4246 90.9837 19.8327 90.7499 19.2974C90.5161 18.7621 90.131 18.3067 89.6421 17.9871C89.1531 17.6675 88.5815 17.4976 87.9973 17.4982C87.4132 17.4989 86.8419 17.6701 86.3537 17.9908C85.8654 18.3115 85.4814 18.7678 85.2488 19.3036C85.0162 19.8395 84.9451 20.4316 85.0442 21.0073C85.1433 21.583 85.4084 22.1172 85.8068 22.5444C85.0312 22.9506 84.3816 23.5611 83.928 24.31C83.2931 23.5315 82.896 22.5865 82.7843 21.5881C82.9333 21.7154 83.1261 21.7793 83.3216 21.7662C83.5171 21.7531 83.6997 21.664 83.8303 21.518C83.961 21.372 84.0293 21.1807 84.0207 20.9849C84.0121 20.7892 83.9272 20.6046 83.7843 20.4706L82.5343 19.2206C82.4646 19.1507 82.3818 19.0952 82.2907 19.0574C82.1995 19.0195 82.1018 19 82.003 19C81.9043 19 81.8066 19.0195 81.7154 19.0574C81.6243 19.0952 81.5415 19.1507 81.4718 19.2206L80.2218 20.4706C80.0857 20.6113 80.0099 20.7996 80.0107 20.9954C80.0116 21.1911 80.0889 21.3788 80.2262 21.5183C80.3635 21.6578 80.5499 21.7381 80.7456 21.742C80.9414 21.746 81.1309 21.6733 81.2737 21.5394C81.3447 22.4236 81.5895 23.2851 81.994 24.0746C82.3985 24.8641 82.9549 25.5659 83.6312 26.14C83.667 26.1765 83.7063 26.2094 83.7487 26.2381C84.9541 27.2196 86.4618 27.7541 88.0163 27.7512C89.5707 27.7482 91.0764 27.2079 92.278 26.2219C92.3061 26.2015 92.3328 26.1794 92.358 26.1556C92.7817 25.7981 93.1596 25.3896 93.483 24.9394C93.5408 24.8594 93.5822 24.7688 93.6048 24.6728C93.6275 24.5768 93.631 24.4773 93.6152 24.3799C93.5993 24.2826 93.5644 24.1893 93.5125 24.1054C93.4605 24.0216 93.3925 23.9488 93.3124 23.8912ZM87.9999 19C88.2966 19 88.5866 19.088 88.8333 19.2528C89.08 19.4176 89.2722 19.6519 89.3857 19.926C89.4993 20.2001 89.529 20.5017 89.4711 20.7926C89.4132 21.0836 89.2704 21.3509 89.0606 21.5607C88.8508 21.7704 88.5835 21.9133 88.2926 21.9712C88.0016 22.0291 87.7 21.9994 87.4259 21.8858C87.1518 21.7723 86.9175 21.58 86.7527 21.3334C86.5879 21.0867 86.4999 20.7967 86.4999 20.5C86.4999 20.1022 86.658 19.7206 86.9393 19.4393C87.2206 19.158 87.6021 19 87.9999 19ZM87.9999 26.25C86.9541 26.2513 85.932 25.9384 85.0662 25.3519C85.3304 24.7976 85.7461 24.3296 86.2653 24.0019C86.7845 23.6742 87.386 23.5003 87.9999 23.5003C88.6139 23.5003 89.2153 23.6742 89.7345 24.0019C90.2537 24.3296 90.6695 24.7976 90.9337 25.3519C90.0669 25.9365 89.0454 26.2492 87.9999 26.25ZM95.7805 21.5306L94.5305 22.7806C94.4609 22.8505 94.3781 22.906 94.2869 22.9439C94.1957 22.9817 94.098 23.0012 93.9993 23.0012C93.9006 23.0012 93.8028 22.9817 93.7117 22.9439C93.6205 22.906 93.5377 22.8505 93.468 22.7806L92.218 21.5306C92.0751 21.3966 91.9902 21.2121 91.9816 21.0163C91.973 20.8206 92.0414 20.6293 92.172 20.4833C92.3027 20.3373 92.4853 20.2482 92.6807 20.2351C92.8762 20.222 93.0691 20.2859 93.218 20.4131C93.1001 19.358 92.6651 18.3635 91.9703 17.5607C91.2755 16.7579 90.3537 16.1846 89.3265 15.9165C88.2992 15.6484 87.2148 15.698 86.2163 16.0588C85.2179 16.4196 84.3522 17.0746 83.7337 17.9375C83.6776 18.0208 83.6053 18.0919 83.5212 18.1468C83.4371 18.2016 83.3428 18.239 83.244 18.2567C83.1452 18.2744 83.0438 18.2721 82.9459 18.2499C82.848 18.2277 82.7555 18.1861 82.6739 18.1275C82.5924 18.0689 82.5235 17.9945 82.4712 17.9088C82.419 17.8231 82.3845 17.7277 82.3697 17.6284C82.355 17.5291 82.3604 17.4278 82.3856 17.3306C82.4107 17.2334 82.4551 17.1422 82.5162 17.0625C83.3226 15.9389 84.4547 15.0902 85.7593 14.6311C87.0639 14.172 88.478 14.1247 89.8103 14.4956C91.1427 14.8665 92.3289 15.6378 93.2086 16.705C94.0883 17.7722 94.6189 19.0838 94.7287 20.4625C94.8715 20.3286 95.061 20.2559 95.2567 20.2598C95.4524 20.2638 95.6388 20.3441 95.7761 20.4836C95.9134 20.6231 95.9908 20.8108 95.9916 21.0065C95.9924 21.2023 95.9167 21.3906 95.7805 21.5312V21.5306Z" fill="white"/>
<path d="M103.702 26.1465C101.505 26.1465 99.9448 24.9673 99.8789 23.2314H101.52C101.578 24.1616 102.501 24.7549 103.688 24.7549C104.969 24.7549 105.899 24.0591 105.899 23.0264C105.899 21.979 105.028 21.2319 103.512 21.2246H102.604V19.9062H103.512C104.72 19.9136 105.562 19.2397 105.562 18.2217C105.562 17.2549 104.837 16.5957 103.717 16.5957C102.655 16.5957 101.703 17.189 101.666 18.1484H100.113C100.157 16.4199 101.754 15.248 103.731 15.248C105.819 15.248 107.13 16.5664 107.115 18.1338C107.13 19.3423 106.383 20.2065 105.24 20.4922V20.5654C106.69 20.7705 107.533 21.7446 107.525 23.085C107.533 24.8501 105.899 26.1465 103.702 26.1465Z" fill="white"/>
<path d="M141 14C139.542 14.0017 138.144 14.5816 137.113 15.6127C136.082 16.6438 135.502 18.0418 135.5 19.5C135.5 24.2063 140.5 27.7606 140.713 27.9094C140.797 27.9683 140.897 27.9999 141 27.9999C141.103 27.9999 141.203 27.9683 141.287 27.9094C141.5 27.7606 146.5 24.2063 146.5 19.5C146.498 18.0418 145.918 16.6438 144.887 15.6127C143.856 14.5816 142.458 14.0017 141 14ZM141 17.5C141.396 17.5 141.782 17.6173 142.111 17.8371C142.44 18.0568 142.696 18.3692 142.848 18.7346C142.999 19.1001 143.039 19.5022 142.962 19.8902C142.884 20.2781 142.694 20.6345 142.414 20.9142C142.135 21.1939 141.778 21.3844 141.39 21.4616C141.002 21.5387 140.6 21.4991 140.235 21.3478C139.869 21.1964 139.557 20.94 139.337 20.6111C139.117 20.2822 139 19.8956 139 19.5C139 18.9696 139.211 18.4609 139.586 18.0858C139.961 17.7107 140.47 17.5 141 17.5Z" fill="#FF5924"/>
<path d="M156.048 26.249C155.276 26.249 154.603 26.1245 154.026 25.8755C153.455 25.6216 153.001 25.2749 152.664 24.8354C152.332 24.3911 152.139 23.8833 152.085 23.312L152.078 23.2314H153.396L153.404 23.312C153.438 23.6636 153.572 23.9688 153.807 24.2275C154.046 24.4814 154.363 24.6792 154.759 24.8208C155.159 24.9624 155.613 25.0332 156.121 25.0332C156.6 25.0332 157.024 24.9575 157.396 24.8062C157.771 24.6499 158.067 24.4351 158.282 24.1616C158.497 23.8882 158.604 23.5732 158.604 23.2168V23.2095C158.604 22.77 158.443 22.4014 158.121 22.1035C157.798 21.8008 157.273 21.5688 156.546 21.4077L155.374 21.1514C154.314 20.917 153.543 20.5557 153.06 20.0674C152.581 19.5742 152.342 18.9443 152.342 18.1777V18.1704C152.347 17.5845 152.505 17.0669 152.818 16.6177C153.135 16.1685 153.572 15.8169 154.129 15.563C154.69 15.3091 155.335 15.1821 156.062 15.1821C156.766 15.1821 157.388 15.3091 157.93 15.563C158.472 15.812 158.902 16.1489 159.219 16.5737C159.542 16.9985 159.72 17.4746 159.754 18.002L159.761 18.1045H158.443L158.428 18.0093C158.379 17.6968 158.252 17.4209 158.047 17.1816C157.842 16.9375 157.569 16.7446 157.227 16.603C156.885 16.4614 156.485 16.3931 156.026 16.3979C155.586 16.3979 155.191 16.4663 154.839 16.603C154.488 16.7397 154.207 16.9375 153.997 17.1963C153.792 17.4502 153.689 17.7627 153.689 18.1338V18.1411C153.689 18.561 153.846 18.915 154.158 19.2031C154.471 19.4912 154.986 19.7134 155.704 19.8696L156.875 20.1333C157.613 20.2944 158.206 20.5044 158.655 20.7632C159.104 21.022 159.432 21.3394 159.637 21.7153C159.847 22.0864 159.952 22.5259 159.952 23.0337V23.041C159.952 23.7002 159.791 24.269 159.468 24.7476C159.146 25.2261 158.692 25.5972 158.106 25.8608C157.52 26.1196 156.834 26.249 156.048 26.249ZM162.017 26V18.1045H163.292V26H162.017ZM162.662 16.5811C162.422 16.5811 162.215 16.4956 162.039 16.3247C161.868 16.1489 161.783 15.9414 161.783 15.7021C161.783 15.458 161.868 15.2505 162.039 15.0796C162.215 14.9087 162.422 14.8232 162.662 14.8232C162.906 14.8232 163.113 14.9087 163.284 15.0796C163.455 15.2505 163.541 15.458 163.541 15.7021C163.541 15.9414 163.455 16.1489 163.284 16.3247C163.113 16.4956 162.906 16.5811 162.662 16.5811ZM165.694 26V18.1045H166.968V19.291H167.085C167.286 18.8711 167.574 18.5464 167.95 18.3169C168.326 18.0825 168.804 17.9653 169.385 17.9653C170.274 17.9653 170.955 18.2192 171.429 18.7271C171.907 19.23 172.146 19.9502 172.146 20.8877V26H170.872V21.1953C170.872 20.4824 170.721 19.9551 170.418 19.6133C170.12 19.2666 169.656 19.0933 169.026 19.0933C168.606 19.0933 168.243 19.1836 167.935 19.3643C167.627 19.5449 167.388 19.8013 167.217 20.1333C167.051 20.4653 166.968 20.8633 166.968 21.3271V26H165.694ZM177.706 28.7832C177.071 28.7832 176.517 28.6929 176.043 28.5122C175.569 28.3364 175.191 28.085 174.908 27.7578C174.629 27.4355 174.456 27.0596 174.388 26.6299L174.402 26.6226H175.721L175.728 26.6299C175.796 26.9277 176.001 27.1719 176.343 27.3623C176.685 27.5576 177.139 27.6553 177.706 27.6553C178.414 27.6553 178.965 27.4941 179.361 27.1719C179.761 26.8545 179.961 26.4053 179.961 25.8242V24.2275H179.844C179.678 24.5156 179.471 24.7622 179.222 24.9673C178.973 25.1724 178.692 25.3286 178.379 25.436C178.067 25.5386 177.73 25.5898 177.369 25.5898C176.69 25.5898 176.102 25.4287 175.604 25.1064C175.11 24.7793 174.729 24.3301 174.461 23.7588C174.192 23.1875 174.058 22.5332 174.058 21.7959V21.7812C174.058 21.0439 174.192 20.3896 174.461 19.8184C174.734 19.2422 175.12 18.7905 175.618 18.4634C176.116 18.1313 176.709 17.9653 177.398 17.9653C177.769 17.9653 178.111 18.0239 178.423 18.1411C178.736 18.2583 179.012 18.4243 179.251 18.6392C179.495 18.854 179.698 19.1104 179.859 19.4082H179.947V18.1045H181.221V25.8901C181.221 26.4761 181.077 26.9863 180.789 27.4209C180.506 27.8555 180.101 28.1899 179.573 28.4243C179.046 28.6636 178.423 28.7832 177.706 28.7832ZM177.647 24.4619C178.135 24.4619 178.553 24.3496 178.899 24.125C179.251 23.8955 179.52 23.5806 179.705 23.1802C179.896 22.7798 179.991 22.3184 179.991 21.7959V21.7812C179.991 21.2588 179.896 20.7949 179.705 20.3896C179.52 19.9844 179.251 19.667 178.899 19.4375C178.553 19.208 178.135 19.0933 177.647 19.0933C177.159 19.0933 176.744 19.208 176.402 19.4375C176.065 19.667 175.806 19.9844 175.625 20.3896C175.45 20.7949 175.362 21.2588 175.362 21.7812V21.7959C175.362 22.3184 175.45 22.7798 175.625 23.1802C175.806 23.5806 176.065 23.8955 176.402 24.125C176.744 24.3496 177.159 24.4619 177.647 24.4619ZM185.762 26.1392C185.264 26.1392 184.815 26.0439 184.415 25.8535C184.019 25.6631 183.704 25.3921 183.47 25.0405C183.24 24.689 183.125 24.2739 183.125 23.7954V23.7808C183.125 23.312 183.238 22.9116 183.462 22.5796C183.687 22.2427 184.014 21.979 184.444 21.7886C184.874 21.5981 185.394 21.4858 186.004 21.4517L188.904 21.2759V22.2939L186.158 22.4697C185.557 22.5039 185.118 22.6284 184.839 22.8433C184.566 23.0581 184.429 23.3608 184.429 23.7515V23.7661C184.429 24.1665 184.581 24.479 184.883 24.7036C185.186 24.9233 185.567 25.0332 186.026 25.0332C186.46 25.0332 186.846 24.9478 187.183 24.7769C187.52 24.6011 187.784 24.3643 187.974 24.0664C188.169 23.7686 188.267 23.4316 188.267 23.0557V20.5947C188.267 20.1064 188.118 19.7354 187.82 19.4814C187.527 19.2227 187.085 19.0933 186.495 19.0933C186.021 19.0933 185.633 19.1787 185.33 19.3496C185.027 19.5156 184.825 19.7524 184.722 20.0601L184.715 20.082H183.44L183.448 20.0381C183.516 19.623 183.687 19.2617 183.96 18.9541C184.239 18.6416 184.598 18.3999 185.037 18.229C185.477 18.0532 185.977 17.9653 186.539 17.9653C187.183 17.9653 187.728 18.0703 188.172 18.2803C188.621 18.4902 188.96 18.793 189.19 19.1885C189.424 19.5791 189.542 20.0479 189.542 20.5947V26H188.267V24.8354H188.15C187.984 25.1138 187.781 25.3506 187.542 25.5459C187.308 25.7412 187.042 25.8901 186.744 25.9927C186.446 26.0903 186.119 26.1392 185.762 26.1392ZM191.871 28.6367V18.1045H193.145V19.3643H193.262C193.423 19.0713 193.626 18.8223 193.87 18.6172C194.114 18.4072 194.393 18.2461 194.705 18.1338C195.018 18.0215 195.357 17.9653 195.723 17.9653C196.392 17.9653 196.973 18.1362 197.466 18.478C197.964 18.8149 198.35 19.2886 198.624 19.8989C198.897 20.5093 199.034 21.2246 199.034 22.0449V22.0596C199.034 22.8848 198.897 23.6025 198.624 24.2129C198.35 24.8232 197.964 25.2969 197.466 25.6338C196.973 25.9707 196.392 26.1392 195.723 26.1392C195.362 26.1392 195.02 26.083 194.698 25.9707C194.38 25.8535 194.097 25.6924 193.848 25.4873C193.604 25.2822 193.409 25.0381 193.262 24.7549H193.145V28.6367H191.871ZM195.43 25.0112C195.914 25.0112 196.326 24.894 196.668 24.6597C197.01 24.4204 197.271 24.0811 197.452 23.6416C197.637 23.1973 197.73 22.6699 197.73 22.0596V22.0449C197.73 21.4297 197.637 20.9023 197.452 20.4629C197.271 20.0234 197.01 19.6865 196.668 19.4521C196.326 19.2129 195.914 19.0933 195.43 19.0933C194.952 19.0933 194.539 19.2129 194.192 19.4521C193.846 19.6914 193.58 20.0308 193.394 20.4702C193.208 20.9097 193.116 21.4346 193.116 22.0449V22.0596C193.116 22.665 193.208 23.1899 193.394 23.6343C193.58 24.0737 193.846 24.4131 194.192 24.6523C194.539 24.8916 194.952 25.0112 195.43 25.0112ZM204.271 26.1392C203.523 26.1392 202.876 25.9756 202.33 25.6484C201.788 25.3164 201.368 24.8452 201.07 24.2349C200.777 23.6245 200.63 22.8994 200.63 22.0596V22.0449C200.63 21.2002 200.777 20.4727 201.07 19.8623C201.368 19.252 201.788 18.7832 202.33 18.4561C202.876 18.1289 203.523 17.9653 204.271 17.9653C205.022 17.9653 205.669 18.1289 206.211 18.4561C206.753 18.7832 207.171 19.252 207.464 19.8623C207.762 20.4727 207.911 21.2002 207.911 22.0449V22.0596C207.911 22.8994 207.762 23.6245 207.464 24.2349C207.171 24.8452 206.753 25.3164 206.211 25.6484C205.669 25.9756 205.022 26.1392 204.271 26.1392ZM204.271 25.0112C204.769 25.0112 205.191 24.894 205.538 24.6597C205.884 24.4253 206.148 24.0884 206.329 23.6489C206.514 23.2095 206.607 22.6797 206.607 22.0596V22.0449C206.607 21.4199 206.514 20.8877 206.329 20.4482C206.148 20.0088 205.884 19.6743 205.538 19.4448C205.191 19.2104 204.769 19.0933 204.271 19.0933C203.772 19.0933 203.35 19.2104 203.003 19.4448C202.657 19.6743 202.391 20.0088 202.205 20.4482C202.024 20.8877 201.934 21.4199 201.934 22.0449V22.0596C201.934 22.6797 202.024 23.2095 202.205 23.6489C202.391 24.0884 202.657 24.4253 203.003 24.6597C203.35 24.894 203.772 25.0112 204.271 25.0112ZM209.888 26V18.1045H211.163V19.2764H211.28C211.431 18.8613 211.688 18.5391 212.049 18.3096C212.41 18.0801 212.857 17.9653 213.389 17.9653C213.511 17.9653 213.631 17.9727 213.748 17.9873C213.87 17.9971 213.963 18.0068 214.026 18.0166V19.2544C213.895 19.23 213.765 19.2129 213.638 19.2031C213.516 19.1885 213.384 19.1812 213.243 19.1812C212.837 19.1812 212.479 19.2617 212.166 19.4229C211.854 19.584 211.607 19.8086 211.426 20.0967C211.25 20.3848 211.163 20.7217 211.163 21.1074V26H209.888ZM218.604 26.1392C217.852 26.1392 217.205 25.9731 216.663 25.6411C216.126 25.3091 215.711 24.8403 215.418 24.2349C215.13 23.6245 214.986 22.9067 214.986 22.0815V22.0742C214.986 21.2588 215.13 20.5435 215.418 19.9282C215.711 19.313 216.124 18.832 216.656 18.4854C217.188 18.1387 217.811 17.9653 218.523 17.9653C219.241 17.9653 219.856 18.1313 220.369 18.4634C220.887 18.7954 221.282 19.2593 221.556 19.855C221.834 20.4458 221.973 21.1343 221.973 21.9204V22.4185H215.645V21.4004H221.321L220.691 22.3306V21.8252C220.691 21.2051 220.599 20.6948 220.413 20.2944C220.228 19.894 219.971 19.5962 219.644 19.4009C219.317 19.2007 218.941 19.1006 218.516 19.1006C218.091 19.1006 217.71 19.2056 217.374 19.4155C217.042 19.6206 216.778 19.9258 216.583 20.3311C216.387 20.7363 216.29 21.2344 216.29 21.8252V22.3306C216.29 22.8921 216.385 23.373 216.575 23.7734C216.766 24.1689 217.037 24.4741 217.388 24.689C217.74 24.8989 218.155 25.0039 218.633 25.0039C218.99 25.0039 219.3 24.9551 219.563 24.8574C219.827 24.7598 220.044 24.6353 220.215 24.4839C220.386 24.3325 220.506 24.1787 220.574 24.0225L220.604 23.9565H221.878L221.863 24.0151C221.795 24.2837 221.673 24.5449 221.497 24.7988C221.326 25.0479 221.104 25.2749 220.831 25.48C220.557 25.6802 220.232 25.8413 219.856 25.9634C219.485 26.0806 219.068 26.1392 218.604 26.1392Z" fill="white"/>
<defs>
<linearGradient id="paint0_linear_732_902" x1="101.95" y1="-20.6044" x2="101.95" y2="62.6756" gradientUnits="userSpaceOnUse">
<stop offset="0.4" stop-opacity="0"/>
<stop offset="1" stop-opacity="0.7"/>
</linearGradient>
</defs>
</svg>
