<svg width="235" height="42" viewBox="0 0 235 42" fill="none" xmlns="http://www.w3.org/2000/svg">
<rect y="1.36523" width="235" height="40.6348" fill="url(#paint0_linear_732_918)"/>
<path d="M27.6873 20.6956C27.6641 20.645 27.1166 19.4294 25.9073 18.22C24.2891 16.6044 22.2498 15.75 19.9998 15.75C17.7498 15.75 15.7104 16.6044 14.0941 18.22C12.8848 19.4294 12.3373 20.645 12.3123 20.6956C12.2699 20.7916 12.248 20.8954 12.248 21.0003C12.248 21.1052 12.2699 21.209 12.3123 21.305C12.3354 21.3563 12.8829 22.5713 14.0929 23.7806C15.7104 25.3963 17.7498 26.25 19.9998 26.25C22.2498 26.25 24.2891 25.3963 25.9048 23.7806C27.1148 22.5713 27.6623 21.3563 27.6854 21.305C27.728 21.2091 27.7502 21.1054 27.7505 21.0005C27.7509 20.8956 27.7293 20.7918 27.6873 20.6956ZM24.8085 22.7581C23.4666 24.0794 21.8491 24.75 19.9998 24.75C18.1504 24.75 16.5329 24.0794 15.1929 22.7575C14.6656 22.2358 14.212 21.6445 13.8448 21C14.2121 20.3558 14.6657 19.7647 15.1929 19.2431C16.5335 17.9206 18.1504 17.25 19.9998 17.25C21.8491 17.25 23.466 17.9206 24.8066 19.2431C25.3339 19.7647 25.7874 20.3557 26.1548 21C25.7874 21.6444 25.3339 22.2357 24.8066 22.7575L24.8085 22.7581ZM19.9998 18.25C19.4559 18.25 18.9242 18.4113 18.4719 18.7135C18.0197 19.0156 17.6672 19.4451 17.4591 19.9476C17.2509 20.4501 17.1965 21.0031 17.3026 21.5365C17.4087 22.0699 17.6706 22.5599 18.0552 22.9445C18.4398 23.3291 18.9298 23.5911 19.4633 23.6972C19.9967 23.8033 20.5496 23.7488 21.0521 23.5407C21.5546 23.3325 21.9841 22.9801 22.2863 22.5278C22.5885 22.0756 22.7498 21.5439 22.7498 21C22.7489 20.2709 22.4589 19.5719 21.9434 19.0564C21.4278 18.5408 20.7288 18.2508 19.9998 18.25ZM19.9998 22.25C19.7525 22.25 19.5109 22.1767 19.3053 22.0393C19.0997 21.902 18.9395 21.7068 18.8449 21.4784C18.7503 21.2499 18.7255 20.9986 18.7738 20.7561C18.822 20.5137 18.9411 20.2909 19.1159 20.1161C19.2907 19.9413 19.5134 19.8222 19.7559 19.774C19.9984 19.7258 20.2497 19.7505 20.4781 19.8452C20.7065 19.9398 20.9017 20.1 21.0391 20.3055C21.1764 20.5111 21.2498 20.7528 21.2498 21C21.2498 21.3315 21.1181 21.6495 20.8836 21.8839C20.6492 22.1183 20.3313 22.25 19.9998 22.25Z" fill="white"/>
<path d="M32.3037 26L37.0352 16.8594V16.7715H31.5713V15.3945H38.7051V16.8301L33.9883 26H32.3037ZM40.3311 26V24.8281L44.0078 21.1221C45.1724 19.9136 45.751 19.2397 45.751 18.3096C45.751 17.2622 44.9014 16.5957 43.7881 16.5957C42.6089 16.5957 41.8618 17.3428 41.8545 18.4707H40.3311C40.3164 16.5298 41.7959 15.248 43.8174 15.248C45.8608 15.248 47.2744 16.5444 47.2891 18.2656C47.2744 19.4521 46.7178 20.397 44.7256 22.3525L42.5723 24.5352V24.623H47.4648V26H40.3311ZM50.292 26.1025C49.7207 26.0952 49.2446 25.6338 49.252 25.0625C49.2446 24.4912 49.7207 24.0225 50.292 24.0225C50.856 24.0225 51.3247 24.4912 51.332 25.0625C51.3247 25.6338 50.856 26.0952 50.292 26.1025ZM56.6348 26.1465C54.6279 26.1465 53.1191 24.9233 53.0459 23.2314H54.6133C54.7012 24.1323 55.5654 24.7915 56.6348 24.7988C57.9238 24.7915 58.8467 23.8613 58.8467 22.6016C58.8467 21.3125 57.8945 20.375 56.5615 20.3604C55.7119 20.3604 55.0601 20.646 54.7012 21.2979H53.1777L53.8662 15.3945H59.8721V16.7715H55.1992L54.8477 19.7451H54.9502C55.3896 19.3203 56.1367 19.0347 56.9424 19.0273C58.9419 19.0347 60.4141 20.5142 60.4141 22.5576C60.4141 24.645 58.8467 26.1465 56.6348 26.1465ZM62.2744 15.3945H64.2373L67.5918 23.6123H67.7236L71.0781 15.3945H73.041V26H71.5029V18.3389H71.4004L68.2949 25.9854H67.0205L63.9004 18.3242H63.8125V26H62.2744V15.3945Z" fill="white"/>
<path d="M96.3124 23.8912C96.2324 23.8336 96.1419 23.7924 96.0459 23.7698C95.9499 23.7472 95.8505 23.7438 95.7532 23.7597C95.6559 23.7756 95.5627 23.8105 95.4789 23.8625C95.3951 23.9145 95.3224 23.9824 95.2649 24.0625C95.2037 24.1483 95.1401 24.2317 95.0743 24.3125C94.6249 23.5598 93.976 22.9461 93.1993 22.5394C93.5967 22.1113 93.8606 21.5764 93.9584 21.0005C94.0562 20.4246 93.9837 19.8327 93.7499 19.2974C93.5161 18.7621 93.131 18.3067 92.6421 17.9871C92.1531 17.6675 91.5815 17.4976 90.9973 17.4982C90.4132 17.4989 89.8419 17.6701 89.3537 17.9908C88.8654 18.3115 88.4814 18.7678 88.2488 19.3036C88.0162 19.8395 87.9451 20.4316 88.0442 21.0073C88.1433 21.583 88.4084 22.1172 88.8068 22.5444C88.0312 22.9506 87.3816 23.5611 86.928 24.31C86.2931 23.5315 85.896 22.5865 85.7843 21.5881C85.9333 21.7154 86.1261 21.7793 86.3216 21.7662C86.5171 21.7531 86.6997 21.664 86.8303 21.518C86.961 21.372 87.0293 21.1807 87.0207 20.9849C87.0121 20.7892 86.9272 20.6046 86.7843 20.4706L85.5343 19.2206C85.4646 19.1507 85.3818 19.0952 85.2907 19.0574C85.1995 19.0195 85.1018 19 85.003 19C84.9043 19 84.8066 19.0195 84.7154 19.0574C84.6243 19.0952 84.5415 19.1507 84.4718 19.2206L83.2218 20.4706C83.0857 20.6113 83.0099 20.7996 83.0107 20.9954C83.0116 21.1911 83.0889 21.3788 83.2262 21.5183C83.3635 21.6578 83.5499 21.7381 83.7456 21.742C83.9414 21.746 84.1309 21.6733 84.2737 21.5394C84.3447 22.4236 84.5895 23.2851 84.994 24.0746C85.3985 24.8641 85.9549 25.5659 86.6312 26.14C86.667 26.1765 86.7063 26.2094 86.7487 26.2381C87.9541 27.2196 89.4618 27.7541 91.0163 27.7512C92.5707 27.7482 94.0764 27.2079 95.278 26.2219C95.3061 26.2015 95.3328 26.1794 95.358 26.1556C95.7817 25.7981 96.1596 25.3896 96.483 24.9394C96.5408 24.8594 96.5822 24.7688 96.6048 24.6728C96.6275 24.5768 96.631 24.4773 96.6152 24.3799C96.5993 24.2826 96.5644 24.1893 96.5125 24.1054C96.4605 24.0216 96.3925 23.9488 96.3124 23.8912ZM90.9999 19C91.2966 19 91.5866 19.088 91.8333 19.2528C92.08 19.4176 92.2722 19.6519 92.3857 19.926C92.4993 20.2001 92.529 20.5017 92.4711 20.7926C92.4132 21.0836 92.2704 21.3509 92.0606 21.5607C91.8508 21.7704 91.5835 21.9133 91.2926 21.9712C91.0016 22.0291 90.7 21.9994 90.4259 21.8858C90.1518 21.7723 89.9175 21.58 89.7527 21.3334C89.5879 21.0867 89.4999 20.7967 89.4999 20.5C89.4999 20.1022 89.658 19.7206 89.9393 19.4393C90.2206 19.158 90.6021 19 90.9999 19ZM90.9999 26.25C89.9541 26.2513 88.932 25.9384 88.0662 25.3519C88.3304 24.7976 88.7461 24.3296 89.2653 24.0019C89.7845 23.6742 90.386 23.5003 90.9999 23.5003C91.6139 23.5003 92.2153 23.6742 92.7345 24.0019C93.2537 24.3296 93.6695 24.7976 93.9337 25.3519C93.0669 25.9365 92.0454 26.2492 90.9999 26.25ZM98.7805 21.5306L97.5305 22.7806C97.4609 22.8505 97.3781 22.906 97.2869 22.9439C97.1957 22.9817 97.098 23.0012 96.9993 23.0012C96.9006 23.0012 96.8028 22.9817 96.7117 22.9439C96.6205 22.906 96.5377 22.8505 96.468 22.7806L95.218 21.5306C95.0751 21.3966 94.9902 21.2121 94.9816 21.0163C94.973 20.8206 95.0414 20.6293 95.172 20.4833C95.3027 20.3373 95.4853 20.2482 95.6807 20.2351C95.8762 20.222 96.0691 20.2859 96.218 20.4131C96.1001 19.358 95.6651 18.3635 94.9703 17.5607C94.2755 16.7579 93.3537 16.1846 92.3265 15.9165C91.2992 15.6484 90.2148 15.698 89.2163 16.0588C88.2179 16.4196 87.3522 17.0746 86.7337 17.9375C86.6776 18.0208 86.6053 18.0919 86.5212 18.1468C86.4371 18.2016 86.3428 18.239 86.244 18.2567C86.1452 18.2744 86.0438 18.2721 85.9459 18.2499C85.848 18.2277 85.7555 18.1861 85.6739 18.1275C85.5924 18.0689 85.5235 17.9945 85.4712 17.9088C85.419 17.8231 85.3845 17.7277 85.3697 17.6284C85.355 17.5291 85.3604 17.4278 85.3856 17.3306C85.4107 17.2334 85.4551 17.1422 85.5162 17.0625C86.3226 15.9389 87.4547 15.0902 88.7593 14.6311C90.0639 14.172 91.478 14.1247 92.8103 14.4956C94.1427 14.8665 95.3289 15.6378 96.2086 16.705C97.0883 17.7722 97.6189 19.0838 97.7287 20.4625C97.8715 20.3286 98.061 20.2559 98.2567 20.2598C98.4524 20.2638 98.6388 20.3441 98.7761 20.4836C98.9134 20.6231 98.9908 20.8108 98.9916 21.0065C98.9924 21.2023 98.9167 21.3906 98.7805 21.5312V21.5306Z" fill="white"/>
<path d="M106.541 26.1465C104.534 26.1465 103.025 24.9233 102.952 23.2314H104.52C104.607 24.1323 105.472 24.7915 106.541 24.7988C107.83 24.7915 108.753 23.8613 108.753 22.6016C108.753 21.3125 107.801 20.375 106.468 20.3604C105.618 20.3604 104.966 20.646 104.607 21.2979H103.084L103.772 15.3945H109.778V16.7715H105.105L104.754 19.7451H104.856C105.296 19.3203 106.043 19.0347 106.849 19.0273C108.848 19.0347 110.32 20.5142 110.32 22.5576C110.32 24.645 108.753 26.1465 106.541 26.1465Z" fill="white"/>
<path d="M141 14C139.542 14.0017 138.144 14.5816 137.113 15.6127C136.082 16.6438 135.502 18.0418 135.5 19.5C135.5 24.2063 140.5 27.7606 140.713 27.9094C140.797 27.9683 140.897 27.9999 141 27.9999C141.103 27.9999 141.203 27.9683 141.287 27.9094C141.5 27.7606 146.5 24.2063 146.5 19.5C146.498 18.0418 145.918 16.6438 144.887 15.6127C143.856 14.5816 142.458 14.0017 141 14ZM141 17.5C141.396 17.5 141.782 17.6173 142.111 17.8371C142.44 18.0568 142.696 18.3692 142.848 18.7346C142.999 19.1001 143.039 19.5022 142.962 19.8902C142.884 20.2781 142.694 20.6345 142.414 20.9142C142.135 21.1939 141.778 21.3844 141.39 21.4616C141.002 21.5387 140.6 21.4991 140.235 21.3478C139.869 21.1964 139.557 20.94 139.337 20.6111C139.117 20.2822 139 19.8956 139 19.5C139 18.9696 139.211 18.4609 139.586 18.0858C139.961 17.7107 140.47 17.5 141 17.5Z" fill="#FF5924"/>
<path d="M156.048 26.249C155.276 26.249 154.603 26.1245 154.026 25.8755C153.455 25.6216 153.001 25.2749 152.664 24.8354C152.332 24.3911 152.139 23.8833 152.085 23.312L152.078 23.2314H153.396L153.404 23.312C153.438 23.6636 153.572 23.9688 153.807 24.2275C154.046 24.4814 154.363 24.6792 154.759 24.8208C155.159 24.9624 155.613 25.0332 156.121 25.0332C156.6 25.0332 157.024 24.9575 157.396 24.8062C157.771 24.6499 158.067 24.4351 158.282 24.1616C158.497 23.8882 158.604 23.5732 158.604 23.2168V23.2095C158.604 22.77 158.443 22.4014 158.121 22.1035C157.798 21.8008 157.273 21.5688 156.546 21.4077L155.374 21.1514C154.314 20.917 153.543 20.5557 153.06 20.0674C152.581 19.5742 152.342 18.9443 152.342 18.1777V18.1704C152.347 17.5845 152.505 17.0669 152.818 16.6177C153.135 16.1685 153.572 15.8169 154.129 15.563C154.69 15.3091 155.335 15.1821 156.062 15.1821C156.766 15.1821 157.388 15.3091 157.93 15.563C158.472 15.812 158.902 16.1489 159.219 16.5737C159.542 16.9985 159.72 17.4746 159.754 18.002L159.761 18.1045H158.443L158.428 18.0093C158.379 17.6968 158.252 17.4209 158.047 17.1816C157.842 16.9375 157.569 16.7446 157.227 16.603C156.885 16.4614 156.485 16.3931 156.026 16.3979C155.586 16.3979 155.191 16.4663 154.839 16.603C154.488 16.7397 154.207 16.9375 153.997 17.1963C153.792 17.4502 153.689 17.7627 153.689 18.1338V18.1411C153.689 18.561 153.846 18.915 154.158 19.2031C154.471 19.4912 154.986 19.7134 155.704 19.8696L156.875 20.1333C157.613 20.2944 158.206 20.5044 158.655 20.7632C159.104 21.022 159.432 21.3394 159.637 21.7153C159.847 22.0864 159.952 22.5259 159.952 23.0337V23.041C159.952 23.7002 159.791 24.269 159.468 24.7476C159.146 25.2261 158.692 25.5972 158.106 25.8608C157.52 26.1196 156.834 26.249 156.048 26.249ZM162.017 26V18.1045H163.292V26H162.017ZM162.662 16.5811C162.422 16.5811 162.215 16.4956 162.039 16.3247C161.868 16.1489 161.783 15.9414 161.783 15.7021C161.783 15.458 161.868 15.2505 162.039 15.0796C162.215 14.9087 162.422 14.8232 162.662 14.8232C162.906 14.8232 163.113 14.9087 163.284 15.0796C163.455 15.2505 163.541 15.458 163.541 15.7021C163.541 15.9414 163.455 16.1489 163.284 16.3247C163.113 16.4956 162.906 16.5811 162.662 16.5811ZM165.694 26V18.1045H166.968V19.291H167.085C167.286 18.8711 167.574 18.5464 167.95 18.3169C168.326 18.0825 168.804 17.9653 169.385 17.9653C170.274 17.9653 170.955 18.2192 171.429 18.7271C171.907 19.23 172.146 19.9502 172.146 20.8877V26H170.872V21.1953C170.872 20.4824 170.721 19.9551 170.418 19.6133C170.12 19.2666 169.656 19.0933 169.026 19.0933C168.606 19.0933 168.243 19.1836 167.935 19.3643C167.627 19.5449 167.388 19.8013 167.217 20.1333C167.051 20.4653 166.968 20.8633 166.968 21.3271V26H165.694ZM177.706 28.7832C177.071 28.7832 176.517 28.6929 176.043 28.5122C175.569 28.3364 175.191 28.085 174.908 27.7578C174.629 27.4355 174.456 27.0596 174.388 26.6299L174.402 26.6226H175.721L175.728 26.6299C175.796 26.9277 176.001 27.1719 176.343 27.3623C176.685 27.5576 177.139 27.6553 177.706 27.6553C178.414 27.6553 178.965 27.4941 179.361 27.1719C179.761 26.8545 179.961 26.4053 179.961 25.8242V24.2275H179.844C179.678 24.5156 179.471 24.7622 179.222 24.9673C178.973 25.1724 178.692 25.3286 178.379 25.436C178.067 25.5386 177.73 25.5898 177.369 25.5898C176.69 25.5898 176.102 25.4287 175.604 25.1064C175.11 24.7793 174.729 24.3301 174.461 23.7588C174.192 23.1875 174.058 22.5332 174.058 21.7959V21.7812C174.058 21.0439 174.192 20.3896 174.461 19.8184C174.734 19.2422 175.12 18.7905 175.618 18.4634C176.116 18.1313 176.709 17.9653 177.398 17.9653C177.769 17.9653 178.111 18.0239 178.423 18.1411C178.736 18.2583 179.012 18.4243 179.251 18.6392C179.495 18.854 179.698 19.1104 179.859 19.4082H179.947V18.1045H181.221V25.8901C181.221 26.4761 181.077 26.9863 180.789 27.4209C180.506 27.8555 180.101 28.1899 179.573 28.4243C179.046 28.6636 178.423 28.7832 177.706 28.7832ZM177.647 24.4619C178.135 24.4619 178.553 24.3496 178.899 24.125C179.251 23.8955 179.52 23.5806 179.705 23.1802C179.896 22.7798 179.991 22.3184 179.991 21.7959V21.7812C179.991 21.2588 179.896 20.7949 179.705 20.3896C179.52 19.9844 179.251 19.667 178.899 19.4375C178.553 19.208 178.135 19.0933 177.647 19.0933C177.159 19.0933 176.744 19.208 176.402 19.4375C176.065 19.667 175.806 19.9844 175.625 20.3896C175.45 20.7949 175.362 21.2588 175.362 21.7812V21.7959C175.362 22.3184 175.45 22.7798 175.625 23.1802C175.806 23.5806 176.065 23.8955 176.402 24.125C176.744 24.3496 177.159 24.4619 177.647 24.4619ZM185.762 26.1392C185.264 26.1392 184.815 26.0439 184.415 25.8535C184.019 25.6631 183.704 25.3921 183.47 25.0405C183.24 24.689 183.125 24.2739 183.125 23.7954V23.7808C183.125 23.312 183.238 22.9116 183.462 22.5796C183.687 22.2427 184.014 21.979 184.444 21.7886C184.874 21.5981 185.394 21.4858 186.004 21.4517L188.904 21.2759V22.2939L186.158 22.4697C185.557 22.5039 185.118 22.6284 184.839 22.8433C184.566 23.0581 184.429 23.3608 184.429 23.7515V23.7661C184.429 24.1665 184.581 24.479 184.883 24.7036C185.186 24.9233 185.567 25.0332 186.026 25.0332C186.46 25.0332 186.846 24.9478 187.183 24.7769C187.52 24.6011 187.784 24.3643 187.974 24.0664C188.169 23.7686 188.267 23.4316 188.267 23.0557V20.5947C188.267 20.1064 188.118 19.7354 187.82 19.4814C187.527 19.2227 187.085 19.0933 186.495 19.0933C186.021 19.0933 185.633 19.1787 185.33 19.3496C185.027 19.5156 184.825 19.7524 184.722 20.0601L184.715 20.082H183.44L183.448 20.0381C183.516 19.623 183.687 19.2617 183.96 18.9541C184.239 18.6416 184.598 18.3999 185.037 18.229C185.477 18.0532 185.977 17.9653 186.539 17.9653C187.183 17.9653 187.728 18.0703 188.172 18.2803C188.621 18.4902 188.96 18.793 189.19 19.1885C189.424 19.5791 189.542 20.0479 189.542 20.5947V26H188.267V24.8354H188.15C187.984 25.1138 187.781 25.3506 187.542 25.5459C187.308 25.7412 187.042 25.8901 186.744 25.9927C186.446 26.0903 186.119 26.1392 185.762 26.1392ZM191.871 28.6367V18.1045H193.145V19.3643H193.262C193.423 19.0713 193.626 18.8223 193.87 18.6172C194.114 18.4072 194.393 18.2461 194.705 18.1338C195.018 18.0215 195.357 17.9653 195.723 17.9653C196.392 17.9653 196.973 18.1362 197.466 18.478C197.964 18.8149 198.35 19.2886 198.624 19.8989C198.897 20.5093 199.034 21.2246 199.034 22.0449V22.0596C199.034 22.8848 198.897 23.6025 198.624 24.2129C198.35 24.8232 197.964 25.2969 197.466 25.6338C196.973 25.9707 196.392 26.1392 195.723 26.1392C195.362 26.1392 195.02 26.083 194.698 25.9707C194.38 25.8535 194.097 25.6924 193.848 25.4873C193.604 25.2822 193.409 25.0381 193.262 24.7549H193.145V28.6367H191.871ZM195.43 25.0112C195.914 25.0112 196.326 24.894 196.668 24.6597C197.01 24.4204 197.271 24.0811 197.452 23.6416C197.637 23.1973 197.73 22.6699 197.73 22.0596V22.0449C197.73 21.4297 197.637 20.9023 197.452 20.4629C197.271 20.0234 197.01 19.6865 196.668 19.4521C196.326 19.2129 195.914 19.0933 195.43 19.0933C194.952 19.0933 194.539 19.2129 194.192 19.4521C193.846 19.6914 193.58 20.0308 193.394 20.4702C193.208 20.9097 193.116 21.4346 193.116 22.0449V22.0596C193.116 22.665 193.208 23.1899 193.394 23.6343C193.58 24.0737 193.846 24.4131 194.192 24.6523C194.539 24.8916 194.952 25.0112 195.43 25.0112ZM204.271 26.1392C203.523 26.1392 202.876 25.9756 202.33 25.6484C201.788 25.3164 201.368 24.8452 201.07 24.2349C200.777 23.6245 200.63 22.8994 200.63 22.0596V22.0449C200.63 21.2002 200.777 20.4727 201.07 19.8623C201.368 19.252 201.788 18.7832 202.33 18.4561C202.876 18.1289 203.523 17.9653 204.271 17.9653C205.022 17.9653 205.669 18.1289 206.211 18.4561C206.753 18.7832 207.171 19.252 207.464 19.8623C207.762 20.4727 207.911 21.2002 207.911 22.0449V22.0596C207.911 22.8994 207.762 23.6245 207.464 24.2349C207.171 24.8452 206.753 25.3164 206.211 25.6484C205.669 25.9756 205.022 26.1392 204.271 26.1392ZM204.271 25.0112C204.769 25.0112 205.191 24.894 205.538 24.6597C205.884 24.4253 206.148 24.0884 206.329 23.6489C206.514 23.2095 206.607 22.6797 206.607 22.0596V22.0449C206.607 21.4199 206.514 20.8877 206.329 20.4482C206.148 20.0088 205.884 19.6743 205.538 19.4448C205.191 19.2104 204.769 19.0933 204.271 19.0933C203.772 19.0933 203.35 19.2104 203.003 19.4448C202.657 19.6743 202.391 20.0088 202.205 20.4482C202.024 20.8877 201.934 21.4199 201.934 22.0449V22.0596C201.934 22.6797 202.024 23.2095 202.205 23.6489C202.391 24.0884 202.657 24.4253 203.003 24.6597C203.35 24.894 203.772 25.0112 204.271 25.0112ZM209.888 26V18.1045H211.163V19.2764H211.28C211.431 18.8613 211.688 18.5391 212.049 18.3096C212.41 18.0801 212.857 17.9653 213.389 17.9653C213.511 17.9653 213.631 17.9727 213.748 17.9873C213.87 17.9971 213.963 18.0068 214.026 18.0166V19.2544C213.895 19.23 213.765 19.2129 213.638 19.2031C213.516 19.1885 213.384 19.1812 213.243 19.1812C212.837 19.1812 212.479 19.2617 212.166 19.4229C211.854 19.584 211.607 19.8086 211.426 20.0967C211.25 20.3848 211.163 20.7217 211.163 21.1074V26H209.888ZM218.604 26.1392C217.852 26.1392 217.205 25.9731 216.663 25.6411C216.126 25.3091 215.711 24.8403 215.418 24.2349C215.13 23.6245 214.986 22.9067 214.986 22.0815V22.0742C214.986 21.2588 215.13 20.5435 215.418 19.9282C215.711 19.313 216.124 18.832 216.656 18.4854C217.188 18.1387 217.811 17.9653 218.523 17.9653C219.241 17.9653 219.856 18.1313 220.369 18.4634C220.887 18.7954 221.282 19.2593 221.556 19.855C221.834 20.4458 221.973 21.1343 221.973 21.9204V22.4185H215.645V21.4004H221.321L220.691 22.3306V21.8252C220.691 21.2051 220.599 20.6948 220.413 20.2944C220.228 19.894 219.971 19.5962 219.644 19.4009C219.317 19.2007 218.941 19.1006 218.516 19.1006C218.091 19.1006 217.71 19.2056 217.374 19.4155C217.042 19.6206 216.778 19.9258 216.583 20.3311C216.387 20.7363 216.29 21.2344 216.29 21.8252V22.3306C216.29 22.8921 216.385 23.373 216.575 23.7734C216.766 24.1689 217.037 24.4741 217.388 24.689C217.74 24.8989 218.155 25.0039 218.633 25.0039C218.99 25.0039 219.3 24.9551 219.563 24.8574C219.827 24.7598 220.044 24.6353 220.215 24.4839C220.386 24.3325 220.506 24.1787 220.574 24.0225L220.604 23.9565H221.878L221.863 24.0151C221.795 24.2837 221.673 24.5449 221.497 24.7988C221.326 25.0479 221.104 25.2749 220.831 25.48C220.557 25.6802 220.232 25.8413 219.856 25.9634C219.485 26.0806 219.068 26.1392 218.604 26.1392Z" fill="white"/>
<defs>
<linearGradient id="paint0_linear_732_918" x1="101.95" y1="-20.6044" x2="101.95" y2="62.6756" gradientUnits="userSpaceOnUse">
<stop offset="0.4" stop-opacity="0"/>
<stop offset="1" stop-opacity="0.7"/>
</linearGradient>
</defs>
</svg>
