<svg xmlns="http://www.w3.org/2000/svg" width="36" height="36" viewBox="0 0 36 36" fill="none">
  <path d="M30.375 6.75V29.25C30.375 29.8467 30.1379 30.419 29.716 30.841C29.294 31.2629 28.7217 31.5 28.125 31.5H22.5C21.9033 31.5 21.331 31.2629 20.909 30.841C20.4871 30.419 20.25 29.8467 20.25 29.25V6.75C20.25 6.15326 20.4871 5.58097 20.909 5.15901C21.331 4.73705 21.9033 4.5 22.5 4.5H28.125C28.7217 4.5 29.294 4.73705 29.716 5.15901C30.1379 5.58097 30.375 6.15326 30.375 6.75ZM13.5 4.5H7.875C7.27826 4.5 6.70597 4.73705 6.28401 5.15901C5.86205 5.58097 5.625 6.15326 5.625 6.75V29.25C5.625 29.8467 5.86205 30.419 6.28401 30.841C6.70597 31.2629 7.27826 31.5 7.875 31.5H13.5C14.0967 31.5 14.669 31.2629 15.091 30.841C15.5129 30.419 15.75 29.8467 15.75 29.25V6.75C15.75 6.15326 15.5129 5.58097 15.091 5.15901C14.669 4.73705 14.0967 4.5 13.5 4.5Z" fill="white"/>
</svg>