<svg xmlns="http://www.w3.org/2000/svg" width="36" height="36" viewBox="0 0 36 36" fill="none">
  <path d="M30.375 18C30.3759 18.3819 30.278 18.7577 30.0907 19.0906C29.9034 19.4235 29.6332 19.7023 29.3062 19.8998L9.045 32.2945C8.7034 32.5037 8.31216 32.6179 7.91167 32.6253C7.51119 32.6327 7.11598 32.5331 6.76688 32.3367C6.42109 32.1434 6.13304 31.8614 5.93236 31.5198C5.73167 31.1783 5.62558 30.7894 5.625 30.3933V5.60669C5.62558 5.21053 5.73167 4.82167 5.93236 4.4801C6.13304 4.13853 6.42109 3.85659 6.76688 3.66325C7.11598 3.46687 7.51119 3.36724 7.91167 3.37465C8.31216 3.38207 8.7034 3.49626 9.045 3.70544L29.3062 16.1001C29.6332 16.2977 29.9034 16.5764 30.0907 16.9094C30.278 17.2423 30.3759 17.618 30.375 18Z" fill="white"/>
</svg>