<svg width="32" height="32" viewBox="0 0 32 32" fill="none" xmlns="http://www.w3.org/2000/svg">
<g id="Frame 427324266">
<path id="Vector" d="M27.4284 15.9998C27.4293 16.3526 27.3388 16.6996 27.1659 17.007C26.9929 17.3145 26.7433 17.5719 26.4414 17.7544L7.72973 29.2011C7.41426 29.3943 7.05293 29.4997 6.68308 29.5066C6.31322 29.5134 5.94824 29.4214 5.62583 29.2401C5.3065 29.0615 5.04048 28.8011 4.85514 28.4857C4.6698 28.1702 4.57182 27.8111 4.57129 27.4453V4.55436C4.57182 4.1885 4.6698 3.82938 4.85514 3.51394C5.04048 3.19849 5.3065 2.93811 5.62583 2.75956C5.94824 2.57819 6.31322 2.48618 6.68308 2.49303C7.05293 2.49988 7.41426 2.60534 7.72973 2.79852L26.4414 14.2453C26.7433 14.4277 26.9929 14.6852 27.1659 14.9926C27.3388 15.3001 27.4293 15.6471 27.4284 15.9998Z" fill="white"/>
</g>
</svg>
