<svg width="25" height="24" viewBox="0 0 25 24" fill="none" xmlns="http://www.w3.org/2000/svg">
<g id="Frame">
<path id="Vector" d="M17.416 2.625H6.91602C6.41873 2.625 5.94182 2.82254 5.59019 3.17417C5.23856 3.52581 5.04102 4.00272 5.04102 4.5V21C5.04095 21.2008 5.09465 21.3981 5.19655 21.5711C5.29845 21.7442 5.44483 21.8869 5.62049 21.9843C5.79614 22.0817 5.99467 22.1302 6.19545 22.125C6.39623 22.1197 6.59195 22.0608 6.76227 21.9544L12.1651 18.5794L17.5698 21.9544C17.7401 22.0608 17.9358 22.1197 18.1366 22.125C18.3374 22.1302 18.5359 22.0817 18.7115 21.9843C18.8872 21.8869 19.0336 21.7442 19.1355 21.5711C19.2374 21.3981 19.2911 21.2008 19.291 21V4.5C19.291 4.00272 19.0935 3.52581 18.7418 3.17417C18.3902 2.82254 17.9133 2.625 17.416 2.625ZM17.041 18.9703L12.7613 16.2956C12.5825 16.1839 12.3759 16.1246 12.1651 16.1246C11.9542 16.1246 11.7476 16.1839 11.5688 16.2956L7.29102 18.9703V4.875H17.041V18.9703Z" fill="#8E8E93"/>
</g>
</svg>
