<svg width="24" height="24" viewBox="0 0 24 24" fill="none" xmlns="http://www.w3.org/2000/svg">
<g id="Frame">
<path id="Vector" d="M11.9999 7.12507C11.0357 7.12507 10.0932 7.41099 9.29147 7.94666C8.48978 8.48233 7.86494 9.2437 7.49597 10.1345C7.12699 11.0253 7.03045 12.0055 7.21855 12.9511C7.40665 13.8968 7.87095 14.7654 8.55273 15.4472C9.23451 16.129 10.1032 16.5933 11.0488 16.7814C11.9945 16.9695 12.9747 16.873 13.8655 16.504C14.7563 16.135 15.5176 15.5102 16.0533 14.7085C16.589 13.9068 16.8749 12.9643 16.8749 12.0001C16.8734 10.7076 16.3593 9.46849 15.4454 8.55457C14.5315 7.64065 13.2924 7.12656 11.9999 7.12507ZM11.9999 14.6251C11.4807 14.6251 10.9732 14.4711 10.5415 14.1827C10.1098 13.8942 9.77338 13.4843 9.57469 13.0046C9.37601 12.525 9.32403 11.9972 9.42532 11.488C9.5266 10.9788 9.77661 10.511 10.1437 10.1439C10.5108 9.77681 10.9786 9.5268 11.4878 9.42551C11.997 9.32423 12.5248 9.37621 13.0044 9.57489C13.4841 9.77357 13.894 10.11 14.1825 10.5417C14.4709 10.9734 14.6249 11.4809 14.6249 12.0001C14.6249 12.6963 14.3483 13.3639 13.856 13.8562C13.3638 14.3485 12.6961 14.6251 11.9999 14.6251ZM20.6249 12.0741V11.926L21.9374 10.2844C22.0476 10.1469 22.1239 9.9854 22.1602 9.81295C22.1965 9.6405 22.1918 9.46193 22.1464 9.29164C21.9096 8.3983 21.5556 7.54022 21.0936 6.73976C21.0046 6.58712 20.8809 6.45758 20.7326 6.36165C20.5842 6.26571 20.4153 6.20608 20.2396 6.18757L18.1508 5.9532L18.0468 5.84914L17.8124 3.75945C17.7937 3.58389 17.734 3.41519 17.6381 3.26698C17.5422 3.11878 17.4127 2.99523 17.2602 2.90632C16.4597 2.44291 15.6013 2.08763 14.7074 1.84976C14.5369 1.80508 14.3584 1.80106 14.1861 1.83802C14.0138 1.87499 13.8526 1.9519 13.7155 2.06257L12.0739 3.37507H11.9258L10.2843 2.06257C10.1467 1.9524 9.9852 1.87608 9.81275 1.83977C9.64031 1.80345 9.46174 1.80816 9.29144 1.85351C8.39787 2.09183 7.53979 2.44742 6.73957 2.91101C6.58752 2.99955 6.45835 3.12251 6.36245 3.27002C6.26655 3.41754 6.20659 3.58549 6.18738 3.76039L5.953 5.84914L5.84894 5.9532L3.75925 6.18757C3.5837 6.20622 3.415 6.26592 3.26679 6.36185C3.11858 6.45778 2.99503 6.58724 2.90613 6.73976C2.44401 7.54048 2.09 8.39888 1.85332 9.29257C1.80812 9.46273 1.80349 9.64112 1.8398 9.81339C1.87611 9.98566 1.95235 10.147 2.06238 10.2844L3.37488 11.926V12.0741L2.06238 13.7157C1.9522 13.8532 1.87589 14.0148 1.83957 14.1872C1.80326 14.3596 1.80797 14.5382 1.85332 14.7085C2.09194 15.6021 2.44784 16.4602 2.91175 17.2604C3.0002 17.4123 3.12301 17.5414 3.27036 17.6373C3.4177 17.7332 3.58546 17.7932 3.76019 17.8126L5.84894 18.0451L5.953 18.1491L6.18738 20.2407C6.20602 20.4163 6.26573 20.585 6.36165 20.7332C6.45758 20.8814 6.58704 21.0049 6.73957 21.0938C7.54009 21.5572 8.3985 21.9125 9.29238 22.1504C9.46282 22.1951 9.64138 22.1991 9.81367 22.1621C9.98595 22.1252 10.1471 22.0482 10.2843 21.9376L11.9258 20.6251H12.0739L13.7155 21.9376C13.8531 22.0477 14.0146 22.1241 14.187 22.1604C14.3595 22.1967 14.538 22.192 14.7083 22.1466C15.6017 21.9098 16.4597 21.5558 17.2602 21.0938C17.4126 21.0055 17.5421 20.8826 17.6384 20.7351C17.7346 20.5876 17.7948 20.4195 17.8143 20.2444L18.0468 18.1557L18.1508 18.0516L20.2405 17.8126C20.4156 17.7932 20.5836 17.7329 20.7312 17.6367C20.8787 17.5404 21.0016 17.4109 21.0899 17.2585C21.5533 16.458 21.9086 15.5996 22.1464 14.7057C22.1913 14.5358 22.1958 14.3578 22.1595 14.1859C22.1232 14.014 22.0471 13.8529 21.9374 13.7157L20.6249 12.0741ZM18.3636 11.6157C18.3786 11.8717 18.3786 12.1284 18.3636 12.3844C18.3469 12.6628 18.4341 12.9374 18.6083 13.1551L19.8121 14.6598C19.6984 14.9961 19.5628 15.3246 19.4061 15.6432L17.4908 15.856C17.2135 15.8877 16.9579 16.0214 16.7736 16.231C16.6033 16.4229 16.4218 16.6045 16.2299 16.7748C16.0202 16.959 15.8866 17.2146 15.8549 17.4919L15.643 19.4063C15.3245 19.5637 14.996 19.6999 14.6596 19.8141L13.1549 18.6094C12.9552 18.4501 12.7072 18.3635 12.4518 18.3638C12.4293 18.3638 12.4068 18.3638 12.3843 18.3638C12.1282 18.3788 11.8715 18.3788 11.6155 18.3638C11.3374 18.3473 11.0629 18.4341 10.8449 18.6076L9.34019 19.8123C9.00384 19.6986 8.67532 19.563 8.35675 19.4063L8.14394 17.491C8.11224 17.2137 7.97858 16.9581 7.76894 16.7738C7.57707 16.6035 7.3955 16.4219 7.22519 16.2301C7.04092 16.0204 6.78531 15.8868 6.508 15.8551L4.59363 15.6432C4.43629 15.3247 4.30006 14.9962 4.18582 14.6598L5.38957 13.1551C5.56381 12.9374 5.65101 12.6628 5.63425 12.3844C5.61925 12.1284 5.61925 11.8717 5.63425 11.6157C5.65101 11.3374 5.56381 11.0627 5.38957 10.8451L4.18769 9.34039C4.30132 9.00404 4.43693 8.67552 4.59363 8.35695L6.50894 8.14414C6.78624 8.11243 7.04186 7.97877 7.22613 7.76914C7.39644 7.57726 7.57801 7.39569 7.76988 7.22539C7.97952 7.04112 8.11317 6.7855 8.14488 6.5082L8.35675 4.59382C8.67528 4.43648 9.0038 4.30025 9.34019 4.18601L10.8449 5.3907C11.0629 5.56413 11.3374 5.65093 11.6155 5.63445C11.8715 5.61945 12.1282 5.61945 12.3843 5.63445C12.6625 5.65147 12.9371 5.5646 13.1549 5.3907L14.6596 4.18601C14.996 4.30025 15.3245 4.43648 15.643 4.59382L15.8558 6.50914C15.8875 6.78644 16.0212 7.04206 16.2308 7.22632C16.4227 7.39663 16.6043 7.5782 16.7746 7.77007C16.9588 7.97971 17.2144 8.11337 17.4918 8.14507L19.4061 8.35695C19.5635 8.67547 19.6997 9.00399 19.8139 9.34039L18.6102 10.8451C18.4353 11.0625 18.3474 11.3371 18.3636 11.6157Z" fill="black"/>
</g>
</svg>
