<svg width="19" height="18" viewBox="0 0 19 18" fill="none" xmlns="http://www.w3.org/2000/svg">
<g id="User / Users">
<path id="Vector" d="M13.25 12.1709C14.9978 12.5827 16.25 13.694 16.25 15.0002" stroke="#1C1C1E" stroke-width="1.5" stroke-linecap="round" stroke-linejoin="round"/>
<path id="Vector_2" d="M2.75 15C2.75 13.3431 4.76472 12 7.25 12C9.73528 12 11.75 13.3431 11.75 15" stroke="#1C1C1E" stroke-width="1.5" stroke-linecap="round" stroke-linejoin="round"/>
<path id="Vector_3" d="M11.75 9.75C13.4069 9.75 14.75 8.40685 14.75 6.75C14.75 5.09315 13.4069 3.75 11.75 3.75" stroke="#1C1C1E" stroke-width="1.5" stroke-linecap="round" stroke-linejoin="round"/>
<path id="Vector_4" d="M7.25 9.75C8.90685 9.75 10.25 8.40685 10.25 6.75C10.25 5.09315 8.90685 3.75 7.25 3.75C5.59315 3.75 4.25 5.09315 4.25 6.75C4.25 8.40685 5.59315 9.75 7.25 9.75Z" stroke="#1C1C1E" stroke-width="1.5" stroke-linecap="round" stroke-linejoin="round"/>
</g>
</svg>
