<svg xmlns="http://www.w3.org/2000/svg" width="25" height="25" viewBox="0 0 25 25" fill="none">
  <g clip-path="url(#clip0_165_400)">
    <path d="M23.7189 6.99781C23.5338 6.90367 23.3263 6.8626 23.1193 6.87915C22.9123 6.8957 22.7139 6.96921 22.5461 7.09156L20.208 8.79031V7.25C20.208 6.75272 20.0105 6.27581 19.6588 5.92417C19.3072 5.57254 18.8303 5.375 18.333 5.375H3.33301C2.83573 5.375 2.35881 5.57254 2.00718 5.92417C1.65555 6.27581 1.45801 6.75272 1.45801 7.25V17.75C1.45801 18.2473 1.65555 18.7242 2.00718 19.0758C2.35881 19.4275 2.83573 19.625 3.33301 19.625H18.333C18.8303 19.625 19.3072 19.4275 19.6588 19.0758C20.0105 18.7242 20.208 18.2473 20.208 17.75V16.2097L22.5461 17.9103C22.714 18.0324 22.9124 18.1058 23.1193 18.1221C23.3263 18.1385 23.5337 18.0973 23.7187 18.003C23.9037 17.9088 24.0589 17.7652 24.1674 17.5882C24.2758 17.4112 24.3331 17.2076 24.333 17V8C24.333 7.79258 24.2756 7.5892 24.1673 7.41234C24.0589 7.23548 23.9037 7.09202 23.7189 6.99781ZM17.958 17.375H3.70801V7.625H17.958V17.375ZM22.083 14.7903L20.208 13.4272V11.5728L22.083 10.2097V14.7903Z" fill="#8E8E93"/>
  </g>
  <defs>
    <clipPath id="clip0_165_400">
      <rect width="24" height="24" fill="white" transform="translate(0.333008 0.5)"/>
    </clipPath>
  </defs>
</svg>