<svg xmlns="http://www.w3.org/2000/svg" width="12" height="12" viewBox="0 0 12 12" fill="none">
  <g clip-path="url(#clip0_207_1566)">
    <path d="M6 0.9375C4.99873 0.9375 4.01995 1.23441 3.18743 1.79069C2.3549 2.34696 1.70603 3.13761 1.32286 4.06267C0.939694 4.98772 0.839439 6.00562 1.03478 6.98764C1.23011 7.96967 1.71227 8.87173 2.42027 9.57973C3.12828 10.2877 4.03033 10.7699 5.01236 10.9652C5.99439 11.1606 7.01229 11.0603 7.93734 10.6771C8.86239 10.294 9.65304 9.6451 10.2093 8.81257C10.7656 7.98005 11.0625 7.00127 11.0625 6C11.061 4.6578 10.5272 3.371 9.57809 2.42192C8.62901 1.47284 7.3422 0.938989 6 0.9375ZM6 9.9375C5.22124 9.9375 4.45996 9.70657 3.81244 9.27391C3.16493 8.84125 2.66025 8.2263 2.36223 7.50682C2.06421 6.78733 1.98623 5.99563 2.13816 5.23183C2.29009 4.46803 2.6651 3.76644 3.21577 3.21577C3.76644 2.6651 4.46803 2.29009 5.23183 2.13816C5.99563 1.98623 6.78733 2.0642 7.50682 2.36222C8.2263 2.66024 8.84126 3.16492 9.27391 3.81244C9.70657 4.45996 9.9375 5.22124 9.9375 6C9.93639 7.04395 9.52118 8.04482 8.783 8.783C8.04482 9.52118 7.04395 9.93638 6 9.9375ZM5.4375 6.1875V3.75C5.4375 3.60082 5.49677 3.45774 5.60225 3.35225C5.70774 3.24676 5.85082 3.1875 6 3.1875C6.14919 3.1875 6.29226 3.24676 6.39775 3.35225C6.50324 3.45774 6.5625 3.60082 6.5625 3.75V6.1875C6.5625 6.33668 6.50324 6.47976 6.39775 6.58525C6.29226 6.69074 6.14919 6.75 6 6.75C5.85082 6.75 5.70774 6.69074 5.60225 6.58525C5.49677 6.47976 5.4375 6.33668 5.4375 6.1875ZM6.75 8.0625C6.75 8.21084 6.70602 8.35584 6.6236 8.47918C6.54119 8.60251 6.42406 8.69864 6.28701 8.75541C6.14997 8.81218 5.99917 8.82703 5.85368 8.79809C5.7082 8.76915 5.57456 8.69772 5.46967 8.59283C5.36478 8.48794 5.29335 8.3543 5.26441 8.20882C5.23547 8.06333 5.25033 7.91253 5.30709 7.77549C5.36386 7.63844 5.45999 7.52131 5.58332 7.4389C5.70666 7.35649 5.85167 7.3125 6 7.3125C6.19891 7.3125 6.38968 7.39152 6.53033 7.53217C6.67098 7.67282 6.75 7.86359 6.75 8.0625Z" fill="#FF7700"/>
  </g>
  <defs>
    <clipPath id="clip0_207_1566">
      <rect width="12" height="12" fill="white"/>
    </clipPath>
  </defs>
</svg>